<svg width="69" height="50" viewBox="0 0 69 50" fill="none" xmlns="http://www.w3.org/2000/svg">
<path d="M21.9833 1.89422V35.5173H17.2375V27.495H4.8268C5.32323 31.2381 7.11037 34.2166 9.54286 36.8278C14.2738 41.9013 20.3749 44.4033 27.0072 45.6096C30.1545 46.1855 33.426 46.1061 36.6428 46.2302C37.0996 46.2302 37.9782 45.5749 37.9832 45.2075C38.0726 40.2035 38.0477 35.1946 38.0477 30.0119C36.4393 30.0119 35.0096 29.9771 33.5799 30.0367C33.1959 30.0956 32.8446 30.287 32.587 30.5778C32.2148 30.9437 31.915 31.3765 31.7034 31.8536C30.1595 35.6563 27.2355 36.3562 23.3684 35.4081L26.7044 30.1161L23.5272 29.9126V1.07015C27.0668 0.752438 30.5418 0.221261 34.0267 0.166653C42.5106 0.0475108 50.518 1.9389 57.7311 6.56561C63.0131 9.95621 67.0193 14.4191 68.3596 20.7188C70.0524 28.8105 66.9001 35.3088 60.9728 40.5759C58.8183 42.497 56.2815 43.9963 53.6356 45.8976C53.5115 43.8523 53.4221 42.3382 53.3327 40.8241L52.9604 40.7397C52.0302 42.297 51.1834 43.9028 50.4237 45.5501C49.6443 47.4812 48.3188 48.3201 46.348 48.3996C45.6667 48.4757 44.9904 48.5918 44.3226 48.7471V13.178H48.294V37.2002L48.7507 37.3888C49.3398 36.3959 49.9289 35.4031 50.518 34.4102C50.7563 34.0181 51.0144 33.6209 51.2229 33.2238C53.2732 29.6942 53.2732 29.6942 57.6417 30.2998V38.4809C58.4311 37.8058 58.9176 37.4633 59.3246 37.0463C67.2327 28.8751 66.076 17.4969 56.5099 10.4228C49.5202 5.25007 41.5476 3.2594 32.9345 3.6069C31.4006 3.66647 29.8716 3.84518 28.3078 3.97425V26.0603C29.3007 25.405 30.1893 25.1171 30.6212 24.5065C32.7161 21.5279 34.8656 18.594 36.6528 15.4467C37.9336 13.1929 39.537 12.5773 42.0142 13.2227C42.0142 13.7191 42.0837 14.2851 42.0837 14.846C42.0837 25.7029 42.0539 36.5548 42.1234 47.4117C42.1234 48.9307 41.6518 49.3031 40.2072 49.4719C32.0361 50.5179 23.7343 49.3165 16.195 45.9969C12.1393 44.2632 8.50922 41.6682 5.55655 38.3916C-1.94447 29.9523 -1.85512 19.5273 5.84944 11.2717C9.90184 6.96571 15.0289 3.81783 20.7026 2.15236C21.1244 2.04269 21.552 1.95651 21.9833 1.89422ZM17.1035 7.71235C10.6747 10.0207 4.26087 18.1721 4.86651 23.0023H17.1035V7.71235ZM35.2181 25.4845H37.9286V21.3939L35.2181 25.4845Z" fill="#414141"/>
</svg>
