<svg width="109" height="58" viewBox="0 0 109 58" fill="none" xmlns="http://www.w3.org/2000/svg">
<path d="M35.7242 12.5297L35.1091 13.6904L35.4863 16.6908C35.7579 17.0143 35.9934 17.3665 36.1885 17.7412C36.4671 18.3505 37.059 18.9599 36.409 19.7202C36.3396 19.8318 36.2966 19.9578 36.2836 20.0886C36.2705 20.2194 36.2876 20.3515 36.3336 20.4746C36.9662 21.7978 36.4439 23.1906 36.6934 24.537L32.4221 28.437C36.8211 30.5842 40.1291 33.6601 41.7076 38.3377C41.7076 37.177 42.1196 35.9583 41.1795 34.9426L41.4638 34.6351C40.6688 33.6311 39.4907 32.9927 38.9219 31.4954C38.7969 30.7147 38.9687 29.9155 39.4036 29.2553C39.5471 28.9034 39.62 28.5268 39.6184 28.1468C39.2533 27.9552 38.9023 27.738 38.5679 27.4968C38.2259 27.2562 37.9574 26.9253 37.7924 26.541C37.6275 26.1568 37.5725 25.7342 37.6336 25.3205C37.8019 24.4326 38.5447 23.9393 39.688 23.8232C39.7924 23.8232 39.9027 23.8232 40.1465 23.8232L42.0848 26.3825C43.1527 25.9473 44.6093 25.8718 44.9459 24.0612L41.7424 21.8965H39.0148L37.9295 20.8054V19.2733C38.3764 17.8108 39.4326 17.5903 40.6746 17.7412L42.108 19.1514V20.9563L46.5187 22.9701C46.6812 24.1308 46.2807 25.0129 46.037 25.9357C45.7501 26.6926 45.5988 27.4941 45.5901 28.3035C45.6656 29.2495 45.5901 30.2012 45.5901 31.0137C46.4084 32.54 47.1745 33.9154 47.1803 35.5926C47.6852 36.231 47.3544 37.1364 48.0392 37.8096C48.6083 38.4257 48.9626 39.2096 49.049 40.0439C49.1302 40.8041 49.7628 41.2684 49.7512 42.0055C49.7154 42.7156 49.8037 43.4266 50.0123 44.1063C50.1748 44.6112 49.8731 45.267 49.8034 45.7081C48.6427 46.6018 47.6213 46.1549 46.6579 45.8009C46.3 45.6926 45.9202 45.6786 45.5553 45.7603C44.1276 45.8532 42.9495 46.7179 41.4929 46.921C40.9103 48.7498 40.0256 50.4682 38.8755 52.0048C38.1073 53.0109 37.2207 53.9209 36.2349 54.715C35.3097 55.4668 34.2842 56.086 33.1881 56.5547C31.2556 57.3556 29.3288 58.1275 27.1525 57.9824C26.5592 57.9447 25.9641 57.9447 25.3708 57.9824C23.9027 58.0294 22.4467 57.7018 21.1401 57.0306C19.9388 56.4503 18.6678 56.0034 17.658 55.1271C16.9906 54.5467 16.3755 53.9142 15.6733 53.386C13.7755 51.9352 13.0675 49.7241 11.9648 47.7567C11.7211 47.3098 12.1215 46.683 11.5528 46.3348L11.1408 42.8063C10.3921 41.4541 9.67828 39.864 8.55241 38.5466C7.50198 38.7439 7.64127 39.6667 7.46716 40.2412C7.34497 40.9681 7.32738 41.7088 7.41493 42.4407C7.88371 43.0341 8.30296 43.6649 8.66848 44.3268C9.06312 45.209 9.97426 45.2322 10.5778 45.9808C11.4774 47.0835 10.5778 48.8826 10.5778 50.3799L8.76714 51.7553H7.26985L5.76094 50.7223V49.0799C6.21361 47.3388 7.64127 47.5362 9.06892 47.5304L7.65868 46.2536C7.30503 46.2715 6.95485 46.1765 6.65863 45.9825C6.36241 45.7885 6.13545 45.5055 6.01049 45.1741C5.83639 44.7157 5.3489 44.3849 5.07614 43.9554C4.13449 42.574 3.55753 40.9769 3.39894 39.3127C3.35251 38.6859 3.0043 37.9895 3.16099 37.3627C3.54983 35.79 3.46858 34.1418 4.03732 32.5922C4.31618 31.8896 4.31618 31.107 4.03732 30.4043C3.59625 29.6093 3.91544 29.0521 4.15919 28.3673C3.68331 28.228 3.54402 28.5937 3.47438 28.8026C3.04492 30.0213 2.65609 31.2516 2.27306 32.482C2.21474 32.7316 2.17976 32.9861 2.1686 33.2422C2.01771 34.3565 1.87262 35.4708 1.71593 36.6489C0.833805 36.4051 0.549436 35.6913 0.207031 35.0065L1.03112 33.2654L1.19362 33.3119C1.19362 32.9985 1.19362 32.6793 1.19362 32.3717C0.961481 29.9459 1.94807 27.758 2.52842 25.5352C2.66068 25.0289 2.95425 24.5795 3.36472 24.2549C3.77519 23.9303 4.28021 23.7482 4.80337 23.7362C5.33718 23.6164 5.85114 23.4209 6.32968 23.1558C5.80737 22.059 6.14397 21.0259 6.0221 20.1496L7.23502 19.3023H8.39572C9.3707 19.7956 9.42873 20.9157 9.8756 21.85L9.14436 23.2545C9.74901 23.5605 10.3689 23.8356 11.0015 24.0786C11.47 24.1997 11.9055 24.4242 12.276 24.7355C12.6466 25.0468 12.9428 25.437 13.143 25.8776C13.6014 26.9223 14.176 27.9147 14.7157 28.9187C14.8753 29.1767 15.0476 29.4265 15.2322 29.6673C15.3648 29.0263 15.4058 28.3698 15.3541 27.7173C15.3541 27.079 15.3541 26.4464 15.3541 25.8892L14.3385 25.2625C14.9478 23.6027 14.6635 21.9139 14.7041 20.2483C14.7041 19.3139 14.6286 18.3738 15.3715 17.7818L14.4139 15.9247C15.1974 15.1006 14.4139 14.2881 14.3791 13.4698C14.3443 12.6515 14.6112 11.7926 13.909 11.0556C14.3097 10.6404 14.6174 10.1446 14.8115 9.60127C15.0056 9.0579 15.0818 8.47941 15.0349 7.90432C15.7487 7.44004 15.1161 6.62755 15.5398 6.01239C15.8532 5.56552 15.7487 4.85169 16.0273 4.30037C16.3058 3.74904 16.5786 3.13967 16.8281 2.55933C16.9384 2.28656 16.9558 1.97898 17.0661 1.69461C17.3563 0.980785 17.4549 0.13348 18.4299 0H20.4205C20.7849 0.289762 21.102 0.634336 21.3607 1.02141C21.5928 1.5031 22.1673 1.96157 21.6102 2.6754C21.3374 3.0236 21.3955 3.62716 21.2446 4.41643C21.4825 5.60614 22.649 6.60434 23.3919 7.82307C23.7227 8.89671 23.0727 9.70919 22.6606 10.5565C22.2791 11.2459 21.8606 11.9143 21.4071 12.5587L21.8017 12.9998C21.1691 13.9457 20.6758 14.9439 20.8674 16.1278C20.9254 16.4702 21.1285 16.7836 21.1633 17.126C21.1328 17.3962 21.0562 17.6593 20.937 17.9037C21.3665 18.5858 21.6839 19.3323 21.8772 20.1148C21.9758 20.8054 22.5097 21.4496 22.887 22.088C23.1713 22.5639 23.5253 22.9991 23.8619 23.4692C23.6542 23.7624 23.5317 24.1074 23.5081 24.4659C23.4846 24.8245 23.5608 25.1826 23.7285 25.5004C23.991 26.2014 24.1645 26.9325 24.245 27.6767C24.9008 27.6129 25.7133 27.7347 26.311 27.433C27.1873 26.9919 27.7851 27.7347 28.5511 27.6651C29.2845 27.6739 30.0146 27.7654 30.7274 27.9379C31.6038 26.8468 32.3002 25.5526 33.4202 24.6067C33.6356 24.4602 33.8674 24.3394 34.1109 24.2469C33.8033 23.0514 32.7877 22.413 31.9868 21.5134C31.3719 21.6482 30.729 21.5516 30.1808 21.2422C29.6327 20.9328 29.2178 20.4323 29.0154 19.8362C29.9179 17.8511 30.6631 15.7981 31.2439 13.6962C31.0873 13.5975 31.006 13.5163 30.9132 13.5047C30.7296 13.4933 30.5454 13.4933 30.3618 13.5047L27.9824 16.5515L27.2918 15.9073C27.4775 14.9439 27.0364 13.9051 27.5936 12.8779C27.6951 12.6604 27.7348 12.4191 27.7082 12.1806C27.6815 11.942 27.5897 11.7154 27.4427 11.5257C27.3315 11.354 27.2861 11.1478 27.315 10.9453C27.5529 9.30295 26.5954 8.10744 25.69 6.96996C25.0168 6.12265 24.2334 5.37401 23.7749 4.16108V1.25935L25.0168 0.835699C26.607 1.86291 26.903 3.36601 26.9842 4.93875C26.9842 5.42043 26.9842 5.90792 26.9842 6.38961C27.022 7.90355 27.5911 9.35596 28.5918 10.4927C28.8703 11.5431 27.8547 12.6109 28.4119 13.8122C29.1953 13.1971 29.2243 12.2453 29.5726 11.4444C29.6828 11.1659 29.6538 10.8293 29.7815 10.5623C29.8745 10.4078 29.9171 10.2281 29.9036 10.0483C29.8901 9.86843 29.8211 9.69722 29.706 9.5583C29.4458 9.11511 29.2226 8.6512 29.0386 8.17128C29.2185 6.8771 30.7158 6.72041 31.36 5.72221L31.8301 6.22711L31.5457 6.55791L33.4202 8.00878C34.2095 6.96415 35.0278 5.80346 35.9215 4.72982C36.813 3.65621 37.9333 2.79563 39.2005 2.21112C39.6129 2.02062 40.0398 1.86342 40.4773 1.74104L40.5991 1.26515H42.0384C42.2879 1.5147 42.2009 2.04282 41.7946 2.65218C41.302 2.84744 40.7957 3.00649 40.2799 3.12807C39.8067 3.1657 39.3313 3.1657 38.8581 3.12807C37.6065 4.07753 36.5833 5.29506 35.8635 6.69139C35.2077 7.85208 35.3702 9.11144 35.376 10.3592C36.0666 11.0788 35.4457 11.9435 35.7242 12.5297ZM18.633 44.6867C18.8245 45.0697 19.2482 45.4411 18.662 45.8474L19.5964 47.2228C19.672 47.858 19.6583 48.5007 19.5558 49.1321C19.3594 49.707 19.267 50.3123 19.283 50.9196C19.283 50.9892 19.4281 51.0473 19.5268 51.1285L19.9156 50.9834V50.287C21.2316 49.1554 22.2315 47.7017 22.8173 46.0679C22.0048 45.9576 21.2852 45.8241 20.966 45.0059C20.908 44.8608 20.641 44.8027 20.4669 44.7099C19.9794 44.4487 19.9794 44.4487 18.3893 44.7853H18.4415L18.2848 43.7929C17.7045 43.7929 17.0951 43.8277 16.9906 42.9978L17.5072 42.522C17.6174 42.609 17.7277 42.7599 17.867 42.7889C18.1138 42.8167 18.363 42.8167 18.6098 42.7889C18.5402 42.1796 18.6098 41.6282 19.3469 41.5122C19.5384 40.9318 20.1303 40.839 20.5075 40.3515L20.5192 38.918H19.7357L19.4339 38.3029L19.0161 38.3319C18.8013 38.8078 19.2482 39.6086 18.3893 39.8582L17.3156 38.2738C17.7045 37.6935 18.2558 37.3337 18.4763 36.6489L17.7219 37.0319C17.2228 37.1828 16.4799 36.7011 15.9808 37.2814L14.3152 36.2194L13.259 38.5756L14.2166 39.1269L15.4179 42.609L16.7759 43.9612C17.0983 44.0454 17.4144 44.152 17.7219 44.2804C17.9995 44.4681 18.3079 44.6056 18.633 44.6867ZM33.8671 34.165C33.635 34.4145 33.4144 34.7976 33.2868 34.7743C32.306 34.5944 32.1261 35.4127 31.8591 35.935C31.5922 36.4573 31.4529 37.0493 30.9074 37.4091L29.2592 36.3413L28.644 37.856L27.019 36.3587L25.3592 37.9953C25.3592 38.7033 25.3592 38.7033 25.8641 39.243C26.1311 38.9238 25.7307 38.3377 26.311 38.1462L26.5315 38.0707L26.9552 39.0341C26.5257 39.806 25.574 39.6551 25.0226 40.1077C24.4925 40.6352 24.0215 41.219 23.6182 41.8488L23.9664 42.226L25.2258 41.2046C26.2886 41.1177 27.3498 41.3917 28.2378 41.9822L27.4833 42.8005C26.99 42.8005 26.5373 42.934 26.2414 42.8005C24.8253 42.0519 23.92 42.7019 22.9914 43.7175C23.0971 43.8507 23.1885 43.9947 23.2642 44.1469C23.328 44.3326 23.328 44.5416 23.3919 44.7273C23.6066 45.3076 23.9722 45.5049 24.6048 45.3076C24.8091 45.2085 25.0035 45.0899 25.1851 44.9536C25.4215 45.4772 25.5705 46.0359 25.6262 46.6076C25.545 47.6522 26.0731 48.4183 26.578 49.3933L28.319 47.7915V46.184C28.319 46.184 29.3868 45.0233 29.9266 44.3385V42.7019C30.6172 42.8992 30.9015 43.526 31.331 43.8626L31.5689 45.0233L32.6832 43.7001C32.9734 43.9496 33.4957 44.4255 33.4957 44.4255H34.1689L35.5095 43.2126L35.1613 41.6224L35.6256 41.5528L35.997 42.3653V41.2916L37.1229 40.3979L36.8559 39.5216L37.4711 38.6801L38.0514 38.9877L38.6318 38.4479L40.2567 38.6917L38.9567 36.5096C37.9818 36.3239 37.0764 36.1614 36.1711 35.9757C35.08 35.7667 34.8827 34.5596 33.8671 34.165ZM11.1814 27.7347C11.1814 29.0928 11.1814 30.0851 11.1814 31.0775C11.1814 32.0699 11.547 32.9695 11.5586 33.9793C11.5586 34.8846 12.0113 35.7783 12.2724 36.7127C13.23 35.1922 14.0135 33.6195 15.1161 32.2092C13.967 30.6539 12.9746 29.1218 11.1814 27.7347ZM18.2616 24.0089C18.1397 25.0013 17.9714 25.9647 17.9134 26.9107C17.8554 27.8566 17.9134 28.907 17.9134 29.853L20.3392 28.6459C21.1575 28.2513 21.7727 27.7057 21.7553 26.7482C21.4651 26.2897 21.1749 25.8718 20.9312 25.4424C20.7814 25.2187 20.5755 25.0383 20.3342 24.9192C20.0928 24.8 19.8244 24.7463 19.5558 24.7634L18.7491 23.5214L18.2616 24.0089ZM20.1187 6.49407C20.1246 6.60988 20.1563 6.72291 20.2116 6.82487C20.7397 7.56771 21.0647 8.30475 20.4785 9.18108C20.3973 9.30295 20.5366 9.56991 20.6004 9.8949C21.349 8.90251 21.6102 8.12485 21.1807 6.96415C20.8507 6.10885 20.4749 5.27194 20.0549 4.45706L17.7335 3.29637L17.3795 6.1981L18.7781 5.57713L20.1187 6.49407ZM36.4206 46.596L34.7492 47.9656C34.6448 48.604 34.8305 48.9812 35.2367 49.1263L36.7282 48.7839L37.7148 49.7067L38.1036 48.8826L38.2487 49.016V47.9888L36.4206 46.596ZM41.6438 38.3899L41.5161 38.4421C41.6321 38.947 41.754 39.4519 41.8585 39.9626C41.9629 40.4733 41.7308 41.1233 42.1312 41.7675C42.3866 42.168 42.1777 42.8702 42.1777 43.4215H43.4196V41.2916L41.6438 38.3899ZM39.6706 39.0515L38.8929 38.8832V40.1542L39.0786 40.1948L39.6706 39.0515ZM31.035 9.94713C30.4547 9.59893 30.3444 10.0922 30.0484 10.3069C30.6462 10.6552 30.739 10.1619 31.035 9.94713ZM34.0935 45.65C34.4359 45.0697 33.9658 44.9652 33.7162 44.6925C33.3738 45.267 33.8671 45.3831 34.0935 45.65ZM17.6638 35.9815L17.0429 36.0975L17.6638 36.5096V35.9815Z" fill="#414141"/>
<path d="M67.5272 28.1468H64.0451C63.841 26.7659 63.5128 25.4063 63.0644 24.0844H58.0908C57.6194 25.4014 57.2812 26.7623 57.081 28.1468H53.8369C53.8369 27.8682 54.6745 25.5681 56.3497 21.2465C58.025 16.9248 58.8646 14.5473 58.8685 14.114H62.9309C62.9309 14.5009 63.6911 16.8455 65.2116 21.1478C66.7321 25.4501 67.504 27.7831 67.5272 28.1468ZM62.5246 22.0532C61.2943 18.3467 60.6791 16.3406 60.6791 16.035H60.5108C60.5108 16.3135 59.8744 18.3196 58.6015 22.0532H62.5246Z" fill="#414141"/>
<path d="M78.223 25.7963L78.136 28.1177H69.1754C69.2605 26.1832 69.3031 23.7361 69.3031 20.7764C69.3031 18.0681 69.2605 15.8376 69.1754 14.085H72.2048C72.1158 15.7138 72.0733 17.9443 72.0771 20.7764C72.0771 22.9391 72.0307 24.6569 71.9379 25.9298C73.911 25.9588 76.0177 25.9066 78.223 25.7963Z" fill="#414141"/>
<path d="M89.1509 25.7732L89.0697 28.1468H79.8944C79.9873 25.9763 80.0337 23.5292 80.0337 20.8054C80.0337 18.19 79.9873 15.9595 79.8944 14.114H88.646L88.53 16.4702C86.3711 16.3619 84.4153 16.3058 82.6627 16.3019C82.7362 17.3001 82.7729 18.4782 82.7729 19.8362C84.276 19.8362 85.8778 19.7956 87.5898 19.7144V21.9719C85.9068 21.8945 84.3012 21.8578 82.7729 21.8616C82.7729 23.3241 82.8019 24.6899 82.86 25.9589C84.8274 25.9589 86.9282 25.9008 89.1509 25.7732Z" fill="#414141"/>
<path d="M107.739 28.1468H104.6C104.6 26.9281 104.524 24.8678 104.373 21.9661C104.223 19.0644 104.145 17.2556 104.141 16.5399H103.979C103.903 16.9693 103.712 17.7644 103.398 18.9309C103.085 20.0974 102.511 21.8326 101.657 24.0786C100.804 26.3245 100.381 27.6999 100.381 28.141H98.0012C98.0012 27.6825 97.5892 26.3129 96.7767 24.0321C95.9642 21.7514 95.4245 20.1612 95.175 19.2501C94.9254 18.3389 94.7223 17.4278 94.5946 16.5341H94.4321C94.4321 17.4278 94.3431 19.3623 94.1651 22.3375C93.9872 25.3128 93.904 27.2473 93.9156 28.141H91.0661C91.0661 27.9282 91.3273 25.7693 91.8496 21.6643C92.3719 17.5613 92.633 15.0368 92.633 14.1198H96.8057C96.8057 14.9207 97.2449 16.6946 98.1231 19.4416C99.0014 22.1886 99.4424 23.9451 99.4463 24.7111H99.6088C99.6088 23.9373 100.11 22.175 101.112 19.4242C102.114 16.6733 102.615 14.9033 102.615 14.114H106.753C106.753 15.5997 106.921 18.2519 107.258 22.0706C107.594 25.8892 107.755 27.9146 107.739 28.1468Z" fill="#414141"/>
<path d="M63.0121 39.3357C63.0121 41.7732 61.2594 42.9919 57.7542 42.9919C56.6333 43 55.5165 42.8556 54.4346 42.5624L54.893 40.479C55.8112 40.8104 56.7781 40.9869 57.7542 41.0013C58.4837 41.041 59.2142 40.9425 59.9072 40.7111C60.1056 40.6388 60.276 40.5055 60.3938 40.3303C60.5116 40.1552 60.5709 39.9471 60.563 39.7361C60.5615 39.5019 60.5044 39.2715 60.3965 39.0636C60.2885 38.8558 60.1328 38.6765 59.9421 38.5406C59.2691 38.0834 58.5445 37.7074 57.7832 37.4206C56.9679 37.1068 56.2225 36.6354 55.5895 36.0335C55.2904 35.727 55.0557 35.3636 54.8992 34.965C54.7427 34.5663 54.6676 34.1403 54.6783 33.7121C54.6578 33.2276 54.756 32.7454 54.9644 32.3074C55.1728 31.8695 55.4849 31.489 55.8738 31.1992C56.8856 30.531 58.0878 30.2111 59.2979 30.2881C60.332 30.2679 61.3649 30.3731 62.3737 30.6015L62.0313 32.6733C61.1535 32.3635 60.2287 32.2084 59.2979 32.2148C57.8296 32.2148 57.0926 32.6095 57.0926 33.3755C57.0884 33.5751 57.1334 33.7726 57.2234 33.9507C57.3135 34.1287 57.4459 34.282 57.6091 34.397C58.2229 34.7819 58.8767 35.099 59.559 35.3429C60.4405 35.6614 61.2538 36.1438 61.9559 36.7648C62.3007 37.0965 62.5727 37.4964 62.7546 37.9391C62.9364 38.3817 63.0241 38.8573 63.0121 39.3357Z" fill="#414141"/>
<path d="M73.9633 33.66C74.0043 34.3081 73.8722 34.9555 73.5805 35.5358C73.2889 36.1161 72.8481 36.6083 72.3035 36.9621C71.0799 37.7001 69.6692 38.0689 68.2411 38.0242C67.9509 38.0242 67.742 38.0242 67.6143 38.0242C67.6143 39.1848 67.6491 40.7324 67.7188 42.6669H65.0898C65.171 40.8679 65.2117 38.7399 65.2117 36.2831C65.2117 34.0372 65.171 32.1046 65.0898 30.4797H66.7147C66.9469 30.4797 67.388 30.4797 68.0437 30.4506C68.6995 30.4216 69.2683 30.4506 69.7442 30.4506C70.8009 30.4084 71.8466 30.6789 72.7504 31.2283C73.1466 31.4931 73.4669 31.8567 73.6796 32.2831C73.8923 32.7096 73.9901 33.1841 73.9633 33.66ZM71.549 34.1707C71.549 32.8359 70.6669 32.1743 68.891 32.1743C68.4215 32.1771 67.9533 32.2237 67.4924 32.3136C67.5621 33.4742 67.5911 34.8265 67.5911 36.3121C67.7728 36.3217 67.9549 36.3217 68.1366 36.3121C70.4116 36.3315 71.549 35.6215 71.549 34.1823V34.1707Z" fill="#414141"/>
<path d="M86.9978 36.3411C87.0621 38.0958 86.4372 39.8059 85.2567 41.1057C84.706 41.718 84.0292 42.2037 83.2728 42.5293C82.5164 42.8549 81.6984 43.0127 80.8751 42.9919C80.1025 43.0099 79.3348 42.864 78.6226 42.5639C77.9104 42.2639 77.2698 41.8163 76.7431 41.2508C76.1862 40.6653 75.7516 39.9748 75.4647 39.2195C75.1777 38.4642 75.0441 37.6593 75.0717 36.8518C75.0073 35.0971 75.6322 33.3869 76.8127 32.0871C77.3616 31.4696 78.0384 30.9789 78.7961 30.6492C79.5537 30.3195 80.3741 30.1586 81.2001 30.1778C81.9725 30.1613 82.7398 30.3078 83.4518 30.6078C84.1638 30.9078 84.8045 31.3545 85.3322 31.9188C85.8895 32.5085 86.3238 33.2032 86.6097 33.9625C86.8957 34.7217 87.0276 35.5303 86.9978 36.3411ZM84.4152 36.6138C84.4678 35.4728 84.1141 34.3501 83.417 33.4452C83.1275 33.0648 82.7534 32.7571 82.3242 32.5466C81.8951 32.336 81.4228 32.2284 80.9448 32.2322C80.4878 32.2344 80.0382 32.3468 79.634 32.56C79.2298 32.7732 78.8831 33.0808 78.6234 33.4568C77.9593 34.3519 77.6233 35.4481 77.6716 36.5616C77.6212 37.7025 77.9793 38.8239 78.6814 39.7245C78.9679 40.1061 79.3395 40.4155 79.7667 40.6281C80.194 40.8407 80.6649 40.9506 81.1421 40.949C81.5992 40.9443 82.0485 40.8301 82.4523 40.6161C82.8562 40.402 83.203 40.0943 83.4635 39.7187C84.1233 38.8215 84.4589 37.7267 84.4152 36.6138Z" fill="#414141"/>
<path d="M98.9181 42.6553H96.1499C95.4302 40.45 94.8731 39.0862 94.4901 38.5929C94.2637 38.3215 93.9749 38.109 93.6484 37.9736C93.322 37.8381 92.9676 37.7838 92.6156 37.8152H91.5767C91.5767 39.417 91.6058 41.0342 91.6638 42.6669H89.0638C89.1451 40.7866 89.1857 38.6587 89.1857 36.2831C89.1857 34.012 89.1451 32.0775 89.0638 30.4797H90.683C90.8687 30.4797 91.2634 30.4797 91.8437 30.4506C92.424 30.4216 93.0044 30.4506 93.4919 30.4506C96.3549 30.4506 97.7864 31.4295 97.7864 33.3872C97.7864 34.9348 96.9701 36.0162 95.3374 36.6313V36.7706C96.062 37.0239 96.6567 37.5539 96.9914 38.2447C97.7437 39.6643 98.3878 41.1387 98.9181 42.6553ZM95.436 34.0546C95.436 32.8126 94.639 32.1917 93.045 32.1917C92.5235 32.1867 92.0027 32.2314 91.4897 32.3252C91.5593 33.2885 91.5942 34.5479 91.5942 36.1032H92.4647C94.4108 36.1148 95.3935 35.4319 95.4128 34.0546H95.436Z" fill="#414141"/>
<path d="M108.993 30.4797L108.929 32.4993C107.683 32.4065 106.507 32.3601 105.401 32.3601C105.401 33.5207 105.401 34.8323 105.401 36.2948C105.401 38.5407 105.435 40.659 105.505 42.6786H102.882C102.963 40.7016 103.004 38.5736 103.004 36.2948C103.004 34.871 102.992 33.5594 102.969 32.3601C102.087 32.3601 100.886 32.4065 99.3476 32.5051L99.423 30.4855L108.993 30.4797Z" fill="#414141"/>
</svg>
