<svg width="128" height="28" viewBox="0 0 128 28" fill="none" xmlns="http://www.w3.org/2000/svg">
<path d="M0.908121 10.1024C1.47822 10.1024 2.05099 10.1024 2.62109 10.0891C2.82889 10.0891 2.93279 10.1131 2.94078 10.3555C2.96051 11.1162 3.07051 11.8719 3.26845 12.6066C3.32173 12.8064 3.29243 12.9236 3.06332 12.9929C2.69579 13.0999 2.35888 13.2925 2.0803 13.555C1.86185 13.7601 1.78725 13.6642 1.68602 13.4538C1.3642 12.8001 1.12696 12.1081 0.98005 11.3945C0.942754 11.2213 0.98005 11.0162 0.81488 10.8803V10.6139C0.932098 10.4621 0.785576 10.2596 0.908121 10.1024Z" fill="#414141"/>
<path d="M0.81488 8.77023C1.00136 8.48252 0.977386 8.13886 1.06264 7.8245C1.21431 7.24688 1.42037 6.68492 1.67803 6.14616C1.78192 5.93037 1.85385 5.79984 2.09362 6.03693C2.36053 6.28641 2.68282 6.46902 3.03402 6.56974C3.2578 6.63901 3.33239 6.74024 3.26845 6.97467C3.07303 7.7107 2.96483 8.46715 2.94611 9.22845C2.94611 9.44157 2.86619 9.49485 2.66372 9.49485C2.043 9.47886 1.42761 9.47886 0.81488 9.47886V8.77023Z" fill="#414141"/>
<path d="M0.908121 10.1024C0.854841 10.2702 0.998699 10.4727 0.81488 10.6165V10.0837L0.908121 10.1024Z" fill="#414141"/>
<path d="M26.0592 18.3503C26.3491 17.31 26.5488 16.2467 26.656 15.1721C26.7279 14.3729 26.7759 13.5737 26.7759 12.7745C26.7759 9.94793 26.7759 7.11873 26.7759 4.29219C26.7813 4.16225 26.7604 4.03254 26.7147 3.9108C26.6689 3.78907 26.5991 3.67778 26.5095 3.58356C25.7476 2.73107 25.0016 1.87059 24.1864 0.95416H27.5564C28.1292 0.95416 28.7925 0.783662 29.2454 1.0181C29.6983 1.25253 29.8768 1.8919 30.1938 2.35011C32.325 5.38445 34.6135 8.2989 36.8166 11.2799C37.1709 11.7595 37.5332 12.2337 37.9435 12.7025C37.8316 8.79974 38.3564 4.87029 37.2695 0.980801H41.7983C41.5286 2.11204 41.3355 3.26017 41.2203 4.4174C41.0471 6.28222 41.119 8.1657 41.1243 10.0385C41.1243 11.7941 41.0524 13.5524 41.2176 15.308C41.3193 16.3409 41.5283 17.3605 41.841 18.3503H39.1476C38.6788 18.3503 38.1646 18.4702 37.7517 18.3157C37.3388 18.1611 37.2722 17.5644 37.0191 17.1808C35.6178 15.0655 33.9954 13.1181 32.4902 11.0855C31.7656 10.1104 31.0197 9.14872 30.2817 8.18434C30.1858 8.05913 30.0846 7.94192 29.9461 7.77142C29.9302 7.84617 29.9186 7.92178 29.9114 7.99786C29.9434 10.4861 29.8102 12.9769 30.0526 15.4572C30.1213 16.3216 30.2857 17.1758 30.5428 18.004C30.6361 18.2704 30.5908 18.3716 30.2764 18.3663C28.8831 18.3423 27.4898 18.3503 26.0592 18.3503Z" fill="#414141"/>
<path d="M96.3418 8.34167C96.3418 7.66767 96.3231 6.99101 96.3418 6.31967C96.3977 4.63976 96.2038 2.96086 95.7663 1.33793C95.6864 1.0369 95.745 0.940993 96.0567 0.943657C97.45 0.943657 98.8433 0.943657 100.237 0.943657C100.503 0.943657 100.503 1.05022 100.447 1.25268C99.8983 2.8511 99.7784 4.50547 99.7704 6.17315C99.7704 8.60275 99.7464 11.035 99.7704 13.4673C99.789 15.0124 99.8716 16.5602 100.434 18.0334C100.519 18.2625 100.503 18.3664 100.207 18.3611C99.1221 18.3469 98.037 18.3469 96.9518 18.3611C96.6508 18.3611 96.5869 18.2492 96.5869 17.9748C96.5869 17.0158 96.5629 17.0078 95.7637 17.5006C94.7266 18.1082 93.5633 18.4683 92.3644 18.5529C91.2454 18.6933 90.109 18.556 89.0556 18.1533C87.2947 17.442 86.4129 16.0008 85.9467 14.2612C85.6356 13.1052 85.4824 11.9124 85.4912 10.7153C85.4912 9.19683 85.4912 7.67833 85.4912 6.15983C85.5139 4.54157 85.3131 2.92791 84.8944 1.36457C84.8092 1.04755 84.8545 0.940993 85.2194 0.948985C86.5514 0.972962 87.8835 0.970298 89.2155 0.948985C89.5805 0.948985 89.6257 1.04489 89.5245 1.37523C89.1205 2.71725 88.9141 4.11096 88.9118 5.51247C88.8958 7.30004 88.8665 9.0876 88.9118 10.8752C88.9491 12.1006 89.1382 13.3208 89.8522 14.381C90.6381 15.5452 91.9221 15.9102 93.2355 15.761C93.9559 15.7242 94.6421 15.4422 95.1803 14.9618C95.9795 14.1866 96.2459 13.1902 96.2805 12.1379C96.3285 10.8805 96.2805 9.61775 96.2805 8.36032L96.3418 8.34167Z" fill="#414141"/>
<path d="M116.855 13.1688C117.18 13.4408 117.466 13.7564 117.705 14.1065C118.424 15.0016 119.263 15.6863 120.462 15.7875C121.381 15.8621 122.681 15.3692 123.11 14.4741C123.27 14.1367 123.328 13.7597 123.276 13.3898C123.224 13.02 123.064 12.6735 122.817 12.3935C122.186 11.6849 121.4 11.1761 120.643 10.6246C120.02 10.1691 119.351 9.76412 118.757 9.27127C116.146 7.10009 116.413 3.39176 119.122 1.71075C121.328 0.341439 123.651 0.485297 125.987 1.33512C126.078 1.3617 126.157 1.42015 126.209 1.49983C126.261 1.57952 126.282 1.67516 126.269 1.76936C126.269 2.91223 126.269 4.05244 126.269 5.19531C126.269 5.29121 126.32 5.42441 126.198 5.46171C126.075 5.49901 126.024 5.37912 125.95 5.31519C125.313 4.7584 124.73 4.11904 123.938 3.77804C123.051 3.39975 122.151 3.3438 121.301 3.90591C121.111 4.02479 120.948 4.18232 120.823 4.36829C120.698 4.55426 120.613 4.76449 120.574 4.98533C120.535 5.20618 120.544 5.43269 120.598 5.65016C120.653 5.86762 120.752 6.07118 120.891 6.2476C121.272 6.78041 121.807 7.14005 122.311 7.53699C123.376 8.38682 124.604 9.06082 125.572 10.0465C126.345 10.848 126.819 11.8905 126.916 12.9999C127.013 14.1093 126.727 15.2183 126.104 16.1418C125.215 17.3939 123.933 18.0493 122.457 18.3823C120.708 18.7878 118.874 18.6004 117.244 17.8495C117.12 17.8095 117.015 17.7278 116.945 17.6184C116.876 17.509 116.847 17.3787 116.863 17.25C116.863 15.9127 116.855 14.5834 116.855 13.1688Z" fill="#414141"/>
<path d="M64.5412 0.954109C64.1736 2.11829 63.8246 3.23186 63.4756 4.34276C63.393 4.60916 63.2358 4.45998 63.0973 4.3987C61.9276 3.8601 60.6554 3.58022 59.3676 3.57818C59.0107 3.57818 58.9307 3.6954 58.9307 4.03107C58.9307 7.19594 58.9014 10.3608 58.9574 13.5257C58.933 15.04 59.135 16.5494 59.5568 18.0039C59.658 18.3129 59.5568 18.3529 59.2904 18.3502C57.8971 18.3502 56.5038 18.3502 55.1105 18.3502C54.7988 18.3502 54.7722 18.2517 54.8761 17.9826C55.1963 17.119 55.3761 16.2097 55.4089 15.2893C55.622 11.5436 55.4489 7.79268 55.5155 4.04705C55.5155 3.64212 55.3902 3.53822 55.0146 3.57552C53.4162 3.73003 51.8178 3.88454 50.2913 4.44399C50.1794 4.48662 50.0435 4.6065 49.9237 4.49727C49.8038 4.38805 49.9237 4.24685 49.9663 4.1323C50.2993 3.16526 50.6616 2.20887 50.9786 1.2365C51.0825 0.92214 51.2823 0.938124 51.5114 0.938124C54.3726 0.938124 57.2338 0.938124 60.0949 0.938124H64.5465L64.5412 0.954109Z" fill="#414141"/>
<path d="M98.2705 24.5203C98.2572 24.7101 98.2572 24.9006 98.2705 25.0904C98.3291 25.4953 98.1506 25.5832 97.7777 25.5726C97.466 25.5726 97.3674 25.466 97.3834 25.165C97.4047 24.7414 97.3834 24.3151 97.3834 23.8916C97.3834 23.6251 97.3061 23.3801 97.0078 23.4094C96.7094 23.4387 96.3684 23.4387 96.4057 23.9182C96.4403 24.3258 96.4057 24.7387 96.419 25.1463C96.4323 25.5539 96.2325 25.5619 95.9288 25.5699C95.6251 25.5779 95.5106 25.4793 95.5292 25.1703C95.5559 24.7898 95.5559 24.4079 95.5292 24.0274C95.5079 23.761 95.5292 23.404 95.0737 23.4253C94.6181 23.4467 94.4929 23.6012 94.4903 24.0514C94.4903 24.4617 94.4903 24.8719 94.4903 25.2822C94.4903 25.6924 94.2239 25.5486 94.0267 25.5486C93.8296 25.5486 93.6005 25.6072 93.6058 25.2822C93.6058 24.6828 93.6058 24.0807 93.6058 23.4813C93.6058 23.3321 93.5205 23.1057 93.7044 23.0497C93.9308 22.9805 94.2372 22.9085 94.4077 23.111C94.5782 23.3135 94.6741 23.2176 94.8179 23.1509C95.3028 22.9298 95.7823 22.7833 96.2379 23.2202C96.3418 23.3188 96.4563 23.2548 96.5629 23.1989C96.7574 23.0985 96.9643 23.0242 97.1783 22.9778C97.7937 22.8419 98.2226 23.1456 98.2599 23.777C98.2812 24.0221 98.2679 24.2725 98.2705 24.5203Z" fill="#414141"/>
<path d="M4.76031 10.0997C5.02671 10.1237 5.48759 9.93724 5.71669 10.161C5.9458 10.3848 5.79661 10.859 5.82858 11.2266C5.8419 11.3891 5.8419 11.549 5.85522 11.7088C5.92715 12.4601 5.92715 12.4574 5.19188 12.548C4.85621 12.5906 4.52321 12.6332 4.19553 12.7078C3.97708 12.7558 3.87052 12.7078 3.82257 12.4867C3.66565 11.803 3.56937 11.1068 3.53485 10.4061C3.53485 10.1797 3.5828 10.0864 3.82257 10.1024C4.06233 10.1184 4.37935 10.0997 4.76031 10.0997Z" fill="#414141"/>
<path d="M4.62979 9.47904H4.19023C3.5109 9.47904 3.50291 9.47904 3.55619 8.81037C3.59943 8.242 3.68852 7.67805 3.82259 7.12404C3.86522 6.93489 3.9185 6.83099 4.17158 6.88694C4.65867 6.98779 5.15159 7.05808 5.64745 7.0974C5.88722 7.11871 5.93251 7.20929 5.91386 7.42774C5.86591 8.0085 5.82328 8.59192 5.80197 9.17534C5.80197 9.42576 5.70606 9.50835 5.46364 9.49236C5.22121 9.47638 4.90685 9.49236 4.62979 9.49236V9.47904Z" fill="#414141"/>
<path d="M7.58684 10.0785C7.94649 10.0972 8.41536 9.9826 8.65246 10.1664C8.88955 10.3502 8.72705 10.8484 8.72971 11.2081C8.73238 11.5677 8.88955 12.0286 8.66311 12.2737C8.43667 12.5188 7.97046 12.3589 7.5975 12.3696C6.50258 12.4069 6.49725 12.3989 6.43332 11.3226C6.40934 10.9337 6.20687 10.4355 6.43332 10.1824C6.65976 9.92932 7.20855 10.1451 7.58684 10.0785Z" fill="#414141"/>
<path d="M7.51494 9.47898H7.07804C6.34543 9.47898 6.34277 9.47898 6.39338 8.76502C6.42269 8.32812 6.46798 7.89122 6.49195 7.45698C6.50527 7.22788 6.60651 7.17193 6.82229 7.19058C7.3551 7.22255 7.90123 7.24652 8.44202 7.25185C8.68445 7.25185 8.7324 7.35042 8.72974 7.56621C8.71553 8.09902 8.71553 8.63893 8.72974 9.18594C8.72974 9.40972 8.67113 9.50296 8.4367 9.48964C8.13033 9.47898 7.82131 9.47898 7.51494 9.47898Z" fill="#414141"/>
<path d="M100.551 24.2563C100.551 23.9633 100.551 23.6702 100.551 23.3772C100.551 23.252 100.45 23.0389 100.665 23.0175C100.881 22.9962 101.198 22.8843 101.316 23.0921C101.454 23.3585 101.563 23.2094 101.688 23.1587C101.991 23.006 102.328 22.9361 102.666 22.9563C102.763 22.958 102.859 22.9791 102.948 23.0184C103.037 23.0577 103.117 23.1144 103.183 23.1852C103.25 23.256 103.302 23.3394 103.335 23.4305C103.369 23.5215 103.384 23.6185 103.38 23.7155C103.38 24.2483 103.38 24.7811 103.38 25.298C103.38 25.7055 103.092 25.5404 102.917 25.5484C102.741 25.5564 102.48 25.6762 102.496 25.3033C102.512 24.8344 102.496 24.3655 102.496 23.8967C102.496 23.6116 102.413 23.3639 102.08 23.4198C101.79 23.4598 101.395 23.4198 101.417 23.918C101.438 24.3709 101.417 24.8264 101.417 25.2793C101.417 25.7322 101.116 25.5297 100.924 25.5457C100.732 25.5617 100.506 25.607 100.535 25.2607C100.564 24.9143 100.551 24.5946 100.551 24.2563Z" fill="#414141"/>
<path d="M8.73772 5.67248C8.73772 6.66083 8.73772 6.6635 7.75469 6.65817C7.44837 6.67747 7.14084 6.65416 6.84093 6.5889C6.64912 6.53296 6.60916 6.44771 6.64912 6.27721C6.76367 5.76838 6.8729 5.25689 6.99011 4.74539C7.03807 4.52694 7.15795 4.40972 7.40038 4.5003C7.6559 4.56674 7.92188 4.58302 8.1836 4.54825C8.58321 4.53493 8.79899 4.66281 8.74038 5.10237C8.72752 5.29216 8.72663 5.48257 8.73772 5.67248Z" fill="#414141"/>
<path d="M8.75371 13.9653C8.73506 14.269 8.80699 14.618 8.67911 14.8658C8.51927 15.1801 8.11967 14.951 7.83462 15.0203C7.74937 15.039 7.66678 15.0709 7.56821 15.0869C7.24054 15.1482 7.00344 15.0869 6.93151 14.7006C6.84626 14.2291 6.72105 13.7682 6.62514 13.2993C6.59318 13.1502 6.60383 13.0036 6.82228 12.993C7.35509 12.9663 7.86658 12.9424 8.38607 12.9024C8.66846 12.8811 8.74305 13.0116 8.72707 13.2647C8.71108 13.5178 8.72707 13.7309 8.72707 13.9627L8.75371 13.9653Z" fill="#414141"/>
<path d="M6.44401 4.44396C6.29749 5.12596 6.15896 5.77598 6.01776 6.39936C6.01649 6.42511 6.00958 6.45025 5.99751 6.47303C5.98544 6.4958 5.96851 6.51564 5.94792 6.53115C5.92733 6.54665 5.90359 6.55744 5.87837 6.56275C5.85315 6.56806 5.82707 6.56776 5.80198 6.56187C5.29847 6.48195 4.8003 6.38871 4.2968 6.31944C4.05703 6.28747 4.10765 6.18091 4.16626 6.02374C4.37864 5.44693 4.64629 4.89201 4.96547 4.36671C5.14662 4.07899 5.33311 3.91116 5.69275 4.1003C5.87874 4.18581 6.07476 4.24756 6.27617 4.28412C6.38274 4.31343 6.44934 4.36138 6.44401 4.44396Z" fill="#414141"/>
<path d="M6.44134 15.0364V15.095C6.44134 15.3081 6.23888 15.3348 6.13232 15.3295C5.78599 15.3108 5.47164 15.8383 5.14929 15.46C4.71173 14.8926 4.37802 14.2522 4.1636 13.5685C4.11831 13.4433 4.07568 13.3021 4.27549 13.2648C4.7588 13.1618 5.24973 13.0986 5.74337 13.0757C5.91653 13.0757 6.03641 13.1449 6.06572 13.3048C6.15597 13.889 6.28141 14.4673 6.44134 15.0364Z" fill="#414141"/>
<path d="M109.097 24.877C109.471 24.4191 109.651 23.8329 109.598 23.244C109.555 22.9376 109.75 23.0122 109.886 23.0175C110.022 23.0229 110.237 22.855 110.259 23.1934C110.268 23.6941 110.119 24.1851 109.835 24.5973C109.699 24.8211 109.515 25.0209 109.401 25.2553C109.233 25.5963 108.945 25.5617 108.65 25.5644C108.354 25.567 108.383 25.298 108.301 25.1381C107.984 24.4908 107.845 23.7448 107.235 23.2546C107.104 23.1481 107.176 23.0575 107.328 23.0149C107.442 22.9683 107.565 22.9452 107.688 22.9469C107.811 22.9486 107.933 22.9751 108.046 23.0248C108.159 23.0745 108.261 23.1464 108.345 23.2362C108.429 23.3261 108.495 23.432 108.538 23.5477C108.73 23.9713 108.895 24.3975 109.097 24.877Z" fill="#414141"/>
<path d="M3.30843 6.03442C2.9171 5.94851 2.5623 5.74271 2.29343 5.44567C2.1629 5.30181 2.25614 5.16594 2.3334 5.04606C2.77679 4.35863 3.3517 3.76562 4.02506 3.30112C4.11563 3.23985 4.23019 3.05337 4.33941 3.26116C4.44864 3.46896 4.82959 3.54621 4.60581 3.8659C4.21193 4.47966 3.87826 5.13004 3.60947 5.80798C3.56684 5.92786 3.51356 6.06106 3.30843 6.03442Z" fill="#414141"/>
<path d="M4.68574 15.8911C4.5782 16.0594 4.45512 16.2173 4.31811 16.3626C4.19823 16.4665 4.06769 16.336 3.96912 16.2614C3.36334 15.7987 2.82532 15.2535 2.3707 14.6417C2.19487 14.4019 2.18955 14.2288 2.42398 14.0503C2.54343 13.9443 2.66981 13.8464 2.80227 13.7572C3.39369 13.4242 3.42033 13.4455 3.71337 14.0423C3.95586 14.5919 4.23258 15.1257 4.54189 15.6407C4.59427 15.7215 4.64229 15.8051 4.68574 15.8911Z" fill="#414141"/>
<path d="M120.43 25.5669C119.815 25.5669 119.753 25.511 119.753 24.8929C119.753 24.528 119.753 24.1603 119.753 23.7954C119.753 23.5929 119.783 23.3904 119.529 23.2865C119.348 23.2119 119.436 23.1027 119.548 23.0201C119.78 22.8736 120.014 22.7218 120.259 22.5939C120.374 22.5353 120.59 22.514 120.598 22.6578C120.619 23.0867 120.907 22.9882 121.155 23.0041C121.274 23.0041 121.461 22.9349 121.488 23.116C121.514 23.2972 121.304 23.2892 121.2 23.2892C120.667 23.2892 120.555 23.5876 120.63 24.0431C120.638 24.1451 120.638 24.2475 120.63 24.3495C120.63 25.0608 120.63 25.0608 121.341 25.0661C121.424 25.0661 121.49 25.0661 121.501 25.1567C121.511 25.2473 121.44 25.3085 121.36 25.3565C121.063 25.4775 120.749 25.5486 120.43 25.5669Z" fill="#414141"/>
<path d="M85.3793 23.3158C85.5764 23.2013 85.6883 23.0121 85.9121 22.9802C86.0559 22.9589 86.2344 22.8576 86.317 22.9802C86.3996 23.1027 86.317 23.2466 86.2904 23.3958C86.2531 23.5796 86.0906 23.5236 85.968 23.529C85.3819 23.5529 85.3393 23.5929 85.3393 24.163C85.3393 24.4987 85.318 24.837 85.3393 25.1727C85.3606 25.5083 85.2221 25.5696 84.929 25.559C84.636 25.5483 84.4362 25.543 84.4495 25.1727C84.4682 24.6159 84.4495 24.0591 84.4495 23.505C84.4495 23.3292 84.3163 23.0361 84.6413 23.0175C84.921 23.0095 85.286 22.8416 85.3793 23.3158Z" fill="#414141"/>
<path d="M126.68 23.3453C126.84 23.1364 127.071 22.9941 127.33 22.9457C127.463 22.927 127.665 22.8684 127.66 23.0975C127.66 23.2653 127.66 23.4945 127.407 23.5371C127.318 23.5439 127.229 23.5439 127.141 23.5371C126.842 23.5371 126.682 23.657 126.698 23.9873C126.717 24.3949 126.698 24.8025 126.698 25.2128C126.698 25.623 126.432 25.5484 126.192 25.5644C125.952 25.5804 125.801 25.4898 125.811 25.1968C125.83 24.6293 125.811 24.0592 125.811 23.4891C125.811 23.3266 125.691 23.0602 125.982 23.0282C126.272 22.9963 126.597 22.8657 126.68 23.3453Z" fill="#414141"/>
<path d="M111.034 24.2563V23.553C111.034 22.9882 111.061 22.9722 111.631 23.0202C111.836 23.0202 111.918 23.1028 111.916 23.3079C111.916 23.9526 111.916 24.5964 111.916 25.2393C111.916 25.6416 111.631 25.559 111.383 25.5777C111.135 25.5963 111.005 25.5137 111.021 25.234C111.047 24.901 111.034 24.5786 111.034 24.2563Z" fill="#414141"/>
<path d="M8.73773 2.95741C8.72307 3.16227 8.72307 3.36793 8.73773 3.5728C8.799 4.0097 8.55924 4.06831 8.22091 4.01769C8.11967 4.00437 8.0211 3.96707 7.92253 3.94843C7.24321 3.83387 7.2512 3.8392 7.56555 3.18651C7.75093 2.7572 8.02302 2.37083 8.36476 2.05163C8.44202 1.98503 8.51395 1.89446 8.63117 1.94241C8.74838 1.99036 8.72174 2.11291 8.72174 2.20881C8.74039 2.45923 8.73773 2.70965 8.73773 2.95741Z" fill="#414141"/>
<path d="M8.73506 17.7028C8.38055 17.5624 8.08326 17.3073 7.89056 16.9782C7.70987 16.68 7.5488 16.3703 7.40837 16.0511C7.25652 15.7714 7.40837 15.6728 7.64813 15.6382C7.93935 15.6343 8.23015 15.6148 8.51927 15.5796C8.68977 15.537 8.73506 15.6942 8.73506 15.846C8.73772 16.4427 8.73506 17.0528 8.73506 17.7028Z" fill="#414141"/>
<path d="M7.36042 2.21948C7.18193 2.68036 6.92085 3.08529 6.77167 3.5515C6.76338 3.59071 6.74635 3.62755 6.72185 3.65927C6.69735 3.69099 6.66601 3.71677 6.63016 3.73469C6.59431 3.75261 6.55488 3.76222 6.51481 3.76279C6.47473 3.76336 6.43504 3.75488 6.3987 3.73798L5.66609 3.47158C6.11494 2.91665 6.69817 2.48565 7.36042 2.21948Z" fill="#414141"/>
<path d="M5.69539 16.1392C6.59317 15.7635 6.5905 15.7662 6.99544 16.6187C7.10733 16.8558 7.26184 17.0769 7.38971 17.3193C6.91019 17.282 6.428 16.9384 5.69539 16.1392Z" fill="#414141"/>
<path d="M111.402 22.4875C111.231 22.3649 110.978 22.2504 110.991 22.0346C111.007 21.9265 111.06 21.8271 111.14 21.7533C111.221 21.6796 111.324 21.6359 111.434 21.6296C111.55 21.6343 111.66 21.6827 111.742 21.7652C111.824 21.8478 111.872 21.9582 111.876 22.0745C111.857 22.2663 111.639 22.4235 111.402 22.4875Z" fill="#414141"/>
<path d="M6.26282 2.09692C5.91383 2.47522 5.50091 2.68035 5.23983 3.05331C5.12794 3.21315 4.97343 3.13323 4.86953 3.01335C4.76563 2.89347 4.82158 2.78424 4.95212 2.70166C5.35184 2.4277 5.79498 2.22325 6.26282 2.09692Z" fill="#414141"/>
<path d="M6.09499 17.4713L4.90949 16.8772C4.71768 16.7813 4.83224 16.6614 4.89085 16.5548C4.94945 16.4483 5.05868 16.4003 5.17323 16.5069L6.14294 17.4073L6.09499 17.4713Z" fill="#414141"/>
<path d="M83.0509 8.02186C82.8862 6.89063 82.4944 5.80437 81.8993 4.82833C81.3042 3.8523 80.5179 3.00664 79.5877 2.34215C77.7228 1.01013 75.6289 0.578557 73.3592 0.743727C71.4932 0.84902 69.6988 1.49718 68.1963 2.60855C66.9823 3.48805 66.0272 4.67778 65.431 6.05314C64.7261 7.74964 64.5452 9.61829 64.9115 11.4185C65.2614 13.5764 66.4485 15.5092 68.2149 16.7972C70.3621 18.3956 72.8157 18.8298 75.4078 18.5075C77.6602 18.2557 79.7242 17.1309 81.1568 15.3746C82.5041 13.7873 83.2159 11.7573 83.1548 9.67623C83.1068 9.07149 83.1335 8.54668 83.0509 8.02186ZM76.9236 15.0869C75.9635 15.6625 74.8362 15.8946 73.7268 15.7449C72.8474 15.6952 71.9967 15.415 71.2599 14.9324C70.4944 14.4134 69.8471 13.7387 69.3605 12.9522C68.8739 12.1658 68.5588 11.2855 68.436 10.3689C68.2149 8.95694 68.2602 7.56099 68.9688 6.27959C69.3621 5.52272 69.9402 4.87749 70.6495 4.40383C71.3588 3.93018 72.1764 3.64344 73.0261 3.57027C74.6672 3.38112 76.1084 3.78339 77.3126 4.88896C78.4198 5.90837 79.1627 7.26231 79.4278 8.74382C79.5015 9.2062 79.5327 9.67436 79.5211 10.1424C79.5717 12.2683 78.7272 13.9493 76.921 15.0869H76.9236Z" fill="#414141"/>
<path d="M18.1311 1.79861C15.4058 0.879524 12.5792 0.922148 9.7021 0.954116C10.5013 3.83394 10.4454 6.75105 10.4134 9.66284C10.3814 12.5746 10.6505 15.4917 9.67279 18.3636C11.9585 18.273 14.2016 18.4781 16.4075 18.1771C20.1851 17.6656 23.8161 14.895 23.8268 9.85465C23.8348 5.792 21.954 3.08534 18.1311 1.79861ZM19.876 11.9752C19.3912 13.4671 18.3069 14.4101 16.8897 14.9989C16.0316 15.3303 15.1374 15.5592 14.2256 15.6809C13.9006 15.7315 13.834 15.6622 13.834 15.3452C13.85 13.4431 13.834 11.5383 13.834 9.6362C13.834 7.73408 13.834 5.8586 13.834 3.9698C13.834 3.63946 13.9059 3.54356 14.2443 3.57819C16.7405 3.82594 18.7731 4.79032 19.7828 7.2439C20.3844 8.75751 20.4204 10.4373 19.884 11.9752H19.876Z" fill="#414141"/>
<path d="M114.151 14.8337C113.046 13.5484 112.01 12.2056 111.047 10.811C110.93 10.6378 110.903 10.5446 111.127 10.4247C111.823 10.0538 112.453 9.57145 112.992 8.99676C114.857 6.88419 114.324 2.77092 110.925 1.63871C109.513 1.21419 108.051 0.983853 106.577 0.95405C105.551 0.903434 104.523 0.95405 103.497 0.932738C103.13 0.932738 103.068 1.01532 103.148 1.36698C103.519 2.86775 103.718 4.40598 103.74 5.95177C103.724 8.63179 103.74 11.3145 103.74 13.9945C103.75 15.3229 103.554 16.6448 103.159 17.9133C103.05 18.2569 103.082 18.3635 103.471 18.3555C104.675 18.3342 105.868 18.3555 107.078 18.3555C107.893 18.3555 107.901 18.3555 107.704 17.5563C107.428 16.3298 107.257 15.0821 107.192 13.8267C107.142 13.1287 107.192 12.4227 107.192 11.5995C107.541 12.0418 107.805 12.3694 108.061 12.7051C109.539 14.6476 111.182 16.4596 112.971 18.1211C113.036 18.1911 113.114 18.2475 113.201 18.2873C113.288 18.3271 113.381 18.3493 113.477 18.3528H117.39C116.293 17.1061 115.16 16.0245 114.151 14.8337ZM109.017 8.63712C108.535 8.87781 108.023 9.05682 107.496 9.16993C107.23 9.23919 107.147 9.12996 107.166 8.88487V6.30343C107.166 5.45626 107.166 4.60644 107.166 3.75928C107.166 3.54349 107.182 3.35701 107.467 3.41828C108.181 3.57279 108.887 3.73796 109.499 4.18286C109.957 4.52935 110.271 5.03338 110.379 5.59746C110.531 6.1834 110.479 6.80373 110.231 7.35625C109.984 7.90877 109.556 8.36053 109.017 8.63712Z" fill="#414141"/>
<path d="M115.685 25.8097C115.515 25.3088 115.073 25.3994 114.686 25.3834C114.612 25.3834 114.54 25.3834 114.465 25.3834C114.247 25.3834 114.026 25.3834 113.807 25.3834C113.666 25.3674 113.501 25.3275 113.514 25.117C113.527 24.9065 113.69 24.9572 113.815 24.9518C113.94 24.9465 114.108 24.9518 114.255 24.9518C114.966 24.8906 115.454 24.3498 115.286 23.7797C115.206 23.5133 115.211 23.3454 115.525 23.2975C115.645 23.2788 115.717 23.2069 115.693 23.0843C115.661 22.9112 115.531 23.0204 115.446 23.0177C115.036 23.0328 114.626 23.0105 114.22 22.9511C113.824 22.8901 113.42 22.9753 113.083 23.1909C112.956 23.2629 112.848 23.365 112.77 23.4882C112.692 23.6115 112.645 23.7521 112.634 23.8977C112.623 24.0433 112.648 24.1893 112.707 24.323C112.765 24.4566 112.856 24.5738 112.971 24.6641C113.237 24.8559 113.205 24.9465 113.003 25.1516C112.616 25.5406 112.736 25.8816 113.269 26.0281C113.677 26.14 114.087 26.0627 114.494 26.0894C114.708 26.1054 114.867 26.1773 114.907 26.4037C114.947 26.6302 114.798 26.7314 114.598 26.8007C114.374 26.8705 114.138 26.8984 113.903 26.8833C113.586 26.8833 113.309 26.814 113.328 26.4011C113.328 26.2918 113.306 26.1666 113.168 26.2013C113.044 26.2181 112.927 26.2707 112.833 26.3525C112.738 26.4343 112.67 26.5419 112.635 26.6621C112.617 26.7172 112.611 26.7754 112.617 26.8329C112.624 26.8905 112.642 26.9461 112.67 26.9962C112.699 27.0464 112.738 27.09 112.785 27.1242C112.832 27.1584 112.885 27.1825 112.941 27.195C113.157 27.2821 113.389 27.3212 113.621 27.3095C114.123 27.3286 114.622 27.2097 115.062 26.9658C115.579 26.6941 115.829 26.2359 115.685 25.8097ZM113.927 23.2895C114.265 23.2602 114.473 23.5399 114.473 24.0514C114.449 24.2805 114.473 24.6002 114.031 24.5842C113.69 24.5842 113.498 24.3178 113.498 23.8729C113.503 23.5825 113.565 23.3321 113.927 23.2895Z" fill="#414141"/>
<path d="M83.4985 25.1198C83.5118 24.5497 83.4985 23.9796 83.4985 23.4095C83.4985 22.7808 83.4985 22.1521 83.4985 21.5233C83.4985 21.4088 83.5571 21.2569 83.3306 21.2569C82.8245 21.225 82.6247 21.3928 82.6247 21.8936V22.2C82.6247 22.4344 82.7019 22.7142 82.598 22.89C82.4568 23.1298 82.1505 22.89 81.9187 22.9513C81.8616 22.9626 81.8037 22.9698 81.7455 22.9726C81.1967 23.0578 80.7705 23.3136 80.6266 23.8784C80.4828 24.4431 80.4934 24.944 80.957 25.3329C81.1626 25.5018 81.4159 25.6024 81.6814 25.6205C81.9469 25.6387 82.2115 25.5735 82.4382 25.4341C82.582 25.3622 82.6886 25.3276 82.8165 25.4688C82.8957 25.535 82.992 25.5774 83.0944 25.591C83.1967 25.6047 83.3008 25.5891 83.3946 25.546C83.597 25.4874 83.4958 25.2636 83.4985 25.1198ZM82.622 23.8171C82.6354 23.9473 82.6354 24.0785 82.622 24.2087C82.622 24.3392 82.622 24.4751 82.622 24.6003C82.622 24.8188 82.7046 25.0878 82.3396 25.1331C81.9746 25.1784 81.7056 25.1518 81.5644 24.8054C81.4849 24.6159 81.4469 24.4117 81.4529 24.2063C81.4589 24.0009 81.5087 23.7992 81.599 23.6146C81.7748 23.231 82.1478 23.3482 82.4515 23.3749C82.7552 23.4015 82.6007 23.6572 82.622 23.8171Z" fill="#414141"/>
<path d="M123.699 22.9512C123.126 22.8819 122.532 22.9725 122.167 23.4973C122.015 23.715 121.93 23.9719 121.921 24.2371C121.912 24.5023 121.98 24.7644 122.116 24.9919C122.412 25.5406 122.942 25.5779 123.486 25.5699C124.285 25.5699 124.738 25.3249 124.943 24.7707C125.286 23.8277 124.807 23.0871 123.699 22.9512ZM124.072 24.3605V24.6642C124.072 24.9519 124.024 25.197 123.664 25.197C123.304 25.197 123.014 25.197 122.921 24.7761C122.85 24.4644 122.83 24.1431 122.862 23.825C122.861 23.7448 122.877 23.6653 122.91 23.5923C122.944 23.5194 122.993 23.4549 123.055 23.4037C123.116 23.3524 123.189 23.3158 123.267 23.2965C123.345 23.2772 123.426 23.2757 123.504 23.2922C123.66 23.3025 123.807 23.3729 123.912 23.4886C124.017 23.6044 124.073 23.7565 124.069 23.9129C124.069 24.0568 124.069 24.2033 124.069 24.3498L124.072 24.3605Z" fill="#414141"/>
<path d="M107.15 25.2313C107.15 25.1594 107.086 25.1488 107.019 25.1594C106.662 25.2154 106.641 24.9756 106.638 24.7252C106.638 24.3442 106.638 23.9633 106.638 23.5823C106.651 23.4567 106.618 23.3306 106.547 23.2267C106.475 23.1228 106.369 23.0477 106.247 23.0149C105.647 22.7991 105.098 23.0628 104.539 23.204C104.521 23.2085 104.504 23.217 104.49 23.2288C104.475 23.2406 104.464 23.2555 104.456 23.2723C104.448 23.2891 104.444 23.3075 104.444 23.3261C104.444 23.3447 104.448 23.3631 104.456 23.3798C104.488 23.4784 104.563 23.4997 104.664 23.4758C104.861 23.4278 105.064 23.3932 105.197 23.3639C105.527 23.3639 105.754 23.3985 105.759 23.7635C105.759 24.1711 105.479 24.0485 105.269 24.0645C105.05 24.0568 104.831 24.081 104.619 24.1364C104.443 24.1901 104.292 24.3056 104.194 24.4618C104.096 24.6179 104.058 24.8042 104.086 24.9863C104.113 25.1605 104.206 25.3179 104.345 25.4263C104.484 25.5347 104.659 25.586 104.835 25.5697C105.084 25.5861 105.334 25.5384 105.559 25.4311C105.625 25.39 105.702 25.37 105.78 25.3738C105.857 25.3776 105.932 25.405 105.994 25.4525C106.154 25.5444 106.337 25.5886 106.522 25.5796C106.706 25.5706 106.885 25.5089 107.035 25.4018C107.11 25.3619 107.166 25.3193 107.15 25.2313ZM105.405 25.1328C105.101 25.1328 105.061 24.9649 105.043 24.7145C105.013 24.3096 105.309 24.3016 105.557 24.2803C105.903 24.2457 105.669 24.5653 105.743 24.6346C105.794 24.9623 105.751 25.1434 105.405 25.1328Z" fill="#414141"/>
<path d="M118.696 24.6027C118.696 24.2963 118.696 23.99 118.696 23.6836C118.705 23.5962 118.696 23.5079 118.671 23.4239C118.645 23.3398 118.603 23.2618 118.546 23.1945C118.49 23.1271 118.42 23.0718 118.342 23.0318C118.264 22.9918 118.179 22.968 118.091 22.9616C117.558 22.8791 117.084 23.0575 116.596 23.1987C116.508 23.2227 116.437 23.2733 116.482 23.3879C116.527 23.5024 116.602 23.4811 116.695 23.4651C116.938 23.4204 117.184 23.3901 117.43 23.3746C117.697 23.3746 117.811 23.5317 117.822 23.7955C117.833 24.0592 117.63 24.0619 117.441 24.0619C117.192 24.0463 116.942 24.0697 116.7 24.1312C116.239 24.291 116.085 24.5254 116.152 25.0263C116.202 25.4126 116.418 25.5591 116.911 25.5591C117.145 25.5802 117.381 25.5281 117.585 25.4099C117.654 25.3644 117.736 25.3448 117.818 25.3546C117.9 25.3643 117.976 25.4028 118.032 25.4632C118.132 25.5227 118.242 25.561 118.357 25.5757C118.472 25.5904 118.588 25.5812 118.699 25.5487C118.811 25.5162 118.914 25.461 119.002 25.3867C119.091 25.3124 119.164 25.2205 119.215 25.1168C118.618 25.33 118.696 24.9304 118.696 24.6027ZM117.438 25.1355C117.148 25.1355 117.047 25.0023 117.031 24.7439C117.007 24.3443 117.297 24.3123 117.579 24.291C117.899 24.2644 117.774 24.5388 117.798 24.6C117.854 24.9783 117.766 25.1275 117.438 25.1328V25.1355Z" fill="#414141"/>
<path d="M92.6308 24.6425C92.6308 24.3495 92.6467 24.0565 92.6308 23.7634C92.5988 23.2173 92.431 23.0095 91.9168 22.9429C91.434 22.926 90.9534 23.0171 90.5102 23.2093C90.4356 23.2333 90.3797 23.2839 90.4063 23.3718C90.4329 23.4597 90.4969 23.489 90.6061 23.4757C90.8725 23.4491 91.1389 23.3239 91.4293 23.3745C91.477 23.3794 91.5232 23.3938 91.5653 23.4168C91.6074 23.4398 91.6445 23.4708 91.6745 23.5083C91.7045 23.5457 91.7267 23.5887 91.74 23.6348C91.7532 23.6809 91.7572 23.7291 91.7516 23.7767C91.7516 24.0112 91.6158 24.0724 91.4106 24.0698C91.2199 24.0591 91.0287 24.0591 90.8379 24.0698C90.2944 24.1311 90.06 24.3975 90.0813 24.9303C90.1079 25.3965 90.321 25.559 90.8805 25.559C91.0861 25.5728 91.2913 25.5275 91.4719 25.4284C91.5433 25.3684 91.6346 25.3372 91.7278 25.3412C91.821 25.3451 91.9094 25.3839 91.9754 25.4497C92.2978 25.7162 92.8386 25.5643 93.2275 25.0794C92.6254 25.3006 92.6174 24.9889 92.6308 24.6425ZM91.3653 25.1327C91.067 25.1327 90.9844 24.9809 90.9711 24.7305C90.9471 24.3575 91.2375 24.2989 91.4852 24.2722C91.8209 24.2376 91.733 24.5147 91.7516 24.6985C91.7969 24.9995 91.6744 25.1301 91.3653 25.1327Z" fill="#414141"/>
<path d="M89.5059 25.0344C89.4526 24.8719 89.2874 24.9758 89.1675 25.0051C88.8873 25.0915 88.5949 25.1319 88.3017 25.125C88.1841 25.1238 88.0688 25.0926 87.9667 25.0343C87.8646 24.976 87.7791 24.8926 87.7183 24.792C87.5345 24.4857 87.6117 24.3418 87.966 24.3311C88.4026 24.3127 88.8371 24.262 89.2661 24.1793C89.5112 24.1367 89.5325 24.0061 89.4632 23.8037C89.3977 23.5674 89.2595 23.3577 89.0683 23.2043C88.8771 23.0508 88.6425 22.9614 88.3976 22.9485C88.1344 22.8886 87.8595 22.906 87.6061 22.9989C87.3526 23.0917 87.1314 23.2559 86.9692 23.4716C86.8069 23.6874 86.7106 23.9454 86.6918 24.2147C86.673 24.484 86.7325 24.7529 86.8631 24.9892C87.0683 25.506 87.5318 25.5939 88.0566 25.5672C88.4746 25.5803 88.8882 25.479 89.2528 25.2742C89.354 25.2236 89.5565 25.1969 89.5059 25.0344ZM87.641 23.7823C87.6597 23.5479 87.7689 23.2975 88.0593 23.3135C88.1224 23.3152 88.1845 23.3294 88.2421 23.3553C88.2996 23.3812 88.3515 23.4183 88.3946 23.4644C88.4377 23.5105 88.4712 23.5647 88.4933 23.6238C88.5153 23.683 88.5253 23.7459 88.5228 23.809C88.5228 24.1819 88.1845 23.8436 88.0886 24.0194C87.9287 23.9182 87.625 24.1313 87.6623 23.7823H87.641Z" fill="#414141"/>
</svg>
