<svg width="64" height="64" viewBox="0 0 64 64" fill="none" xmlns="http://www.w3.org/2000/svg">
<path fill-rule="evenodd" clip-rule="evenodd" d="M25.1663 7.80218L26.4062 10.9769C29.1044 10.1743 31.94 9.93118 34.7368 10.2628C37.5336 10.5944 40.2318 11.4937 42.664 12.9047L47.9704 4.45913C55.9953 8.69723 61.2323 15.3833 63.0037 25.1141L56.1185 27.0419C55.5031 22.052 53.2482 17.403 49.7032 13.8151L47.7239 16.5079C52.1215 20.9831 54.2779 25.9862 54.1932 31.5784L63.9663 31.8385C64.4053 41.7835 60.5315 49.3723 53.4769 55.2169L48.34 50.2138C52.3953 47.2246 55.311 42.9584 56.6114 38.1115L53.5308 37.6754C52.1908 43.1681 48.9099 47.6664 43.5189 51.04L48.0782 59.3785C40.6462 64.6264 32.0591 65.2843 22.4553 61.9642L24.296 55.0792C28.7243 57.2059 33.6225 57.4278 38.8749 56.1579L37.635 53.2661C32.1352 54.7261 26.2768 53.9585 21.3463 51.1318L16.1093 59.4856C7.98424 54.9645 2.64712 48.286 0.991297 38.8L7.85332 36.9257C8.39741 41.9173 10.6931 46.5593 14.338 50.0379L16.4328 47.3604C12.4742 42.8392 10.1715 37.8973 10.2331 32.3357L0.0748202 32.0221C-0.525896 23.8366 2.44688 15.9571 10.5796 8.62073L15.6241 13.6085C11.764 16.7733 8.92524 20.995 7.46054 25.7491L11.0032 26.254C12.3125 21.3121 15.5651 17.0179 20.761 13.3714L16.04 4.65803C23.6876 -0.322121 32.2131 -1.40842 41.5935 1.88108L39.7914 8.85023C35.1982 6.76904 30.0049 6.39707 25.1586 7.80218H25.1663ZM18.7432 47.2074L14.4766 52.7001C10.3486 48.745 7.46054 44.285 6.45935 39.1136L3.13231 40.0393C4.91135 47.2303 8.38472 52.7842 15.4008 57.16L20.6917 48.745C26.016 52.315 31.9872 53.154 38.6054 51.2619L41.3163 57.3819C35.9791 58.8507 30.6651 59.2867 25.3896 57.5272L24.6195 60.8473C32.5674 63.2877 39.4987 62.362 45.7061 58.7971L41.039 50.2827C43.883 48.9 46.3716 46.8905 48.3149 44.4073C50.2582 41.9241 51.6049 39.0329 52.2524 35.9542L58.8449 36.658C57.6977 41.9454 54.9387 46.7534 50.9431 50.428L53.4384 52.8607C58.5599 47.6816 62.4877 41.8294 62.2258 33.598L52.5296 33.3608C52.7453 27.4244 50.6428 21.8858 45.4289 16.7374L49.5107 11.26C53.5576 14.8504 56.3539 19.6234 57.4971 24.8923L60.878 23.959C59.0451 16.0642 54.9017 10.4032 48.548 6.74648L43.3033 15.2456C37.6812 11.8261 31.2273 10.8469 25.5898 13.1572L22.6171 6.50168C28.3701 4.97168 33.5686 4.73453 38.5206 6.50168L39.4987 3.05918C31.8589 0.84833 24.7966 1.46033 18.3042 5.04818L23.1793 14.0369C17.1644 17.4871 13.6448 22.2454 12.3202 28.1053L5.24252 27.2944C6.28712 21.9948 9.04868 17.1803 13.1057 13.5856L10.5411 11.107C4.88055 16.2019 1.99249 22.6967 1.64592 30.362L11.9351 30.6527C11.7065 33.7469 12.2021 36.8516 13.3833 39.7237C14.5644 42.5958 16.399 45.1572 18.7432 47.2074Z" fill="#B99522"/>
<path fill-rule="evenodd" clip-rule="evenodd" d="M45.5598 20.7154C45.5598 21.687 44.8667 22.1766 43.4881 22.1766C42.3996 22.1766 39.8042 21.5263 35.7019 20.2258C34.8201 20.7996 34.0963 21.5828 33.5961 22.5045C33.0958 23.4262 32.8349 24.4572 32.8369 25.5043C32.7962 25.8982 32.8496 26.2961 32.9928 26.6656C33.136 27.0351 33.3649 27.3659 33.661 27.631C34.2597 27.5688 34.8612 27.5381 35.4631 27.5392C36.6415 27.5392 37.2268 27.7152 37.2268 28.0671C37.2268 28.419 36.911 28.419 36.2949 28.419C35.4226 28.4046 34.5577 28.2575 33.7303 27.9829C32.1787 28.3323 30.7041 28.9596 29.379 29.8342C25.1586 32.4352 23.0483 35.791 23.0483 39.9016C23.0483 42.6199 24.201 44.3488 26.5063 45.0883C26.0746 44.1262 25.8616 43.0814 25.8825 42.0283C25.9324 39.0719 27.1493 36.2532 29.2712 34.1794C31.5251 31.7824 34.0024 30.5865 36.7031 30.5916C37.249 30.5681 37.7937 30.6604 38.3009 30.8622C38.8081 31.064 39.2663 31.3707 39.6451 31.762C40.4123 32.6208 40.8104 33.744 40.7541 34.8909C40.7541 37.701 39.5501 40.2357 37.1421 42.495C34.9852 44.6522 32.0547 45.8711 28.9939 45.8839C28.4264 45.8889 27.8595 45.8454 27.2996 45.7539C27.7553 46.621 28.4479 47.343 29.2979 47.8369C30.148 48.3308 31.121 48.5766 32.1053 48.5461C33.2285 48.5876 34.3418 48.323 35.3245 47.7811L35.5325 47.7352C35.5661 47.7498 35.594 47.7749 35.6121 47.8066C35.6301 47.8383 35.6373 47.875 35.6326 47.9112C35.6326 48.1177 35.2167 48.3319 34.3926 48.5538C33.6407 48.7663 32.8639 48.8795 32.0822 48.8904C30.9625 48.9088 29.8607 48.6099 28.9059 48.0287C27.9511 47.4474 27.1828 46.6079 26.6912 45.6085C25.1248 45.1941 23.7209 44.3195 22.6633 43.0993C21.7035 41.9539 21.1897 40.5042 21.2154 39.0142C21.2315 36.8965 21.9426 34.8418 23.2409 33.162C24.6147 31.3033 26.481 29.8599 28.6319 28.9927C30.1422 28.378 31.7224 27.9489 33.3375 27.7152C32.7407 27.416 32.2444 26.9507 31.9093 26.3761C31.5743 25.8014 31.4149 25.1423 31.4507 24.4792C31.4634 23.5231 31.7211 22.5859 32.1995 21.7561C32.6778 20.9263 33.361 20.2311 34.1847 19.7362C32.0973 19.0314 29.9184 18.6295 27.7155 18.5428C24.5651 18.4702 21.5091 19.6137 19.1899 21.7329C18.0756 22.697 17.1852 23.8899 16.5802 25.2291C15.9752 26.5684 15.67 28.0221 15.6857 29.49C15.6457 30.7139 15.964 31.923 16.6022 32.9707C16.8097 33.3876 17.1253 33.742 17.5165 33.9975C17.9077 34.253 18.3604 34.4003 18.8279 34.4242C19.4287 34.4242 19.729 34.3018 19.729 34.0647C19.729 33.8275 19.6289 33.8734 19.4209 33.9346C18.8202 33.9346 18.5199 33.5827 18.5199 32.8713C18.5078 32.4866 18.6489 32.1127 18.9127 31.8309C19.0324 31.6971 19.1796 31.5904 19.3443 31.5178C19.509 31.4452 19.6875 31.4085 19.8676 31.4101C20.5839 31.4101 20.9381 31.8538 20.9381 32.7412C20.946 33.0232 20.8969 33.3038 20.7937 33.5666C20.6905 33.8294 20.5354 34.069 20.3374 34.2712C20.1394 34.4768 19.8997 34.6384 19.6342 34.7452C19.3687 34.852 19.0834 34.9016 18.7971 34.8909C17.7651 34.8909 16.8718 34.2865 16.1401 33.0931C15.368 31.7681 14.9838 30.2552 15.0311 28.725C15.0339 26.1438 15.9529 23.6462 17.6265 21.6717C19.6802 19.1216 22.5734 17.8466 26.3061 17.8466C29.1267 17.9856 31.9113 18.5372 34.5698 19.4837C36.1908 18.4983 38.0606 17.9915 39.9608 18.0226C41.3041 17.9782 42.6398 18.2399 43.8655 18.7876C44.9514 19.3231 45.4905 19.958 45.4905 20.7001L45.5598 20.7154ZM45.2132 20.6542C45.2132 20.0881 44.7434 19.5985 43.8116 19.1701C42.806 18.7271 41.7152 18.5078 40.6154 18.5275C39.0009 18.5083 37.4197 18.9838 36.087 19.8892C38.4536 20.9863 41.0109 21.6201 43.619 21.7558C44.6818 21.7558 45.2132 21.381 45.2132 20.6466V20.6542ZM40.4383 34.669C40.4636 33.7342 40.1273 32.8253 39.4987 32.1292C39.1895 31.795 38.8113 31.5311 38.39 31.3555C37.9686 31.1799 37.514 31.0967 37.0574 31.1118C34.6391 31.1118 32.2773 32.3868 29.972 34.9368C27.6667 37.4868 26.5115 40.1209 26.5063 42.8392C26.5192 43.6673 26.7082 44.4833 27.0608 45.2337C27.6481 45.3774 28.2504 45.4518 28.8553 45.4555C31.5046 45.4555 34.1 44.2723 36.6415 41.9059C39.183 39.5395 40.4486 37.1323 40.4383 34.6843V34.669Z" fill="#B99522"/>
<path fill-rule="evenodd" clip-rule="evenodd" d="M45.5598 20.7154C45.5598 21.687 44.8667 22.1766 43.4881 22.1766C42.3996 22.1766 39.8042 21.5263 35.7019 20.2258C34.8201 20.7996 34.0963 21.5828 33.5961 22.5045C33.0958 23.4262 32.8349 24.4572 32.8369 25.5043C32.7962 25.8982 32.8496 26.2961 32.9928 26.6656C33.136 27.0351 33.3649 27.3659 33.661 27.631C34.2597 27.5688 34.8612 27.5381 35.4631 27.5392C36.6415 27.5392 37.2268 27.7152 37.2268 28.0671C37.2268 28.419 36.911 28.419 36.2949 28.419C35.4219 28.4056 34.5565 28.2558 33.7303 27.9753C32.1798 28.3319 30.7061 28.9615 29.379 29.8342C25.1586 32.4352 23.0483 35.791 23.0483 39.9016C23.0483 42.6199 24.201 44.3488 26.5063 45.0883C26.0746 44.1262 25.8616 43.0814 25.8825 42.0283C25.9324 39.0719 27.1493 36.2532 29.2712 34.1794C31.5251 31.7824 34.0024 30.5839 36.7031 30.5839C37.2496 30.5615 37.7946 30.6549 38.3019 30.8581C38.8091 31.0612 39.267 31.3694 39.6451 31.762C40.4116 32.6212 40.8096 33.7441 40.7541 34.8909C40.7541 37.701 39.5501 40.2357 37.1421 42.495C34.9852 44.6522 32.0547 45.8711 28.9939 45.8839C28.4264 45.8889 27.8595 45.8454 27.2996 45.7539C27.7553 46.621 28.4479 47.343 29.2979 47.8369C30.148 48.3308 31.121 48.5766 32.1053 48.5461C33.2285 48.5876 34.3418 48.323 35.3245 47.7811L35.5325 47.7352C35.5661 47.7498 35.594 47.7749 35.6121 47.8066C35.6301 47.8383 35.6373 47.875 35.6326 47.9112C35.6326 48.1177 35.2167 48.3319 34.3926 48.5538C33.6407 48.7663 32.8639 48.8795 32.0822 48.8904C30.9625 48.9088 29.8607 48.6099 28.9059 48.0287C27.9511 47.4474 27.1829 46.6079 26.6912 45.6085C25.1248 45.1941 23.7209 44.3195 22.6633 43.0993C21.7035 41.9539 21.1897 40.5042 21.2154 39.0142C21.2315 36.8965 21.9426 34.8418 23.2409 33.162C24.6147 31.3033 26.481 29.8599 28.6319 28.9927C30.1422 28.378 31.7224 27.9489 33.3375 27.7152C32.7407 27.416 32.2444 26.9507 31.9093 26.3761C31.5743 25.8014 31.4149 25.1423 31.4507 24.4792C31.4634 23.5231 31.7211 22.5859 32.1995 21.7561C32.6778 20.9263 33.361 20.2311 34.1847 19.7362C32.0971 19.032 29.9184 18.6301 27.7155 18.5428C24.5651 18.4702 21.5091 19.6137 19.1899 21.7329C18.0756 22.697 17.1852 23.8899 16.5802 25.2291C15.9752 26.5684 15.67 28.0221 15.6857 29.49C15.6457 30.7139 15.964 31.923 16.6022 32.9707C16.8084 33.3886 17.1236 33.7439 17.5151 33.9996C17.9066 34.2552 18.36 34.4019 18.8279 34.4242C19.4287 34.4242 19.729 34.3018 19.729 34.0647C19.729 33.8275 19.6212 33.8734 19.4132 33.9346C18.8202 33.9346 18.5199 33.5827 18.5199 32.8713C18.5078 32.4866 18.6489 32.1127 18.9127 31.8309C19.0324 31.6971 19.1796 31.5904 19.3443 31.5178C19.509 31.4452 19.6875 31.4085 19.8676 31.4101C20.5839 31.4101 20.9381 31.8538 20.9381 32.7412C20.946 33.0232 20.8969 33.3038 20.7937 33.5666C20.6905 33.8294 20.5354 34.069 20.3374 34.2712C20.1394 34.4768 19.8997 34.6384 19.6342 34.7452C19.3687 34.852 19.0834 34.9016 18.7971 34.8909C17.7574 34.8909 16.8718 34.2865 16.1324 33.0931C15.3664 31.766 14.9852 30.2541 15.0311 28.725C15.0339 26.1438 15.9529 23.6462 17.6265 21.6717C19.6802 19.1216 22.5709 17.8466 26.2984 17.8466C29.1216 17.9847 31.9089 18.5364 34.5698 19.4837C36.1908 18.4983 38.0606 17.9915 39.9608 18.0226C41.3041 17.9782 42.6398 18.2399 43.8655 18.7876C44.9514 19.3231 45.4905 19.958 45.4905 20.7001L45.5598 20.7154ZM45.2132 20.6542C45.2132 20.0881 44.7434 19.5985 43.8116 19.1701C42.8063 18.7264 41.7153 18.5071 40.6154 18.5275C39.0009 18.5083 37.4197 18.9838 36.087 19.8892C38.456 20.9873 41.016 21.6211 43.6267 21.7558C44.6818 21.7558 45.2132 21.381 45.2132 20.6466V20.6542ZM40.4383 34.669C40.4636 33.7342 40.1273 32.8253 39.4987 32.1292C39.1895 31.795 38.8113 31.5311 38.39 31.3555C37.9686 31.1799 37.514 31.0967 37.0574 31.1118C34.6391 31.1118 32.2773 32.3868 29.972 34.9368C27.6667 37.4868 26.5115 40.1209 26.5063 42.8392C26.5192 43.6673 26.7082 44.4833 27.0608 45.2337C27.6481 45.3774 28.2504 45.4518 28.8553 45.4555C31.5046 45.4555 34.1 44.2723 36.6415 41.9059C39.183 39.5395 40.4486 37.1323 40.4383 34.6843V34.669Z" fill="#B99522"/>
</svg>
