<svg width="101" height="102" viewBox="0 0 101 102" fill="none" xmlns="http://www.w3.org/2000/svg">
<path fill-rule="evenodd" clip-rule="evenodd" d="M43.2263 7.80218L44.4663 10.9769C47.1645 10.1743 50.0001 9.93118 52.7969 10.2628C55.5936 10.5944 58.2919 11.4937 60.7241 12.9047L66.0304 4.45913C74.0554 8.69723 79.2924 15.3833 81.0637 25.1141L74.1786 27.0419C73.5632 22.052 71.3083 17.403 67.7633 13.8151L65.784 16.5079C70.1815 20.9831 72.338 25.9862 72.2532 31.5784L82.0264 31.8385C82.4654 41.7835 78.5916 49.3723 71.537 55.2169L66.4001 50.2138C70.4554 47.2246 73.3711 42.9584 74.6715 38.1115L71.5909 37.6754C70.2509 43.1681 66.97 47.6664 61.579 51.04L66.1383 59.3785C58.7063 64.6264 50.1192 65.2843 40.5154 61.9642L42.3561 55.0792C46.7844 57.2059 51.6826 57.4278 56.935 56.1579L55.695 53.2661C50.1952 54.7261 44.3369 53.9585 39.4064 51.1318L34.1694 59.4856C26.0443 54.9645 20.7072 48.286 19.0514 38.8L25.9134 36.9257C26.4575 41.9173 28.7532 46.5593 32.3981 50.0379L34.4929 47.3604C30.5343 42.8392 28.2316 37.8973 28.2932 32.3357L18.1349 32.0221C17.5342 23.8366 20.507 15.9571 28.6397 8.62073L33.6842 13.6085C29.8241 16.7733 26.9853 20.995 25.5206 25.7491L29.0633 26.254C30.3726 21.3121 33.6252 17.0179 38.8211 13.3714L34.1001 4.65803C41.7477 -0.322121 50.2732 -1.40842 59.6536 1.88108L57.8515 8.85023C53.2582 6.76904 48.0649 6.39707 43.2186 7.80218H43.2263ZM36.8033 47.2074L32.5367 52.7001C28.4087 48.745 25.5206 44.285 24.5194 39.1136L21.1924 40.0393C22.9714 47.2303 26.4448 52.7842 33.4609 57.16L38.7518 48.745C44.0761 52.315 50.0473 53.154 56.6654 51.2619L59.3764 57.3819C54.0392 58.8507 48.7252 59.2867 43.4497 57.5272L42.6795 60.8473C50.6275 63.2877 57.5588 62.362 63.7662 58.7971L59.0991 50.2827C61.9431 48.9 64.4316 46.8905 66.3749 44.4073C68.3183 41.9241 69.665 39.0329 70.3125 35.9542L76.9049 36.658C75.7578 41.9454 72.9988 46.7534 69.0032 50.428L71.4985 52.8607C76.62 47.6816 80.5477 41.8294 80.2859 33.598L70.5897 33.3608C70.8054 27.4244 68.7029 21.8858 63.4889 16.7374L67.5707 11.26C71.6177 14.8504 74.4139 19.6234 75.5572 24.8923L78.9381 23.959C77.1052 16.0642 72.9618 10.4032 66.6081 6.74648L61.3633 15.2456C55.7413 11.8261 49.2874 10.8469 43.6499 13.1572L40.6772 6.50168C46.4302 4.97168 51.6287 4.73453 56.5807 6.50168L57.5588 3.05918C49.9189 0.84833 42.8567 1.46033 36.3643 5.04818L41.2394 14.0369C35.2245 17.4871 31.7049 22.2454 30.3803 28.1053L23.3026 27.2944C24.3472 21.9948 27.1088 17.1803 31.1658 13.5856L28.6012 11.107C22.9406 16.2019 20.0526 22.6967 19.706 30.362L29.9952 30.6527C29.7666 33.7469 30.2622 36.8516 31.4434 39.7237C32.6245 42.5958 34.4591 45.1572 36.8033 47.2074Z" fill="#B99522"/>
<path fill-rule="evenodd" clip-rule="evenodd" d="M63.6199 20.7154C63.6199 21.687 62.9267 22.1766 61.5482 22.1766C60.4597 22.1766 57.8643 21.5263 53.762 20.2258C52.8802 20.7996 52.1564 21.5828 51.6562 22.5045C51.1559 23.4262 50.895 24.4572 50.897 25.5043C50.8563 25.8982 50.9097 26.2961 51.0529 26.6656C51.196 27.0352 51.425 27.3659 51.7211 27.631C52.3197 27.5688 52.9213 27.5382 53.5232 27.5392C54.7016 27.5392 55.2869 27.7152 55.2869 28.0671C55.2869 28.419 54.9711 28.419 54.355 28.419C53.4827 28.4046 52.6178 28.2575 51.7904 27.9829C50.2388 28.3323 48.7642 28.9596 47.4391 29.8342C43.2186 32.4352 41.1084 35.791 41.1084 39.9016C41.1084 42.6199 42.2611 44.3488 44.5664 45.0883C44.1346 44.1263 43.9216 43.0815 43.9426 42.0283C43.9924 39.0719 45.2094 36.2532 47.3312 34.1794C49.5852 31.7824 52.0625 30.5865 54.7632 30.5916C55.3091 30.5682 55.8537 30.6604 56.361 30.8622C56.8682 31.064 57.3264 31.3708 57.7051 31.762C58.4724 32.6208 58.8705 33.744 58.8141 34.8909C58.8141 37.701 57.6101 40.2357 55.2022 42.495C53.0453 44.6523 50.1148 45.8711 47.054 45.8839C46.4865 45.889 45.9196 45.8455 45.3597 45.7539C45.8154 46.6211 46.508 47.343 47.358 47.8369C48.2081 48.3308 49.1811 48.5766 50.1654 48.5461C51.2886 48.5876 52.4019 48.3231 53.3846 47.7811L53.5925 47.7352C53.6262 47.7498 53.6541 47.7749 53.6722 47.8066C53.6902 47.8384 53.6974 47.8751 53.6927 47.9112C53.6927 48.1177 53.2768 48.3319 52.4527 48.5538C51.7008 48.7664 50.924 48.8795 50.1423 48.8904C49.0226 48.9088 47.9208 48.6099 46.966 48.0287C46.0112 47.4474 45.2429 46.6079 44.7512 45.6085C43.1849 45.1942 41.781 44.3196 40.7234 43.0993C39.7636 41.9539 39.2498 40.5043 39.2755 39.0142C39.2915 36.8965 40.0027 34.8418 41.301 33.162C42.6748 31.3033 44.5411 29.86 46.692 28.9927C48.2023 28.378 49.7825 27.9489 51.3976 27.7152C50.8008 27.416 50.3045 26.9507 49.9694 26.3761C49.6344 25.8015 49.475 25.1423 49.5108 24.4792C49.5235 23.5231 49.7812 22.5859 50.2595 21.7561C50.7379 20.9263 51.4211 20.2311 52.2448 19.7362C50.1574 19.0314 47.9785 18.6295 45.7755 18.5428C42.6252 18.4703 39.5692 19.6137 37.25 21.7329C36.1356 22.697 35.2452 23.8899 34.6402 25.2292C34.0352 26.5684 33.7301 28.0222 33.7458 29.49C33.7057 30.7139 34.0241 31.923 34.6623 32.9707C34.8698 33.3876 35.1853 33.7421 35.5765 33.9976C35.9678 34.253 36.4205 34.4003 36.888 34.4242C37.4887 34.4242 37.7891 34.3018 37.7891 34.0647C37.7891 33.8275 37.689 33.8734 37.481 33.9346C36.8803 33.9346 36.58 33.5827 36.58 32.8713C36.5678 32.4866 36.709 32.1128 36.9727 31.8309C37.0925 31.6971 37.2397 31.5904 37.4044 31.5178C37.5691 31.4453 37.7475 31.4085 37.9277 31.4101C38.644 31.4101 38.9982 31.8538 38.9982 32.7412C39.0061 33.0232 38.9569 33.3038 38.8538 33.5666C38.7506 33.8294 38.5954 34.069 38.3975 34.2712C38.1995 34.4768 37.9598 34.6384 37.6943 34.7452C37.4288 34.852 37.1435 34.9017 36.8572 34.8909C35.8252 34.8909 34.9318 34.2865 34.2002 33.0931C33.428 31.7682 33.0439 30.2552 33.0912 28.725C33.094 26.1438 34.013 23.6463 35.6866 21.6717C37.7403 19.1217 40.6335 17.8467 44.3662 17.8467C47.1868 17.9856 49.9714 18.5372 52.6299 19.4838C54.2508 18.4984 56.1207 17.9916 58.0209 18.0226C59.3642 17.9782 60.6999 18.2399 61.9255 18.7876C63.0115 19.3231 63.5506 19.9581 63.5506 20.7001L63.6199 20.7154ZM63.2733 20.6542C63.2733 20.0881 62.8035 19.5985 61.8716 19.1701C60.8661 18.7271 59.7753 18.5078 58.6755 18.5275C57.061 18.5084 55.4798 18.9838 54.147 19.8892C56.5137 20.9864 59.071 21.6201 61.6791 21.7558C62.7419 21.7558 63.2733 21.381 63.2733 20.6466V20.6542ZM58.4984 34.669C58.5237 33.7342 58.1874 32.8254 57.5588 32.1292C57.2496 31.795 56.8714 31.5311 56.4501 31.3555C56.0287 31.1799 55.5741 31.0968 55.1174 31.1118C52.6992 31.1118 50.3374 32.3868 48.0321 34.9368C45.7268 37.4868 44.5715 40.1209 44.5664 42.8392C44.5793 43.6673 44.7682 44.4833 45.1209 45.2337C45.7082 45.3774 46.3105 45.4518 46.9154 45.4555C49.5647 45.4555 52.1601 44.2723 54.7016 41.9059C57.243 39.5395 58.5087 37.1323 58.4984 34.6843V34.669Z" fill="#B99522"/>
<path fill-rule="evenodd" clip-rule="evenodd" d="M63.6199 20.7154C63.6199 21.687 62.9267 22.1766 61.5482 22.1766C60.4597 22.1766 57.8643 21.5263 53.762 20.2258C52.8802 20.7996 52.1564 21.5828 51.6562 22.5045C51.1559 23.4262 50.895 24.4572 50.897 25.5043C50.8563 25.8982 50.9097 26.2961 51.0529 26.6656C51.196 27.0352 51.425 27.3659 51.7211 27.631C52.3197 27.5688 52.9213 27.5382 53.5232 27.5392C54.7016 27.5392 55.2869 27.7152 55.2869 28.0671C55.2869 28.419 54.9711 28.419 54.355 28.419C53.482 28.4056 52.6165 28.2558 51.7904 27.9753C50.2399 28.332 48.7662 28.9615 47.4391 29.8342C43.2186 32.4352 41.1084 35.791 41.1084 39.9016C41.1084 42.6199 42.2611 44.3488 44.5664 45.0883C44.1346 44.1263 43.9216 43.0815 43.9426 42.0283C43.9924 39.0719 45.2094 36.2532 47.3312 34.1794C49.5852 31.7824 52.0625 30.5839 54.7632 30.5839C55.3096 30.5615 55.8547 30.655 56.3619 30.8581C56.8692 31.0612 57.3271 31.3694 57.7051 31.762C58.4717 32.6213 58.8697 33.7441 58.8141 34.8909C58.8141 37.701 57.6101 40.2357 55.2022 42.495C53.0453 44.6523 50.1148 45.8711 47.054 45.8839C46.4865 45.889 45.9196 45.8455 45.3597 45.7539C45.8154 46.6211 46.508 47.343 47.358 47.8369C48.2081 48.3308 49.1811 48.5766 50.1654 48.5461C51.2886 48.5876 52.4019 48.3231 53.3846 47.7811L53.5925 47.7352C53.6262 47.7498 53.6541 47.7749 53.6722 47.8066C53.6902 47.8384 53.6974 47.8751 53.6927 47.9112C53.6927 48.1177 53.2768 48.3319 52.4527 48.5538C51.7008 48.7664 50.924 48.8795 50.1423 48.8904C49.0226 48.9088 47.9208 48.6099 46.966 48.0287C46.0112 47.4474 45.2429 46.6079 44.7512 45.6085C43.1849 45.1942 41.781 44.3196 40.7234 43.0993C39.7636 41.9539 39.2498 40.5043 39.2755 39.0142C39.2915 36.8965 40.0027 34.8418 41.301 33.162C42.6748 31.3033 44.5411 29.86 46.692 28.9927C48.2023 28.378 49.7825 27.9489 51.3976 27.7152C50.8008 27.416 50.3045 26.9507 49.9694 26.3761C49.6344 25.8015 49.475 25.1423 49.5108 24.4792C49.5235 23.5231 49.7812 22.5859 50.2595 21.7561C50.7379 20.9263 51.4211 20.2311 52.2448 19.7362C50.1572 19.0321 47.9784 18.6301 45.7755 18.5428C42.6252 18.4703 39.5692 19.6137 37.25 21.7329C36.1356 22.697 35.2452 23.8899 34.6402 25.2292C34.0352 26.5684 33.7301 28.0222 33.7458 29.49C33.7057 30.7139 34.0241 31.923 34.6623 32.9707C34.8684 33.3886 35.1837 33.7439 35.5752 33.9996C35.9667 34.2553 36.42 34.4019 36.888 34.4242C37.4887 34.4242 37.7891 34.3018 37.7891 34.0647C37.7891 33.8275 37.6813 33.8734 37.4733 33.9346C36.8803 33.9346 36.58 33.5827 36.58 32.8713C36.5678 32.4866 36.709 32.1128 36.9727 31.8309C37.0925 31.6971 37.2397 31.5904 37.4044 31.5178C37.5691 31.4453 37.7475 31.4085 37.9277 31.4101C38.644 31.4101 38.9982 31.8538 38.9982 32.7412C39.0061 33.0232 38.9569 33.3038 38.8538 33.5666C38.7506 33.8294 38.5954 34.069 38.3975 34.2712C38.1995 34.4768 37.9598 34.6384 37.6943 34.7452C37.4288 34.852 37.1435 34.9017 36.8572 34.8909C35.8175 34.8909 34.9318 34.2865 34.1925 33.0931C33.4264 31.766 33.0453 30.2541 33.0912 28.725C33.094 26.1438 34.013 23.6463 35.6866 21.6717C37.7403 19.1217 40.6309 17.8467 44.3585 17.8467C47.1817 17.9847 49.9689 18.5364 52.6299 19.4838C54.2508 18.4984 56.1207 17.9916 58.0209 18.0226C59.3642 17.9782 60.6999 18.2399 61.9255 18.7876C63.0115 19.3231 63.5506 19.9581 63.5506 20.7001L63.6199 20.7154ZM63.2733 20.6542C63.2733 20.0881 62.8035 19.5985 61.8716 19.1701C60.8664 18.7264 59.7754 18.5071 58.6755 18.5275C57.061 18.5084 55.4798 18.9838 54.147 19.8892C56.5161 20.9873 59.0761 21.6211 61.6868 21.7558C62.7419 21.7558 63.2733 21.381 63.2733 20.6466V20.6542ZM58.4984 34.669C58.5237 33.7342 58.1874 32.8254 57.5588 32.1292C57.2496 31.795 56.8714 31.5311 56.4501 31.3555C56.0287 31.1799 55.5741 31.0968 55.1174 31.1118C52.6992 31.1118 50.3374 32.3868 48.0321 34.9368C45.7268 37.4868 44.5715 40.1209 44.5664 42.8392C44.5793 43.6673 44.7682 44.4833 45.1209 45.2337C45.7082 45.3774 46.3105 45.4518 46.9154 45.4555C49.5647 45.4555 52.1601 44.2723 54.7016 41.9059C57.243 39.5395 58.5087 37.1323 58.4984 34.6843V34.669Z" fill="#B99522"/>
<path fill-rule="evenodd" clip-rule="evenodd" d="M3.89 97.4399C3.89931 97.7784 3.78562 98.1088 3.57 98.3699C3.4485 98.5167 3.29553 98.6342 3.12242 98.7139C2.94932 98.7935 2.76051 98.8331 2.57 98.8299C2.24358 98.8432 1.92244 98.7444 1.66 98.5499L1.56 98.8299H0.229996V91.8899H1.61V94.2499C1.88136 94.058 2.20781 93.9597 2.54 93.9699C2.73062 93.9659 2.91966 94.0052 3.09288 94.0849C3.2661 94.1646 3.41898 94.2826 3.54 94.4299C3.7525 94.6927 3.86578 95.0219 3.86 95.3599V97.4399H3.89ZM2.52 97.7899V95.0099C2.51956 94.9612 2.50642 94.9134 2.48186 94.8713C2.45731 94.8292 2.4222 94.7943 2.38 94.7699C2.28765 94.7015 2.17488 94.6662 2.06 94.6699C1.94511 94.6662 1.83235 94.7015 1.74 94.7699C1.70089 94.7968 1.66872 94.8325 1.64612 94.8743C1.62352 94.916 1.61114 94.9625 1.61 95.0099V97.7899C1.61114 97.8373 1.62352 97.8838 1.64612 97.9255C1.66872 97.9673 1.70089 98.003 1.74 98.0299C1.83235 98.0983 1.94511 98.1336 2.06 98.1299C2.17797 98.1335 2.29388 98.0984 2.39 98.0299C2.4291 98.003 2.46127 97.9673 2.48387 97.9255C2.50647 97.8838 2.51885 97.8373 2.52 97.7899Z" fill="#B99522" stroke="#B99522" stroke-width="0.22" stroke-miterlimit="22.93"/>
<path fill-rule="evenodd" clip-rule="evenodd" d="M9.63 97.44C9.62986 97.6373 9.58149 97.8315 9.48912 98.0058C9.39674 98.1801 9.26316 98.3292 9.1 98.44C8.72431 98.7174 8.26686 98.8617 7.8 98.85C7.33313 98.8617 6.87568 98.7174 6.5 98.44C6.33558 98.3304 6.20103 98.1816 6.1085 98.0071C6.01597 97.8325 5.96837 97.6376 5.97 97.44V95.36C5.97099 95.1629 6.01972 94.969 6.11202 94.7948C6.20432 94.6207 6.33744 94.4715 6.5 94.36C6.87695 94.0862 7.33429 93.9454 7.8 93.96C8.26357 93.9498 8.71738 94.094 9.09 94.37C9.25501 94.4797 9.39055 94.6283 9.48471 94.8027C9.57886 94.977 9.62875 95.1719 9.63 95.37V96.75H7.35V97.75C7.35 97.98 7.5 98.09 7.8 98.09C8.1 98.09 8.29 97.9 8.29 97.5C8.29425 97.4167 8.29425 97.3333 8.29 97.25C8.29 97.15 8.29 97.08 8.29 97.06H9.63V97.4V97.44ZM8.26 96.05V95.05C8.25956 95.0013 8.24642 94.9535 8.22187 94.9114C8.19731 94.8693 8.1622 94.8344 8.12 94.81C8.02765 94.7416 7.91488 94.7063 7.8 94.71C7.5 94.71 7.35 94.82 7.35 95.05V96.05H8.26Z" fill="#B99522" stroke="#B99522" stroke-width="0.22" stroke-miterlimit="22.93"/>
<path fill-rule="evenodd" clip-rule="evenodd" d="M15.37 97.4399C15.3699 97.6372 15.3215 97.8314 15.2291 98.0057C15.1367 98.18 15.0032 98.3291 14.84 98.4399C14.4643 98.7173 14.0069 98.8616 13.54 98.8499C13.076 98.8632 12.6212 98.7187 12.25 98.4399C12.0824 98.3329 11.9449 98.1849 11.8504 98.0099C11.7559 97.8349 11.7076 97.6388 11.71 97.4399V97.1499H13.09C13.09 97.1499 13.09 97.2699 13.09 97.3699C13.0858 97.4465 13.0858 97.5233 13.09 97.5999C13.09 97.9899 13.25 98.1799 13.57 98.1799C13.6882 98.1851 13.8046 98.1498 13.9 98.0799C13.9391 98.053 13.9713 98.0173 13.9939 97.9756C14.0165 97.9338 14.0289 97.8874 14.03 97.8399V97.1499C14.0305 97.1008 14.0188 97.0523 13.9962 97.0087C13.9735 96.9651 13.9405 96.9278 13.9 96.8999C13.8059 96.8265 13.6894 96.7876 13.57 96.7899C13.1066 96.8102 12.6506 96.6688 12.28 96.3899C12.1144 96.2808 11.9783 96.1324 11.8841 95.9579C11.7899 95.7834 11.7404 95.5882 11.74 95.3899C11.7395 95.1914 11.7886 94.9959 11.8829 94.8213C11.9772 94.6466 12.1137 94.4983 12.28 94.3899C12.6493 94.1075 13.1054 93.9625 13.57 93.9799C14.0336 93.9697 14.4874 94.1139 14.86 94.3899C15.025 94.4996 15.1606 94.6482 15.2547 94.8226C15.3489 94.9969 15.3988 95.1918 15.4 95.3899V95.7399H14C14 95.7399 14 95.6199 14 95.5099C14.0042 95.4333 14.0042 95.3565 14 95.2799C14 94.8899 13.84 94.6999 13.51 94.6999C13.3953 94.6978 13.283 94.7328 13.19 94.7999C13.1509 94.8268 13.1187 94.8626 13.0961 94.9043C13.0735 94.946 13.0611 94.9925 13.06 95.0399V95.7399C13.0611 95.7873 13.0735 95.8338 13.0961 95.8756C13.1187 95.9173 13.1509 95.953 13.19 95.9799C13.283 96.047 13.3953 96.0821 13.51 96.0799C13.9758 96.0653 14.4321 96.2139 14.8 96.4999C14.9642 96.5986 15.1018 96.7357 15.2012 96.8995C15.3005 97.0633 15.3584 97.2487 15.37 97.4399Z" fill="#B99522" stroke="#B99522" stroke-width="0.22" stroke-miterlimit="22.93"/>
<path fill-rule="evenodd" clip-rule="evenodd" d="M20.43 98.83H19.51C19.0464 98.8402 18.5926 98.696 18.22 98.42C18.0544 98.3109 17.9183 98.1625 17.8241 97.988C17.7299 97.8135 17.6804 97.6183 17.68 97.42V94.65H16.78V93.95H17.68V91.87H19.05V93.95H20V94.65H19.08V97.77C19.08 98.01 19.34 98.13 19.85 98.13H20.46L20.43 98.83Z" fill="#B99522" stroke="#B99522" stroke-width="0.22" stroke-miterlimit="22.93"/>
<path fill-rule="evenodd" clip-rule="evenodd" d="M28.68 98.83H27.4L27.31 98.55C27.0476 98.7446 26.7264 98.8434 26.4 98.83C26.1997 98.841 25.9996 98.8052 25.8156 98.7253C25.6316 98.6455 25.4688 98.5238 25.34 98.37C25.1332 98.106 25.0208 97.7804 25.0208 97.445C25.0208 97.1097 25.1332 96.784 25.34 96.52C25.4605 96.3714 25.6131 96.2519 25.7862 96.1706C25.9594 96.0892 26.1487 96.048 26.34 96.05C26.672 96.0413 26.998 96.1395 27.27 96.33V95.01C27.2696 94.9613 27.2564 94.9135 27.2319 94.8714C27.2073 94.8293 27.1722 94.7944 27.13 94.77C27.0377 94.7016 26.9249 94.6663 26.81 94.67C26.49 94.67 26.33 94.86 26.33 95.26C26.3256 95.34 26.3256 95.4201 26.33 95.5C26.33 95.61 26.33 95.68 26.33 95.71H25V95.36C24.9995 95.1615 25.0486 94.966 25.1429 94.7914C25.2372 94.6167 25.3737 94.4684 25.54 94.36C25.9093 94.0776 26.3654 93.9326 26.83 93.95C27.2936 93.9398 27.7474 94.084 28.12 94.36C28.285 94.4697 28.4206 94.6183 28.5147 94.7927C28.6089 94.967 28.6588 95.1619 28.66 95.36V98.83H28.68ZM27.31 97.83V97.15C27.3105 97.1009 27.2989 97.0524 27.2762 97.0088C27.2535 96.9652 27.2205 96.9279 27.18 96.9C27.0848 96.8286 26.969 96.79 26.85 96.79C26.7341 96.79 26.6214 96.8287 26.53 96.9C26.4895 96.9279 26.4565 96.9652 26.4338 97.0088C26.4112 97.0524 26.3995 97.1009 26.4 97.15V97.84C26.4011 97.8874 26.4135 97.9339 26.4361 97.9756C26.4587 98.0174 26.4909 98.0531 26.53 98.08C26.6224 98.1485 26.7351 98.1837 26.85 98.18C26.968 98.1836 27.0839 98.1485 27.18 98.08C27.2267 98.0487 27.2636 98.0049 27.2866 97.9536C27.3095 97.9024 27.3177 97.8457 27.31 97.79V97.83Z" fill="#B99522" stroke="#B99522" stroke-width="0.22" stroke-miterlimit="22.93"/>
<path fill-rule="evenodd" clip-rule="evenodd" d="M33.74 98.83H32.82C32.3564 98.8402 31.9026 98.696 31.53 98.42C31.3644 98.3109 31.2283 98.1625 31.1341 97.988C31.0399 97.8135 30.9904 97.6183 30.99 97.42V94.65H30.09V93.95H31V91.87H32.37V93.95H33.29V94.65H32.37V97.77C32.37 98.01 32.63 98.13 33.14 98.13H33.75L33.74 98.83Z" fill="#B99522" stroke="#B99522" stroke-width="0.22" stroke-miterlimit="22.93"/>
<path fill-rule="evenodd" clip-rule="evenodd" d="M42 99.52C41.9996 99.7183 41.9501 99.9134 41.8559 100.088C41.7616 100.262 41.6256 100.411 41.46 100.52C41.0813 100.783 40.6312 100.924 40.17 100.924C39.7088 100.924 39.2587 100.783 38.88 100.52C38.7144 100.411 38.5783 100.262 38.4841 100.088C38.3899 99.9134 38.3404 99.7183 38.34 99.52V99.15H39.72C39.72 99.15 39.72 99.27 39.72 99.37C39.716 99.4466 39.716 99.5234 39.72 99.6C39.72 99.99 39.88 100.19 40.2 100.19C40.3151 100.195 40.4284 100.16 40.52 100.09C40.563 100.064 40.5985 100.027 40.623 99.9835C40.6476 99.9396 40.6603 99.8902 40.66 99.84V98.55C40.3856 98.7433 40.0555 98.8416 39.72 98.83C39.5297 98.8318 39.3414 98.7915 39.1685 98.712C38.9956 98.6325 38.8424 98.5157 38.72 98.37C38.5075 98.1071 38.3942 97.7779 38.4 97.44V93.97H39.78V97.79C39.7811 97.8374 39.7935 97.8839 39.8161 97.9256C39.8387 97.9673 39.8709 98.0031 39.91 98.03C40.0023 98.0984 40.1151 98.1337 40.23 98.13C40.3451 98.1353 40.4584 98.0999 40.55 98.03C40.5922 98.0056 40.6273 97.9707 40.6519 97.9286C40.6764 97.8865 40.6896 97.8387 40.69 97.79V93.97H42V99.52Z" fill="#B99522" stroke="#B99522" stroke-width="0.22" stroke-miterlimit="22.93"/>
<path fill-rule="evenodd" clip-rule="evenodd" d="M47.73 97.44C47.7316 97.6376 47.684 97.8325 47.5915 98.007C47.499 98.1816 47.3644 98.3304 47.2 98.44C46.8188 98.7063 46.365 98.8491 45.9 98.8491C45.435 98.8491 44.9812 98.7063 44.6 98.44C44.4356 98.3304 44.301 98.1816 44.2085 98.007C44.116 97.8325 44.0684 97.6376 44.07 97.44V95.36C44.071 95.1629 44.1197 94.969 44.212 94.7948C44.3043 94.6207 44.4374 94.4715 44.6 94.36C44.9833 94.099 45.4363 93.9595 45.9 93.9595C46.3637 93.9595 46.8167 94.099 47.2 94.36C47.3626 94.4715 47.4957 94.6207 47.588 94.7948C47.6803 94.969 47.729 95.1629 47.73 95.36V97.44ZM46.36 97.79V95.01C46.36 94.78 46.21 94.67 45.9 94.67C45.59 94.67 45.45 94.78 45.45 95.01V97.79C45.45 98.02 45.6 98.13 45.9 98.13C46.2 98.13 46.36 98.02 46.36 97.79Z" fill="#B99522" stroke="#B99522" stroke-width="0.22" stroke-miterlimit="22.93"/>
<path fill-rule="evenodd" clip-rule="evenodd" d="M53.47 98.83H52.19L52.1 98.55C51.8286 98.7418 51.5022 98.8401 51.17 98.83C50.9794 98.834 50.7903 98.7946 50.6171 98.7149C50.4439 98.6353 50.291 98.5173 50.17 98.37C49.95 98.1108 49.8326 97.7799 49.84 97.44V93.97H51.22V97.79C51.2211 97.8374 51.2335 97.8839 51.2561 97.9256C51.2787 97.9673 51.3109 98.0031 51.35 98.03C51.443 98.097 51.5553 98.1321 51.67 98.13C51.7882 98.1351 51.9046 98.0999 52 98.03C52.0391 98.0031 52.0713 97.9673 52.0939 97.9256C52.1165 97.8839 52.1289 97.8374 52.13 97.79V93.97H53.5L53.47 98.83Z" fill="#B99522" stroke="#B99522" stroke-width="0.22" stroke-miterlimit="22.93"/>
<path fill-rule="evenodd" clip-rule="evenodd" d="M59.21 95.7099H57.85C57.8462 95.6333 57.8462 95.5566 57.85 95.48C57.8542 95.4033 57.8542 95.3266 57.85 95.25C57.85 94.86 57.69 94.6699 57.36 94.6699C57.2482 94.6661 57.1385 94.7015 57.05 94.77C57.0078 94.7943 56.9727 94.8293 56.9481 94.8714C56.9236 94.9135 56.9104 94.9612 56.91 95.01V98.83H55.55V93.97H56.83L56.93 94.25C57.2014 94.0581 57.5278 93.9598 57.86 93.97C58.76 93.97 59.21 94.55 59.21 95.7099Z" fill="#B99522" stroke="#B99522" stroke-width="0.22" stroke-miterlimit="22.93"/>
<path fill-rule="evenodd" clip-rule="evenodd" d="M67.93 97.4399C67.9296 97.6382 67.8801 97.8334 67.7859 98.0079C67.6917 98.1824 67.5556 98.3308 67.39 98.4399C67.0109 98.7067 66.5586 98.85 66.095 98.85C65.6314 98.85 65.1791 98.7067 64.8 98.4399C64.6356 98.3303 64.501 98.1815 64.4085 98.007C64.316 97.8324 64.2684 97.6375 64.27 97.4399V97.1499H65.64C65.6438 97.2232 65.6438 97.2966 65.64 97.3699C65.64 97.4699 65.64 97.5399 65.64 97.5999C65.64 97.9899 65.8 98.1799 66.13 98.1799C66.2449 98.1836 66.3576 98.1484 66.45 98.0799C66.4904 98.0536 66.5241 98.0181 66.5484 97.9765C66.5727 97.9348 66.5869 97.8881 66.59 97.8399V97.1499C66.5885 97.1001 66.575 97.0513 66.5506 97.0078C66.5262 96.9643 66.4917 96.9273 66.45 96.8999C66.3586 96.8286 66.2459 96.7899 66.13 96.7899C65.6643 96.8045 65.207 96.6638 64.83 96.3899C64.6668 96.2791 64.5333 96.13 64.4409 95.9557C64.3485 95.7814 64.3001 95.5872 64.3 95.3899C64.2995 95.1914 64.3486 94.9959 64.4429 94.8213C64.5372 94.6466 64.6737 94.4983 64.84 94.3899C65.2093 94.1075 65.6654 93.9625 66.13 93.9799C66.5903 93.9712 67.0405 94.1154 67.41 94.3899C67.5775 94.4978 67.7155 94.6458 67.8115 94.8204C67.9075 94.9949 67.9586 95.1907 67.96 95.3899V95.7399H66.56C66.5562 95.6633 66.5562 95.5865 66.56 95.5099C66.56 95.4099 66.56 95.3399 66.56 95.2799C66.56 94.8899 66.39 94.6999 66.07 94.6999C65.9551 94.6962 65.8424 94.7315 65.75 94.7999C65.7096 94.8263 65.6759 94.8617 65.6516 94.9034C65.6273 94.945 65.6131 94.9918 65.61 95.0399V95.7399C65.6131 95.7881 65.6273 95.8348 65.6516 95.8765C65.6759 95.9181 65.7096 95.9536 65.75 95.9799C65.8424 96.0484 65.9551 96.0836 66.07 96.0799C66.5324 96.0677 66.9847 96.2161 67.35 96.4999C67.5166 96.5967 67.6567 96.7332 67.7579 96.8972C67.8591 97.0612 67.9182 97.2476 67.93 97.4399Z" fill="#B99522" stroke="#B99522" stroke-width="0.22" stroke-miterlimit="22.93"/>
<path fill-rule="evenodd" clip-rule="evenodd" d="M73.67 97.44C73.6696 97.6383 73.6201 97.8335 73.5259 98.008C73.4317 98.1825 73.2956 98.3309 73.13 98.44C72.7509 98.7068 72.2986 98.8501 71.835 98.8501C71.3714 98.8501 70.9191 98.7068 70.54 98.44C70.3756 98.3304 70.241 98.1816 70.1485 98.0071C70.056 97.8325 70.0084 97.6376 70.01 97.44V95.36C70.011 95.1629 70.0597 94.969 70.152 94.7948C70.2443 94.6207 70.3775 94.4715 70.54 94.36C70.917 94.0862 71.3743 93.9454 71.84 93.96C72.3031 93.9528 72.756 94.0967 73.13 94.37C73.295 94.4797 73.4306 94.6283 73.5247 94.8027C73.6189 94.977 73.6688 95.1719 73.67 95.37V96.75H71.38V97.75C71.38 97.98 71.53 98.09 71.84 98.09C72.15 98.09 72.33 97.9 72.33 97.5C72.33 97.44 72.33 97.35 72.33 97.25C72.3268 97.1867 72.3268 97.1233 72.33 97.06H73.7V97.4L73.67 97.44ZM72.3 96.05V95.05C72.2969 95.0019 72.2827 94.9551 72.2584 94.9135C72.2341 94.8718 72.2004 94.8364 72.16 94.81C72.0677 94.7416 71.9549 94.7063 71.84 94.71C71.53 94.71 71.38 94.82 71.38 95.05V96.05H72.3Z" fill="#B99522" stroke="#B99522" stroke-width="0.22" stroke-miterlimit="22.93"/>
<path fill-rule="evenodd" clip-rule="evenodd" d="M79.41 95.71H78C78 95.71 78 95.59 78 95.48C78 95.37 78 95.31 78 95.25C78 94.86 77.84 94.67 77.51 94.67C77.3951 94.6663 77.2824 94.7016 77.19 94.77C77.1496 94.7964 77.1159 94.8318 77.0916 94.8735C77.0673 94.9151 77.0531 94.9619 77.05 95.01V98.83H75.75V93.97H77L77.09 94.25C77.3657 94.0593 77.6949 93.9613 78.03 93.97C78.95 93.97 79.41 94.55 79.41 95.71Z" fill="#B99522" stroke="#B99522" stroke-width="0.22" stroke-miterlimit="22.93"/>
<path fill-rule="evenodd" clip-rule="evenodd" d="M84.92 97.44C84.9216 97.6376 84.874 97.8325 84.7815 98.007C84.689 98.1816 84.5544 98.3304 84.39 98.44C84.0143 98.7174 83.5569 98.8617 83.09 98.85H81.26V93.99H82.64V98.15H83.09C83.4 98.15 83.55 98.04 83.55 97.81V93.99H84.92V97.44Z" fill="#B99522" stroke="#B99522" stroke-width="0.22" stroke-miterlimit="22.93"/>
<path fill-rule="evenodd" clip-rule="evenodd" d="M88.38 98.8299H87V93.9699H88.38V98.8299ZM88.38 92.9299H87V91.9299H88.38V92.9299Z" fill="#B99522" stroke="#B99522" stroke-width="0.22" stroke-miterlimit="22.93"/>
<path fill-rule="evenodd" clip-rule="evenodd" d="M94.11 97.4399C94.1099 97.6372 94.0615 97.8314 93.9691 98.0057C93.8767 98.18 93.7432 98.3291 93.58 98.4399C93.2043 98.7173 92.7469 98.8616 92.28 98.8499C91.816 98.8633 91.3612 98.7187 90.99 98.4399C90.8224 98.3329 90.6849 98.1849 90.5904 98.0099C90.4959 97.8349 90.4476 97.6388 90.45 97.4399V95.3599C90.4504 95.1616 90.4999 94.9665 90.5941 94.7919C90.6883 94.6174 90.8244 94.469 90.99 94.3599C91.3606 94.081 91.8166 93.9396 92.28 93.9599C92.7436 93.9497 93.1974 94.0939 93.57 94.3699C93.735 94.4796 93.8706 94.6282 93.9647 94.8026C94.0589 94.9769 94.1088 95.1718 94.11 95.3699V95.7199H92.74C92.74 95.7199 92.74 95.5999 92.74 95.4999C92.7442 95.42 92.7442 95.3399 92.74 95.2599C92.74 94.8699 92.58 94.6799 92.25 94.6799C91.92 94.6799 91.8 94.7899 91.8 95.0199V97.7999C91.8 98.0299 91.95 98.1399 92.25 98.1399C92.55 98.1399 92.74 97.9499 92.74 97.5599C92.7444 97.4767 92.7444 97.3932 92.74 97.3099C92.74 97.1999 92.74 97.1399 92.74 97.1099H94.11V97.4399Z" fill="#B99522" stroke="#B99522" stroke-width="0.22" stroke-miterlimit="22.93"/>
<path fill-rule="evenodd" clip-rule="evenodd" d="M99.85 97.4399C99.8499 97.6372 99.8015 97.8314 99.7091 98.0057C99.6167 98.18 99.4832 98.3291 99.32 98.4399C98.9443 98.7173 98.4869 98.8616 98.02 98.8499C97.556 98.8633 97.1012 98.7187 96.73 98.4399C96.5624 98.3329 96.4249 98.1849 96.3304 98.0099C96.2359 97.8349 96.1876 97.6388 96.19 97.4399V95.3599C96.1904 95.1616 96.2399 94.9665 96.3341 94.7919C96.4283 94.6174 96.5644 94.469 96.73 94.3599C97.1006 94.081 97.5566 93.9396 98.02 93.9599C98.4836 93.9497 98.9374 94.0939 99.31 94.3699C99.475 94.4796 99.6106 94.6282 99.7047 94.8026C99.7989 94.9769 99.8488 95.1718 99.85 95.3699V96.7499H97.57V97.7499C97.57 97.9799 97.72 98.0899 98.02 98.0899C98.32 98.0899 98.51 97.8999 98.51 97.4999C98.5143 97.4166 98.5143 97.3332 98.51 97.2499C98.51 97.1499 98.51 97.0799 98.51 97.0599H99.88V97.3999L99.85 97.4399ZM98.48 96.0499V95.0499C98.4789 95.0025 98.4665 94.956 98.4439 94.9143C98.4213 94.8726 98.3891 94.8368 98.35 94.8099C98.2533 94.7427 98.1378 94.7077 98.02 94.7099C97.72 94.7099 97.57 94.8199 97.57 95.0499V96.0499H98.48Z" fill="#B99522" stroke="#B99522" stroke-width="0.22" stroke-miterlimit="22.93"/>
<path fill-rule="evenodd" clip-rule="evenodd" d="M4.2 87.1H0V75.1H4.2V76.3H1.8V80.5H4.2V81.7H1.8V85.9H4.2V87.1Z" fill="#B99522"/>
<path fill-rule="evenodd" clip-rule="evenodd" d="M50.12 87.1H45.92V75.1H47.72V85.9H50.12V87.1Z" fill="#B99522"/>
<path fill-rule="evenodd" clip-rule="evenodd" d="M14.36 87.15H12.55V76.9C12.55 76.8215 12.5341 76.7437 12.5031 76.6715C12.4722 76.5993 12.4269 76.5342 12.37 76.48C12.3181 76.4229 12.2548 76.3774 12.1842 76.3464C12.1135 76.3154 12.0371 76.2996 11.96 76.3C11.7999 76.2981 11.6455 76.3591 11.53 76.47C11.4719 76.5253 11.4259 76.5921 11.3949 76.6661C11.3639 76.7401 11.3486 76.8198 11.35 76.9V87.15H9.56001V76.9C9.56061 76.8204 9.54393 76.7417 9.51113 76.6691C9.47833 76.5966 9.43018 76.5321 9.37001 76.48C9.27281 76.3768 9.14119 76.3128 9.00001 76.3C8.92225 76.2993 8.84512 76.3139 8.77304 76.3431C8.70096 76.3723 8.63536 76.4154 8.58001 76.47C8.52189 76.5253 8.47589 76.5921 8.44491 76.6661C8.41392 76.7401 8.39863 76.8198 8.40001 76.9V87.15H6.55001V77.55C6.54137 76.9211 6.77397 76.3127 7.20001 75.85C7.40859 75.6243 7.66252 75.4453 7.94516 75.3247C8.2278 75.204 8.53275 75.1445 8.84001 75.15C9.13749 75.1439 9.4332 75.1974 9.7097 75.3073C9.9862 75.4172 10.2379 75.5813 10.45 75.79C10.6646 75.5819 10.9182 75.4183 11.1962 75.3084C11.4742 75.1986 11.7711 75.1448 12.07 75.15C12.3768 75.144 12.6813 75.2043 12.9626 75.3268C13.244 75.4493 13.4955 75.6312 13.7 75.86C14.1327 76.3153 14.3696 76.922 14.36 77.55V87.15Z" fill="#B99522"/>
<path fill-rule="evenodd" clip-rule="evenodd" d="M21.51 80.4999C21.5074 81.1356 21.2537 81.7445 20.8041 82.1941C20.3546 82.6436 19.7457 82.8973 19.11 82.8999H18.51V87.1499H16.7V75.1499H19.11C19.7433 75.1602 20.3478 75.4164 20.7957 75.8642C21.2435 76.3121 21.4997 76.9166 21.51 77.5499V80.5499V80.4999ZM19.71 81.0999V76.8999C19.71 76.8214 19.694 76.7436 19.6631 76.6714C19.6322 76.5992 19.5869 76.5341 19.53 76.4799C19.4755 76.4235 19.4102 76.3785 19.3381 76.3476C19.266 76.3167 19.1885 76.3005 19.11 76.2999H18.51V81.6999H19.11C19.2675 81.6949 19.4173 81.6301 19.5287 81.5186C19.6402 81.4072 19.705 81.2574 19.71 81.0999Z" fill="#B99522"/>
<path d="M25.66 75.1H23.86V87.1H25.66V75.1Z" fill="#B99522"/>
<path fill-rule="evenodd" clip-rule="evenodd" d="M32.81 87.1499H31V82.3499C31.0006 82.2703 30.9839 82.1915 30.9511 82.119C30.9183 82.0465 30.8702 81.982 30.81 81.9299C30.7558 81.873 30.6907 81.8277 30.6185 81.7968C30.5463 81.7659 30.4685 81.7499 30.39 81.7499H29.79V87.1499H28V75.1499H30.4C31.0349 75.1551 31.6423 75.4097 32.0913 75.8586C32.5402 76.3076 32.7948 76.915 32.8 77.5499V79.3499C32.8055 79.69 32.7368 80.0273 32.5986 80.3382C32.4605 80.6491 32.2562 80.9261 32 81.1499C32.2596 81.3715 32.4669 81.6478 32.6069 81.959C32.747 82.2703 32.8163 82.6087 32.81 82.9499V87.1499ZM31 79.8999V76.8999C31.0006 76.8203 30.9839 76.7415 30.9511 76.669C30.9183 76.5965 30.8702 76.532 30.81 76.4799C30.7558 76.423 30.6907 76.3777 30.6185 76.3468C30.5463 76.3159 30.4685 76.2999 30.39 76.2999H29.79V80.4999H30.39C30.4685 80.4999 30.5463 80.4839 30.6185 80.453C30.6907 80.4221 30.7558 80.3768 30.81 80.3199C30.8702 80.2678 30.9183 80.2033 30.9511 80.1308C30.9839 80.0583 31.0006 79.9795 31 79.8999Z" fill="#B99522"/>
<path fill-rule="evenodd" clip-rule="evenodd" d="M39.37 87.1H35.17V75.1H39.37V76.3H36.97V80.5H39.37V81.7H36.97V85.9H39.37V87.1Z" fill="#B99522"/>
<path fill-rule="evenodd" clip-rule="evenodd" d="M57 84.7C57 85.0152 56.9379 85.3272 56.8173 85.6184C56.6967 85.9096 56.5199 86.1742 56.2971 86.397C56.0742 86.6199 55.8096 86.7967 55.5184 86.9173C55.2273 87.0379 54.9152 87.1 54.6 87.1C54.2848 87.1 53.9727 87.0379 53.6816 86.9173C53.3904 86.7967 53.1258 86.6199 52.9029 86.397C52.6801 86.1742 52.5033 85.9096 52.3827 85.6184C52.2621 85.3272 52.2 85.0152 52.2 84.7V77.5C52.2 77.1848 52.2621 76.8727 52.3827 76.5815C52.5033 76.2904 52.6801 76.0258 52.9029 75.8029C53.1258 75.5801 53.3904 75.4033 53.6816 75.2827C53.9727 75.1621 54.2848 75.1 54.6 75.1C54.9152 75.1 55.2273 75.1621 55.5184 75.2827C55.8096 75.4033 56.0742 75.5801 56.2971 75.8029C56.5199 76.0258 56.6967 76.2904 56.8173 76.5815C56.9379 76.8727 57 77.1848 57 77.5V84.7ZM55.2 85.3V76.9C55.2014 76.8198 55.1861 76.7401 55.1551 76.6661C55.1241 76.5921 55.0781 76.5253 55.02 76.47C54.907 76.3615 54.7566 76.3006 54.6 76.3C54.5221 76.2981 54.4446 76.3122 54.3724 76.3415C54.3001 76.3707 54.2347 76.4144 54.18 76.47C54.1219 76.5253 54.0759 76.5921 54.0449 76.6661C54.0139 76.7401 53.9986 76.8198 54 76.9V85.3C54 85.4591 54.0632 85.6117 54.1757 85.7242C54.2883 85.8368 54.4409 85.9 54.6 85.9C54.7591 85.9 54.9117 85.8368 55.0243 85.7242C55.1368 85.6117 55.2 85.4591 55.2 85.3Z" fill="#B99522"/>
<path fill-rule="evenodd" clip-rule="evenodd" d="M64.13 87.1499H61.73C61.4136 87.1526 61.0999 87.0924 60.8069 86.9728C60.514 86.8533 60.2477 86.6767 60.0235 86.4535C59.7993 86.2302 59.6217 85.9647 59.5009 85.6722C59.3802 85.3798 59.3187 85.0663 59.32 84.7499V77.5499C59.3226 76.9125 59.5777 76.302 60.0294 75.8522C60.4811 75.4024 61.0926 75.1499 61.73 75.1499C62.3633 75.1602 62.9678 75.4164 63.4157 75.8642C63.8635 76.3121 64.1197 76.9166 64.13 77.5499V78.1499H62.33C62.33 78.0699 62.33 77.9399 62.33 77.7699C62.33 77.5999 62.33 77.4599 62.33 77.3699C62.33 76.6899 62.11 76.3699 61.69 76.3699C61.5325 76.3749 61.3827 76.4397 61.2713 76.5512C61.1598 76.6626 61.095 76.8124 61.09 76.9699V85.3699C61.095 85.5274 61.1598 85.6772 61.2713 85.7886C61.3827 85.9001 61.5325 85.9649 61.69 85.9699H62.29V81.7699H61.69V80.5699H64.09L64.13 87.1499Z" fill="#B99522"/>
<path d="M68.28 75.1H66.48V87.1H68.28V75.1Z" fill="#B99522"/>
<path fill-rule="evenodd" clip-rule="evenodd" d="M75.43 84.6999C75.4381 85.0222 75.381 85.3428 75.262 85.6424C75.143 85.942 74.9647 86.2144 74.7377 86.4433C74.5106 86.6722 74.2397 86.8528 73.941 86.9742C73.6424 87.0956 73.3223 87.1554 73 87.1499C72.6845 87.1512 72.3718 87.0901 72.08 86.9699C71.7882 86.8498 71.5231 86.673 71.3 86.4499C71.0769 86.2268 70.9001 85.9617 70.78 85.6699C70.6598 85.3781 70.5987 85.0654 70.6 84.7499V84.1499H72.4C72.4 84.2399 72.4 84.3599 72.4 84.5399C72.3916 84.6731 72.3916 84.8067 72.4 84.9399C72.4 85.6099 72.61 85.9399 73.03 85.9399C73.1102 85.9413 73.1899 85.926 73.2639 85.895C73.3379 85.864 73.4047 85.818 73.46 85.7599C73.5169 85.7057 73.5622 85.6406 73.5931 85.5684C73.624 85.4962 73.64 85.4185 73.64 85.3399V82.3399C73.64 82.2614 73.624 82.1836 73.5931 82.1114C73.5622 82.0392 73.5169 81.9741 73.46 81.9199C73.4047 81.8618 73.3379 81.8158 73.2639 81.7848C73.1899 81.7538 73.1102 81.7385 73.03 81.7399C72.3943 81.7373 71.7854 81.4836 71.3359 81.034C70.8863 80.5845 70.6326 79.9756 70.63 79.3399V77.5399C70.6351 76.9111 70.8858 76.3091 71.3286 75.8626C71.7714 75.4161 72.3712 75.1603 73 75.1499C73.6349 75.1551 74.2423 75.4097 74.6913 75.8586C75.1402 76.3076 75.3948 76.915 75.4 77.5499V78.1499H73.64C73.6323 78.02 73.6323 77.8898 73.64 77.7599C73.64 77.5899 73.64 77.4599 73.64 77.3699C73.64 76.6899 73.43 76.3699 73 76.3699C72.8425 76.3749 72.6927 76.4397 72.5813 76.5512C72.4698 76.6626 72.405 76.8124 72.4 76.9699V79.9699C72.405 80.1274 72.4698 80.2772 72.5813 80.3886C72.6927 80.5001 72.8425 80.5649 73 80.5699C73.6349 80.5751 74.2423 80.8297 74.6913 81.2786C75.1402 81.7276 75.3948 82.335 75.4 82.9699L75.43 84.6999Z" fill="#B99522"/>
<path fill-rule="evenodd" clip-rule="evenodd" d="M82.11 76.3H80.61V87.1H78.81V76.3H77.31V75.1H82.11V76.3Z" fill="#B99522"/>
<path d="M85.78 75.1H83.98V87.1H85.78V75.1Z" fill="#B99522"/>
<path fill-rule="evenodd" clip-rule="evenodd" d="M92.93 84.7C92.933 85.0158 92.8726 85.329 92.7523 85.621C92.6321 85.913 92.4545 86.1779 92.23 86.4C92.0089 86.6259 91.7442 86.8044 91.452 86.9248C91.1597 87.0451 90.846 87.1047 90.53 87.1C90.2145 87.1013 89.9018 87.0401 89.61 86.92C89.3182 86.7999 89.0531 86.6231 88.83 86.4C88.6069 86.1769 88.4301 85.9118 88.31 85.62C88.1899 85.3282 88.1287 85.0155 88.13 84.7V77.5C88.1287 77.1845 88.1899 76.8718 88.31 76.58C88.4301 76.2882 88.6069 76.0231 88.83 75.8C89.0531 75.5769 89.3182 75.4001 89.61 75.28C89.9018 75.1599 90.2145 75.0987 90.53 75.1C91.1649 75.1052 91.7723 75.3598 92.2213 75.8087C92.6702 76.2577 92.9248 76.8651 92.93 77.5V78.1H91.13C91.13 78.02 91.13 77.89 91.13 77.72C91.13 77.55 91.13 77.41 91.13 77.32C91.13 76.64 90.92 76.32 90.49 76.32C90.4105 76.3172 90.3312 76.3308 90.2571 76.36C90.1831 76.3891 90.1158 76.4332 90.0595 76.4895C90.0032 76.5458 89.9591 76.6131 89.93 76.6871C89.9008 76.7612 89.8872 76.8405 89.89 76.92V85.32C89.8783 85.4015 89.8857 85.4846 89.9117 85.5628C89.9377 85.6409 89.9816 85.7119 90.0398 85.7702C90.0981 85.8284 90.1691 85.8722 90.2472 85.8983C90.3254 85.9243 90.4085 85.9317 90.49 85.92C90.92 85.92 91.13 85.58 91.13 84.92C91.13 84.81 91.13 84.66 91.13 84.48C91.13 84.3 91.13 84.19 91.13 84.13H92.93V84.7Z" fill="#B99522"/>
<path fill-rule="evenodd" clip-rule="evenodd" d="M100.08 84.7C100.08 85.3365 99.8271 85.947 99.3771 86.3971C98.927 86.8471 98.3165 87.1 97.68 87.1C97.0435 87.1 96.433 86.8471 95.9829 86.3971C95.5329 85.947 95.28 85.3365 95.28 84.7V84.15H97.09C97.09 84.24 97.09 84.36 97.09 84.54C97.09 84.72 97.09 84.84 97.09 84.94C97.09 85.61 97.3 85.94 97.72 85.94C97.8002 85.9414 97.8799 85.9261 97.9539 85.8951C98.0279 85.8641 98.0947 85.8181 98.15 85.76C98.2069 85.7058 98.2522 85.6407 98.2831 85.5685C98.314 85.4963 98.33 85.4186 98.33 85.34V82.34C98.33 82.2615 98.314 82.1837 98.2831 82.1115C98.2522 82.0393 98.2069 81.9742 98.15 81.92C98.0947 81.8619 98.0279 81.8159 97.9539 81.7849C97.8799 81.7539 97.8002 81.7386 97.72 81.74C97.0843 81.7374 96.4754 81.4837 96.0258 81.0342C95.5763 80.5846 95.3226 79.9757 95.32 79.34V77.54C95.318 77.0652 95.4574 76.6006 95.7205 76.2054C95.9836 75.8102 96.3585 75.5023 96.7973 75.321C97.2361 75.1397 97.7189 75.0932 98.1842 75.1874C98.6496 75.2816 99.0763 75.5123 99.41 75.85C99.6379 76.068 99.8185 76.3305 99.9406 76.6212C100.063 76.9119 100.124 77.2247 100.12 77.54V78.14H98.29C98.29 78.06 98.29 77.93 98.29 77.75C98.29 77.57 98.29 77.45 98.29 77.36C98.29 76.68 98.07 76.36 97.64 76.36C97.5629 76.3596 97.4865 76.3754 97.4159 76.4064C97.3452 76.4374 97.2819 76.4829 97.23 76.54C97.1731 76.5942 97.1278 76.6593 97.0969 76.7315C97.066 76.8037 97.05 76.8815 97.05 76.96V79.96C97.05 80.0386 97.066 80.1163 97.0969 80.1885C97.1278 80.2607 97.1731 80.3258 97.23 80.38C97.2819 80.4371 97.3452 80.4826 97.4159 80.5136C97.4865 80.5446 97.5629 80.5604 97.64 80.56C98.2749 80.5652 98.8823 80.8198 99.3313 81.2687C99.7802 81.7177 100.035 82.3251 100.04 82.96L100.08 84.7Z" fill="#B99522"/>
<path fill-rule="evenodd" clip-rule="evenodd" d="M26.15 70.69L24.89 71.54L24.01 70.04L24.65 71.63L22.74 71.95L24.75 71L25.05 72.98L24.89 71.98L26.27 72.62L25.02 71.83L26.15 70.69Z" fill="#B99522" stroke="#B99522" stroke-width="0.57" stroke-miterlimit="22.93"/>
<path fill-rule="evenodd" clip-rule="evenodd" d="M24.93 72.15L27.19 74.37L24.93 72.15ZM24.93 72.15L27.86 72.25L25.29 71.82L25 69L24.8 71.39L21.8 69.68L24.6 71.68L22.6 74.61L24.93 72.15Z" fill="#B99522"/>
</svg>
