<svg width="138" height="42" viewBox="0 0 138 42" fill="none" xmlns="http://www.w3.org/2000/svg">
<path d="M22.8153 0C22.9508 0.0566517 23.0981 0.0811225 23.2451 0.071407C24.3216 0.142676 25.3899 0.302863 26.4387 0.550254C28.2164 0.955042 29.9328 1.58334 31.5451 2.41944C32.7751 3.05648 33.9395 3.80761 35.0224 4.66246C35.8386 5.30868 36.6071 6.0105 37.322 6.76266C38.3655 7.85845 39.281 9.0644 40.0514 10.3582C40.8784 11.7267 41.5405 13.1841 42.0243 14.7014C42.3357 15.6625 42.5714 16.6455 42.7292 17.6417C42.8453 18.4062 42.9226 19.1707 42.9742 19.9436C43.0086 20.5494 43.0086 21.1565 42.9742 21.7623C42.938 22.6066 42.8519 23.4481 42.7163 24.2826C42.1656 27.7514 40.7303 31.029 38.5427 33.8133C36.9436 35.835 34.9818 37.5557 32.7529 38.8916C30.474 40.2678 27.9497 41.2112 25.3126 41.6723C22.3419 42.1904 19.2929 42.0933 16.3631 41.3871C13.4332 40.6809 10.6877 39.3814 8.30428 37.5727C4.56489 34.7673 1.89172 30.8215 0.709216 26.3618C0.336601 25.0053 0.110424 23.6144 0.0343863 22.2118C0.0343863 22.1656 0.0343863 22.1194 0 22.0858V19.9058C0.0137778 19.8921 0.024072 19.8755 0.0300468 19.8573C0.0360215 19.839 0.0375083 19.8197 0.0343863 19.8007C0.0909705 18.5728 0.269471 17.3532 0.567373 16.159C1.63747 11.6583 4.21715 7.63658 7.89594 4.73387C11.2356 2.03457 15.3445 0.405248 19.6646 0.0672066C19.8945 0.0742367 20.1243 0.05164 20.3481 0L22.8153 0ZM28.6695 21.0021C28.6695 16.1548 28.6695 11.3089 28.6695 6.46444C28.678 6.39886 28.6629 6.33246 28.6268 6.27655C28.5908 6.22064 28.536 6.17867 28.4718 6.1578C27.1019 5.55519 25.6567 5.13151 24.1735 4.89768C23.9199 4.85568 23.9156 4.85988 23.9156 5.1035V18.4146C23.9156 18.6666 23.9156 18.6666 23.662 18.6666C22.2307 18.6666 20.7951 18.6666 19.3638 18.6666C19.1703 18.6666 19.1274 18.6162 19.1274 18.4314C19.1274 13.9846 19.1274 9.53914 19.1274 5.0951C19.1274 4.81787 19.1274 4.81787 18.8566 4.86408C17.3653 5.10373 15.9128 5.53448 14.5368 6.1452C14.4774 6.16169 14.4259 6.1981 14.3913 6.24804C14.3567 6.29798 14.3413 6.35825 14.3477 6.41823C14.3477 16.1296 14.3477 25.8423 14.3477 35.5565C14.3407 35.6121 14.3536 35.6684 14.3841 35.7158C14.4146 35.7633 14.461 35.799 14.5153 35.8169C15.8822 36.4329 17.3281 36.8652 18.8136 37.1022C19.1016 37.1484 19.1016 37.1569 19.1016 36.8796C19.1016 32.4272 19.1016 27.9761 19.1016 23.5265C19.1016 23.3543 19.1445 23.3123 19.3208 23.3123C20.7521 23.3123 22.1834 23.3123 23.6191 23.3123C23.9199 23.3123 23.8855 23.2787 23.8855 23.5685C23.8855 28.0042 23.8855 32.4426 23.8855 36.8838C23.8855 37.1484 23.8855 37.1484 24.1434 37.1064C25.6347 36.8719 27.0883 36.4483 28.4675 35.8463C28.5304 35.824 28.5838 35.7816 28.6189 35.7259C28.654 35.6703 28.6688 35.6046 28.6609 35.5397C28.6667 30.6896 28.6695 25.8437 28.6695 21.0021ZM33.4578 9.61895C33.4234 10.5724 33.4578 32.15 33.4578 32.3558C39.7935 26.2778 39.8064 15.7305 33.4578 9.61895ZM9.55078 9.61895L9.49061 9.59794C5.78978 13.5295 4.20802 18.1374 4.98601 23.4593C5.48709 26.8438 7.08725 29.9816 9.55078 32.4104V9.61895Z" fill="#414141"/>
<path d="M119.602 29.6464C119.463 29.8775 119.357 30.1265 119.286 30.3864C118.764 31.7423 118.253 33.1039 117.751 34.4711C117.742 34.5175 117.715 34.5587 117.676 34.5861C117.637 34.6136 117.589 34.6254 117.542 34.6191C117.17 34.6191 116.802 34.6191 116.434 34.6191C116.314 34.6191 116.267 34.5726 116.229 34.4627C115.989 33.8199 115.741 33.1941 115.498 32.5387C115.254 31.8833 115.045 31.3251 114.822 30.7162C114.694 30.3737 114.57 30.0312 114.442 29.6844C114.442 29.6464 114.442 29.5914 114.399 29.5999C114.356 29.6083 114.378 29.6548 114.399 29.6844C114.399 31.9397 114.399 34.1949 114.399 36.4501C114.399 36.6193 114.472 36.8349 114.369 36.9406C114.266 37.0463 114.044 36.9787 113.873 36.9787C113.313 36.9787 112.753 36.9787 112.193 36.9787C112.052 36.9787 111.996 36.9533 112 36.8011C112 31.9354 112 27.0684 112 22.1999C112 22.0561 112.039 22.0096 112.188 22.0138C112.522 22.0138 112.86 22.0138 113.197 22.0138C113.251 22.0048 113.305 22.0158 113.35 22.0448C113.395 22.0738 113.428 22.1186 113.441 22.1703C114.104 23.6968 114.779 25.2191 115.451 26.7456L116.887 30.0396C116.913 30.1031 116.951 30.1623 116.999 30.2553L117.426 29.3123C117.614 28.8895 117.802 28.4412 117.995 28.0057L118.85 26.0267L119.641 24.2042C119.932 23.5446 120.222 22.8849 120.496 22.221C120.556 22.0815 120.616 21.9885 120.804 22.0012C121.146 22.0012 121.488 22.0012 121.83 22.0012C121.963 22.0012 122.014 22.0434 121.997 22.1703C121.995 22.1956 121.995 22.2211 121.997 22.2464C121.997 27.0754 121.997 31.903 121.997 36.7292C121.997 36.911 121.963 36.9744 121.762 36.9702C121.116 36.9702 120.479 36.9702 119.82 36.9702C119.645 36.9702 119.602 36.9279 119.602 36.7546C119.602 34.4711 119.602 32.1891 119.602 29.9085C119.602 29.824 119.602 29.7394 119.602 29.6548C119.604 29.638 119.604 29.6209 119.602 29.6041V29.6464Z" fill="#414141"/>
<path d="M95 12.5023C95 10.078 95 7.64953 95 5.22528C95 5.05152 95.0414 4.99642 95.2195 5.00066C96.3753 5.00066 97.5351 5.00066 98.6908 5.00066C99.4712 4.98457 100.23 5.26371 100.822 5.78458C101.413 6.30545 101.796 7.03141 101.897 7.8233C102.009 8.69019 102.03 9.56684 101.959 10.4383C101.949 10.9236 101.87 11.4049 101.723 11.8665C101.522 12.4326 101.169 12.929 100.704 13.2991C100.665 13.3259 100.636 13.3646 100.621 13.4095C100.605 13.4545 100.604 13.5034 100.617 13.5491C100.948 15.2147 101.272 16.8803 101.611 18.5459C101.702 18.9698 101.793 19.4317 101.88 19.8767C101.88 19.97 101.88 20.0039 101.793 19.9996C101.085 19.9996 100.373 19.9996 99.6643 19.9996C99.5442 19.9996 99.5193 19.9191 99.5069 19.8428C99.2832 18.7112 99.0926 17.5796 98.84 16.4523C98.6825 15.6809 98.5334 14.9096 98.3843 14.1382C98.384 14.1157 98.3789 14.0934 98.3695 14.0731C98.36 14.0527 98.3463 14.0346 98.3294 14.0201C98.3125 14.0057 98.2928 13.9951 98.2715 13.9891C98.2502 13.9832 98.2279 13.982 98.2062 13.9856C97.9783 13.9856 97.7464 13.9856 97.5185 13.9856C97.357 13.9856 97.3321 14.0407 97.3321 14.1848C97.3321 15.7403 97.3321 17.2957 97.3321 18.8469C97.3321 19.1774 97.3321 19.5038 97.3321 19.8301C97.3321 19.9615 97.2866 19.9954 97.1665 19.9954C96.512 19.9954 95.8616 19.9954 95.2071 19.9954C95.0456 19.9954 95.0083 19.9488 95.0083 19.7877C95.0055 17.3607 95.0028 14.9322 95 12.5023ZM97.3404 9.4762V11.4385C97.3404 11.536 97.3404 11.6165 97.4771 11.6123C97.8914 11.6123 98.3304 11.6123 98.7613 11.6123C98.9755 11.6194 99.1842 11.5412 99.3433 11.3942C99.5025 11.2472 99.5997 11.0428 99.6146 10.8239C99.6985 9.97848 99.6985 9.12649 99.6146 8.28103C99.5649 7.66649 99.3163 7.46729 98.7115 7.38253C98.2973 7.32743 97.9079 7.38253 97.502 7.38253C97.357 7.38253 97.3197 7.42491 97.3239 7.56901C97.3404 8.19202 97.3404 8.83623 97.3404 9.4762Z" fill="#414141"/>
<path d="M52.0041 29.5043C52.0041 27.0764 52.0041 24.6527 52.0041 22.229C52.0041 22.0511 52.0497 21.996 52.2279 22.0002C52.8579 22.0002 53.492 22.0002 54.1261 22.0002C54.296 22.0002 54.3416 22.0468 54.3375 22.2163C54.3375 24.1005 54.3375 25.9832 54.3375 27.8645C54.3375 28.1229 54.3375 28.1229 54.6027 28.1229H56.4056C56.6998 28.1229 56.6667 28.1526 56.6667 27.8475C56.6667 25.9789 56.6667 24.1061 56.6667 22.2375C56.6667 22.0511 56.7123 21.996 56.8988 22.0002C57.537 22.0002 58.1794 22.0002 58.8176 22.0002C58.9627 22.0002 59 22.0426 59 22.1909C59 27.0636 59 31.9392 59 36.8176C59 36.9702 58.9503 36.9956 58.8135 36.9956C58.1587 36.9956 57.508 36.9956 56.8573 36.9956C56.6957 36.9956 56.6667 36.9447 56.6667 36.7964C56.6667 34.7711 56.6667 32.7443 56.6667 30.7161C56.6667 30.5339 56.6335 30.4746 56.4387 30.4788C55.8046 30.4788 55.1954 30.4788 54.5406 30.4788C54.3623 30.4788 54.3292 30.5297 54.3333 30.6991C54.3333 32.716 54.3333 34.7372 54.3333 36.7583C54.3333 36.9363 54.3043 37.0041 54.1095 36.9998C53.4837 36.9998 52.8662 36.9998 52.2279 36.9998C52.0332 36.9998 52 36.9405 52 36.7583C52.0083 34.3389 52.0041 31.9194 52.0041 29.5043Z" fill="#414141"/>
<path d="M94 29.507C94 31.9269 94 34.3469 94 36.7669C94 36.9619 93.9384 37 93.7299 36.9958C93.0142 36.9958 92.3081 36.9958 91.5829 36.9958C91.3555 36.9958 91.3223 36.9322 91.3223 36.7542C91.3223 34.7453 91.3223 32.7364 91.3223 30.7318C91.3223 30.4436 91.3602 30.4775 91.0474 30.4775C90.3318 30.4775 89.6256 30.4775 88.8957 30.4775C88.7109 30.4775 88.6635 30.5241 88.6682 30.6852C88.6682 32.711 88.6682 34.7368 88.6682 36.7627C88.6682 36.9576 88.6066 37 88.3981 37C87.6682 37 86.9336 37 86.2038 37C86.0332 37 86 36.9576 86 36.8135C86 31.9425 86 27.0714 86 22.2004C86 22.0478 86.0379 22.0012 86.218 22.0012C86.9526 22.0012 87.6919 22.0012 88.4313 22.0012C88.6161 22.0012 88.6635 22.0436 88.6635 22.2089C88.6635 24.0906 88.6635 25.9738 88.6635 27.8583C88.6635 28.1592 88.6351 28.1253 88.9763 28.1253C89.6872 28.1253 90.3981 28.1253 91.1043 28.1253C91.2796 28.1253 91.3223 28.0787 91.3223 27.9261C91.3223 26.0359 91.3223 24.1471 91.3223 22.2597C91.3223 21.9673 91.2891 22.0012 91.6209 22.0012C92.3318 22.0012 93.0427 22.0012 93.7488 22.0012C93.9431 22.0012 93.9953 22.0393 93.9953 22.2173C93.9984 24.6472 94 27.0771 94 29.507Z" fill="#414141"/>
<path d="M58.971 12.4978C58.971 14.9208 58.971 17.3452 58.971 19.7711C58.971 19.949 58.9254 19.9998 58.7472 19.9956C58.1228 19.9956 57.4969 19.9956 56.8697 19.9956C56.704 19.9956 56.6459 19.9617 56.6501 19.7838C56.6501 19.267 56.6501 18.7502 56.6501 18.2334C56.6501 16.7169 56.6501 15.2004 56.6501 13.6839C56.6501 13.5229 56.6045 13.4763 56.447 13.4805C55.8046 13.4805 55.1664 13.4805 54.5281 13.4805C54.3541 13.4805 54.3126 13.5314 54.3168 13.7008C54.3168 15.7214 54.3168 17.7378 54.3168 19.7583C54.3168 19.9405 54.2795 20.004 54.0888 19.9998C53.4506 19.9998 52.8082 19.9998 52.1699 19.9998C52.0332 19.9998 52 19.9574 52 19.8219C52 14.9363 52 10.055 52 5.17791C52 5.03812 52.0456 5.00424 52.1741 5.00424C52.8248 5.00424 53.4796 5.00424 54.1303 5.00424C54.296 5.00424 54.3292 5.05507 54.3292 5.21604C54.3292 7.10955 54.3292 9.00305 54.3292 10.9008C54.3292 11.0914 54.3831 11.138 54.5654 11.1338C55.1995 11.1338 55.8088 11.1338 56.4636 11.1338C56.6252 11.1338 56.6667 11.0872 56.6667 10.9262C56.6667 9.03271 56.6667 7.13496 56.6667 5.24145C56.6667 5.05507 56.7081 5 56.8988 5C57.5287 5 58.1628 5 58.7969 5C58.9544 5 59 5.03812 59 5.20333C58.9807 7.63481 58.971 10.0663 58.971 12.4978Z" fill="#414141"/>
<path d="M79.2508 10.9298L79.6437 9.95493C79.8479 9.42513 80.0365 8.89109 80.2643 8.374C80.4921 7.85691 80.6571 7.36102 80.8771 6.85665C81.0971 6.35228 81.2778 5.80976 81.4899 5.29268C81.592 5.02142 81.6077 5.00446 81.8827 5.00446H84L83.6072 6.00473C82.8215 8.0095 82.0359 10.0143 81.2306 12.0148C81.2169 12.057 81.2115 12.1018 81.2149 12.1463C81.2183 12.1909 81.2303 12.2342 81.2503 12.2733C81.5645 13.1634 81.8827 14.0492 82.197 14.9393C82.7207 16.4227 83.2445 17.9062 83.7682 19.3896C83.8389 19.5846 83.9057 19.7838 83.9804 20H81.7217C81.6849 20.0008 81.649 19.9876 81.6203 19.9628C81.5916 19.9381 81.5719 19.9032 81.5645 19.8643L80.9517 18.1012C80.7278 17.4569 80.5 16.8296 80.2722 16.1727C80.1857 15.9269 80.1072 15.681 80.0168 15.4352C80.0168 15.397 80.0168 15.3377 79.9461 15.3335C79.8754 15.3292 79.8833 15.3843 79.8636 15.4267C79.6515 15.948 79.4315 16.4651 79.2312 16.9949C79.1974 17.1331 79.1855 17.2764 79.1958 17.4188C79.1958 18.2114 79.1958 19.0039 79.1958 19.7923C79.1958 19.9364 79.1605 19.983 79.023 19.983C78.4024 19.983 77.7856 19.983 77.165 19.983C77.0236 19.983 77 19.9322 77 19.7923V5.19943C77 5.05109 77.0275 4.99599 77.1768 5.00023C77.7896 5.00023 78.4024 5.00023 79.0151 5.00023C79.1644 5.00023 79.2076 5.03837 79.2076 5.20367C79.2076 7.03466 79.2076 8.87131 79.2076 10.7136C79.2076 10.7941 79.2076 10.8704 79.2076 10.951C79.2076 11.0315 79.1723 11.0188 79.2076 11.0272C79.243 11.0357 79.2508 10.9679 79.2508 10.9298Z" fill="#414141"/>
<path d="M129.827 37H128.852C128.726 37 128.681 36.9746 128.657 36.822C128.583 36.2882 128.474 35.7628 128.38 35.2332C128.353 35.075 128.329 34.9182 128.307 34.7629C128.307 34.6697 128.258 34.6315 128.161 34.6315C127.385 34.6315 126.605 34.6315 125.829 34.6315C125.727 34.6315 125.699 34.6654 125.683 34.7756C125.569 35.4747 125.435 36.1738 125.317 36.8729C125.317 36.9746 125.268 37 125.179 37C124.492 37 123.81 37 123.127 37C123.017 37 122.981 37 123.009 36.8432C123.286 35.4323 123.546 34.0214 123.822 32.6063C124.066 31.3352 124.322 30.0641 124.565 28.793C124.772 27.7168 124.972 26.6406 125.179 25.5645C125.386 24.4883 125.585 23.535 125.768 22.5223C125.804 22.3528 125.768 22.0986 125.898 22.0393C126.028 21.98 126.227 22.0054 126.394 22.0054H127.994C128.104 22.0054 128.157 22.0308 128.181 22.1579C128.331 23.0053 128.49 23.8188 128.648 24.6493L129.233 27.6872C129.441 28.7718 129.64 29.8523 129.859 30.9369C130.078 32.0216 130.265 33.0766 130.477 34.1485C130.643 35.034 130.81 35.9238 130.989 36.8093C131.021 36.9661 130.989 37 130.838 36.9958C130.497 36.9958 130.164 37 129.827 37ZM127.015 27.0347H126.983C126.905 27.4796 126.832 27.9244 126.755 28.3693C126.549 29.615 126.341 30.8607 126.129 32.1063C126.105 32.2334 126.129 32.2588 126.247 32.2588C126.751 32.2588 127.251 32.2588 127.755 32.2588C127.852 32.2588 127.913 32.2588 127.872 32.119C127.87 32.0739 127.87 32.0286 127.872 31.9834C127.649 30.67 127.425 29.3523 127.206 28.0388C127.137 27.7084 127.076 27.3694 127.019 27.0347H127.015Z" fill="#414141"/>
<path d="M91.8797 20C91.5533 20 91.2269 20 90.9005 20C90.7495 20 90.7006 19.9407 90.6761 19.8094C90.5659 19.1401 90.4517 18.4708 90.3415 17.8057C90.3419 17.7802 90.3368 17.7549 90.3267 17.7316C90.3165 17.7083 90.3016 17.6877 90.2829 17.6711C90.2642 17.6545 90.2422 17.6424 90.2185 17.6357C90.1948 17.6289 90.1699 17.6277 90.1457 17.632H87.8893C87.7629 17.632 87.718 17.6786 87.6976 17.8057C87.5956 18.4284 87.4895 19.0554 87.3752 19.6738C87.314 20 87.3059 19.9958 86.9672 19.9958C86.3756 19.9958 85.7799 19.9958 85.1883 19.9958C85.0169 19.9958 84.9802 19.9322 85.0087 19.7882C85.2576 18.5174 85.5147 17.2465 85.7595 15.9757C86.0165 14.6329 86.2654 13.29 86.5225 11.9514C86.7795 10.6128 87.0733 9.14713 87.3385 7.74499C87.5058 6.87659 87.6731 6.00819 87.8322 5.13556C87.8526 5.03389 87.8853 5 87.975 5H90.0151C90.1089 5 90.1375 5.03813 90.1538 5.13556C90.619 7.56707 91.0855 10 91.5533 12.4343C91.9695 14.5863 92.3843 16.7382 92.7978 18.8901C92.863 19.2163 92.9202 19.5425 92.9895 19.8644C93.0181 19.9788 92.9895 19.9958 92.8875 19.9915L91.8797 20ZM89.044 10.0537H89.0195C89.0195 10.1172 88.9869 10.1765 88.9747 10.24C88.8523 10.9602 88.7299 11.6761 88.6115 12.3962L88.1464 15.1115C88.1219 15.2513 88.1464 15.3106 88.3055 15.3064C88.787 15.3064 89.2725 15.3064 89.758 15.3064C89.8927 15.3064 89.9253 15.2725 89.9009 15.1243C89.6125 13.4214 89.3269 11.7311 89.044 10.0537Z" fill="#414141"/>
<path d="M109.632 20H108.516C108.411 20 108.357 20 108.334 19.8644C108.253 19.3388 108.139 18.8132 108.035 18.2919C107.998 18.1097 107.948 17.9316 107.926 17.7452C107.926 17.6604 107.885 17.635 107.799 17.635H105.13C105.035 17.635 105.026 17.6816 105.012 17.7536C104.876 18.4614 104.731 19.165 104.599 19.8728C104.599 19.9788 104.54 20 104.44 20H102.148C102.007 20 101.98 19.9661 102.012 19.8262C102.184 19.0718 102.334 18.3131 102.498 17.5544C102.661 16.7957 102.824 16.0583 102.988 15.3081L103.442 13.2651C103.587 12.5743 103.732 11.8876 103.895 11.201C104.027 10.5822 104.163 9.96338 104.295 9.34457L104.749 7.2635C104.894 6.58535 105.044 5.90296 105.203 5.22057C105.23 5.06799 105.28 4.99594 105.461 5.00018C106.178 5.00018 106.891 5.00018 107.608 5.00018C107.758 5.00018 107.817 5.04256 107.844 5.16971C108.012 5.98349 108.18 6.79303 108.352 7.60681C108.584 8.68338 108.806 9.75994 109.051 10.8365C109.296 11.9131 109.505 12.9939 109.741 14.0704L110.436 17.3001L110.994 19.8856C111.021 19.9958 110.953 20 110.867 20H109.632ZM106.496 10.0482H106.451C106.451 10.0863 106.451 10.1244 106.451 10.1668C106.148 11.8142 105.836 13.4643 105.516 15.1173C105.489 15.2572 105.516 15.2869 105.661 15.2869C106.174 15.2869 106.687 15.2869 107.195 15.2869C107.508 15.2869 107.499 15.2869 107.449 15.0071C107.186 13.6169 106.927 12.2309 106.664 10.8407C106.601 10.561 106.546 10.2982 106.496 10.0482Z" fill="#414141"/>
<path d="M66.8604 19.9955H65.8774C65.7468 19.9955 65.6938 19.9955 65.6693 19.8091C65.5837 19.2074 65.4735 18.61 65.3593 18.0125C65.2859 17.6312 65.2737 17.6312 64.8943 17.6312H62.8915C62.7569 17.6312 62.7039 17.6566 62.6794 17.8176C62.5775 18.4871 62.451 19.1523 62.3368 19.8218C62.3164 19.9489 62.2715 20.004 62.1328 19.9998C61.4884 19.9998 60.848 19.9998 60.2076 19.9998C60.0199 19.9998 59.9751 19.9405 60.0118 19.771C60.1178 19.2286 60.2198 18.6862 60.3258 18.1439C60.5094 17.1947 60.697 16.2414 60.8806 15.288L61.4313 12.4363C61.6148 11.4957 61.7943 10.5592 61.9738 9.61857C62.1532 8.67791 62.3327 7.72453 62.5163 6.77963C62.6223 6.22456 62.7365 5.67372 62.8385 5.11864C62.8385 5.02542 62.8793 5 62.965 5H65.0045C65.1105 5 65.1431 5.04237 65.1595 5.14407C65.3145 5.99151 65.4722 6.82624 65.6326 7.64827C65.8162 8.5974 65.9997 9.5423 66.1792 10.4914C66.3587 11.4406 66.5422 12.377 66.7217 13.3177C66.9012 14.2583 67.0929 15.2117 67.2765 16.1608C67.4723 17.182 67.6844 18.2074 67.8679 19.2286C67.9087 19.4405 67.9495 19.6523 67.9944 19.8557C68.0188 19.9786 67.9617 19.9998 67.8598 19.9955H66.8604ZM64.0296 10.0211C63.9725 10.0508 63.9806 10.0974 63.9725 10.1313C63.9154 10.4872 63.8542 10.8389 63.793 11.1906C63.5768 12.4872 63.3606 13.788 63.1363 15.0846C63.1118 15.2287 63.1363 15.2753 63.2872 15.2753C63.7685 15.2753 64.2539 15.2753 64.7393 15.2753C64.8699 15.2753 64.9106 15.2753 64.8862 15.1015C64.5966 13.4109 64.3151 11.7414 64.0296 10.0211Z" fill="#414141"/>
<path d="M109.983 22.0257C109.846 22.4957 109.705 22.9616 109.569 23.4232L107.827 29.1698C107.526 30.1749 107.221 31.1757 106.915 32.1723L106.243 34.3786C106.172 34.6073 106.176 34.6073 106.413 34.6073C107.537 34.6073 108.665 34.6073 109.792 34.6073C109.942 34.6073 110.004 34.637 110 34.8064C110 35.4797 110 36.153 110 36.8264C110 36.9619 109.962 37 109.83 37C107.618 37 105.395 37 103.162 37C102.996 37 102.996 36.9492 103.041 36.8052C103.294 35.9921 103.539 35.1748 103.788 34.3575C104.037 33.5402 104.29 32.689 104.543 31.8547C104.796 31.0204 105.078 30.0888 105.347 29.2037C105.617 28.3186 105.882 27.4251 106.152 26.5358C106.359 25.8554 106.568 25.175 106.778 24.4946C106.823 24.3591 106.736 24.3887 106.67 24.3887H105.538C104.75 24.3887 103.962 24.3887 103.178 24.3887C103.046 24.3887 103 24.3591 103 24.2151C103 23.529 103 22.843 103 22.157C103 22.0426 103.025 21.996 103.149 22.0003H109.892L109.983 22.0257Z" fill="#414141"/>
<path d="M98.4651 27.9147C98.6707 27.519 98.7689 27.1036 98.9324 26.7277C99.096 26.3518 99.1755 26.0273 99.297 25.6791C99.4653 25.2003 99.6335 24.7255 99.8065 24.2506C99.9467 23.855 100.096 23.4593 100.232 23.0636C100.26 22.9924 100.307 23.0003 100.363 23.0003H102.873C103.022 23.0003 103.013 23.0557 102.98 23.1467C102.69 23.9381 102.41 24.769 102.12 25.5802C101.618 27.0046 101.115 28.4278 100.61 29.8497C100.363 30.55 100.143 31.2504 99.8672 31.9508C99.8345 32.0512 99.8204 32.1553 99.8252 32.2594C99.8252 33.7709 99.8252 35.2864 99.8252 36.798C99.8252 36.9562 99.7831 37.0037 99.5868 36.9998C98.867 36.9998 98.1472 36.9998 97.4228 36.9998C97.2405 36.9998 97.1844 36.9721 97.1844 36.8019C97.1844 35.3181 97.1844 33.8382 97.1844 32.3544C97.1624 32.097 97.0963 31.8438 96.9881 31.6026C96.7778 30.9615 96.5207 30.3284 96.3151 29.6914C96.0673 28.9791 95.8477 28.2669 95.5719 27.5586C95.3476 26.9216 95.1045 26.2845 94.8942 25.6474C94.6418 24.9312 94.3941 24.2111 94.1464 23.4949C94.1043 23.3801 94.0576 23.2654 94.0155 23.1506C93.9734 23.0359 94.0155 22.9963 94.1604 23.0003H96.2449C96.7544 23.0003 96.7591 23.0003 96.8993 23.396C97.3994 24.8284 97.8902 26.2608 98.3856 27.6931C98.3856 27.7327 98.423 27.796 98.4651 27.9147Z" fill="#414141"/>
<path d="M135.669 30.684C135.669 32.7173 135.669 34.7492 135.669 36.7797C135.669 36.9492 135.636 37 135.463 37C134.83 37 134.198 37 133.57 37C133.397 37 133.359 36.9492 133.359 36.7797C133.359 32.7328 133.359 28.6874 133.359 24.6433C133.359 24.3214 133.401 24.368 133.083 24.368C132.454 24.368 131.822 24.368 131.19 24.368C131.033 24.368 131 24.3171 131 24.1689C131 23.508 131 22.8472 131 22.1864C131 22.0424 131.041 22 131.186 22H137.826C137.95 22 138.004 22.0254 138 22.1694C138 22.843 138 23.5123 138 24.1858C138 24.3256 137.963 24.3637 137.83 24.3637C137.173 24.3637 136.516 24.3637 135.859 24.3637C135.698 24.3637 135.657 24.4019 135.657 24.5671C135.673 26.5919 135.669 28.6337 135.669 30.684Z" fill="#414141"/>
<path d="M72 29.4853C72 27.0651 72 24.6463 72 22.229C72 22.0553 72.0326 21.996 72.2118 22.0002C72.8309 22.0002 73.4337 22.0002 74.061 22.0002C74.2525 22.0002 74.2891 22.0638 74.2891 22.2459C74.2891 24.0801 74.2891 25.9185 74.2891 27.7527C74.2891 29.9668 74.2891 32.1822 74.2891 34.3991C74.2891 34.5939 74.3421 34.6363 74.5172 34.6363C75.6129 34.6363 76.7086 34.6363 77.8002 34.6363C77.959 34.6363 78.0038 34.6787 77.9997 34.8439C77.9997 35.5047 77.9997 36.1613 77.9997 36.8221C77.9997 36.9576 77.9672 37 77.8327 37C75.9482 37 74.061 37 72.1711 37C71.9919 37 72.0041 36.9068 72.0041 36.784C72.0041 34.3497 72.0027 31.9168 72 29.4853Z" fill="#414141"/>
<path d="M70 12.4768C70 10.0595 70 7.64211 70 5.22475C70 5.04684 70.0409 4.996 70.2166 5.00024C70.8256 5.00024 71.4427 5.00024 72.0517 5.00024C72.2561 5.00024 72.2847 5.06802 72.2847 5.2544C72.2847 9.30122 72.2847 13.3452 72.2847 17.3864C72.2847 17.6744 72.2561 17.6363 72.5258 17.6363C73.6157 17.6363 74.7056 17.6363 75.7954 17.6363C75.9467 17.6363 76.0039 17.6617 75.9998 17.8354C75.9998 18.4962 75.9998 19.1528 75.9998 19.8136C75.9998 19.9661 75.9548 20 75.8159 20C73.9358 20 72.0558 20 70.1757 20C70.0082 20 70 19.928 70 19.7924C70.0027 17.3553 70.0027 14.9168 70 12.4768Z" fill="#414141"/>
<path d="M65 29.5001C65 27.0764 65 24.6527 65 22.229C65 22.0511 65.0408 21.996 65.2165 22.0002C65.8332 22.0002 66.4418 22.0002 67.0708 22.0002C67.2505 22.0002 67.2832 22.0595 67.2832 22.229C67.2832 26.2826 67.2832 30.3348 67.2832 34.3856C67.2832 34.6356 67.2832 34.6356 67.5283 34.6356H70.7958C70.9469 34.6356 71 34.6695 71 34.839C71 35.4915 71 36.1441 71 36.8009C71 36.9449 70.9755 37 70.8203 37C68.9415 37 67.0626 37 65.1838 37C65.0163 37 65.0041 36.9322 65.0082 36.7966L65 29.5001Z" fill="#414141"/>
<path d="M61 29.5072C61 27.0769 61 24.6509 61 22.2291C61 22.0511 61.0356 21.996 61.1885 22.0002C61.7361 22.0002 62.2874 22.0002 62.835 22.0002C62.9595 22.0002 63.0093 22.0469 62.9986 22.1867C62.9986 22.2418 62.9986 22.2927 62.9986 22.3436V36.7216C62.9986 37.048 63.0306 36.9971 62.7568 36.9971C62.2305 36.9971 61.6899 36.9971 61.1778 36.9971C61.0249 36.9971 61 36.9378 61 36.7725C61 34.3535 61 31.9318 61 29.5072Z" fill="#414141"/>
<path d="M82 29.5106C82 31.9308 82 34.3509 82 36.7669C82 36.9407 81.9626 37 81.7224 37C80.9164 37 80.121 37 79.2989 37C79.032 37 79 36.9322 79 36.7457C79 33.8663 79 30.9898 79 28.1161V22.2713C79 22 79 22 79.331 22C80.1263 22 80.9324 22 81.7278 22C81.9466 22 82 22.0466 82 22.2204C81.9733 24.6491 82 27.0777 82 29.5106Z" fill="#414141"/>
</svg>
