<svg width="35" height="36" viewBox="0 0 35 36" fill="none" xmlns="http://www.w3.org/2000/svg">
<path d="M17.5 0.00200728C19.8789 0.00200718 22.2362 -0.0205073 24.6108 0.119084C27.3689 0.258675 29.8167 0.916107 31.8336 3.02349C33.8548 5.13538 34.4796 7.68856 34.6132 10.5705C34.7468 13.0561 34.7253 15.5192 34.7253 18.0003C34.7253 20.486 34.7468 22.9491 34.6132 25.4302C34.4796 28.3121 33.8504 30.8698 31.8336 32.9772C29.8124 35.0891 27.3689 35.742 24.6108 35.8816C22.2319 36.0212 19.8746 35.9987 17.5 35.9987C15.1254 35.9987 12.7638 36.0212 10.3892 35.8816C7.63112 35.742 5.1833 35.0846 3.16643 32.9772C1.14525 30.8653 0.520363 28.3121 0.386768 25.4302C0.253169 22.9446 0.274719 20.4815 0.274718 18.0003C0.274718 15.5147 0.253169 13.0516 0.386767 10.5705C0.520362 7.68856 1.14956 5.13088 3.16643 3.02349C5.18761 0.911607 7.63112 0.258676 10.3892 0.119084C12.7638 -0.025012 15.1211 0.00200739 17.5 0.00200728Z" fill="#2B2B2B"/>
<path d="M8.47656 17.8496C8.47656 22.9133 12.4497 27 17.3727 27C22.2958 27 26.2689 22.9133 26.2689 17.8496C26.2689 12.7859 22.2958 8.69928 17.3727 8.69928C12.4497 8.69928 8.47656 12.7859 8.47656 17.8496ZM24.5556 8.32452C24.5556 9.50679 25.4838 10.4615 26.6333 10.4615C27.7827 10.4615 28.7109 9.50679 28.7109 8.32452C28.7109 7.14224 27.7827 6.1875 26.6333 6.1875C26.3603 6.18715 26.09 6.24219 25.8378 6.34946C25.5856 6.45673 25.3564 6.61412 25.1634 6.81264C24.9704 7.01115 24.8174 7.24687 24.7131 7.5063C24.6088 7.76573 24.5553 8.04378 24.5556 8.32452Z" fill="white"/>
<path d="M23.2422 18C23.2422 21.4071 20.6619 24.1875 17.5 24.1875C14.3381 24.1875 11.7578 21.4071 11.7578 18C11.7578 14.5929 14.3381 11.8125 17.5 11.8125C20.6619 11.8125 23.2422 14.5929 23.2422 18Z" fill="#2B2B2B"/>
</svg>
