<svg width="37" height="37" viewBox="0 0 37 37" fill="none" xmlns="http://www.w3.org/2000/svg">
<path d="M18.5002 0.73999C8.69153 0.73999 0.740234 8.69129 0.740234 18.5C0.740234 28.3087 8.69153 36.26 18.5002 36.26C28.3089 36.26 36.2602 28.3087 36.2602 18.5C36.2602 8.69129 28.3089 0.73999 18.5002 0.73999Z" fill="#2B2B2B"/>
<path d="M14.1527 25.8611H10.5563V14.2875H14.1527V25.8611ZM12.3323 12.8667C11.1964 12.8667 10.4619 12.062 10.4619 11.0667C10.4619 10.051 11.2186 9.27032 12.3785 9.27032C13.5385 9.27032 14.2489 10.051 14.2711 11.0667C14.2711 12.062 13.5385 12.8667 12.3323 12.8667ZM27.2877 25.8611H23.6913V19.4472C23.6913 17.9542 23.1696 16.9404 21.869 16.9404C20.8756 16.9404 20.2854 17.6268 20.0246 18.2872C19.9284 18.5222 19.9043 18.8552 19.9043 19.1863V25.8593H16.3061V17.9783C16.3061 16.5334 16.2598 15.3254 16.2117 14.2857H19.3364L19.501 15.8933H19.5732C20.0468 15.1385 21.2067 14.0248 23.1474 14.0248C25.5135 14.0248 27.2877 15.6103 27.2877 19.018V25.8611Z" fill="white"/>
</svg>
