<svg width="335" height="220" viewBox="0 0 335 220" fill="none" xmlns="http://www.w3.org/2000/svg">
<path d="M257.101 208.718C256.229 208.217 255.516 208.62 255.513 209.622C255.542 210.17 255.7 210.703 255.974 211.178C256.248 211.653 256.631 212.057 257.09 212.357C257.966 212.858 258.679 212.455 258.679 211.452C258.651 210.905 258.493 210.371 258.219 209.896C257.945 209.42 257.562 209.017 257.101 208.718V208.718Z" stroke="#B99522" stroke-miterlimit="10"/>
<path d="M257.101 209.132C256.996 209.061 256.877 209.013 256.752 208.989C256.627 208.965 256.499 208.967 256.374 208.994C256.287 209.087 256.219 209.197 256.176 209.317C256.133 209.436 256.115 209.564 256.123 209.691C256.146 210.115 256.269 210.527 256.481 210.894C256.693 211.261 256.989 211.573 257.345 211.805C257.451 211.874 257.57 211.922 257.695 211.945C257.82 211.968 257.948 211.966 258.072 211.939C258.158 211.846 258.224 211.737 258.267 211.618C258.309 211.498 258.327 211.372 258.319 211.245C258.298 210.822 258.176 210.41 257.964 210.043C257.753 209.675 257.457 209.363 257.101 209.132Z" stroke="#B99522" stroke-miterlimit="10"/>
<path d="M257.316 211.812C256.96 211.581 256.664 211.268 256.452 210.901C256.239 210.534 256.117 210.122 256.094 209.698C256.086 209.572 256.104 209.446 256.147 209.326C256.189 209.207 256.255 209.098 256.341 209.005C256.178 209.068 256.042 209.185 255.953 209.336C255.865 209.487 255.83 209.663 255.854 209.836C255.876 210.26 255.998 210.672 256.211 211.04C256.423 211.407 256.719 211.719 257.076 211.95C257.215 212.06 257.387 212.121 257.565 212.121C257.742 212.121 257.915 212.06 258.054 211.95C257.928 211.979 257.797 211.981 257.67 211.958C257.543 211.934 257.423 211.884 257.316 211.812V211.812Z" stroke="#B99522" stroke-miterlimit="10"/>
<path d="M257.101 207.93C257.763 208.359 258.313 208.938 258.708 209.621C259.103 210.303 259.331 211.069 259.373 211.856C259.373 213.308 258.344 213.882 257.087 213.156C256.425 212.726 255.875 212.147 255.481 211.465C255.087 210.782 254.86 210.017 254.818 209.23C254.811 207.785 255.832 207.203 257.101 207.93ZM257.101 212.288C257.945 212.774 258.632 212.386 258.635 211.416C258.608 210.887 258.455 210.372 258.191 209.914C257.926 209.455 257.556 209.065 257.112 208.776C256.265 208.289 255.578 208.682 255.578 209.651C255.606 210.18 255.758 210.694 256.023 211.152C256.287 211.61 256.657 212 257.101 212.288V212.288Z" stroke="#B99522" stroke-miterlimit="10"/>
<path d="M260.162 209.459C259.94 208.956 259.643 208.49 259.282 208.075C258.998 207.744 258.662 207.462 258.286 207.24C257.654 206.877 257.079 206.84 256.665 207.08L255.473 207.77C255.887 207.53 256.458 207.563 257.09 207.93C257.465 208.153 257.802 208.435 258.086 208.765C258.447 209.18 258.744 209.646 258.966 210.149C259.214 210.684 259.349 211.265 259.362 211.855C259.362 212.582 259.104 213.079 258.697 213.308L259.893 212.618C260.3 212.382 260.555 211.892 260.555 211.165C260.544 210.575 260.411 209.994 260.162 209.459V209.459Z" stroke="#B99522" stroke-miterlimit="10"/>
<path d="M257.657 210.309C257.602 210.186 257.53 210.073 257.443 209.971C257.373 209.89 257.291 209.822 257.199 209.767C257.143 209.727 257.077 209.703 257.008 209.696C256.939 209.69 256.87 209.702 256.807 209.731L256.636 209.829C256.699 209.8 256.769 209.788 256.838 209.795C256.907 209.802 256.973 209.828 257.029 209.869C257.12 209.923 257.202 209.992 257.272 210.073C257.361 210.173 257.433 210.287 257.487 210.41C257.545 210.541 257.577 210.681 257.581 210.824C257.59 210.894 257.58 210.964 257.552 211.028C257.523 211.092 257.478 211.147 257.421 211.187L257.588 211.089C257.646 211.049 257.692 210.995 257.721 210.931C257.75 210.867 257.76 210.796 257.752 210.726C257.748 210.582 257.716 210.44 257.657 210.309V210.309Z" stroke="#B99522" stroke-miterlimit="10"/>
<path d="M257.029 209.869C256.723 209.691 256.476 209.833 256.476 210.185C256.486 210.376 256.54 210.562 256.636 210.728C256.731 210.894 256.865 211.035 257.025 211.14C257.33 211.314 257.581 211.173 257.581 210.824C257.571 210.633 257.516 210.446 257.419 210.28C257.323 210.114 257.19 209.974 257.029 209.869V209.869Z" stroke="#B99522" stroke-miterlimit="10"/>
<path d="M257.378 205.755L257.036 211.489C257.038 211.62 257.008 211.749 256.949 211.866C256.889 211.982 256.802 212.082 256.694 212.157L257.952 211.431C258.06 211.357 258.149 211.257 258.208 211.14C258.268 211.024 258.297 210.894 258.294 210.763L258.635 205.028L257.378 205.755Z" stroke="#B99522" stroke-miterlimit="10"/>
<path d="M255.593 203.267L254.331 203.997L257.378 205.755L258.635 205.021L255.593 203.267Z" stroke="#B99522" stroke-miterlimit="10"/>
<path d="M254.335 203.997L254.698 211.413L255.843 212.074C256.465 212.437 256.981 212.175 257.025 211.489L257.367 205.755L254.335 203.997Z" stroke="#B99522" stroke-miterlimit="10"/>
<path d="M254.16 210.407C253.288 209.902 252.575 210.305 252.572 211.311C252.601 211.858 252.759 212.391 253.033 212.865C253.307 213.34 253.69 213.743 254.149 214.042C255.025 214.547 255.738 214.14 255.738 213.138C255.71 212.59 255.552 212.057 255.278 211.582C255.004 211.108 254.621 210.705 254.16 210.407V210.407Z" stroke="#B99522" stroke-miterlimit="10"/>
<path d="M254.16 210.817C254.054 210.747 253.935 210.7 253.81 210.677C253.685 210.653 253.557 210.656 253.433 210.683C253.347 210.776 253.281 210.885 253.238 211.004C253.196 211.123 253.178 211.25 253.186 211.376C253.208 211.8 253.33 212.212 253.542 212.58C253.755 212.947 254.051 213.259 254.407 213.49C254.513 213.56 254.632 213.609 254.757 213.633C254.882 213.656 255.01 213.655 255.135 213.628C255.222 213.535 255.289 213.425 255.332 213.305C255.376 213.185 255.394 213.058 255.385 212.931C255.362 212.507 255.239 212.095 255.026 211.727C254.813 211.36 254.517 211.048 254.16 210.817V210.817Z" stroke="#B99522" stroke-miterlimit="10"/>
<path d="M254.393 213.49C254.037 213.259 253.74 212.947 253.528 212.58C253.316 212.212 253.193 211.8 253.172 211.376C253.163 211.25 253.181 211.124 253.224 211.006C253.266 210.887 253.333 210.778 253.419 210.686C253.124 210.77 252.932 211.049 252.932 211.518C252.953 211.942 253.075 212.354 253.288 212.722C253.5 213.089 253.797 213.401 254.153 213.631C254.293 213.741 254.465 213.8 254.642 213.8C254.819 213.8 254.991 213.741 255.131 213.631C255.005 213.659 254.874 213.66 254.748 213.636C254.621 213.611 254.5 213.562 254.393 213.49V213.49Z" stroke="#B99522" stroke-miterlimit="10"/>
<path d="M254.168 209.633C254.829 210.063 255.38 210.643 255.775 211.326C256.17 212.009 256.398 212.775 256.44 213.562C256.44 215.015 255.411 215.585 254.153 214.862C253.492 214.432 252.941 213.852 252.547 213.17C252.153 212.487 251.926 211.72 251.885 210.933C251.888 209.473 252.91 208.907 254.168 209.633ZM254.168 213.991C255.011 214.481 255.698 214.089 255.702 213.119C255.673 212.591 255.521 212.076 255.256 211.617C254.992 211.159 254.622 210.769 254.178 210.479C253.331 209.993 252.644 210.385 252.641 211.354C252.669 211.883 252.822 212.397 253.087 212.856C253.353 213.314 253.723 213.703 254.168 213.991V213.991Z" stroke="#B99522" stroke-miterlimit="10"/>
<path d="M257.239 211.148C257.017 210.644 256.721 210.176 256.36 209.76C256.074 209.431 255.738 209.149 255.363 208.925C254.731 208.562 254.157 208.526 253.742 208.765L252.55 209.459C252.961 209.216 253.535 209.252 254.167 209.615C254.543 209.839 254.879 210.122 255.164 210.454C255.525 210.868 255.822 211.334 256.043 211.838C256.291 212.373 256.426 212.954 256.44 213.544C256.44 214.271 256.181 214.765 255.774 214.997L256.97 214.307C257.377 214.071 257.632 213.581 257.632 212.854C257.622 212.264 257.489 211.683 257.239 211.148V211.148Z" stroke="#B99522" stroke-miterlimit="10"/>
<path d="M254.731 211.994C254.677 211.871 254.605 211.757 254.517 211.656C254.448 211.577 254.367 211.509 254.277 211.456C254.221 211.415 254.155 211.389 254.086 211.382C254.017 211.375 253.947 211.387 253.884 211.416L253.713 211.518C253.776 211.488 253.845 211.475 253.914 211.482C253.984 211.488 254.05 211.513 254.106 211.554C254.197 211.608 254.28 211.677 254.349 211.758C254.437 211.859 254.509 211.973 254.564 212.095C254.622 212.226 254.654 212.367 254.658 212.509C254.667 212.579 254.656 212.65 254.627 212.714C254.598 212.778 254.553 212.833 254.495 212.873L254.666 212.771C254.723 212.731 254.769 212.676 254.798 212.612C254.827 212.548 254.838 212.477 254.829 212.408C254.825 212.264 254.792 212.123 254.731 211.994Z" stroke="#B99522" stroke-miterlimit="10"/>
<path d="M254.106 211.554C253.8 211.38 253.553 211.522 253.55 211.87C253.56 212.062 253.615 212.248 253.711 212.414C253.807 212.58 253.941 212.721 254.102 212.825C254.408 213.003 254.658 212.862 254.658 212.509C254.648 212.318 254.592 212.132 254.496 211.966C254.4 211.8 254.267 211.659 254.106 211.554V211.554Z" stroke="#B99522" stroke-miterlimit="10"/>
<path d="M165.968 162.201C165.059 161.678 164.321 162.1 164.321 163.142C164.351 163.709 164.515 164.262 164.799 164.754C165.083 165.246 165.48 165.664 165.957 165.974C166.866 166.497 167.604 166.08 167.607 165.037C167.577 164.469 167.413 163.916 167.128 163.423C166.843 162.93 166.446 162.511 165.968 162.201V162.201Z" stroke="#B99522" stroke-miterlimit="10"/>
<path d="M165.968 162.63C165.856 162.555 165.731 162.504 165.599 162.48C165.467 162.456 165.331 162.458 165.201 162.488C165.11 162.585 165.04 162.699 164.996 162.824C164.951 162.949 164.933 163.082 164.942 163.214C164.967 163.651 165.095 164.076 165.315 164.455C165.534 164.833 165.84 165.155 166.208 165.393C166.297 165.502 166.422 165.576 166.561 165.602C166.7 165.628 166.844 165.604 166.966 165.535C167.089 165.465 167.184 165.355 167.233 165.223C167.283 165.09 167.284 164.945 167.236 164.812C167.211 164.375 167.083 163.949 166.862 163.57C166.642 163.191 166.336 162.869 165.968 162.63V162.63Z" stroke="#B99522" stroke-miterlimit="10"/>
<path d="M166.218 165.404C165.851 165.166 165.545 164.844 165.326 164.466C165.106 164.087 164.978 163.662 164.953 163.225C164.944 163.093 164.962 162.961 165.006 162.836C165.049 162.711 165.118 162.596 165.208 162.499C165.039 162.566 164.897 162.687 164.806 162.844C164.714 163.001 164.678 163.184 164.703 163.363C164.728 163.801 164.856 164.226 165.076 164.604C165.296 164.983 165.603 165.304 165.971 165.542C166.116 165.656 166.294 165.718 166.478 165.718C166.662 165.718 166.841 165.656 166.985 165.542C166.855 165.572 166.72 165.576 166.588 165.552C166.456 165.528 166.33 165.478 166.218 165.404V165.404Z" stroke="#B99522" stroke-miterlimit="10"/>
<path d="M165.975 161.384C166.662 161.829 167.233 162.431 167.642 163.139C168.052 163.847 168.288 164.642 168.331 165.459C168.331 166.955 167.265 167.561 165.96 166.806C165.274 166.361 164.702 165.759 164.293 165.051C163.883 164.343 163.648 163.548 163.605 162.731C163.608 161.235 164.67 160.629 165.975 161.384ZM165.975 165.916C166.851 166.421 167.564 166.018 167.567 165.012C167.539 164.463 167.381 163.929 167.106 163.453C166.831 162.977 166.447 162.573 165.986 162.274C165.106 161.765 164.394 162.172 164.39 163.178C164.42 163.727 164.579 164.261 164.855 164.736C165.13 165.212 165.514 165.616 165.975 165.916Z" stroke="#B99522" stroke-miterlimit="10"/>
<path d="M169.163 162.971C168.933 162.443 168.625 161.953 168.247 161.519C167.952 161.176 167.603 160.882 167.215 160.651C166.56 160.288 165.964 160.237 165.535 160.487L164.295 161.214C164.724 160.967 165.321 160.999 165.975 161.381C166.365 161.61 166.714 161.903 167.007 162.249C167.385 162.684 167.694 163.173 167.923 163.701C168.18 164.258 168.319 164.861 168.331 165.473C168.331 166.218 168.065 166.741 167.644 166.988L168.883 166.261C169.305 166.014 169.57 165.492 169.57 164.747C169.559 164.133 169.421 163.529 169.163 162.971V162.971Z" stroke="#B99522" stroke-miterlimit="10"/>
<path d="M166.56 163.85C166.506 163.718 166.431 163.595 166.338 163.487C166.267 163.403 166.183 163.331 166.088 163.276C166.029 163.234 165.961 163.208 165.889 163.201C165.818 163.194 165.746 163.206 165.68 163.236L165.502 163.341C165.568 163.31 165.641 163.297 165.713 163.304C165.786 163.311 165.855 163.338 165.913 163.381C166.007 163.438 166.092 163.509 166.164 163.592C166.255 163.702 166.329 163.824 166.386 163.955C166.447 164.09 166.481 164.236 166.484 164.384C166.489 164.453 166.477 164.523 166.447 164.587C166.418 164.65 166.373 164.706 166.317 164.747L166.491 164.641C166.549 164.601 166.595 164.547 166.625 164.483C166.655 164.419 166.668 164.349 166.662 164.278C166.658 164.13 166.623 163.984 166.56 163.85V163.85Z" stroke="#B99522" stroke-miterlimit="10"/>
<path d="M165.913 163.396C165.593 163.211 165.335 163.36 165.335 163.723C165.346 163.922 165.404 164.115 165.503 164.287C165.603 164.46 165.742 164.606 165.909 164.714C166.226 164.896 166.484 164.751 166.484 164.384C166.473 164.186 166.416 163.993 166.317 163.821C166.218 163.65 166.08 163.504 165.913 163.396V163.396Z" stroke="#B99522" stroke-miterlimit="10"/>
<path d="M167.335 155.81L165.917 165.074C165.919 165.211 165.887 165.346 165.824 165.467C165.76 165.588 165.667 165.691 165.553 165.767L166.858 165.008C166.973 164.933 167.066 164.83 167.13 164.709C167.194 164.587 167.225 164.452 167.222 164.315L168.643 155.051L167.335 155.81Z" stroke="#B99522" stroke-miterlimit="10"/>
<path d="M165.484 153.228L164.179 153.987L167.334 155.81L168.643 155.051L165.484 153.228Z" stroke="#B99522" stroke-miterlimit="10"/>
<path d="M164.179 153.986L163.503 164.997L164.692 165.691C165.339 166.054 165.873 165.796 165.917 165.081L167.334 155.817L164.179 153.986Z" stroke="#B99522" stroke-miterlimit="10"/>
<path d="M162.947 163.952C162.038 163.429 161.3 163.85 161.296 164.892C161.326 165.46 161.491 166.013 161.775 166.505C162.06 166.998 162.458 167.416 162.936 167.725C163.841 168.248 164.579 167.827 164.583 166.788C164.553 166.22 164.389 165.667 164.105 165.174C163.821 164.681 163.424 164.262 162.947 163.952V163.952Z" stroke="#B99522" stroke-miterlimit="10"/>
<path d="M162.947 164.38C162.858 164.268 162.733 164.192 162.593 164.165C162.453 164.137 162.308 164.161 162.184 164.231C162.06 164.301 161.966 164.414 161.918 164.547C161.869 164.681 161.871 164.828 161.922 164.961C161.947 165.398 162.075 165.823 162.296 166.202C162.516 166.58 162.823 166.902 163.19 167.14C163.278 167.252 163.404 167.328 163.544 167.356C163.684 167.383 163.829 167.36 163.953 167.289C164.076 167.219 164.171 167.107 164.219 166.973C164.268 166.839 164.266 166.692 164.215 166.559C164.191 166.122 164.064 165.696 163.843 165.317C163.623 164.938 163.316 164.617 162.947 164.38V164.38Z" stroke="#B99522" stroke-miterlimit="10"/>
<path d="M163.176 167.144C162.808 166.905 162.502 166.584 162.281 166.205C162.061 165.827 161.933 165.402 161.907 164.965C161.898 164.833 161.916 164.7 161.959 164.575C162.003 164.451 162.072 164.336 162.161 164.239C161.993 164.306 161.851 164.427 161.76 164.584C161.668 164.74 161.632 164.923 161.656 165.103C161.681 165.54 161.81 165.965 162.03 166.344C162.25 166.722 162.557 167.044 162.925 167.282C163.069 167.396 163.248 167.459 163.432 167.459C163.616 167.459 163.795 167.396 163.939 167.282C163.809 167.312 163.674 167.315 163.543 167.292C163.412 167.268 163.287 167.218 163.176 167.144V167.144Z" stroke="#B99522" stroke-miterlimit="10"/>
<path d="M162.947 163.149C163.633 163.595 164.204 164.197 164.614 164.906C165.023 165.615 165.259 166.41 165.302 167.227C165.302 168.723 164.237 169.326 162.929 168.574C162.243 168.129 161.672 167.527 161.263 166.819C160.854 166.111 160.619 165.316 160.577 164.5C160.577 162.982 161.638 162.379 162.947 163.149ZM162.947 167.685C163.823 168.19 164.535 167.783 164.539 166.777C164.512 166.224 164.353 165.686 164.076 165.207C163.799 164.727 163.412 164.321 162.947 164.02C162.071 163.516 161.358 163.922 161.354 164.928C161.383 165.477 161.541 166.011 161.816 166.487C162.091 166.963 162.475 167.367 162.936 167.667L162.947 167.685Z" stroke="#B99522" stroke-miterlimit="10"/>
<path d="M166.128 164.721C165.899 164.194 165.591 163.704 165.215 163.269C164.919 162.933 164.57 162.648 164.183 162.423C163.525 162.059 162.932 162.009 162.5 162.259L161.26 162.986C161.689 162.735 162.285 162.771 162.943 163.149C163.331 163.382 163.68 163.675 163.975 164.017C164.351 164.453 164.658 164.942 164.888 165.47C165.146 166.026 165.286 166.629 165.299 167.242C165.299 167.968 165.033 168.509 164.608 168.752L165.848 168.026C166.273 167.779 166.535 167.256 166.538 166.512C166.528 165.893 166.388 165.283 166.128 164.721V164.721Z" stroke="#B99522" stroke-miterlimit="10"/>
<path d="M163.528 165.6C163.472 165.469 163.397 165.347 163.307 165.237C163.235 165.154 163.15 165.083 163.056 165.026C162.997 164.983 162.928 164.956 162.856 164.949C162.783 164.942 162.711 164.955 162.645 164.986L162.47 165.088C162.536 165.059 162.608 165.047 162.679 165.054C162.751 165.061 162.819 165.086 162.878 165.128C162.971 165.186 163.055 165.257 163.128 165.339C163.221 165.448 163.296 165.57 163.35 165.702C163.414 165.836 163.449 165.982 163.452 166.13C163.458 166.201 163.445 166.271 163.415 166.335C163.385 166.399 163.339 166.453 163.281 166.494L163.459 166.392C163.516 166.351 163.561 166.296 163.591 166.232C163.62 166.169 163.632 166.099 163.626 166.029C163.623 165.881 163.589 165.735 163.528 165.6Z" stroke="#B99522" stroke-miterlimit="10"/>
<path d="M162.878 165.143C162.561 164.961 162.303 165.11 162.303 165.473C162.313 165.672 162.37 165.865 162.469 166.037C162.569 166.21 162.707 166.356 162.874 166.465C163.19 166.646 163.448 166.497 163.452 166.134C163.44 165.935 163.382 165.742 163.282 165.57C163.183 165.398 163.044 165.252 162.878 165.143Z" stroke="#B99522" stroke-miterlimit="10"/>
<path d="M171.308 165.273C170.403 164.751 169.665 165.172 169.661 166.214C169.691 166.782 169.855 167.334 170.139 167.826C170.423 168.319 170.82 168.737 171.297 169.047C172.206 169.57 172.944 169.152 172.947 168.11C172.918 167.541 172.754 166.988 172.469 166.495C172.184 166.002 171.786 165.583 171.308 165.273V165.273Z" stroke="#B99522" stroke-miterlimit="10"/>
<path d="M171.308 165.691C171.22 165.579 171.094 165.503 170.954 165.475C170.815 165.448 170.67 165.472 170.546 165.542C170.422 165.612 170.327 165.724 170.279 165.858C170.231 165.992 170.232 166.139 170.283 166.272C170.308 166.709 170.435 167.134 170.655 167.512C170.875 167.891 171.181 168.212 171.548 168.451C171.637 168.56 171.763 168.634 171.902 168.66C172.04 168.686 172.184 168.662 172.307 168.593C172.43 168.523 172.524 168.413 172.574 168.28C172.623 168.148 172.624 168.003 172.577 167.87C172.551 167.433 172.422 167.008 172.202 166.63C171.982 166.251 171.675 165.93 171.308 165.691V165.691Z" stroke="#B99522" stroke-miterlimit="10"/>
<path d="M171.533 168.477C171.166 168.238 170.86 167.916 170.641 167.538C170.421 167.159 170.293 166.734 170.268 166.298C170.259 166.166 170.277 166.033 170.321 165.908C170.364 165.783 170.433 165.669 170.523 165.571C170.353 165.637 170.211 165.759 170.12 165.916C170.028 166.072 169.992 166.256 170.017 166.436C170.043 166.873 170.17 167.298 170.391 167.677C170.611 168.055 170.918 168.377 171.286 168.615C171.431 168.729 171.609 168.791 171.793 168.791C171.977 168.791 172.156 168.729 172.3 168.615C172.17 168.645 172.035 168.648 171.903 168.624C171.771 168.6 171.645 168.55 171.533 168.477V168.477Z" stroke="#B99522" stroke-miterlimit="10"/>
<path d="M171.308 164.453C171.995 164.899 172.566 165.501 172.976 166.209C173.385 166.918 173.621 167.714 173.664 168.531C173.664 170.027 172.598 170.634 171.293 169.878C170.607 169.433 170.035 168.832 169.626 168.124C169.216 167.415 168.981 166.62 168.938 165.804C168.934 164.308 169.996 163.701 171.308 164.453ZM171.308 168.989C172.184 169.493 172.897 169.09 172.9 168.081C172.872 167.529 172.713 166.991 172.436 166.512C172.16 166.034 171.773 165.628 171.308 165.328C170.432 164.823 169.716 165.23 169.716 166.236C169.744 166.785 169.903 167.319 170.177 167.795C170.452 168.27 170.836 168.675 171.297 168.974L171.308 168.989Z" stroke="#B99522" stroke-miterlimit="10"/>
<path d="M174.489 166.054C174.259 165.527 173.951 165.038 173.576 164.602C173.281 164.259 172.932 163.966 172.544 163.734C171.886 163.371 171.29 163.32 170.861 163.57L169.621 164.297C170.05 164.046 170.646 164.082 171.301 164.46C171.689 164.692 172.038 164.985 172.333 165.328C172.711 165.763 173.02 166.253 173.249 166.781C173.506 167.337 173.645 167.94 173.656 168.553C173.656 169.297 173.391 169.82 172.969 170.064L174.209 169.337C174.634 169.09 174.896 168.567 174.896 167.823C174.884 167.212 174.746 166.609 174.489 166.054V166.054Z" stroke="#B99522" stroke-miterlimit="10"/>
<path d="M171.886 166.922C171.833 166.79 171.758 166.667 171.664 166.559C171.593 166.475 171.508 166.404 171.413 166.348C171.355 166.306 171.287 166.28 171.215 166.273C171.144 166.266 171.071 166.278 171.006 166.308L170.828 166.414C170.894 166.383 170.966 166.37 171.038 166.376C171.111 166.383 171.18 166.408 171.239 166.45C171.332 166.509 171.417 166.581 171.49 166.664C171.581 166.774 171.655 166.897 171.711 167.027C171.773 167.162 171.806 167.308 171.81 167.456C171.815 167.526 171.803 167.596 171.773 167.659C171.744 167.723 171.699 167.778 171.642 167.819L171.821 167.714C171.877 167.673 171.923 167.618 171.952 167.554C171.981 167.491 171.994 167.42 171.988 167.351C171.984 167.202 171.95 167.056 171.886 166.922V166.922Z" stroke="#B99522" stroke-miterlimit="10"/>
<path d="M171.239 166.465C170.919 166.283 170.661 166.432 170.661 166.795C170.672 166.994 170.729 167.187 170.829 167.36C170.929 167.532 171.068 167.678 171.235 167.787C171.552 167.968 171.81 167.819 171.81 167.456C171.799 167.258 171.741 167.065 171.642 166.893C171.543 166.72 171.405 166.574 171.239 166.465V166.465Z" stroke="#B99522" stroke-miterlimit="10"/>
<path d="M172.66 158.882L171.242 168.146C171.245 168.283 171.213 168.418 171.149 168.539C171.086 168.66 170.993 168.764 170.879 168.84L172.184 168.081C172.299 168.006 172.393 167.903 172.456 167.781C172.52 167.66 172.551 167.524 172.548 167.387L173.969 158.123L172.66 158.882Z" stroke="#B99522" stroke-miterlimit="10"/>
<path d="M170.81 156.3L169.505 157.059L172.664 158.882L173.969 158.123L170.81 156.3Z" stroke="#B99522" stroke-miterlimit="10"/>
<path d="M169.49 157.059L168.814 168.07L170.003 168.756C170.65 169.119 171.184 168.861 171.228 168.146L172.646 158.882L169.49 157.059Z" stroke="#B99522" stroke-miterlimit="10"/>
<path d="M168.262 167.024C167.353 166.501 166.615 166.922 166.611 167.961C166.641 168.529 166.805 169.083 167.09 169.576C167.375 170.069 167.773 170.487 168.251 170.797C169.156 171.32 169.897 170.899 169.897 169.857C169.867 169.289 169.703 168.737 169.419 168.245C169.135 167.752 168.738 167.334 168.262 167.024V167.024Z" stroke="#B99522" stroke-miterlimit="10"/>
<path d="M168.258 167.449C168.168 167.341 168.042 167.269 167.904 167.244C167.766 167.219 167.623 167.244 167.501 167.313C167.379 167.383 167.285 167.493 167.236 167.625C167.187 167.756 167.186 167.901 167.233 168.033C167.259 168.47 167.388 168.895 167.608 169.273C167.828 169.652 168.134 169.973 168.501 170.212C168.592 170.32 168.717 170.393 168.855 170.417C168.994 170.442 169.136 170.417 169.258 170.348C169.381 170.278 169.474 170.168 169.523 170.036C169.572 169.905 169.573 169.76 169.527 169.628C169.502 169.19 169.374 168.765 169.153 168.387C168.933 168.008 168.626 167.687 168.258 167.449Z" stroke="#B99522" stroke-miterlimit="10"/>
<path d="M168.501 170.227C168.134 169.988 167.828 169.666 167.608 169.288C167.388 168.91 167.259 168.485 167.233 168.048C167.224 167.916 167.242 167.783 167.287 167.658C167.331 167.533 167.4 167.419 167.491 167.322C167.322 167.388 167.18 167.508 167.087 167.664C166.995 167.82 166.958 168.003 166.982 168.182C167.007 168.619 167.136 169.044 167.356 169.423C167.576 169.801 167.883 170.123 168.251 170.361C168.394 170.477 168.573 170.54 168.758 170.54C168.942 170.54 169.121 170.477 169.265 170.361C169.135 170.392 169 170.396 168.869 170.373C168.738 170.35 168.613 170.3 168.501 170.227V170.227Z" stroke="#B99522" stroke-miterlimit="10"/>
<path d="M168.269 166.203C168.955 166.649 169.526 167.25 169.936 167.958C170.345 168.666 170.581 169.461 170.624 170.278C170.624 171.778 169.559 172.38 168.254 171.629C167.568 171.183 166.997 170.582 166.587 169.874C166.178 169.166 165.942 168.371 165.899 167.554C165.902 166.054 166.964 165.451 168.269 166.203ZM168.269 170.739C169.149 171.244 169.861 170.837 169.861 169.831C169.832 169.283 169.674 168.749 169.399 168.273C169.124 167.797 168.741 167.393 168.28 167.093C167.404 166.588 166.691 166.995 166.687 168.001C166.716 168.549 166.874 169.084 167.149 169.559C167.424 170.035 167.808 170.44 168.269 170.739V170.739Z" stroke="#B99522" stroke-miterlimit="10"/>
<path d="M171.457 167.79C171.225 167.269 170.916 166.786 170.541 166.356C170.246 166.012 169.897 165.719 169.508 165.488C168.85 165.125 168.258 165.074 167.829 165.324L166.582 166.054C167.015 165.804 167.607 165.84 168.265 166.218C168.653 166.45 169.002 166.743 169.298 167.086C169.673 167.522 169.98 168.011 170.21 168.538C170.468 169.093 170.608 169.695 170.621 170.307C170.621 171.051 170.355 171.578 169.93 171.821L171.17 171.095C171.595 170.848 171.857 170.325 171.86 169.58C171.851 168.962 171.713 168.353 171.457 167.79V167.79Z" stroke="#B99522" stroke-miterlimit="10"/>
<path d="M168.854 168.673C168.798 168.542 168.723 168.419 168.632 168.309C168.56 168.226 168.476 168.155 168.381 168.099C168.323 168.055 168.254 168.029 168.182 168.022C168.109 168.015 168.036 168.028 167.971 168.059L167.796 168.161C167.862 168.131 167.934 168.119 168.005 168.126C168.077 168.133 168.145 168.159 168.203 168.2C168.297 168.258 168.381 168.329 168.454 168.411C168.547 168.52 168.621 168.642 168.676 168.774C168.74 168.908 168.775 169.054 168.778 169.203C168.784 169.273 168.771 169.343 168.742 169.406C168.713 169.47 168.667 169.525 168.611 169.566L168.785 169.464C168.842 169.423 168.887 169.368 168.916 169.304C168.945 169.241 168.958 169.171 168.952 169.101C168.949 168.953 168.916 168.807 168.854 168.673V168.673Z" stroke="#B99522" stroke-miterlimit="10"/>
<path d="M168.203 168.233C167.887 168.052 167.629 168.197 167.629 168.564C167.639 168.762 167.696 168.955 167.795 169.126C167.894 169.298 168.033 169.444 168.2 169.551C168.516 169.737 168.774 169.588 168.778 169.225C168.766 169.026 168.708 168.833 168.608 168.661C168.509 168.489 168.37 168.342 168.203 168.233V168.233Z" stroke="#B99522" stroke-miterlimit="10"/>
<path d="M176.619 168.346C175.714 167.823 174.976 168.244 174.972 169.283C175.002 169.851 175.166 170.404 175.45 170.897C175.734 171.39 176.131 171.808 176.608 172.119C177.517 172.642 178.255 172.221 178.259 171.178C178.229 170.611 178.064 170.058 177.779 169.565C177.494 169.073 177.097 168.655 176.619 168.346V168.346Z" stroke="#B99522" stroke-miterlimit="10"/>
<path d="M176.619 168.774C176.531 168.663 176.405 168.586 176.266 168.559C176.126 168.531 175.981 168.555 175.857 168.625C175.733 168.695 175.638 168.808 175.59 168.942C175.542 169.076 175.543 169.222 175.594 169.355C175.619 169.793 175.747 170.218 175.967 170.596C176.188 170.975 176.495 171.296 176.863 171.534C176.974 171.609 177.1 171.66 177.232 171.684C177.364 171.708 177.499 171.704 177.63 171.672C177.721 171.576 177.791 171.461 177.835 171.336C177.88 171.211 177.898 171.078 177.888 170.946C177.861 170.51 177.733 170.086 177.512 169.709C177.292 169.332 176.986 169.012 176.619 168.774V168.774Z" stroke="#B99522" stroke-miterlimit="10"/>
<path d="M176.863 171.549C176.495 171.311 176.188 170.99 175.968 170.611C175.747 170.232 175.619 169.807 175.594 169.37C175.585 169.238 175.603 169.105 175.646 168.981C175.69 168.856 175.759 168.741 175.848 168.644C175.679 168.71 175.537 168.831 175.445 168.988C175.354 169.145 175.318 169.328 175.343 169.508C175.369 169.945 175.497 170.37 175.717 170.748C175.938 171.127 176.244 171.448 176.612 171.687C176.756 171.802 176.935 171.865 177.119 171.865C177.303 171.865 177.482 171.802 177.626 171.687C177.496 171.717 177.361 171.721 177.23 171.697C177.099 171.673 176.974 171.623 176.863 171.549V171.549Z" stroke="#B99522" stroke-miterlimit="10"/>
<path d="M176.63 167.525C177.316 167.971 177.887 168.573 178.296 169.282C178.705 169.991 178.94 170.786 178.982 171.603C178.982 173.1 177.917 173.702 176.612 172.951C175.925 172.505 175.354 171.904 174.945 171.196C174.535 170.487 174.299 169.693 174.256 168.876C174.263 167.376 175.325 166.781 176.63 167.525ZM176.63 172.061C177.506 172.566 178.219 172.159 178.222 171.153C178.193 170.604 178.035 170.07 177.76 169.595C177.485 169.119 177.102 168.714 176.641 168.415C175.765 167.91 175.049 168.317 175.049 169.323C175.077 169.871 175.236 170.405 175.51 170.881C175.785 171.357 176.169 171.761 176.63 172.061V172.061Z" stroke="#B99522" stroke-miterlimit="10"/>
<path d="M179.815 169.112C179.584 168.591 179.276 168.108 178.902 167.678C178.607 167.334 178.259 167.041 177.87 166.81C177.212 166.446 176.616 166.396 176.187 166.646L174.947 167.372C175.376 167.122 175.972 167.158 176.63 167.536C177.017 167.769 177.364 168.062 177.659 168.404C178.036 168.839 178.345 169.329 178.575 169.856C178.832 170.413 178.971 171.016 178.982 171.629C178.982 172.355 178.72 172.896 178.295 173.139L179.535 172.413C179.96 172.166 180.222 171.643 180.225 170.899C180.214 170.281 180.074 169.673 179.815 169.112V169.112Z" stroke="#B99522" stroke-miterlimit="10"/>
<path d="M177.215 169.994C177.159 169.863 177.083 169.74 176.99 169.631C176.92 169.547 176.835 169.475 176.739 169.421C176.681 169.377 176.613 169.351 176.541 169.344C176.469 169.337 176.397 169.349 176.332 169.381L176.154 169.482C176.22 169.453 176.293 169.441 176.365 169.448C176.437 169.455 176.505 169.481 176.565 169.522C176.658 169.58 176.742 169.651 176.815 169.733C176.907 169.843 176.981 169.965 177.037 170.096C177.099 170.231 177.132 170.377 177.135 170.525C177.143 170.595 177.131 170.665 177.102 170.729C177.072 170.793 177.026 170.848 176.968 170.888L177.146 170.786C177.203 170.745 177.248 170.69 177.278 170.627C177.307 170.563 177.319 170.493 177.314 170.423C177.31 170.275 177.276 170.129 177.215 169.994V169.994Z" stroke="#B99522" stroke-miterlimit="10"/>
<path d="M176.565 169.537C176.248 169.355 175.99 169.504 175.987 169.867C175.998 170.066 176.056 170.258 176.156 170.43C176.255 170.601 176.394 170.747 176.561 170.855C176.877 171.04 177.135 170.891 177.135 170.528C177.125 170.33 177.068 170.137 176.969 169.964C176.87 169.792 176.731 169.645 176.565 169.537V169.537Z" stroke="#B99522" stroke-miterlimit="10"/>
<path d="M177.99 161.951L176.568 171.218C176.571 171.355 176.539 171.49 176.475 171.612C176.412 171.733 176.319 171.836 176.205 171.912L177.51 171.153C177.624 171.077 177.717 170.974 177.781 170.853C177.844 170.732 177.876 170.596 177.873 170.459L179.291 161.195L177.99 161.951Z" stroke="#B99522" stroke-miterlimit="10"/>
<path d="M176.136 159.372L174.831 160.131L177.99 161.951L179.295 161.195L176.136 159.372Z" stroke="#B99522" stroke-miterlimit="10"/>
<path d="M174.831 160.131L174.154 171.139L175.347 171.821C175.99 172.184 176.525 171.927 176.568 171.215L177.99 161.947L174.831 160.131Z" stroke="#B99522" stroke-miterlimit="10"/>
<path d="M173.587 170.096C172.678 169.573 171.941 169.991 171.937 171.033C171.967 171.602 172.131 172.155 172.416 172.648C172.701 173.141 173.098 173.559 173.576 173.869C174.485 174.392 175.223 173.971 175.223 172.929C175.194 172.361 175.031 171.808 174.746 171.316C174.462 170.824 174.065 170.406 173.587 170.096V170.096Z" stroke="#B99522" stroke-miterlimit="10"/>
<path d="M173.587 170.521C173.475 170.446 173.349 170.395 173.216 170.372C173.084 170.348 172.948 170.352 172.817 170.383C172.727 170.481 172.658 170.595 172.614 170.72C172.57 170.845 172.551 170.977 172.558 171.109C172.585 171.546 172.714 171.971 172.934 172.349C173.154 172.728 173.46 173.049 173.827 173.288C173.918 173.396 174.043 173.468 174.181 173.493C174.32 173.518 174.462 173.493 174.584 173.424C174.706 173.354 174.8 173.244 174.849 173.112C174.898 172.981 174.899 172.836 174.852 172.704C174.828 172.266 174.701 171.841 174.481 171.461C174.261 171.082 173.955 170.76 173.587 170.521Z" stroke="#B99522" stroke-miterlimit="10"/>
<path d="M173.827 173.317C173.46 173.078 173.154 172.757 172.934 172.378C172.714 172 172.585 171.575 172.559 171.138C172.549 171.006 172.568 170.873 172.612 170.748C172.656 170.623 172.726 170.509 172.817 170.412C172.647 170.477 172.505 170.598 172.413 170.754C172.321 170.91 172.285 171.093 172.311 171.273C172.336 171.71 172.463 172.135 172.683 172.513C172.903 172.892 173.209 173.213 173.576 173.452C173.721 173.566 173.899 173.628 174.084 173.628C174.268 173.628 174.446 173.566 174.591 173.452C174.461 173.482 174.326 173.485 174.195 173.462C174.064 173.439 173.939 173.39 173.827 173.317V173.317Z" stroke="#B99522" stroke-miterlimit="10"/>
<path d="M173.595 169.275C174.281 169.721 174.852 170.322 175.262 171.03C175.671 171.739 175.907 172.533 175.95 173.35C175.95 174.85 174.885 175.453 173.58 174.701C172.894 174.255 172.322 173.654 171.913 172.946C171.503 172.238 171.268 171.443 171.224 170.626C171.228 169.127 172.289 168.524 173.595 169.275ZM173.595 173.811C174.474 174.316 175.187 173.909 175.19 172.903C175.16 172.355 175.001 171.821 174.726 171.345C174.45 170.869 174.066 170.465 173.605 170.165C172.729 169.66 172.017 170.067 172.013 171.073C172.042 171.622 172.2 172.156 172.475 172.632C172.75 173.108 173.133 173.512 173.595 173.811V173.811Z" stroke="#B99522" stroke-miterlimit="10"/>
<path d="M176.783 170.863C176.551 170.341 176.242 169.858 175.867 169.428C175.572 169.085 175.223 168.792 174.834 168.56C174.18 168.197 173.584 168.146 173.155 168.393L171.911 169.119C172.344 168.869 172.937 168.905 173.595 169.283C173.983 169.516 174.331 169.809 174.627 170.151C175.003 170.586 175.312 171.076 175.543 171.603C175.798 172.159 175.937 172.761 175.95 173.372C175.95 174.116 175.685 174.639 175.26 174.886L176.499 174.16C176.924 173.913 177.19 173.39 177.19 172.646C177.18 172.029 177.041 171.422 176.783 170.863V170.863Z" stroke="#B99522" stroke-miterlimit="10"/>
<path d="M174.18 171.745C174.126 171.612 174.051 171.49 173.958 171.382C173.887 171.298 173.802 171.226 173.707 171.171C173.649 171.128 173.58 171.101 173.507 171.094C173.435 171.087 173.362 171.1 173.296 171.131L173.122 171.233C173.187 171.203 173.259 171.192 173.331 171.199C173.402 171.206 173.471 171.231 173.529 171.273C173.623 171.329 173.708 171.4 173.78 171.483C173.873 171.592 173.948 171.714 174.002 171.847C174.066 171.98 174.1 172.127 174.103 172.275C174.11 172.345 174.098 172.415 174.069 172.479C174.039 172.543 173.994 172.598 173.936 172.638L174.111 172.537C174.168 172.496 174.214 172.441 174.243 172.377C174.272 172.314 174.284 172.243 174.278 172.173C174.275 172.025 174.241 171.88 174.18 171.745V171.745Z" stroke="#B99522" stroke-miterlimit="10"/>
<path d="M173.529 171.287C173.213 171.106 172.955 171.251 172.955 171.618C172.967 171.813 173.025 172.003 173.124 172.172C173.223 172.341 173.361 172.485 173.525 172.591C173.842 172.776 174.1 172.627 174.104 172.264C174.09 172.068 174.031 171.878 173.931 171.709C173.831 171.539 173.694 171.395 173.529 171.287Z" stroke="#B99522" stroke-miterlimit="10"/>
<path d="M196.937 174.621L183.606 174.24L141.164 149.759L132.428 135.883L185.871 146.905L196.937 174.621Z" stroke="#B99522" stroke-miterlimit="10"/>
<path d="M90.5168 79.8263C101.975 83.3525 117.276 89.922 131.596 97.2578C134.075 98.5289 196.399 131.718 232.294 151.041C245.817 158.323 258.392 165.255 259.788 166.149C262.689 168.018 265.4 170.169 267.88 172.569C271.995 176.546 274.871 181.63 276.634 187.07C281.174 190.611 284.337 197.213 284.817 202.381C284.938 203.883 284.579 205.386 283.79 206.671C283.001 207.956 281.824 208.958 280.429 209.531C271.341 213.341 255.974 209.709 242.985 202.21C199.245 176.989 129.865 136.217 113.423 126.743C86.9687 111.486 75.801 86.8606 76.7898 81.515C77.6478 76.7177 84.5621 77.996 90.5168 79.8263Z" stroke="#B99522" stroke-miterlimit="10"/>
<path d="M284.177 199.178C284.177 203.172 278.433 206.005 266.771 203.721C253.022 201.03 184.977 162.964 137.038 134.249C129.618 129.528 122.569 124.887 116.091 117.181C113.779 114.431 112.158 111.025 112.281 107.437C112.554 99.5856 119.283 92.7256 127.757 95.3149C114.586 88.7781 100.961 83.0257 90.5168 79.8117C84.5622 77.9959 77.4479 76.5796 76.5754 81.3842C75.881 85.201 80.7633 95.4384 87.3941 104.074C93.8904 112.521 99.1652 117.642 109.013 124.102C118.861 130.563 133.344 138.331 157.537 152.476C165.172 156.932 174.812 164.928 194.719 174.469C198.875 176.891 232.705 196.548 242.724 202.326C255.716 209.822 271.443 213.551 280.531 209.753C283.352 208.576 285.06 205.482 284.773 202.443C284.665 201.34 284.466 200.248 284.177 199.178Z" stroke="#B99522" stroke-miterlimit="10"/>
<path d="M257.363 166.141C253.484 163.599 229.775 150.293 212.929 141.163C210.969 142.01 209.061 143.023 207.112 143.92C223.595 153.097 248.682 167.075 252.31 169.403C262.18 175.732 264.826 178.946 268.552 178.794C271.428 178.678 268.454 173.415 257.363 166.141Z" stroke="#B99522" stroke-miterlimit="10"/>
<path d="M201.343 150.493C202.186 151.47 206.134 154.455 206.134 154.455C201.274 154.502 193.905 157.102 192.756 157.698C218.305 172.522 243.68 187.092 246.995 185.937C257.668 182.218 227.848 164.754 201.343 150.493Z" stroke="#B99522" stroke-miterlimit="10"/>
<path d="M249.896 161.587C250.71 161.586 251.519 161.708 252.295 161.951L251.158 161.333C250.741 161.252 250.32 161.201 249.896 161.181C243.382 161.181 235.239 167.427 230.531 175.649C229.932 176.692 229.391 177.768 228.909 178.87C227.645 181.644 226.955 184.644 226.881 187.691C199.889 172.119 166.051 152.312 143.367 139.028C134.486 133.821 126.765 129.296 120.661 125.737C120.789 123.146 121.406 120.603 122.479 118.241C126.252 109.525 134.62 102.455 141.131 102.455C141.262 102.455 141.371 102.491 141.495 102.498L140.771 102.106C134.173 102.36 125.885 109.409 122.126 118.085C121.064 120.423 120.434 122.934 120.268 125.497C116.597 123.354 113.536 121.575 111.198 120.228C99.965 113.745 91.2039 106.769 84.8676 100.461C85.2675 101.049 85.7219 101.648 86.1581 102.244C92.3818 108.185 100.645 114.591 110.998 120.569C113.379 121.942 116.52 123.768 120.283 125.965C120.261 128.279 120.846 130.214 121.926 131.671L123.097 132.35C121.537 130.999 120.708 128.863 120.69 126.201C126.757 129.746 134.395 134.224 143.182 139.373C165.906 152.705 199.856 172.591 226.896 188.171C226.965 190.535 227.623 192.528 228.79 194.006L229.88 194.635C226.656 191.806 226.354 185.81 229.288 179.019C233.45 169.417 242.698 161.587 249.896 161.587Z" stroke="#B99522" stroke-miterlimit="10"/>
<path d="M132.134 5.99295L95.0537 38.9167V40.4493L132.134 7.52547C132.221 7.4527 132.292 7.36239 132.342 7.2604C132.392 7.15842 132.42 7.04705 132.425 6.93352V5.401C132.42 5.51453 132.392 5.6259 132.342 5.72788C132.292 5.82986 132.221 5.92018 132.134 5.99295V5.99295Z" stroke="#B99522" stroke-miterlimit="10"/>
<path d="M95.0536 38.9167L95.05 40.4492L78.971 31.1742L78.9746 29.6453L95.0536 38.9167Z" stroke="#B99522" stroke-miterlimit="10"/>
<path d="M131.901 4.64921C132.505 5.01237 132.595 5.56437 132.134 5.99289L95.0536 38.9167L78.971 29.6453L123.405 1.37354C123.815 1.14096 124.276 1.01297 124.747 1.00094C125.218 0.988899 125.685 1.09318 126.106 1.30454L131.901 4.64921Z" stroke="#B99522" stroke-miterlimit="10"/>
<path d="M101.863 79.456L104.716 77.7964L114.401 93.6191L111.543 95.2751L101.863 79.456Z" stroke="#B99522" stroke-miterlimit="10"/>
<path d="M91.0403 42.4683L93.8976 40.8087L104.716 77.7962L101.863 79.4559L91.0403 42.4683Z" stroke="#B99522" stroke-miterlimit="10"/>
<path d="M75.3939 33.4403L78.2512 31.7843L93.8976 40.8088L91.0403 42.4684L75.3939 33.4403Z" stroke="#B99522" stroke-miterlimit="10"/>
<path d="M101.873 79.4558L91.0402 42.4683L75.4084 33.4438L78.3166 79.1036C88.0847 82.3175 99.4742 88.2079 111.576 95.2749L101.873 79.4558Z" stroke="#B99522" stroke-miterlimit="10"/>
<path d="M94.3702 53.8387L91.0402 42.4683L75.4084 33.4402L77.2879 63.1319C82.7626 59.6492 88.4228 56.33 94.3702 53.8387Z" stroke="#B99522" stroke-miterlimit="10"/>
<path d="M72.3911 27.0269C72.1659 27 71.9386 27.0555 71.7513 27.1831C71.4214 27.402 71.148 27.6957 70.9534 28.0403C70.7588 28.3849 70.6486 28.7706 70.6316 29.1659C70.623 29.3804 70.6899 29.5911 70.8206 29.7615L74.8195 34.4825C74.5173 34.0831 74.3619 33.592 74.3796 33.0916C74.3542 31.4029 75.5284 29.3293 76.997 28.4577C77.4343 28.1622 77.9632 28.0333 78.4875 28.0946L72.3911 27.0269Z" stroke="#B99522" stroke-miterlimit="10"/>
<path d="M78.9165 28.2435C78.4221 27.9638 77.7423 28.011 76.9934 28.4541C75.5393 29.3257 74.3506 31.3993 74.376 33.088C74.376 33.9196 74.6887 34.5006 75.1649 34.773L91.92 44.3967C91.4438 44.1243 91.1457 43.5433 91.1312 42.7116C91.1706 41.7877 91.4283 40.8863 91.8832 40.0809C92.3381 39.2755 92.9773 38.5891 93.7486 38.0777C94.4757 37.6347 95.1773 37.5875 95.668 37.8707L78.9165 28.2435Z" stroke="#B99522" stroke-miterlimit="10"/>
<path d="M95.9371 38.0597C95.4427 37.5694 94.6429 37.5331 93.7559 38.0597C92.9846 38.571 92.3454 39.2574 91.8905 40.0628C91.4356 40.8682 91.1779 41.7696 91.1385 42.6935C91.1385 43.6922 91.5856 44.3314 92.2291 44.5093L96.2279 45.5734C95.7589 45.4499 95.4499 44.9923 95.439 44.2769C95.4678 43.616 95.6524 42.9713 95.9777 42.3951C96.303 41.819 96.7599 41.3277 97.3112 40.9613C97.951 40.5981 98.5218 40.5981 98.878 40.9613L95.9371 38.0597Z" stroke="#B99522" stroke-miterlimit="10"/>
<path d="M97.3003 40.9612C96.749 41.3277 96.2921 41.8189 95.9668 42.3951C95.6414 42.9712 95.4569 43.616 95.4281 44.2769C95.4463 45.4825 96.3151 45.9583 97.3657 45.3336C97.9176 44.9679 98.375 44.4767 98.7004 43.9004C99.0258 43.3241 99.21 42.6791 99.2379 42.018C99.2197 40.8123 98.3545 40.3366 97.3003 40.9612Z" stroke="#B99522" stroke-miterlimit="10"/>
<path d="M97.3075 41.5204C96.8978 41.7932 96.5582 42.1587 96.3163 42.5871C96.0744 43.0155 95.937 43.4948 95.9152 43.9862C95.9152 44.8869 96.5768 45.2391 97.3693 44.7743C97.7799 44.5015 98.12 44.1356 98.362 43.7064C98.604 43.2772 98.7409 42.797 98.7616 42.3048C98.7398 41.4078 98.0927 41.0556 97.3075 41.5204Z" stroke="#B99522" stroke-miterlimit="10"/>
<path d="M33.6714 62.9468C33.2982 63.0822 32.9011 63.1398 32.5048 63.116C32.1084 63.0923 31.721 62.9877 31.3667 62.8088L25.5865 59.475C25.4354 59.4071 25.305 59.3004 25.2086 59.1658C25.1122 59.0312 25.0532 58.8735 25.0376 58.7087V60.2412C25.0532 60.406 25.1122 60.5637 25.2086 60.6983C25.305 60.8329 25.4354 60.9396 25.5865 61.0075L31.3485 64.3413C31.7029 64.5202 32.0902 64.6248 32.4866 64.6486C32.883 64.6723 33.28 64.6147 33.6533 64.4793L90.4514 42.9078V41.3752L33.6714 62.9468Z" stroke="#B99522" stroke-miterlimit="10"/>
<path d="M90.4697 41.3752L33.6716 62.9468C33.2984 63.0822 32.9013 63.1398 32.505 63.116C32.1086 63.0923 31.7212 62.9877 31.3669 62.8088L25.5867 59.475C24.8306 59.0356 24.8597 58.3201 25.6667 57.9134L74.4089 32.1293L90.4697 41.3752Z" stroke="#B99522" stroke-miterlimit="10"/>
<path d="M276.637 187.117C276.045 185.334 275.327 183.595 274.489 181.913C274.983 186.769 266.048 189.801 257.988 188.207L257.319 193.2C271.464 194.845 276.299 189.888 276.637 187.117Z" stroke="#B99522" stroke-miterlimit="10"/>
<path d="M279.473 85.2264C271.475 82.0488 263.27 89.4681 264.852 94.9554C266.52 96.7711 283.832 107.208 287.674 107.989L295.861 94.8392C295.861 94.8392 296.686 93.234 279.473 85.2264Z" stroke="#B99522" stroke-miterlimit="10"/>
<path d="M285.748 88.415C285.864 88.553 287.823 92.693 286.925 92.5587C281.712 91.7815 275.103 96.2701 274.805 98.6561C278.997 100.875 284.835 103.929 285.755 104.289L295.352 95.4058C295.425 95.3379 295.483 95.2558 295.522 95.1646C295.562 95.0734 295.582 94.975 295.582 94.8756C295.582 94.7762 295.562 94.6778 295.522 94.5866C295.483 94.4954 295.425 94.4133 295.352 94.3454C293.491 92.4606 290.037 90.8337 285.748 88.415Z" stroke="#B99522" stroke-miterlimit="10"/>
<path d="M291.048 94.3307C287.932 96.1247 285.409 100.504 285.409 104.089C285.409 107.673 287.932 109.137 291.048 107.339C294.163 105.541 296.686 101.165 296.686 97.581C296.686 93.9966 294.181 92.5331 291.048 94.3307Z" stroke="#B99522" stroke-miterlimit="10"/>
<path d="M291.048 95.0389C288.274 96.6405 286.024 100.534 286.024 103.733C286.024 106.932 288.274 108.229 291.048 106.638C293.822 105.048 296.072 101.144 296.072 97.9442C296.072 94.7448 293.818 93.4411 291.048 95.0389Z" stroke="#B99522" stroke-miterlimit="10"/>
<path d="M282.908 85.9964L284.094 85.3064L288.111 91.8723L286.925 92.5586L282.908 85.9964Z" stroke="#B99522" stroke-miterlimit="10"/>
<path d="M280.545 77.9126L282.908 85.9965L284.093 85.3065L282.138 78.628C281.611 78.3847 281.094 78.1486 280.545 77.9126Z" stroke="#B99522" stroke-miterlimit="10"/>
<path d="M280.545 77.9124C277.859 76.7286 275.14 75.6427 272.413 74.5569L271.603 85.6332C271.603 85.6332 280.971 90.1545 286.911 92.5586L282.912 85.9963L280.545 77.9124Z" stroke="#B99522" stroke-miterlimit="10"/>
<path d="M253.67 108.596C245.672 105.414 237.467 112.834 239.048 118.325C240.717 120.14 258.028 130.577 261.874 131.358L270.058 118.205C270.058 118.205 270.886 116.6 253.67 108.596Z" stroke="#B99522" stroke-miterlimit="10"/>
<path d="M259.948 111.784C260.06 111.922 262.023 116.062 261.122 115.928C255.909 115.151 249.303 119.639 249.005 122.021C253.197 124.244 259.035 127.298 259.951 127.654L269.552 118.771C269.624 118.703 269.682 118.621 269.721 118.531C269.76 118.44 269.78 118.342 269.78 118.243C269.78 118.144 269.76 118.046 269.721 117.955C269.682 117.864 269.624 117.782 269.552 117.714C267.687 115.83 264.234 114.203 259.948 111.784Z" stroke="#B99522" stroke-miterlimit="10"/>
<path d="M265.244 117.696C262.132 119.512 259.606 123.87 259.606 127.454C259.606 131.039 262.151 132.506 265.244 130.723C268.338 128.94 270.886 124.549 270.886 120.965C270.886 117.38 268.371 115.902 265.244 117.696Z" stroke="#B99522" stroke-miterlimit="10"/>
<path d="M265.244 118.408C262.471 120.01 260.22 123.899 260.22 127.102C260.22 130.305 262.471 131.598 265.244 130.007C268.018 128.417 270.268 124.513 270.268 121.313C270.268 118.114 268.007 116.807 265.244 118.408Z" stroke="#B99522" stroke-miterlimit="10"/>
<path d="M257.105 109.365L258.29 108.675L262.307 115.238L261.122 115.928L257.105 109.365Z" stroke="#B99522" stroke-miterlimit="10"/>
<path d="M254.742 101.282L257.101 109.365L258.287 108.675L256.334 101.997C255.807 101.754 255.284 101.518 254.742 101.282Z" stroke="#B99522" stroke-miterlimit="10"/>
<path d="M254.742 101.282C252.059 100.098 249.34 99.0082 246.61 97.926L245.799 109.002C245.799 109.002 255.171 113.505 261.122 115.928L257.101 109.365L254.742 101.282Z" stroke="#B99522" stroke-miterlimit="10"/>
<path d="M333.21 33.3677L215.15 140.659V142.638L333.203 35.3469C333.312 35.2589 333.401 35.1486 333.464 35.0232C333.526 34.8979 333.561 34.7606 333.566 34.6206V32.6414C333.561 32.7806 333.527 32.9172 333.465 33.0423C333.404 33.1674 333.317 33.2783 333.21 33.3677V33.3677Z" stroke="#B99522" stroke-miterlimit="10"/>
<path d="M215.15 140.659L215.143 142.638L173.453 118.593L173.46 116.614L215.15 140.659Z" stroke="#B99522" stroke-miterlimit="10"/>
<path d="M332.89 31.6499C333.682 32.1038 333.824 32.8301 333.21 33.3676L215.15 140.659L173.46 116.614L317.189 24.6628C317.72 24.3668 318.315 24.2063 318.923 24.1955C319.53 24.1848 320.131 24.324 320.672 24.601L332.89 31.6499Z" stroke="#B99522" stroke-miterlimit="10"/>
<path d="M332.89 31.6499L331.643 30.9236L203.608 134.002L215.15 140.659L333.21 33.3676C333.824 32.8302 333.683 32.1038 332.89 31.6499Z" stroke="#B99522" stroke-miterlimit="10"/>
<path d="M215.212 138.534C211.824 134.678 208.225 131.634 204.582 129.521L193.313 123.028C184.402 117.889 173.053 115.343 164.681 115.884C162.62 115.812 156.083 119.995 152.546 123.554C160.907 123.688 169.767 126.387 178.673 131.525L189.943 138.019C193.578 140.118 197.181 143.175 200.569 147.032C202.625 149.388 204.514 151.886 206.222 154.506C210.897 149.498 216.12 145.471 219.723 145.351C217.931 142.613 217.175 140.768 215.212 138.534Z" stroke="#B99522" stroke-miterlimit="10"/>
<path d="M189.946 138.018L178.677 131.525C169.77 126.387 160.922 123.688 152.55 123.554L206.225 154.506C201.332 147.036 195.697 141.334 189.946 138.018Z" stroke="#B99522" stroke-miterlimit="10"/>
<path d="M143.051 172.38C135.053 169.203 126.848 176.622 128.429 182.109C130.098 183.925 147.406 194.362 151.252 195.143L159.439 181.993C159.439 181.993 160.264 180.388 143.051 172.38Z" stroke="#B99522" stroke-miterlimit="10"/>
<path d="M149.325 175.569C149.442 175.707 151.401 179.847 150.503 179.712C145.29 178.935 138.681 183.424 138.383 185.81C142.574 188.029 148.413 191.083 149.332 191.442L158.948 182.56C159.021 182.492 159.078 182.41 159.118 182.318C159.158 182.227 159.178 182.129 159.178 182.029C159.178 181.93 159.158 181.832 159.118 181.74C159.078 181.649 159.021 181.567 158.948 181.499C157.068 179.614 153.615 177.987 149.325 175.569Z" stroke="#B99522" stroke-miterlimit="10"/>
<path d="M154.625 181.485C151.51 183.279 148.987 187.658 148.987 191.243C148.987 194.827 151.51 196.291 154.625 194.493C157.741 192.695 160.264 188.319 160.264 184.735C160.264 181.151 157.741 179.687 154.625 181.485Z" stroke="#B99522" stroke-miterlimit="10"/>
<path d="M154.625 182.193C151.852 183.794 149.601 187.687 149.601 190.887C149.601 194.086 151.852 195.383 154.625 193.792C157.399 192.201 159.649 188.298 159.649 185.098C159.649 181.899 157.399 180.58 154.625 182.193Z" stroke="#B99522" stroke-miterlimit="10"/>
<path d="M146.486 173.15L147.671 172.46L151.688 179.026L150.503 179.713L146.486 173.15Z" stroke="#B99522" stroke-miterlimit="10"/>
<path d="M144.119 165.066L146.486 173.15L147.671 172.46L145.715 165.782C145.185 165.539 144.654 165.302 144.119 165.066Z" stroke="#B99522" stroke-miterlimit="10"/>
<path d="M144.119 165.067C141.437 163.875 138.717 162.786 135.991 161.696L135.177 172.773C135.177 172.773 144.548 177.279 150.503 179.698L146.504 173.136L144.119 165.067Z" stroke="#B99522" stroke-miterlimit="10"/>
<path d="M102.008 186.961C94.0103 183.78 85.8054 191.199 87.3904 196.69C89.0554 198.506 106.367 208.943 110.213 209.724L118.396 196.559C118.396 196.559 119.225 194.965 102.008 186.961Z" stroke="#B99522" stroke-miterlimit="10"/>
<path d="M108.286 190.15C108.403 190.288 110.362 194.428 109.46 194.293C104.247 193.516 97.642 198.005 97.3439 200.387C101.535 202.61 107.374 205.664 108.29 206.02L117.891 197.137C117.963 197.069 118.02 196.987 118.059 196.896C118.099 196.805 118.119 196.707 118.119 196.608C118.119 196.509 118.099 196.412 118.059 196.321C118.02 196.23 117.963 196.148 117.891 196.08C116.026 194.195 112.576 192.565 108.286 190.15Z" stroke="#B99522" stroke-miterlimit="10"/>
<path d="M113.586 196.062C110.471 197.878 107.944 202.235 107.944 205.82C107.944 209.404 110.471 210.871 113.586 209.088C116.702 207.305 119.225 202.915 119.225 199.33C119.225 195.746 116.698 194.268 113.586 196.062Z" stroke="#B99522" stroke-miterlimit="10"/>
<path d="M113.586 196.774C110.809 198.375 108.562 202.265 108.562 205.468C108.562 208.671 110.809 209.964 113.586 208.373C116.364 206.782 118.596 202.871 118.596 199.672C118.596 196.472 116.36 195.172 113.586 196.774Z" stroke="#B99522" stroke-miterlimit="10"/>
<path d="M105.443 187.731L106.628 187.041L110.646 193.603L109.46 194.293L105.443 187.731Z" stroke="#B99522" stroke-miterlimit="10"/>
<path d="M103.08 179.647L105.443 187.731L106.629 187.041L104.676 180.363C104.146 180.119 103.615 179.883 103.08 179.647Z" stroke="#B99522" stroke-miterlimit="10"/>
<path d="M103.08 179.647C100.398 178.463 97.6784 177.374 94.9482 176.292L94.1376 187.368C94.1376 187.368 103.509 191.871 109.46 194.293L105.443 187.731L103.08 179.647Z" stroke="#B99522" stroke-miterlimit="10"/>
<path d="M16.9054 216.896C16.4224 217.075 15.9077 217.152 15.3935 217.122C14.8793 217.093 14.3767 216.958 13.9172 216.725L1.6989 209.691C1.505 209.606 1.33781 209.469 1.21497 209.297C1.09212 209.124 1.01818 208.922 1.00092 208.711V210.69C1.01902 210.902 1.09366 211.105 1.21707 211.278C1.34048 211.451 1.50814 211.588 1.70254 211.674L13.899 218.712C14.3585 218.944 14.8611 219.079 15.3753 219.109C15.8895 219.138 16.4042 219.061 16.8872 218.883L201.652 150.33V148.347L16.9054 216.896Z" stroke="#B99522" stroke-miterlimit="10"/>
<path d="M159.966 124.291C173.627 126.503 192.625 136.21 201.655 148.336L16.9054 216.896C16.4224 217.075 15.9076 217.152 15.3934 217.122C14.8792 217.093 14.3767 216.958 13.9172 216.726L1.69889 209.691C0.720987 209.128 0.779152 208.195 1.81158 207.668L159.966 124.291Z" stroke="#B99522" stroke-miterlimit="10"/>
<path d="M12.3794 215.85L13.9172 216.74C14.3767 216.972 14.8792 217.108 15.3934 217.137C15.9076 217.166 16.4224 217.089 16.9054 216.911L201.655 148.347C199.274 145.235 196.523 142.424 193.462 139.976L12.3794 215.85Z" stroke="#B99522" stroke-miterlimit="10"/>
<path d="M232.356 86.1597L225.758 83.1673L226.099 82.9494L232.407 85.7966L261.827 65.576L256.756 63.3208L257.119 63.0993L262.263 65.3872C262.291 65.3998 262.315 65.4195 262.333 65.4443C262.351 65.4692 262.362 65.4983 262.365 65.5288C262.367 65.5592 262.361 65.5895 262.347 65.6168C262.334 65.6441 262.314 65.6676 262.289 65.6849L232.53 86.1343C232.399 86.1597 232.381 86.1597 232.356 86.1597ZM267.131 62.3294C267.229 62.2967 298.965 40.4855 298.965 40.4855C298.991 40.4699 299.012 40.4472 299.026 40.4203C299.039 40.3933 299.045 40.363 299.042 40.333C299.039 40.302 299.028 40.2723 299.01 40.2468C298.992 40.2213 298.968 40.2009 298.94 40.1877L295.399 38.6152L295.036 38.8368L298.507 40.3765L267.098 61.959L262.26 59.8054L261.896 60.0306L267.033 62.3148C267.065 62.3229 267.098 62.3242 267.131 62.3185V62.3294ZM30.3742 196.952C30.4506 196.933 70.2536 177.123 70.2536 177.123C70.2828 177.109 70.3073 177.087 70.3241 177.059C70.3408 177.031 70.3492 176.999 70.3481 176.967C70.3481 176.934 70.3385 176.902 70.3204 176.874C70.3023 176.846 70.2766 176.824 70.2463 176.811L64.8806 174.425L64.4916 174.628L69.7737 176.978L30.3706 196.588L26.3172 194.744L25.9319 194.947L30.2942 196.93C30.3185 196.944 30.3461 196.952 30.3742 196.952V196.952ZM76.1137 174.182C76.19 174.164 108.606 158.028 108.606 158.028C108.636 158.015 108.66 157.993 108.677 157.965C108.694 157.937 108.702 157.905 108.701 157.872C108.7 157.839 108.69 157.807 108.672 157.779C108.654 157.752 108.629 157.73 108.599 157.716L102.081 154.811L101.688 155.014L108.126 157.88L76.1101 173.811L70.6571 171.382L70.2717 171.585L76.0592 174.16C76.076 174.17 76.0944 174.178 76.1137 174.182V174.182Z" stroke="#B99522" stroke-miterlimit="10"/>
<path d="M263.819 121.502C263.345 121.811 262.951 122.227 262.668 122.717C262.385 123.206 262.221 123.756 262.191 124.32C262.191 125.359 262.918 125.773 263.819 125.261C264.297 124.953 264.694 124.537 264.98 124.047C265.265 123.557 265.431 123.006 265.462 122.439C265.462 121.404 264.735 120.983 263.819 121.502Z" stroke="#B99522" stroke-miterlimit="10"/>
<path d="M289.775 97.9261C289.301 98.2352 288.906 98.6518 288.623 99.1422C288.34 99.6325 288.177 100.183 288.147 100.748C288.147 101.783 288.874 102.2 289.775 101.685C290.25 101.376 290.645 100.96 290.928 100.471C291.211 99.9808 291.374 99.4313 291.404 98.8667C291.404 97.828 290.677 97.4177 289.775 97.9261Z" stroke="#B99522" stroke-miterlimit="10"/>
<path d="M112.5 199.465C112.026 199.774 111.631 200.19 111.348 200.679C111.065 201.169 110.902 201.718 110.871 202.283C110.871 203.321 111.598 203.735 112.5 203.223C112.974 202.915 113.37 202.499 113.653 202.01C113.937 201.52 114.101 200.97 114.132 200.405C114.132 199.363 113.401 198.942 112.5 199.465Z" stroke="#B99522" stroke-miterlimit="10"/>
<path d="M153.593 184.604C153.119 184.913 152.725 185.329 152.442 185.819C152.159 186.309 151.995 186.858 151.964 187.422C151.964 188.461 152.692 188.875 153.593 188.363C154.068 188.055 154.463 187.639 154.747 187.149C155.03 186.659 155.194 186.11 155.225 185.545C155.225 184.506 154.495 184.085 153.593 184.604Z" stroke="#B99522" stroke-miterlimit="10"/>
</svg>
