<svg width="280" height="230" viewBox="0 0 280 230" fill="none" xmlns="http://www.w3.org/2000/svg">
<g filter="url(#filter0_d_1894_721)">
<path d="M270.127 206.114C266.36 208.457 262.374 211.04 258.247 213.388C249.758 218.219 240.668 222.067 231.69 220.732C217.348 218.633 196.389 211.966 173.482 198.456C149.634 184.404 22.9918 110.837 16.7223 105.915C13.2461 103.166 8.27821 95.7849 6.09543 88.3787C5.40644 86.1512 5.03745 83.8332 5 81.4973C17.1953 83.6299 270.127 206.114 270.127 206.114Z" stroke="white" stroke-miterlimit="10"/>
<path d="M270.123 206.114C270.123 206.114 17.1953 83.6299 5 81.4973C5.03745 83.8332 5.40644 86.1512 6.09543 88.3787C6.09543 88.3787 134.859 165.173 170.208 186.292C220.659 216.442 249.754 218.219 258.247 213.388C262.374 211.04 266.36 208.457 270.123 206.114Z" stroke="white" stroke-miterlimit="10"/>
<path d="M248.073 177.237C252.218 175.832 256.365 174.432 260.515 173.038C253.348 166.256 242.891 158.436 227.878 149.575L58.8097 49.7605L5.4043 81.4974L174.461 181.3C182.881 186.259 190.718 190.368 198.023 193.777C215.036 189.483 231.46 182.858 248.073 177.237Z" stroke="white" stroke-miterlimit="10"/>
<path d="M58.8135 47.1897L58.8054 49.996L5.79211 81.4973L5.8002 78.691L58.8135 47.1897Z" stroke="white" stroke-miterlimit="10"/>
<path d="M272.751 186.697C267.876 175.171 252.277 161.395 227.68 146.872L58.8137 47.1897V49.996L227.672 149.679C252.273 164.198 267.868 177.977 272.742 189.5C273.808 191.845 274.383 194.391 274.432 196.976V194.17C274.386 191.586 273.814 189.041 272.751 186.697V186.697Z" stroke="white" stroke-miterlimit="10"/>
<path d="M273.91 190.231C274.032 189.938 274.149 189.64 274.274 189.351C274.009 188.42 273.686 187.508 273.308 186.619C268.332 174.865 253.097 161.408 228.08 146.637L58.8136 46.7144L44.7913 55.0464C44.8564 55.1687 44.9053 55.2994 44.9368 55.4349L58.8136 47.1896L227.68 146.872C252.277 161.395 267.875 175.171 272.75 186.697C273.236 187.839 273.624 189.021 273.91 190.231V190.231Z" stroke="white" stroke-miterlimit="10"/>
<path d="M106.823 61.8989L94.5547 70.3591L118.537 84.3078L106.823 61.8989Z" stroke="white" stroke-miterlimit="10"/>
<path d="M53.8054 93.8548L55.394 108.684L106.823 78.3274V62.3535L53.8054 93.8548Z" stroke="white" stroke-miterlimit="10"/>
<path d="M117.045 81.5467L117.429 81.3194L107.203 62.126L106.823 62.3533L117.045 81.5467Z" stroke="white" stroke-miterlimit="10"/>
<path d="M172.436 117.925L172.431 119.19L161.558 112.771L161.562 111.507L172.436 117.925Z" stroke="white" stroke-miterlimit="10"/>
<path d="M173.385 117.343L173.381 118.607L172.432 119.19L172.436 117.925L173.385 117.343Z" stroke="white" stroke-miterlimit="10"/>
<path d="M162.537 110.932L161.562 111.507L172.436 117.925L173.406 117.347L162.537 110.932Z" stroke="white" stroke-miterlimit="10"/>
<path d="M169.222 116.045L166.481 114.867L164.339 113.164V73.3264L169.222 76.2112V116.045Z" stroke="white" stroke-miterlimit="10"/>
<path d="M170.212 115.462L169.222 116.045V76.2114L170.212 75.6287V115.462Z" stroke="white" stroke-miterlimit="10"/>
<path d="M169.222 76.2114L164.339 73.3266L165.325 72.7439L170.212 75.6287L169.222 76.2114Z" stroke="white" stroke-miterlimit="10"/>
<path d="M121.003 148.29L120.995 149.55L110.125 143.136L110.129 141.871L121.003 148.29Z" stroke="white" stroke-miterlimit="10"/>
<path d="M122.009 147.674L122.005 148.935L120.995 149.551L121.003 148.29L122.009 147.674Z" stroke="white" stroke-miterlimit="10"/>
<path d="M111.156 141.26L110.13 141.871L121.003 148.29L122.03 147.678L111.156 141.26Z" stroke="white" stroke-miterlimit="10"/>
<path d="M117.797 146.401L112.914 143.52V104.158L117.797 107.039V146.401Z" stroke="white" stroke-miterlimit="10"/>
<path d="M118.787 145.818L117.797 146.401V107.039L118.787 106.456V145.818Z" stroke="white" stroke-miterlimit="10"/>
<path d="M117.797 107.039L112.914 104.158L113.905 103.572L118.788 106.456L117.797 107.039Z" stroke="white" stroke-miterlimit="10"/>
<path d="M170.216 75.8226L170.212 77.4138L162.027 72.5824L162.031 70.9912L170.216 75.8226Z" stroke="white" stroke-miterlimit="10"/>
<path d="M162.031 70.9912L162.027 72.5824L143.983 83.3033L143.987 81.7121L162.031 70.9912Z" stroke="white" stroke-miterlimit="10"/>
<path d="M137.903 94.9747L137.899 96.5659L129.714 91.7303L129.718 90.1392L137.903 94.9747Z" stroke="white" stroke-miterlimit="10"/>
<path d="M129.718 90.1392L129.714 91.7303L111.56 102.521L111.564 100.926L129.718 90.1392Z" stroke="white" stroke-miterlimit="10"/>
<path d="M119.742 107.357L119.733 108.948L108.864 102.53L108.868 100.938L119.742 107.357Z" stroke="white" stroke-miterlimit="10"/>
<path d="M172.892 75.8225L172.888 77.4137L119.734 108.948L119.742 107.357L172.892 75.8225Z" stroke="white" stroke-miterlimit="10"/>
<path d="M162.023 69.4043L172.893 75.8228L119.738 107.357L108.885 100.939L162.023 69.4043ZM119.75 105.774L137.904 94.9914L129.718 90.16L111.565 100.947L119.75 105.783V105.774ZM152.173 86.556L170.217 75.8352L162.032 71.0038L143.987 81.7246L152.173 86.556Z" stroke="white" stroke-miterlimit="10"/>
<path d="M242.038 204.928C222.575 202.072 199.263 192.88 174.667 178.357L5.80844 78.6911L41.3029 57.613H40.4944L5 78.6911L174.267 178.613C199.292 193.385 222.065 202.357 241.913 205.275C257.633 207.573 266.897 205.304 270.079 203.535L269.792 203.242C266.792 204.969 257.677 207.242 242.038 204.928Z" stroke="white" stroke-miterlimit="10"/>
<path d="M274.614 180.63C274.621 180.583 274.63 180.536 274.642 180.49C274.342 179.006 273.891 177.559 273.296 176.171C270.414 169.368 264.084 161.995 254.427 154.13L204.458 183.635C217.837 189.372 230.372 193.141 241.913 194.827C257.932 197.17 267.285 194.765 270.289 192.984C272.48 191.569 274.034 189.325 274.614 186.743V180.63Z" stroke="white" stroke-miterlimit="10"/>
<path d="M254.973 190.64H252.382C252.091 190.64 252.143 190.401 252.499 190.103C252.831 189.815 253.236 189.629 253.667 189.566H255.24C255.547 189.566 255.264 190.64 254.973 190.64Z" stroke="white" stroke-miterlimit="10"/>
<path d="M267.884 183.023H265.317C265.026 183.023 265.078 182.784 265.434 182.486C265.767 182.199 266.171 182.012 266.602 181.949H268.175C268.458 181.932 268.175 183.023 267.884 183.023Z" stroke="white" stroke-miterlimit="10"/>
<path d="M253.999 154.402C263.651 162.255 269.986 169.641 272.864 176.443C273.686 178.315 274.223 180.304 274.456 182.341V180.957C274.407 178.373 273.831 175.828 272.767 173.484C269.965 166.872 263.599 159.482 254.031 151.654L251.202 156.068L253.999 154.402Z" stroke="white" stroke-miterlimit="10"/>
<path d="M255.685 189.189V190.276C255.69 190.309 255.69 190.343 255.685 190.376C255.589 190.495 255.463 190.584 255.32 190.634C255.177 190.684 255.023 190.692 254.876 190.657C254.772 190.639 254.671 190.604 254.577 190.553C254.524 190.528 254.478 190.488 254.444 190.439C254.41 190.39 254.389 190.332 254.383 190.272V189.185C254.389 189.245 254.41 189.303 254.444 189.352C254.478 189.401 254.524 189.441 254.577 189.466C254.67 189.518 254.772 189.551 254.876 189.566C255.023 189.601 255.176 189.594 255.319 189.545C255.462 189.496 255.589 189.407 255.685 189.289C255.69 189.256 255.69 189.222 255.685 189.189Z" stroke="white" stroke-miterlimit="10"/>
<path d="M255.486 188.908C255.648 189.004 255.725 189.148 255.664 189.289C255.568 189.407 255.441 189.496 255.298 189.545C255.156 189.594 255.002 189.601 254.856 189.566C254.751 189.551 254.65 189.518 254.557 189.466C254.395 189.367 254.322 189.227 254.387 189.082C254.483 188.963 254.61 188.875 254.752 188.826C254.895 188.777 255.049 188.77 255.195 188.805C255.297 188.823 255.395 188.858 255.486 188.908V188.908Z" stroke="white" stroke-miterlimit="10"/>
<path d="M256.02 188.809V189.223C256.021 189.275 256.009 189.328 255.987 189.376C255.842 189.694 255.296 189.884 254.775 189.789C254.615 189.769 254.461 189.717 254.322 189.636C254.241 189.6 254.171 189.543 254.119 189.47C254.066 189.398 254.033 189.312 254.023 189.223V188.809C254.033 188.898 254.066 188.983 254.118 189.055C254.169 189.128 254.238 189.185 254.318 189.223C254.457 189.304 254.611 189.356 254.771 189.376C255.308 189.462 255.854 189.276 255.983 188.962C256.006 188.915 256.019 188.862 256.02 188.809V188.809Z" stroke="white" stroke-miterlimit="10"/>
<path d="M255.725 188.396C255.972 188.541 256.085 188.76 255.988 188.975C255.842 189.293 255.297 189.479 254.775 189.388C254.616 189.368 254.462 189.316 254.323 189.235C254.076 189.091 253.963 188.872 254.06 188.661C254.201 188.343 254.751 188.157 255.273 188.247C255.431 188.269 255.584 188.32 255.725 188.396V188.396Z" stroke="white" stroke-miterlimit="10"/>
<path d="M255.684 188.012V188.731C255.69 188.764 255.69 188.797 255.684 188.83C255.588 188.949 255.462 189.039 255.319 189.089C255.176 189.138 255.023 189.146 254.876 189.111C254.771 189.096 254.669 189.061 254.577 189.008C254.524 188.983 254.478 188.944 254.444 188.895C254.41 188.847 254.389 188.79 254.383 188.731V188.008C254.388 188.067 254.408 188.124 254.443 188.173C254.477 188.222 254.523 188.26 254.577 188.284C254.756 188.383 254.962 188.42 255.163 188.388C255.364 188.357 255.55 188.26 255.692 188.111C255.698 188.078 255.698 188.045 255.692 188.012H255.684Z" stroke="white" stroke-miterlimit="10"/>
<path d="M255.486 187.731C255.648 187.826 255.725 187.97 255.664 188.111C255.522 188.26 255.336 188.357 255.135 188.389C254.933 188.42 254.728 188.383 254.548 188.285C254.387 188.189 254.314 188.049 254.379 187.904C254.472 187.782 254.599 187.691 254.742 187.642C254.886 187.593 255.041 187.588 255.187 187.627C255.292 187.643 255.393 187.678 255.486 187.731V187.731Z" stroke="white" stroke-miterlimit="10"/>
<path d="M256.02 187.789V188.202C256.021 188.253 256.01 188.304 255.987 188.351C255.842 188.669 255.296 188.859 254.775 188.764C254.616 188.741 254.463 188.689 254.322 188.611C254.242 188.574 254.172 188.516 254.12 188.444C254.068 188.372 254.034 188.287 254.023 188.198V187.784C254.033 187.873 254.066 187.958 254.118 188.03C254.169 188.103 254.238 188.16 254.318 188.198C254.459 188.276 254.612 188.327 254.771 188.351C255.308 188.437 255.854 188.247 255.983 187.937C256.007 187.891 256.019 187.84 256.02 187.789Z" stroke="white" stroke-miterlimit="10"/>
<path d="M255.725 187.363C255.972 187.507 256.085 187.722 255.988 187.937C255.842 188.256 255.297 188.446 254.775 188.351C254.617 188.327 254.463 188.276 254.323 188.198C254.076 188.053 253.963 187.834 254.06 187.623C254.201 187.301 254.751 187.115 255.273 187.21C255.432 187.231 255.585 187.283 255.725 187.363V187.363Z" stroke="white" stroke-miterlimit="10"/>
<path d="M268.619 181.552V182.643C268.619 182.677 268.611 182.711 268.595 182.742C268.499 182.861 268.372 182.949 268.229 182.998C268.087 183.047 267.933 183.054 267.787 183.019C267.682 183.005 267.58 182.971 267.487 182.92C267.434 182.894 267.388 182.855 267.354 182.806C267.32 182.756 267.299 182.699 267.293 182.639V181.552C267.299 181.611 267.32 181.668 267.354 181.717C267.389 181.765 267.434 181.804 267.487 181.829C267.58 181.881 267.682 181.917 267.787 181.932C267.934 181.967 268.087 181.959 268.23 181.91C268.373 181.86 268.499 181.77 268.595 181.651C268.611 181.62 268.619 181.586 268.619 181.552V181.552Z" stroke="white" stroke-miterlimit="10"/>
<path d="M268.421 181.275C268.583 181.37 268.66 181.51 268.595 181.651C268.499 181.77 268.373 181.86 268.23 181.91C268.087 181.959 267.934 181.967 267.787 181.932C267.682 181.917 267.58 181.882 267.488 181.829C267.326 181.734 267.253 181.589 267.314 181.449C267.41 181.33 267.536 181.241 267.679 181.192C267.822 181.143 267.976 181.136 268.122 181.172C268.227 181.187 268.329 181.222 268.421 181.275V181.275Z" stroke="white" stroke-miterlimit="10"/>
<path d="M268.955 181.167V181.581C268.956 181.632 268.945 181.683 268.922 181.73C268.777 182.048 268.227 182.238 267.71 182.143C267.551 182.12 267.398 182.068 267.257 181.99C267.176 181.953 267.107 181.896 267.054 181.824C267.002 181.751 266.969 181.666 266.958 181.577V181.163C266.968 181.252 267 181.337 267.052 181.41C267.104 181.482 267.173 181.54 267.253 181.577C267.394 181.655 267.547 181.706 267.706 181.73C268.243 181.816 268.789 181.626 268.918 181.316C268.939 181.269 268.952 181.219 268.955 181.167V181.167Z" stroke="white" stroke-miterlimit="10"/>
<path d="M268.66 180.742C268.907 180.886 269.02 181.101 268.923 181.316C268.777 181.634 268.232 181.825 267.71 181.73C267.552 181.706 267.398 181.655 267.258 181.577C267.011 181.432 266.898 181.213 266.995 181.002C267.136 180.68 267.686 180.494 268.207 180.589C268.366 180.61 268.52 180.662 268.66 180.742V180.742Z" stroke="white" stroke-miterlimit="10"/>
<path d="M268.619 180.374V181.097C268.619 181.132 268.611 181.166 268.595 181.196C268.499 181.315 268.372 181.404 268.229 181.453C268.087 181.502 267.933 181.509 267.787 181.473C267.682 181.459 267.58 181.426 267.487 181.374C267.434 181.349 267.388 181.309 267.354 181.26C267.32 181.211 267.299 181.153 267.293 181.093V180.37C267.299 180.43 267.32 180.487 267.354 180.537C267.388 180.586 267.434 180.625 267.487 180.651C267.581 180.702 267.682 180.737 267.787 180.754C267.934 180.789 268.087 180.781 268.23 180.732C268.373 180.682 268.499 180.593 268.595 180.473C268.611 180.443 268.619 180.409 268.619 180.374V180.374Z" stroke="white" stroke-miterlimit="10"/>
<path d="M268.421 180.097C268.583 180.192 268.66 180.333 268.595 180.473C268.499 180.593 268.373 180.682 268.23 180.732C268.087 180.781 267.934 180.789 267.787 180.754C267.682 180.737 267.581 180.702 267.488 180.651C267.326 180.556 267.253 180.411 267.314 180.271C267.455 180.122 267.641 180.025 267.841 179.994C268.042 179.962 268.247 179.999 268.425 180.097H268.421Z" stroke="white" stroke-miterlimit="10"/>
<path d="M268.955 180.151V180.564C268.956 180.617 268.945 180.669 268.922 180.717C268.777 181.035 268.227 181.225 267.71 181.13C267.551 181.107 267.398 181.055 267.257 180.977C267.176 180.941 267.107 180.884 267.054 180.811C267.002 180.739 266.969 180.654 266.958 180.564V180.151C266.967 180.24 266.998 180.326 267.05 180.399C267.102 180.471 267.172 180.528 267.253 180.564C267.392 180.645 267.546 180.697 267.706 180.717C268.243 180.804 268.789 180.618 268.918 180.304C268.94 180.256 268.952 180.204 268.955 180.151V180.151Z" stroke="white" stroke-miterlimit="10"/>
<path d="M268.66 179.717C268.907 179.862 269.02 180.081 268.923 180.296C268.777 180.614 268.232 180.8 267.71 180.709C267.551 180.689 267.397 180.637 267.258 180.556C267.011 180.411 266.898 180.196 266.995 179.982C267.136 179.663 267.686 179.477 268.207 179.568C268.366 179.59 268.519 179.641 268.66 179.717V179.717Z" stroke="white" stroke-miterlimit="10"/>
<path d="M273.308 173.398C270.43 166.595 264.096 159.222 254.443 151.361L253.999 151.613C263.575 159.466 269.949 166.826 272.754 173.46C276.732 182.788 272.823 188.218 269.888 189.958C266.954 191.698 257.818 194.025 242.042 191.711C230.768 190.058 218.193 186.259 204.854 180.552L204.401 180.82C217.809 186.574 230.364 190.326 241.925 192.041C257.944 194.381 267.297 191.979 270.301 190.194C273.304 188.409 277.33 182.866 273.308 173.398Z" stroke="white" stroke-miterlimit="10"/>
<path d="M53.3931 94.0988L107.203 62.1263L58.8136 33.5593L5 65.5318L53.3931 94.0988Z" stroke="white" stroke-miterlimit="10"/>
<path d="M5.88525 65.5316L58.8096 34.084L106.317 62.126L53.389 93.5736L5.88525 65.5316Z" stroke="white" stroke-miterlimit="10"/>
<path d="M58.8096 37.3118L103.593 63.7462L106.317 62.126L58.8096 34.084L5.88525 65.5316L8.60969 67.1393L58.8096 37.3118Z" stroke="white" stroke-miterlimit="10"/>
<path d="M58.8096 37.3118V34.084L5.88525 65.5316L8.60969 67.1393L58.8096 37.3118Z" stroke="white" stroke-miterlimit="10"/>
<path d="M5 79.063V65.5359L53.3931 94.0987L63.6562 113.317L174.267 178.617C182.081 183.227 189.665 187.269 197.016 190.744L204.421 180.845C217.817 186.594 230.36 190.351 241.913 192.058C257.932 194.397 267.285 191.996 270.289 190.21C272.391 188.971 274.986 185.887 274.998 180.928V194.265C274.998 194.224 274.998 194.19 274.998 194.149V196.955C274.998 201.915 272.391 204.99 270.289 206.242C267.285 208.023 257.932 210.429 241.913 208.085C222.061 205.168 199.296 196.195 174.267 181.42L5 81.4973V79.0672V79.063Z" stroke="white" stroke-miterlimit="10"/>
<path d="M53.8054 93.855L53.3931 94.0988L63.5996 113.272L64.0119 113.024L53.8054 93.855Z" stroke="white" stroke-miterlimit="10"/>
<path d="M226.88 172.687L231.148 175.204H234.6L234.629 167.268L227.126 171.699H224.677L223.003 172.687H226.88Z" stroke="white" stroke-miterlimit="10"/>
<path d="M234.629 175.204L229.058 171.901L229.758 167.235L233.707 169.583L234.629 175.204Z" stroke="white" stroke-miterlimit="10"/>
<path d="M233.707 169.583L229.758 167.235L233.048 165.289L237.001 167.636L233.707 169.583Z" stroke="white" stroke-miterlimit="10"/>
<path d="M237.001 167.636L239.406 172.385L234.629 175.204L233.707 169.583L237.001 167.636Z" stroke="white" stroke-miterlimit="10"/>
<path d="M238.982 130.452C238.949 130.42 238.905 130.401 238.859 130.401C238.813 130.401 238.768 130.42 238.735 130.452L233.48 135.627C233.449 135.66 233.431 135.706 233.431 135.753C233.431 135.8 233.449 135.845 233.48 135.879C233.515 135.911 233.559 135.931 233.606 135.932C233.628 135.933 233.65 135.929 233.671 135.92C233.692 135.912 233.711 135.899 233.727 135.883L238.982 130.708C238.999 130.692 239.012 130.672 239.021 130.65C239.031 130.628 239.035 130.604 239.035 130.58C239.035 130.556 239.031 130.533 239.021 130.511C239.012 130.489 238.999 130.469 238.982 130.452V130.452Z" stroke="white" stroke-miterlimit="10"/>
<path d="M234.039 133.258C233.97 133.391 233.86 133.497 233.726 133.557C233.591 133.618 233.441 133.631 233.299 133.593C233.203 133.58 233.109 133.549 233.024 133.502C232.976 133.479 232.935 133.444 232.904 133.4C232.874 133.355 232.855 133.304 232.85 133.25V166.615C232.855 166.669 232.874 166.721 232.904 166.765C232.935 166.809 232.976 166.845 233.024 166.867C233.108 166.914 233.2 166.945 233.295 166.958C233.426 166.992 233.564 166.987 233.692 166.943C233.82 166.899 233.933 166.818 234.018 166.71C234.055 166.624 234.039 133.258 234.039 133.258Z" stroke="white" stroke-miterlimit="10"/>
<path d="M233.865 133.015C233.782 132.969 233.691 132.938 233.598 132.924C233.466 132.889 233.327 132.893 233.198 132.937C233.069 132.981 232.955 133.063 232.87 133.172C232.814 133.296 232.87 133.424 233.024 133.511C233.109 133.557 233.202 133.588 233.299 133.601C233.429 133.635 233.566 133.629 233.694 133.585C233.822 133.541 233.934 133.461 234.018 133.353C234.075 133.221 234.006 133.093 233.865 133.015Z" stroke="white" stroke-miterlimit="10"/>
<path d="M232.979 135.775L227.898 136.854C227.856 136.863 227.82 136.888 227.795 136.924C227.77 136.959 227.758 137.003 227.763 137.046C227.767 137.09 227.787 137.13 227.819 137.159C227.851 137.189 227.892 137.205 227.935 137.205C227.971 137.205 233.048 136.127 233.048 136.127C233.093 136.117 233.133 136.089 233.159 136.05C233.184 136.01 233.194 135.962 233.185 135.916C233.174 135.871 233.147 135.831 233.109 135.805C233.071 135.779 233.025 135.769 232.979 135.775Z" stroke="white" stroke-miterlimit="10"/>
<path d="M227.332 137.354V137.652L240.344 129.907V129.613L227.332 137.354Z" stroke="white" stroke-miterlimit="10"/>
<path d="M227.332 137.354V137.652L226.047 136.891V136.598L227.332 137.354Z" stroke="white" stroke-miterlimit="10"/>
<path d="M239.059 128.853L226.047 136.598L227.332 137.354L240.344 129.613L239.059 128.853Z" stroke="white" stroke-miterlimit="10"/>
<path d="M233.857 123.786C233.81 123.878 233.734 123.951 233.642 123.993C233.549 124.035 233.445 124.044 233.347 124.017C233.28 124.01 233.216 123.989 233.157 123.955C233.124 123.94 233.096 123.915 233.075 123.885C233.055 123.854 233.043 123.819 233.04 123.781V132.874C233.044 132.911 233.057 132.946 233.079 132.975C233.1 133.005 233.128 133.028 233.161 133.043C233.271 133.103 233.397 133.124 233.52 133.105C233.643 133.085 233.757 133.026 233.844 132.936C233.865 132.878 233.857 123.786 233.857 123.786Z" stroke="white" stroke-miterlimit="10"/>
<path d="M233.735 123.616C233.625 123.556 233.499 123.535 233.376 123.554C233.253 123.573 233.14 123.633 233.052 123.724C233.012 123.806 233.052 123.897 233.157 123.955C233.216 123.989 233.28 124.01 233.347 124.017C233.437 124.041 233.531 124.038 233.619 124.008C233.706 123.978 233.783 123.922 233.84 123.848C233.881 123.761 233.832 123.674 233.735 123.616Z" stroke="white" stroke-miterlimit="10"/>
<path d="M234.265 123.364C234.265 123.527 234.217 123.687 234.129 123.823C234.04 123.959 233.913 124.065 233.766 124.128C233.618 124.19 233.455 124.207 233.299 124.175C233.142 124.143 232.998 124.064 232.885 123.948C232.772 123.833 232.695 123.686 232.663 123.525C232.632 123.365 232.648 123.199 232.709 123.048C232.771 122.897 232.874 122.767 233.007 122.677C233.14 122.586 233.296 122.537 233.456 122.537C233.671 122.537 233.876 122.624 234.028 122.779C234.18 122.934 234.265 123.145 234.265 123.364Z" stroke="white" stroke-miterlimit="10"/>
<path d="M27.3331 78.7199H28.1698L31.7512 80.8319H40.1145L41.505 79.8565H51.4932L44.3547 54.7075L31.2136 49.9587L5 65.5317L27.3331 78.7199Z" stroke="white" stroke-miterlimit="10"/>
<path d="M40.1145 63.9819L21.4679 52.9758V69.8259L40.1145 80.8319V63.9819Z" stroke="white" stroke-miterlimit="10"/>
<path d="M80.5565 56.956L40.1144 80.832V63.982L80.5565 40.106V56.956Z" stroke="white" stroke-miterlimit="10"/>
<path d="M40.1145 63.9819L21.4679 52.9759L61.91 29.0999L80.5566 40.1059L40.1145 63.9819Z" stroke="white" stroke-miterlimit="10"/>
<path d="M51.4932 69.2391L46.7153 66.4163V77.0338L51.4932 79.8566V69.2391Z" stroke="white" stroke-miterlimit="10"/>
<path d="M79.6229 63.2504L51.4933 79.8565V69.239L79.6229 52.6328V63.2504Z" stroke="white" stroke-miterlimit="10"/>
<path d="M51.4932 69.2391L46.7153 66.4162L74.8449 49.8101L79.6228 52.6329L51.4932 69.2391Z" stroke="white" stroke-miterlimit="10"/>
<path d="M62.9487 48.5413C62.9892 48.5413 63.07 48.5413 63.07 48.5702V50.2482C63.07 50.306 62.9285 50.306 62.9285 50.2482V48.5702C62.9324 48.5588 62.9394 48.5487 62.9487 48.5413V48.5413ZM48.6758 56.9684V58.6463C48.6758 58.7042 48.8213 58.7001 48.8213 58.6463V56.9684C48.8213 56.9312 48.7404 56.9146 48.7 56.9394C48.6596 56.9642 48.6758 56.989 48.6758 56.9684ZM51.5053 55.3152V56.9932C51.5053 57.051 51.6468 57.0469 51.6468 56.9932V55.3152C51.6468 55.278 51.5659 55.2615 51.5255 55.2862C51.5095 55.2916 51.4955 55.3017 51.4851 55.3152H51.5053ZM54.3106 53.662V55.3358C54.3106 55.3937 54.4521 55.3937 54.4521 55.3358V53.662C54.4521 53.6248 54.3712 53.6083 54.3308 53.6331C54.3224 53.6347 54.3145 53.6382 54.3076 53.6431C54.3006 53.6481 54.2947 53.6546 54.2904 53.662H54.3106ZM57.1159 52.0088V53.6868C57.1159 53.7405 57.2573 53.7405 57.2573 53.6868V52.0088C57.2573 51.9716 57.1805 51.9592 57.1361 51.9799C57.1198 51.9847 57.1056 51.9949 57.0956 52.0088H57.1159ZM59.9171 50.3556V52.0336C59.9171 52.0915 60.0626 52.0873 60.0626 52.0336V50.3556C60.0626 50.3184 59.9818 50.3019 59.9413 50.3267C59.9235 50.3303 59.9076 50.3407 59.8969 50.3556H59.9171ZM40.0376 62.085V63.7629C40.0376 63.8167 40.1791 63.8167 40.1791 63.7629V62.085C40.1791 62.0478 40.1023 62.0312 40.0619 62.056C40.0214 62.0808 40.0376 62.0891 40.0376 62.085ZM42.8469 60.4318V62.1098C42.8469 62.1676 42.9884 62.1635 42.9884 62.1098V60.4318C42.9884 60.3946 42.9076 60.378 42.8671 60.4028C42.8267 60.4276 42.8469 60.4318 42.8469 60.4276V60.4318ZM45.6482 58.7786V60.4566C45.6482 60.5103 45.7897 60.5103 45.7897 60.4566V58.7786C45.7897 58.7414 45.7088 58.7249 45.6684 58.7497C45.628 58.7745 45.6482 58.7786 45.6482 58.7745V58.7786ZM71.5707 43.4867V45.1647C71.5707 45.2225 71.7122 45.2184 71.7122 45.1647V43.4867C71.7122 43.4495 71.6314 43.433 71.5909 43.4578C71.5505 43.4825 71.5707 43.4743 71.5707 43.4702V43.4867ZM74.376 41.8335V43.5115C74.376 43.5693 74.5175 43.5652 74.5175 43.5115V41.8128C74.5175 41.7756 74.4407 41.7591 74.4003 41.7839C74.3898 41.7912 74.3815 41.8012 74.376 41.8128V41.8335ZM77.2055 40.1803V41.8335C77.2055 41.8914 77.351 41.8914 77.351 41.8335V40.1555C77.351 40.1183 77.2702 40.1059 77.2298 40.1266C77.2197 40.1254 77.2095 40.1281 77.2012 40.1342C77.193 40.1403 77.1873 40.1494 77.1853 40.1597L77.2055 40.1803ZM80.0108 38.5271V40.2051C80.0108 40.2589 80.1523 40.2589 80.1523 40.2051V38.5023C80.1523 38.461 80.0714 38.4486 80.031 38.4734C79.9906 38.4982 79.9906 38.5065 79.9906 38.5023L80.0108 38.5271ZM65.7581 46.9377V48.6157C65.7581 48.6735 65.8995 48.6694 65.8995 48.6157V46.9377C65.8995 46.9005 65.8187 46.884 65.7783 46.9088C65.7378 46.9336 65.7378 46.917 65.7378 46.9129L65.7581 46.9377ZM68.5593 45.2845V46.9625C68.5593 47.0162 68.7048 47.0162 68.7008 46.9625V45.2845C68.7008 45.2473 68.6199 45.2308 68.5795 45.2556C68.5391 45.2804 68.5391 45.2639 68.5391 45.2597L68.5593 45.2845Z" stroke="white" stroke-miterlimit="10"/>
<path d="M44.6659 37.75C44.7063 37.7253 44.7872 37.75 44.7872 37.779V39.457C44.7872 39.5107 44.6457 39.5148 44.6457 39.457V37.779C44.6457 37.779 44.6497 37.7583 44.6659 37.75ZM30.393 46.1937V47.8758C30.393 47.9295 30.5344 47.9295 30.5344 47.8758V46.1978C30.5344 46.1606 30.4576 46.1482 30.4172 46.1689C30.4072 46.1749 30.3989 46.1834 30.393 46.1937V46.1937ZM33.2023 44.5405V46.2226C33.2023 46.2763 33.3478 46.2763 33.3478 46.2226V44.5446C33.3478 44.5074 33.2669 44.4909 33.2265 44.5157C33.2212 44.517 33.2163 44.5196 33.2121 44.5232C33.2079 44.5268 33.2045 44.5313 33.2023 44.5364V44.5405ZM36.0075 42.8873V44.5694C36.0075 44.6231 36.149 44.6231 36.149 44.5694V42.8914C36.149 42.8542 36.0682 42.8377 36.0278 42.8625C35.9873 42.8873 36.0075 42.8832 36.0075 42.879V42.8873ZM38.8128 41.2341V42.9162C38.8128 42.9741 38.9543 42.97 38.9543 42.9162V41.2217C38.9543 41.1845 38.8735 41.168 38.833 41.1928C38.7926 41.2176 38.8128 41.2259 38.8128 41.2217V41.2341ZM41.6141 39.5809V41.2631C41.6141 41.3168 41.7555 41.3168 41.7555 41.2631V39.5685C41.7555 39.5314 41.6787 39.5148 41.6383 39.5396C41.5979 39.5644 41.6141 39.5727 41.6141 39.5685V39.5809ZM21.7548 51.2937V52.9469C21.7548 53.0048 21.8963 53.0048 21.8963 52.9469V51.2689C21.8963 51.2317 21.8154 51.2152 21.775 51.24C21.7676 51.2466 21.762 51.255 21.7584 51.2643C21.7549 51.2737 21.7537 51.2838 21.7548 51.2937V51.2937ZM24.5601 49.6405V51.3185C24.5601 51.3723 24.7056 51.3723 24.7056 51.3185V49.6653C24.7056 49.624 24.6248 49.6116 24.5843 49.6323C24.5761 49.6322 24.5679 49.6336 24.5601 49.6364V49.6405ZM27.3654 47.9874V49.6405C27.3654 49.6984 27.5068 49.6984 27.5068 49.6405V47.9626C27.5068 47.9254 27.426 47.9088 27.3856 47.9336C27.3788 47.9398 27.3734 47.9475 27.3699 47.9561C27.3664 47.9647 27.3649 47.9739 27.3654 47.9832V47.9874ZM53.2879 32.6955V34.3734C53.2879 34.4272 53.4294 34.4272 53.4294 34.3734V32.7203C53.4294 32.6789 53.3485 32.6665 53.3081 32.6872C53.3018 32.6835 53.295 32.6807 53.2879 32.6789V32.6955ZM56.0932 31.0423V32.7203C56.0932 32.774 56.2347 32.774 56.2347 32.7203V31.0216C56.2347 30.9844 56.1538 30.9679 56.1134 30.9927C56.073 31.0175 56.0932 31.0257 56.0932 31.0216V31.0423ZM58.8985 29.3891V31.0671C58.8985 31.1249 59.0399 31.1208 59.0399 31.0671V29.3643C59.0399 29.3271 58.9591 29.3106 58.9187 29.3354C58.8782 29.3602 58.8985 29.3684 58.8985 29.3643V29.3891ZM61.7078 27.7359V29.4139C61.7078 29.4718 61.8492 29.4676 61.8492 29.4139V27.707C61.8492 27.6698 61.7684 27.6533 61.728 27.6781C61.7194 27.6862 61.7125 27.696 61.7078 27.707V27.7359ZM47.4429 36.1217V37.7996C47.4429 37.8534 47.5844 37.8534 47.5844 37.7996V36.1465C47.5844 36.1093 47.5035 36.0927 47.4631 36.1175C47.4227 36.1423 47.4429 36.1258 47.4429 36.1217ZM50.2441 34.4685V36.1465C50.2441 36.2002 50.3856 36.2002 50.3856 36.1465V34.4644C50.3856 34.4272 50.3088 34.4148 50.2684 34.4354C50.2663 34.4466 50.2677 34.4582 50.2724 34.4685H50.2441Z" stroke="white" stroke-miterlimit="10"/>
<path d="M77.9979 37.25V38.928C77.9979 38.9817 77.8564 38.9817 77.8564 38.928V37.2748C77.8564 37.2335 77.9372 37.2211 77.9777 37.2417C77.9847 37.2435 77.9915 37.2463 77.9979 37.25V37.25ZM69.3355 32.1169C69.295 32.0921 69.2142 32.1169 69.2142 32.1458V33.8238C69.2142 33.8775 69.3557 33.8816 69.3557 33.8238V32.1458C69.351 32.1348 69.3441 32.125 69.3355 32.1169V32.1169ZM66.5302 30.4637C66.4898 30.4389 66.4089 30.4637 66.4089 30.4926V32.1706C66.4089 32.2285 66.5504 32.2285 66.5504 32.1706V30.5174C66.5522 30.5068 66.5513 30.4959 66.5478 30.4857C66.5442 30.4756 66.5382 30.4666 66.5302 30.4596V30.4637ZM63.7249 28.8105C63.6845 28.8105 63.6036 28.8105 63.6036 28.8436V30.4968C63.6036 30.5546 63.7451 30.5546 63.7451 30.4968V28.8353C63.7412 28.8227 63.7343 28.8114 63.7249 28.8022V28.8105ZM75.1683 35.5596C75.1279 35.5348 75.0471 35.5596 75.0471 35.5885V37.2665C75.0471 37.3203 75.1885 37.3244 75.1885 37.2665V35.5885C75.1838 35.5776 75.177 35.5677 75.1683 35.5596V35.5596ZM72.3671 33.9064C72.3267 33.8816 72.2458 33.9064 72.2458 33.9354V35.6133C72.2458 35.6671 72.3873 35.6712 72.3873 35.6133V33.9354C72.3873 33.9354 72.3833 33.9147 72.3671 33.9064Z" stroke="white" stroke-miterlimit="10"/>
<path d="M38.1015 61.0146V62.4777C38.1015 62.5355 37.96 62.5314 37.96 62.4777V61.0146C37.96 60.9774 38.0368 60.9609 38.0813 60.9857C38.1257 61.0105 38.1015 61.0187 38.1015 61.0146ZM29.4391 55.8815C29.3986 55.8567 29.3178 55.8815 29.3178 55.9104V57.3817C29.3178 57.4355 29.4593 57.4396 29.4593 57.3817V55.9187C29.457 55.9042 29.4499 55.891 29.4391 55.8815V55.8815ZM26.6095 54.2283C26.5691 54.2076 26.4883 54.2283 26.4923 54.2614V55.7286C26.4923 55.7823 26.6338 55.7864 26.6338 55.7286V54.2655C26.6365 54.2516 26.6351 54.2372 26.6297 54.2242L26.6095 54.2283ZM23.8042 52.5751C23.7638 52.5503 23.683 52.5751 23.683 52.604V54.0754C23.683 54.1332 23.8245 54.1332 23.8245 54.0754V52.6123C23.8245 52.6123 23.8406 52.5792 23.8245 52.571L23.8042 52.5751ZM35.2719 59.3242C35.2275 59.2994 35.1507 59.3242 35.1507 59.3531V60.8203C35.1507 60.8741 35.2921 60.8782 35.2921 60.8203V59.3573C35.2891 59.3443 35.282 59.3327 35.2719 59.3242V59.3242ZM32.4667 57.671C32.4262 57.6462 32.3454 57.671 32.3454 57.7V59.1672C32.3454 59.2209 32.4909 59.2209 32.4909 59.1672V57.7C32.4914 57.6901 32.4901 57.6803 32.4869 57.671H32.4667Z" stroke="white" stroke-miterlimit="10"/>
<path d="M40.0903 62.3619C40.0216 62.3412 21.573 51.4509 21.573 51.4509C21.5518 51.4394 21.5342 51.4221 21.522 51.401C21.5099 51.3798 21.5038 51.3556 21.5043 51.3311C21.5042 51.3071 21.5101 51.2835 21.5214 51.2625C21.5327 51.2416 21.5491 51.2239 21.569 51.2112L61.6149 27.4633C61.6351 27.4509 61.6581 27.4443 61.6816 27.4443C61.7051 27.4443 61.7282 27.4509 61.7483 27.4633L80.1847 38.3701C80.205 38.3816 80.2221 38.3984 80.2341 38.4187C80.2462 38.4389 80.2528 38.4621 80.2534 38.4858C80.2531 38.5102 80.2466 38.5341 80.2346 38.5551C80.2225 38.5761 80.2053 38.5935 80.1847 38.6057L40.1671 62.3412C40.1448 62.3574 40.1175 62.3647 40.0903 62.3619V62.3619ZM21.9004 51.3311L40.0903 62.0767L79.8613 38.4734L61.6715 27.7278L21.9004 51.3311Z" stroke="white" stroke-miterlimit="10"/>
<path d="M42.6085 50.4919L29.8676 42.97V51.4797L42.6085 58.9975V50.4919Z" stroke="white" stroke-miterlimit="10"/>
<path d="M72.4804 41.3662L42.6086 58.9974V50.4918L72.4804 32.8606V41.3662Z" stroke="white" stroke-miterlimit="10"/>
<path d="M42.6085 50.492L29.8676 42.97L59.7393 25.3389L72.4803 32.8608L42.6085 50.492Z" stroke="white" stroke-miterlimit="10"/>
<path d="M28.6751 43.8421C28.5197 43.7712 28.3856 43.6591 28.2868 43.5174C28.188 43.3757 28.1281 43.2095 28.1133 43.0361V43.5156C28.1246 43.6925 28.1829 43.863 28.2819 44.0087C28.3809 44.1543 28.5168 44.2696 28.6751 44.3421L41.2302 51.7525V51.2772L28.6751 43.8421Z" stroke="white" stroke-miterlimit="10"/>
<path d="M73.6122 33.6585L43.9506 51.2483C43.5296 51.4662 43.0643 51.5798 42.5924 51.5798C42.1205 51.5798 41.6553 51.4662 41.2343 51.2483V51.7236C41.6557 51.9425 42.1217 52.0566 42.5944 52.0566C43.0672 52.0566 43.5332 51.9425 43.9546 51.7236L73.6162 34.1338C73.7688 34.0626 73.9001 33.9512 73.9967 33.811C74.0933 33.6709 74.1517 33.507 74.166 33.3361V32.8608C74.1509 33.032 74.0917 33.196 73.9944 33.3362C73.8972 33.4763 73.7652 33.5875 73.6122 33.6585V33.6585Z" stroke="white" stroke-miterlimit="10"/>
<path d="M73.6041 32.0549C74.3478 32.4971 74.3519 33.2162 73.6041 33.6585L43.9506 51.2483C43.5296 51.4662 43.0643 51.5797 42.5924 51.5797C42.1205 51.5797 41.6553 51.4662 41.2342 51.2483L28.6752 43.842C27.9274 43.3998 27.9233 42.6807 28.6752 42.2302L58.3569 24.6404C58.7771 24.4245 59.2408 24.312 59.7111 24.312C60.1813 24.312 60.645 24.4245 61.0652 24.6404L73.6041 32.0549Z" stroke="white" stroke-miterlimit="10"/>
<path d="M57.7706 32.522L56.6469 31.8525L55.1108 25.8267L56.2386 26.4962L57.7706 32.522Z" stroke="white" stroke-miterlimit="10"/>
<path d="M51.5416 29.2694L50.4138 28.5999V27.9097L51.5375 28.5792L51.5416 29.2694Z" stroke="white" stroke-miterlimit="10"/>
<path d="M51.5375 28.5793L50.4138 27.9097L56.5701 24.2769L57.6938 24.9464L51.5375 28.5793Z" stroke="white" stroke-miterlimit="10"/>
<path d="M57.6938 24.9463L59.3835 31.5714L57.7707 32.522L56.2387 26.4961L51.5416 29.2694L51.5376 28.5791L57.6938 24.9463Z" stroke="white" stroke-miterlimit="10"/>
<path d="M51.1739 21.4415L50.5271 21.0571L50.5231 19.3171L51.1698 19.7015L51.1739 21.4415Z" stroke="white" stroke-miterlimit="10"/>
<path d="M51.1698 19.7016L57.9364 15.7051L51.1738 21.4416L51.1698 19.7016Z" stroke="white" stroke-miterlimit="10"/>
<path d="M52.7262 42.7592L44.7227 38.0145L45.4785 20.5198L49.7673 23.0657L52.7262 42.7592Z" stroke="white" stroke-miterlimit="10"/>
<path d="M53.3367 20.9578L57.9084 39.7007L52.7263 42.7591L49.7675 23.0656L53.3367 20.9578Z" stroke="white" stroke-miterlimit="10"/>
<path d="M47.6411 23.5288L40.8745 25.7771L47.6371 21.7888L47.6411 23.5288Z" stroke="white" stroke-miterlimit="10"/>
<path d="M51.1336 22.0076L51.1295 23.7475L57.8921 26L51.1336 22.0076Z" stroke="white" stroke-miterlimit="10"/>
<path d="M58.8055 15.0398V15.358L52.5199 19.0901L52.5239 18.7718L58.8055 15.0398Z" stroke="white" stroke-miterlimit="10"/>
<path d="M44.7792 20.3959C44.7069 20.3636 44.6443 20.3121 44.5981 20.2467C44.5518 20.1812 44.5237 20.1043 44.5165 20.0239V20.3422C44.5241 20.4224 44.5524 20.4992 44.5986 20.5645C44.6448 20.6299 44.7071 20.6815 44.7792 20.7141L45.8989 21.3754V21.0572L44.7792 20.3959Z" stroke="white" stroke-miterlimit="10"/>
<path d="M54.1975 20.4953L50.2079 22.8676C50.0149 22.9675 49.8017 23.0195 49.5854 23.0195C49.3691 23.0195 49.1559 22.9675 48.9629 22.8676L47.2894 21.8798V22.198L48.9589 23.1858C49.152 23.2877 49.3661 23.3408 49.5834 23.3408C49.8007 23.3408 50.0148 23.2877 50.2079 23.1858L54.1975 20.8135C54.268 20.7814 54.329 20.7309 54.3744 20.667C54.4198 20.6032 54.448 20.5283 54.4562 20.4498V20.1274C54.4491 20.2068 54.4214 20.2827 54.3759 20.3474C54.3304 20.4121 54.2688 20.4631 54.1975 20.4953V20.4953Z" stroke="white" stroke-miterlimit="10"/>
<path d="M41.0077 25.6118V25.93L39.6132 25.1075V24.7893L41.0077 25.6118Z" stroke="white" stroke-miterlimit="10"/>
<path d="M58.8055 15.0354L52.5239 18.7551L54.1933 19.7718C54.541 19.9784 54.545 20.3049 54.1933 20.5116L50.2037 22.8839C50.0107 22.9838 49.7975 23.0358 49.5812 23.0358C49.3649 23.0358 49.1517 22.9838 48.9587 22.8839L47.2852 21.8961L41.0037 25.6158L39.6091 24.7892L45.8907 21.0695L44.775 20.4083C44.4234 20.2016 44.4234 19.8751 44.775 19.6685L48.7647 17.292C48.9571 17.1902 49.1705 17.1371 49.3872 17.1371C49.6038 17.1371 49.8173 17.1902 50.0097 17.292L51.1294 17.9533L57.4109 14.2336L58.8055 15.0354Z" stroke="white" stroke-miterlimit="10"/>
<path d="M47.2894 21.8799V22.1981L41.0078 25.9302V25.6119L47.2894 21.8799Z" stroke="white" stroke-miterlimit="10"/>
<path d="M57.7627 25.8347V26.1529L59.1572 25.3304V25.0122L57.7627 25.8347Z" stroke="white" stroke-miterlimit="10"/>
<path d="M52.8716 21.2761L51.4771 22.0986L57.7626 25.8348L59.1572 25.0123L52.8716 21.2761Z" stroke="white" stroke-miterlimit="10"/>
<path d="M51.4771 22.0984L51.4811 22.4208L57.7626 26.1528V25.8346L51.4771 22.0984Z" stroke="white" stroke-miterlimit="10"/>
<path d="M44.848 18.7553C44.8075 18.7305 44.7227 18.7553 44.7227 18.7842V20.0861C44.7227 20.144 44.8722 20.144 44.8722 20.0861V18.7842C44.8722 18.7842 44.8682 18.7636 44.848 18.7553Z" stroke="white" stroke-miterlimit="10"/>
<path d="M47.1803 20.1313C47.1358 20.1065 47.0509 20.1313 47.0549 20.1602V21.4621C47.0549 21.5199 47.2005 21.5199 47.2005 21.4621V20.1602C47.2005 20.1602 47.1964 20.1395 47.1803 20.1313Z" stroke="white" stroke-miterlimit="10"/>
<path d="M49.5125 21.5075C49.4681 21.4827 49.3832 21.5075 49.3832 21.5364V22.8383C49.3832 22.8962 49.5327 22.8962 49.5327 22.8383V21.5364C49.5327 21.5364 49.5287 21.5158 49.5125 21.5075Z" stroke="white" stroke-miterlimit="10"/>
<path d="M49.5692 15.9654C49.5287 15.9406 49.4438 15.9654 49.4438 15.9985V17.2921C49.4438 17.3499 49.5934 17.3541 49.5934 17.2921V15.9985C49.5888 15.9852 49.5803 15.9737 49.5692 15.9654V15.9654Z" stroke="white" stroke-miterlimit="10"/>
<path d="M51.8893 17.3416C51.8489 17.3168 51.764 17.3416 51.764 17.3747V18.6724C51.764 18.7303 51.9136 18.7344 51.9136 18.6724V17.3747C51.9089 17.3614 51.9005 17.3499 51.8893 17.3416V17.3416Z" stroke="white" stroke-miterlimit="10"/>
<path d="M54.2338 18.7178C54.1894 18.693 54.1085 18.7178 54.1085 18.7509V20.0486C54.1085 20.1065 54.254 20.1106 54.254 20.0486V18.7509C54.2501 18.7383 54.2432 18.7269 54.2338 18.7178V18.7178Z" stroke="white" stroke-miterlimit="10"/>
<path d="M51.7802 20.3628C51.8207 20.3339 51.9055 20.3628 51.9055 20.3917V21.5572C51.9055 21.6151 51.756 21.6151 51.756 21.5572V20.3917C51.756 20.3917 51.76 20.3711 51.7802 20.3628Z" stroke="white" stroke-miterlimit="10"/>
<path d="M46.9983 17.2919C47.0427 17.2671 47.1276 17.2919 47.1236 17.3208V18.6227C47.1236 18.6806 46.9781 18.6806 46.9781 18.6227V17.3415C46.9764 17.3321 46.9774 17.3225 46.981 17.3137C46.9846 17.3049 46.9906 17.2973 46.9983 17.2919Z" stroke="white" stroke-miterlimit="10"/>
<path d="M49.5855 21.6607C49.3774 21.6638 49.1719 21.6141 48.9872 21.516L44.7995 19.0363C44.735 19.0072 44.6791 18.9614 44.6373 18.9034C44.5954 18.8454 44.5691 18.7772 44.561 18.7056C44.5698 18.6348 44.5964 18.5674 44.6382 18.5102C44.68 18.453 44.7356 18.4078 44.7995 18.3791L48.7851 16.0109C48.9741 15.9173 49.1814 15.8687 49.3914 15.8687C49.6015 15.8687 49.8088 15.9173 49.9978 16.0109L54.1814 18.4907C54.2512 18.5105 54.3127 18.5532 54.3565 18.6122C54.4003 18.6711 54.4241 18.7432 54.4241 18.8172C54.4241 18.8913 54.4003 18.9633 54.3565 19.0222C54.3127 19.0812 54.2512 19.1239 54.1814 19.1437L50.1918 21.516C50.0048 21.6155 49.7962 21.6652 49.5855 21.6607ZM44.844 18.7263C44.844 18.7263 44.8804 18.7552 44.941 18.7965L49.1247 21.2763C49.2691 21.3418 49.4254 21.3756 49.5834 21.3756C49.7415 21.3756 49.8978 21.3418 50.0422 21.2763L54.0319 18.904C54.0709 18.8839 54.1042 18.854 54.1289 18.8172C54.1289 18.8172 54.1006 18.7883 54.0278 18.7469L49.8442 16.2672C49.7004 16.2018 49.5448 16.168 49.3874 16.168C49.23 16.168 49.0744 16.2018 48.9306 16.2672L44.941 18.6395C44.8723 18.6808 44.848 18.7139 44.844 18.7263V18.7263Z" stroke="white" stroke-miterlimit="10"/>
<path d="M48.4051 4.09558L47.7906 3.73188L52.423 1L53.0334 1.3637L48.4051 4.09558Z" stroke="white" stroke-miterlimit="10"/>
<path d="M48.4051 4.87263L47.7947 4.50893L47.7906 3.73193L48.4051 4.09563V4.87263Z" stroke="white" stroke-miterlimit="10"/>
<path d="M48.405 4.0954L53.0333 1.36353V1.70243L48.405 4.8724V4.0954Z" stroke="white" stroke-miterlimit="10"/>
<path d="M47.1318 3.26058L48.4617 2.47119L49.6663 19.1724L48.3404 19.9618L47.1318 3.26058Z" stroke="white" stroke-miterlimit="10"/>
<path d="M46.3636 2.80601L47.6895 2.02075L48.4615 2.47124L47.1317 3.26064L46.3636 2.80601Z" stroke="white" stroke-miterlimit="10"/>
<path d="M47.1317 3.26053L48.3403 19.9618L46.3677 18.8004L46.3636 2.80591L47.1317 3.26053Z" stroke="white" stroke-miterlimit="10"/>
<path d="M42.4225 7.96408L41.8121 7.60038V7.26147L42.4225 7.62517V7.96408Z" stroke="white" stroke-miterlimit="10"/>
<path d="M42.4225 7.62512L41.8121 7.26142L46.4404 4.52954L47.0508 4.89324L42.4225 7.62512Z" stroke="white" stroke-miterlimit="10"/>
<path d="M42.4227 7.96409V7.62519L47.051 4.89331L47.0551 5.6703L42.4227 7.96409Z" stroke="white" stroke-miterlimit="10"/>
<path d="M51.6387 14.2668V20.925C51.6342 20.9796 51.6153 21.0319 51.584 21.0763C51.5527 21.1207 51.5101 21.1556 51.4609 21.1771C51.3274 21.2485 51.179 21.2857 51.0284 21.2857C50.8777 21.2857 50.7293 21.2485 50.5958 21.1771C50.546 21.1547 50.503 21.1192 50.471 21.0742C50.439 21.0291 50.4194 20.9762 50.4139 20.9209V14.2668C50.4194 14.3222 50.439 14.3751 50.471 14.4201C50.503 14.4651 50.546 14.5007 50.5958 14.5231C50.7299 14.5925 50.8781 14.6286 51.0284 14.6286C51.1786 14.6286 51.3268 14.5925 51.4609 14.5231C51.5102 14.5005 51.5526 14.4648 51.5839 14.4197C51.6152 14.3747 51.6341 14.3219 51.6387 14.2668Z" stroke="white" stroke-miterlimit="10"/>
<path d="M51.4568 14.0105C51.5082 14.0297 51.5526 14.0646 51.584 14.1104C51.6153 14.1563 51.6321 14.2108 51.6321 14.2668C51.6321 14.3227 51.6153 14.3773 51.584 14.4231C51.5526 14.469 51.5082 14.5038 51.4568 14.523C51.3227 14.5924 51.1746 14.6285 51.0243 14.6285C50.874 14.6285 50.7259 14.5924 50.5918 14.523C50.5385 14.5059 50.4919 14.4718 50.4588 14.4257C50.4258 14.3796 50.408 14.3239 50.408 14.2668C50.408 14.2096 50.4258 14.154 50.4588 14.1079C50.4919 14.0618 50.5385 14.0277 50.5918 14.0105C50.7259 13.9412 50.874 13.905 51.0243 13.905C51.1746 13.905 51.3227 13.9412 51.4568 14.0105V14.0105Z" stroke="white" stroke-miterlimit="10"/>
<path d="M55.6244 13.0972V13.4526C55.2484 13.5807 54.8685 13.7212 54.4926 13.8659V13.5105C54.8685 13.3493 55.2484 13.2088 55.6284 13.0972H55.6244Z" stroke="white" stroke-miterlimit="10"/>
<path d="M54.4885 13.5269V13.8823L51.756 14.4072V14.0517L54.4885 13.5269Z" stroke="white" stroke-miterlimit="10"/>
<path d="M50.4544 14.5147V14.8702C50.3907 14.8405 50.3356 14.7945 50.2945 14.7365C50.2534 14.6785 50.2277 14.6107 50.22 14.5395V14.1841C50.2277 14.2552 50.2534 14.3231 50.2945 14.3811C50.3356 14.439 50.3907 14.4851 50.4544 14.5147Z" stroke="white" stroke-miterlimit="10"/>
<path d="M50.4875 14.5271V14.8851C50.4607 14.7636 50.4496 14.6391 50.4545 14.5146L50.4875 14.5271Z" stroke="white" stroke-miterlimit="10"/>
<path d="M51.7885 14.1924V14.5478C51.7833 14.6165 51.7604 14.6826 51.722 14.7392C51.6837 14.7959 51.6313 14.8411 51.5702 14.8702C51.3291 14.9937 51.0545 15.0315 50.79 14.9776V14.6263C51.055 14.6774 51.3291 14.6382 51.5702 14.5148C51.6315 14.486 51.6841 14.4409 51.7225 14.3842C51.761 14.3274 51.7837 14.2612 51.7885 14.1924V14.1924Z" stroke="white" stroke-miterlimit="10"/>
<path d="M50.7898 14.6262V14.9775L49.9126 16.6018V16.2463L50.7898 14.6262Z" stroke="white" stroke-miterlimit="10"/>
<path d="M49.9129 16.2463V16.6018C49.6501 16.8291 49.4076 17.0523 49.1934 17.2754V16.92C49.4076 16.6968 49.6501 16.4737 49.9169 16.2463H49.9129Z" stroke="white" stroke-miterlimit="10"/>
<path d="M50.7899 14.6264L49.9128 16.2465C49.646 16.4738 49.4034 16.697 49.1892 16.9201L50.4868 14.5272C50.1432 14.3329 50.1432 14.0395 50.4504 13.8535C50.6232 13.7638 50.8143 13.7171 51.0082 13.7171C51.202 13.7171 51.3931 13.7638 51.566 13.8535C51.566 13.8742 55.6082 13.0972 55.6082 13.0972C55.2282 13.2253 54.8483 13.3658 54.4723 13.5105L51.7398 14.0353C51.7589 14.078 51.7691 14.1242 51.77 14.1711C51.7709 14.218 51.7623 14.2646 51.7449 14.308C51.7275 14.3513 51.7015 14.3906 51.6687 14.4233C51.6358 14.4561 51.5968 14.4816 51.5539 14.4982C51.3193 14.6237 51.0514 14.6686 50.7899 14.6264V14.6264Z" stroke="white" stroke-miterlimit="10"/>
<path d="M51.6387 11.4602V14.1549C51.6341 14.2099 51.6152 14.2627 51.5839 14.3078C51.5526 14.3528 51.5102 14.3885 51.4609 14.4111C51.3268 14.4805 51.1786 14.5166 51.0284 14.5166C50.8781 14.5166 50.7299 14.4805 50.5958 14.4111C50.5457 14.388 50.5025 14.3518 50.4706 14.306C50.4386 14.2603 50.4191 14.2067 50.4139 14.1508V11.4602C50.4194 11.5156 50.439 11.5685 50.471 11.6135C50.503 11.6585 50.546 11.694 50.5958 11.7164C50.7299 11.7858 50.8781 11.822 51.0284 11.822C51.1786 11.822 51.3268 11.7858 51.4609 11.7164C51.5102 11.6938 51.5526 11.6581 51.5839 11.6131C51.6152 11.568 51.6341 11.5152 51.6387 11.4602V11.4602Z" stroke="white" stroke-miterlimit="10"/>
<path d="M51.4568 11.2039C51.5082 11.2231 51.5526 11.2579 51.584 11.3038C51.6153 11.3496 51.6321 11.4042 51.6321 11.4601C51.6321 11.5161 51.6153 11.5707 51.584 11.6165C51.5526 11.6623 51.5082 11.6972 51.4568 11.7164C51.3227 11.7858 51.1746 11.8219 51.0243 11.8219C50.874 11.8219 50.7259 11.7858 50.5918 11.7164C50.5385 11.6992 50.4919 11.6651 50.4588 11.619C50.4258 11.573 50.408 11.5173 50.408 11.4601C50.408 11.403 50.4258 11.3473 50.4588 11.3012C50.4919 11.2552 50.5385 11.2211 50.5918 11.2039C50.7259 11.1345 50.874 11.0984 51.0243 11.0984C51.1746 11.0984 51.3227 11.1345 51.4568 11.2039V11.2039Z" stroke="white" stroke-miterlimit="10"/>
<path d="M55.6244 9.94775V10.3032C55.2484 10.4313 54.8685 10.5718 54.4926 10.7165V10.361C54.8685 10.1999 55.2484 10.0593 55.6284 9.94775H55.6244Z" stroke="white" stroke-miterlimit="10"/>
<path d="M54.4885 10.3774V10.7329L51.756 11.2578V10.9023L54.4885 10.3774Z" stroke="white" stroke-miterlimit="10"/>
<path d="M50.4544 11.3653V11.7207C50.3907 11.6911 50.3356 11.6451 50.2945 11.5871C50.2534 11.5291 50.2277 11.4613 50.22 11.3901V11.0347C50.2277 11.1058 50.2534 11.1737 50.2945 11.2317C50.3356 11.2896 50.3907 11.3357 50.4544 11.3653V11.3653Z" stroke="white" stroke-miterlimit="10"/>
<path d="M50.4875 11.378V11.7359C50.4607 11.6144 50.4496 11.4899 50.4545 11.3655L50.4875 11.378Z" stroke="white" stroke-miterlimit="10"/>
<path d="M51.7885 11.0427V11.3982C51.7833 11.4669 51.7604 11.5329 51.722 11.5896C51.6837 11.6462 51.6313 11.6914 51.5702 11.7205C51.3291 11.8441 51.0545 11.8819 50.79 11.828V11.4767C51.055 11.5293 51.3295 11.49 51.5702 11.3651C51.632 11.3371 51.6851 11.2922 51.7237 11.2353C51.7622 11.1784 51.7846 11.1118 51.7885 11.0427V11.0427Z" stroke="white" stroke-miterlimit="10"/>
<path d="M50.7898 11.4771V11.8284L49.9126 13.4526V13.0972L50.7898 11.4771Z" stroke="white" stroke-miterlimit="10"/>
<path d="M49.9129 13.0972V13.4526C49.6501 13.6799 49.4076 13.9031 49.1934 14.1263V13.7708C49.4076 13.5477 49.6501 13.3245 49.9169 13.0972H49.9129Z" stroke="white" stroke-miterlimit="10"/>
<path d="M50.7899 11.4769L49.9128 13.0971C49.646 13.3244 49.4034 13.5476 49.1892 13.7707L50.4868 11.3778C50.1432 11.1835 50.1432 10.8901 50.4504 10.7041C50.6232 10.6144 50.8143 10.5677 51.0082 10.5677C51.202 10.5677 51.3931 10.6144 51.566 10.7041C51.566 10.7247 55.6082 9.94775 55.6082 9.94775C55.2282 10.0759 54.8483 10.2164 54.4723 10.361L51.7398 10.8859C51.7589 10.9286 51.7691 10.9748 51.77 11.0217C51.7709 11.0686 51.7623 11.1152 51.7449 11.1585C51.7275 11.2019 51.7015 11.2412 51.6687 11.2739C51.6358 11.3067 51.5968 11.3321 51.5539 11.3488C51.3198 11.4757 51.0514 11.5207 50.7899 11.4769V11.4769Z" stroke="white" stroke-miterlimit="10"/>
<path d="M48.2513 15.0311C48.7526 13.9276 50.1633 12.6299 52.1278 11.4644C53.982 10.337 56.0171 9.5548 58.1385 9.15405V12.8737C56.0158 13.2721 53.9793 14.053 52.1238 15.1799C50.1593 16.3454 48.7485 17.6597 48.2513 18.7466V15.0311Z" stroke="white" stroke-miterlimit="10"/>
<path d="M48.2553 15.0313L48.2472 18.7592L47.9481 18.7137L47.9602 14.9817L48.2553 15.0313Z" stroke="white" stroke-miterlimit="10"/>
<path d="M58.0619 8.98047L58.1427 9.15405C56.0213 9.5548 53.9862 10.337 52.132 11.4644C50.1675 12.6299 48.7568 13.9441 48.2555 15.0311L47.9604 14.9856C48.4657 13.8491 49.9088 12.5059 51.9097 11.3321C53.8071 10.18 55.8906 9.3836 58.0619 8.98047V8.98047Z" stroke="white" stroke-miterlimit="10"/>
<path d="M49.5855 21.6606C49.3774 21.6637 49.1719 21.614 48.9872 21.5159L44.7995 19.0361C44.735 19.0071 44.6791 18.9613 44.6373 18.9033C44.5954 18.8453 44.5691 18.7771 44.561 18.7055C44.5698 18.6347 44.5964 18.5673 44.6382 18.5101C44.68 18.4529 44.7356 18.4077 44.7995 18.379C44.832 18.3634 44.869 18.361 44.9031 18.3722C44.9372 18.3834 44.9659 18.4075 44.9834 18.4395C45.0008 18.4715 45.0057 18.5091 44.9971 18.5446C44.9885 18.5802 44.967 18.6111 44.937 18.6311C44.8987 18.6507 44.8665 18.6807 44.844 18.7179C44.844 18.7179 44.8723 18.7427 44.941 18.7882L49.1247 21.2679C49.2691 21.3334 49.4254 21.3673 49.5835 21.3673C49.7415 21.3673 49.8978 21.3334 50.0422 21.2679L54.0319 18.8956C54.0709 18.8755 54.1042 18.8457 54.1289 18.8088C54.1289 18.8088 54.1006 18.7799 54.0278 18.7386C53.9957 18.7188 53.9725 18.6868 53.9634 18.6496C53.9543 18.6125 53.96 18.5731 53.9793 18.5402C53.9885 18.5235 54.0009 18.5089 54.0158 18.4973C54.0307 18.4856 54.0477 18.4772 54.0659 18.4726C54.084 18.4679 54.103 18.4671 54.1214 18.4702C54.1399 18.4733 54.1576 18.4803 54.1734 18.4906C54.2431 18.5104 54.3046 18.5531 54.3484 18.6121C54.3923 18.671 54.416 18.743 54.416 18.8171C54.416 18.8912 54.3923 18.9632 54.3484 19.0221C54.3046 19.0811 54.2431 19.1238 54.1734 19.1436L50.1837 21.5159C49.9991 21.614 49.7935 21.6637 49.5855 21.6606V21.6606Z" stroke="white" stroke-miterlimit="10"/>
<path d="M39.686 43.1975L38.5623 42.5279L40.2074 33.9355L41.3312 34.6051L39.686 43.1975Z" stroke="white" stroke-miterlimit="10"/>
<path d="M41.3311 34.6049L40.2074 33.9354L46.3637 30.3025L47.4874 30.9679L41.3311 34.6049Z" stroke="white" stroke-miterlimit="10"/>
<path d="M39.6859 43.1974L41.3311 34.605L47.4873 30.968V31.6582L42.7741 34.4438L41.2785 42.2592L39.6859 43.1974Z" stroke="white" stroke-miterlimit="10"/>
<path d="M51.0808 44.2801C50.6795 44.4846 50.2363 44.5886 49.7879 44.5836C49.3396 44.5785 48.8988 44.4646 48.5019 44.2512C48.358 44.1831 48.2343 44.0773 48.1434 43.9444C48.0525 43.8115 47.9977 43.6564 47.9845 43.4949V44.681C47.9977 44.8426 48.0525 44.9977 48.1434 45.1306C48.2343 45.2634 48.358 45.3693 48.5019 45.4374C48.8991 45.6501 49.34 45.7633 49.7884 45.7676C50.2368 45.772 50.6798 45.6673 51.0808 45.4622C51.2317 45.3966 51.3625 45.2905 51.4592 45.1552C51.556 45.0199 51.6152 44.8603 51.6306 44.6934V43.5073C51.6146 43.6745 51.5553 43.8344 51.4586 43.9702C51.362 44.1061 51.2315 44.2131 51.0808 44.2801V44.2801Z" stroke="white" stroke-miterlimit="10"/>
<path d="M51.1294 42.7511C50.7323 42.5383 50.2913 42.4251 49.8429 42.4208C49.3945 42.4165 48.9516 42.5212 48.5505 42.7263C47.827 43.1396 47.8108 43.8215 48.5141 44.2513C48.911 44.4647 49.3518 44.5787 49.8002 44.5837C50.2486 44.5887 50.6917 44.4847 51.0931 44.2803C51.8126 43.8628 51.8287 43.1809 51.1294 42.7511Z" stroke="white" stroke-miterlimit="10"/>
<path d="M50.7858 41.2009C50.513 41.0308 50.2016 40.9365 49.8822 40.9273C49.5628 40.918 49.2466 40.9942 48.9649 41.1483C48.6831 41.3023 48.4456 41.5289 48.2758 41.8056C48.106 42.0823 48.0098 42.3996 47.9967 42.726V43.2178C48.0106 43.3786 48.0657 43.5329 48.1566 43.6649C48.2474 43.797 48.3708 43.9022 48.5141 43.97C48.911 44.1834 49.3518 44.2973 49.8001 44.3023C50.2485 44.3074 50.6917 44.2034 51.093 43.9989C51.2442 43.9326 51.3751 43.8258 51.4719 43.6898C51.5686 43.5538 51.6277 43.3936 51.6428 43.2261V42.7384C51.6417 42.4283 51.5623 42.1238 51.4121 41.8544C51.2619 41.585 51.0462 41.3599 50.7858 41.2009V41.2009Z" stroke="white" stroke-miterlimit="10"/>
<path d="M49.9307 41.3964C49.8984 41.4129 49.8629 41.4215 49.8269 41.4215C49.7908 41.4215 49.7553 41.4129 49.723 41.3964C49.666 41.3589 49.666 41.3048 49.723 41.2715C49.7557 41.254 49.792 41.2449 49.8289 41.2449C49.8658 41.2449 49.9021 41.254 49.9347 41.2715C49.9877 41.309 49.9877 41.3631 49.9307 41.3964Z" stroke="white" stroke-miterlimit="10"/>
<path d="M62.7589 37.3905C62.3579 37.5956 61.9149 37.7003 61.4665 37.696C61.0181 37.6917 60.5772 37.5785 60.18 37.3657C60.0361 37.2976 59.9124 37.1918 59.8215 37.0589C59.7306 36.926 59.6758 36.7709 59.6626 36.6094V37.7955C59.6773 37.9561 59.7327 38.11 59.8235 38.242C59.9142 38.3739 60.0371 38.4793 60.18 38.5477C60.5769 38.7611 61.0177 38.8751 61.466 38.8801C61.9144 38.8851 62.3576 38.7811 62.7589 38.5767C62.9106 38.5106 63.0421 38.404 63.1396 38.268C63.237 38.132 63.2968 37.9716 63.3127 37.8038V36.6176C63.296 36.7852 63.2359 36.9452 63.1385 37.081C63.0412 37.2169 62.9101 37.3237 62.7589 37.3905V37.3905Z" stroke="white" stroke-miterlimit="10"/>
<path d="M62.8034 35.8655C62.4065 35.6521 61.9657 35.5382 61.5173 35.5331C61.069 35.5281 60.6258 35.6321 60.2245 35.8366C59.5009 36.2499 59.4848 36.9359 60.1881 37.3658C60.5853 37.5785 61.0262 37.6917 61.4746 37.696C61.923 37.7004 62.366 37.5956 62.767 37.3905C63.4825 36.9773 63.4986 36.3036 62.8034 35.8655Z" stroke="white" stroke-miterlimit="10"/>
<path d="M62.4556 34.3115C62.1823 34.1426 61.8707 34.0493 61.5515 34.0409C61.2322 34.0325 60.9163 34.1092 60.6349 34.2635C60.3534 34.4178 60.1161 34.6444 59.9463 34.921C59.7765 35.1975 59.6801 35.5145 59.6665 35.8407V36.3284C59.6805 36.4897 59.7357 36.6445 59.8264 36.7772C59.9172 36.9099 60.0405 37.016 60.1839 37.0848C60.5811 37.2975 61.0221 37.4107 61.4704 37.415C61.9188 37.4194 62.3618 37.3146 62.7628 37.1095C62.9142 37.0442 63.0456 36.9383 63.143 36.803C63.2405 36.6677 63.3005 36.508 63.3166 36.3408V35.849C63.3144 35.5387 63.234 35.2342 63.0831 34.9649C62.9323 34.6956 62.7162 34.4706 62.4556 34.3115V34.3115Z" stroke="white" stroke-miterlimit="10"/>
<path d="M61.5925 34.511C61.5606 34.5285 61.5249 34.5377 61.4887 34.5377C61.4525 34.5377 61.4168 34.5285 61.3849 34.511C61.3279 34.4777 61.3279 34.4236 61.3849 34.3903C61.4171 34.3738 61.4527 34.3652 61.4887 34.3652C61.5248 34.3652 61.5603 34.3738 61.5925 34.3903C61.6577 34.4236 61.6536 34.4777 61.5925 34.511Z" stroke="white" stroke-miterlimit="10"/>
<path d="M78.3575 46.082L76.7892 47.012C76.6153 47.1111 76.4779 47.0533 76.4779 46.8756V45.5158C76.4869 45.4131 76.5198 45.3141 76.574 45.227C76.6281 45.14 76.7019 45.0676 76.7892 45.0157L78.3575 44.0858C78.5313 43.9866 78.6688 44.0445 78.6688 44.2222V45.582C78.6598 45.6847 78.6268 45.7837 78.5727 45.8707C78.5185 45.9578 78.4447 46.0302 78.3575 46.082V46.082Z" stroke="white" stroke-miterlimit="10"/>
<path d="M78.4587 44.0692C78.479 44.1063 78.479 45.4702 78.479 45.4702C78.4681 45.5724 78.4344 45.6707 78.3804 45.7574C78.3264 45.8441 78.2537 45.917 78.1677 45.9703L76.5953 46.8961C76.5589 46.9209 76.5306 46.8961 76.4983 46.8961C76.5225 47.0325 76.6357 47.0862 76.7893 46.9953L78.3577 46.0654C78.4449 46.0135 78.5187 45.9411 78.5729 45.8541C78.627 45.767 78.66 45.668 78.6689 45.5653V44.2055C78.6689 44.0857 78.5679 44.0444 78.4587 44.0692Z" stroke="white" stroke-miterlimit="10"/>
<path d="M73.5636 48.9173L71.9912 49.8431C71.8174 49.9423 71.6799 49.8844 71.6799 49.7108V48.347C71.6896 48.2444 71.7228 48.1456 71.7769 48.0587C71.831 47.9718 71.9044 47.8992 71.9912 47.8469L73.5636 46.917C73.7334 46.8178 73.8708 46.8798 73.8708 47.0534V48.4131C73.8613 48.5157 73.8286 48.6147 73.7753 48.7022C73.722 48.7897 73.6495 48.8633 73.5636 48.9173V48.9173Z" stroke="white" stroke-miterlimit="10"/>
<path d="M73.6606 46.9006C73.6606 46.9419 73.6606 48.3017 73.6606 48.3017C73.6516 48.4044 73.6187 48.5034 73.5645 48.5905C73.5104 48.6775 73.4366 48.7499 73.3494 48.8018L71.781 49.7317C71.7406 49.7523 71.7123 49.7317 71.6799 49.7317C71.7042 49.8639 71.8174 49.9177 71.971 49.8267L73.5434 48.901C73.6293 48.847 73.7018 48.7733 73.7551 48.6858C73.8084 48.5983 73.8411 48.4994 73.8506 48.3967V47.0494C73.8708 46.9171 73.7778 46.8799 73.6606 46.9006Z" stroke="white" stroke-miterlimit="10"/>
<path d="M68.7654 51.7483L67.193 52.6741C67.0232 52.7775 66.8817 52.7155 66.8817 52.5419V51.1821C66.8926 51.0799 66.9263 50.9817 66.9803 50.895C67.0342 50.8082 67.107 50.7354 67.193 50.682L68.7654 49.7563C68.9351 49.6529 69.0726 49.7149 69.0726 49.8885V51.2524C69.0619 51.3536 69.0286 51.4509 68.9754 51.5369C68.9221 51.6229 68.8503 51.6952 68.7654 51.7483V51.7483Z" stroke="white" stroke-miterlimit="10"/>
<path d="M68.8667 49.7356C68.8667 49.7727 68.8667 51.1325 68.8667 51.1325C68.8577 51.2352 68.8247 51.3343 68.7706 51.4213C68.7164 51.5083 68.6426 51.5808 68.5554 51.6326L66.987 52.5625C66.9466 52.5625 66.9224 52.5625 66.886 52.5625C66.9143 52.6947 67.0234 52.7485 67.177 52.6575L68.7494 51.7318C68.8348 51.6782 68.907 51.6052 68.9603 51.5185C69.0136 51.4317 69.0465 51.3336 69.0566 51.2317V49.8678C69.0728 49.748 68.9798 49.7108 68.8667 49.7356Z" stroke="white" stroke-miterlimit="10"/>
<path d="M63.9675 54.5796L62.3991 55.5054C62.2294 55.6087 62.0879 55.5467 62.0879 55.3732V54.0093C62.0987 53.9071 62.1325 53.8088 62.1864 53.7221C62.2404 53.6354 62.3132 53.5625 62.3991 53.5092L63.9716 52.5834C64.1413 52.4801 64.2828 52.5421 64.2828 52.7157V54.0754C64.2727 54.1789 64.2389 54.2785 64.1841 54.3661C64.1294 54.4537 64.0551 54.5269 63.9675 54.5796Z" stroke="white" stroke-miterlimit="10"/>
<path d="M64.0643 52.567C64.0643 52.6042 64.0643 53.9681 64.0643 53.9681C64.0544 54.0705 64.021 54.1691 63.9669 54.256C63.9129 54.3429 63.8396 54.4155 63.753 54.4681L62.1847 55.3939C62.1443 55.4187 62.12 55.3939 62.0836 55.3939C62.1119 55.5262 62.2211 55.5799 62.3747 55.489L63.9471 54.5632C64.0334 54.5103 64.1065 54.4376 64.1606 54.3508C64.2146 54.264 64.2481 54.1655 64.2583 54.0631V52.6992C64.2785 52.5835 64.1815 52.5422 64.0643 52.567Z" stroke="white" stroke-miterlimit="10"/>
<path d="M59.1653 57.4107L57.5929 58.3406C57.4231 58.4398 57.2816 58.3819 57.2816 58.2042V56.8444C57.2916 56.742 57.3249 56.6433 57.379 56.5565C57.433 56.4696 57.5063 56.3969 57.5929 56.3444L59.1653 55.4144C59.335 55.3152 59.4765 55.3731 59.4765 55.5508V56.9106C59.4666 57.013 59.4332 57.1117 59.3792 57.1985C59.3251 57.2854 59.2518 57.3581 59.1653 57.4107V57.4107Z" stroke="white" stroke-miterlimit="10"/>
<path d="M59.2664 55.3979C59.2866 55.4351 59.2866 56.7989 59.2866 56.7989C59.2765 56.9008 59.2435 56.999 59.1902 57.0857C59.1369 57.1725 59.0648 57.2455 58.9794 57.299L57.407 58.2083C57.3665 58.2331 57.3423 58.2083 57.3059 58.2083C57.3342 58.3405 57.4433 58.3943 57.5969 58.3075L59.1694 57.3776C59.2559 57.325 59.3292 57.2523 59.3833 57.1654C59.4373 57.0786 59.4707 56.9799 59.4806 56.8775V55.5177C59.4806 55.4144 59.3836 55.3731 59.2664 55.3979Z" stroke="white" stroke-miterlimit="10"/>
<path d="M54.3713 60.2456L52.7989 61.1714C52.6291 61.2706 52.4917 61.2127 52.4917 61.035V59.6753C52.5012 59.5732 52.5339 59.4748 52.5873 59.3879C52.6406 59.3011 52.7131 59.2282 52.7989 59.1752L54.3713 58.2452C54.5411 58.1461 54.6826 58.2039 54.6826 58.3816V59.7414C54.6723 59.8443 54.6389 59.9434 54.5849 60.0309C54.5309 60.1184 54.4578 60.1918 54.3713 60.2456V60.2456Z" stroke="white" stroke-miterlimit="10"/>
<path d="M54.4722 58.2288C54.4722 58.2701 54.4722 59.6299 54.4722 59.6299C54.4627 59.7319 54.43 59.8303 54.3767 59.9172C54.3233 60.004 54.2508 60.0769 54.165 60.1299L52.5926 61.0599C52.5522 61.0599 52.5279 61.0599 52.4956 61.0599C52.5199 61.1921 52.633 61.2458 52.7826 61.1549L54.355 60.2291C54.4415 60.1754 54.5146 60.1019 54.5686 60.0144C54.6226 59.9269 54.656 59.8278 54.6663 59.7249V58.3652C54.6824 58.2453 54.5895 58.2081 54.4722 58.2288Z" stroke="white" stroke-miterlimit="10"/>
<path d="M49.5731 63.0767L48.0007 63.9942C47.8309 64.0975 47.6935 64.0355 47.6935 63.8619V62.4981C47.7036 62.3961 47.7366 62.298 47.7899 62.2113C47.8431 62.1245 47.9153 62.0515 48.0007 61.998L49.5731 61.0722C49.7469 60.9689 49.8843 61.0309 49.8843 61.2044V62.5683C49.8756 62.6722 49.8429 62.7725 49.7888 62.8609C49.7346 62.9493 49.6607 63.0233 49.5731 63.0767V63.0767Z" stroke="white" stroke-miterlimit="10"/>
<path d="M49.6742 61.0642C49.6742 61.1014 49.6742 62.4611 49.6742 62.4611C49.6642 62.5636 49.6309 62.6622 49.5768 62.7491C49.5227 62.8359 49.4495 62.9086 49.3629 62.9612L47.7905 63.8911C47.7541 63.9118 47.7258 63.8911 47.6935 63.8911C47.7177 64.0234 47.8309 64.0771 47.9805 63.9862L49.5529 63.0604C49.6395 63.0078 49.7127 62.9351 49.7668 62.8483C49.8209 62.7614 49.8542 62.6628 49.8641 62.5603V61.1964C49.8682 61.0766 49.7914 61.0394 49.6742 61.0642Z" stroke="white" stroke-miterlimit="10"/>
<path d="M44.7751 65.9078L43.2068 66.8335C43.0329 66.9369 42.8955 66.8749 42.8955 66.7013V65.3374C42.9054 65.2349 42.9388 65.1363 42.9929 65.0494C43.0469 64.9626 43.1202 64.8899 43.2068 64.8373L44.7751 63.9115C44.9489 63.8082 45.0864 63.8702 45.0864 64.0438V65.4077C45.0764 65.5101 45.0431 65.6088 44.989 65.6956C44.935 65.7825 44.8617 65.8552 44.7751 65.9078V65.9078Z" stroke="white" stroke-miterlimit="10"/>
<path d="M44.876 63.8951C44.876 63.9323 44.876 65.2962 44.876 65.2962C44.8652 65.3984 44.8315 65.4966 44.7775 65.5834C44.7235 65.6701 44.6507 65.7429 44.5648 65.7963L42.9964 66.722C42.96 66.7468 42.9318 66.722 42.8994 66.722C42.9237 66.8543 43.0368 66.908 43.1905 66.8171L44.7588 65.8913C44.8454 65.8387 44.9187 65.7661 44.9727 65.6792C45.0268 65.5923 45.0601 65.4937 45.0701 65.3912V64.0274C45.0862 63.9116 44.9933 63.8703 44.876 63.8951Z" stroke="white" stroke-miterlimit="10"/>
<path d="M78.4708 58.2083L76.8984 59.1341C76.7286 59.2374 76.5872 59.1754 76.5872 59.0018V57.6379C76.5974 57.5356 76.6309 57.4371 76.6849 57.3502C76.7389 57.2634 76.812 57.1907 76.8984 57.1379L78.4708 56.2121C78.6406 56.1088 78.7821 56.1707 78.7821 56.3443V57.7082C78.7712 57.8104 78.7375 57.9087 78.6835 57.9954C78.6295 58.0821 78.5568 58.155 78.4708 58.2083V58.2083Z" stroke="white" stroke-miterlimit="10"/>
<path d="M78.5678 56.1957C78.588 56.2329 78.588 57.5926 78.588 57.5926C78.5791 57.6949 78.5466 57.7935 78.4932 57.8805C78.4398 57.9674 78.367 58.0401 78.2808 58.0927L76.7084 59.035C76.6679 59.0557 76.6437 59.035 76.6073 59.035C76.6356 59.1673 76.7447 59.221 76.8983 59.1301L78.4707 58.2043C78.5567 58.151 78.6295 58.0781 78.6834 57.9914C78.7374 57.9047 78.7711 57.8064 78.782 57.7042V56.3403C78.782 56.2081 78.685 56.1709 78.5678 56.1957Z" stroke="white" stroke-miterlimit="10"/>
<path d="M73.6726 61.0393L72.1002 61.9651C71.9304 62.0684 71.793 62.0065 71.793 61.8329V60.469C71.8031 60.3671 71.8361 60.2689 71.8893 60.1822C71.9426 60.0955 72.0148 60.0225 72.1002 59.9689L73.6726 59.0431C73.8424 58.9398 73.9838 59.0018 73.9838 59.1754V60.5393C73.973 60.6415 73.9393 60.7397 73.8853 60.8264C73.8313 60.9132 73.7585 60.986 73.6726 61.0393Z" stroke="white" stroke-miterlimit="10"/>
<path d="M73.7698 59.0346C73.79 59.0718 73.79 60.4316 73.79 60.4316C73.7805 60.5342 73.7478 60.6332 73.6945 60.7207C73.6412 60.8082 73.5687 60.8818 73.4828 60.9358L71.9104 61.8616C71.8699 61.8864 71.8457 61.8616 71.8134 61.8616C71.8376 61.9938 71.9508 62.0476 72.1004 61.9566L73.6728 61.0308C73.7587 60.9775 73.8315 60.9047 73.8855 60.8179C73.9394 60.7312 73.9732 60.6329 73.984 60.5308V59.1669C73.984 59.0346 73.887 59.0016 73.7698 59.0346Z" stroke="white" stroke-miterlimit="10"/>
<path d="M68.8665 63.8702L67.3022 64.8208C67.1324 64.92 66.995 64.8621 66.995 64.6844V63.3247C67.0045 63.222 67.0372 63.1231 67.0905 63.0356C67.1438 62.9481 67.2163 62.8744 67.3022 62.8204L68.8746 61.8947C69.0484 61.7955 69.1859 61.8533 69.1859 62.0311V63.3908C69.1724 63.4905 69.1365 63.5856 69.0811 63.6687C69.0257 63.7519 68.9523 63.8209 68.8665 63.8702V63.8702Z" stroke="white" stroke-miterlimit="10"/>
<path d="M68.9757 61.8579C68.9757 61.8951 68.9757 63.2589 68.9757 63.2589C68.9648 63.3611 68.9311 63.4594 68.8771 63.5461C68.8231 63.6328 68.7504 63.7057 68.6644 63.759L67.092 64.6848C67.0556 64.7096 67.0273 64.6848 66.995 64.6848C67.0192 64.8171 67.1324 64.8708 67.282 64.784L68.8665 63.8706C68.9533 63.8183 69.0268 63.7457 69.0808 63.6588C69.1349 63.5718 69.1682 63.4731 69.1778 63.3705V62.0108C69.1859 61.8744 69.0929 61.8331 68.9757 61.8579Z" stroke="white" stroke-miterlimit="10"/>
<path d="M64.0764 66.7014L62.508 67.6313C62.3342 67.7305 62.1968 67.6727 62.1968 67.495V66.1352C62.2058 66.0325 62.2387 65.9334 62.2929 65.8464C62.347 65.7594 62.4208 65.6869 62.508 65.6351L64.0764 64.7052C64.2502 64.606 64.3876 64.6639 64.3876 64.8416V66.2013C64.3787 66.3041 64.3457 66.4031 64.2916 66.4901C64.2374 66.5771 64.1636 66.6496 64.0764 66.7014V66.7014Z" stroke="white" stroke-miterlimit="10"/>
<path d="M64.1774 64.6888C64.1774 64.7259 64.1774 66.0898 64.1774 66.0898C64.1672 66.1922 64.1337 66.2907 64.0797 66.3775C64.0257 66.4643 63.9526 66.5371 63.8662 66.5899L62.2938 67.5157C62.2574 67.5405 62.2291 67.5157 62.1968 67.5157C62.221 67.6521 62.3342 67.7058 62.4878 67.6149L64.0562 66.685C64.1434 66.6331 64.2172 66.5607 64.2713 66.4737C64.3255 66.3866 64.3585 66.2876 64.3674 66.1849V64.8251C64.3876 64.7053 64.2947 64.6681 64.1774 64.6888Z" stroke="white" stroke-miterlimit="10"/>
<path d="M59.2787 69.5366L57.7103 70.4624C57.5365 70.5657 57.399 70.5037 57.399 70.3301V68.9539C57.4087 68.8513 57.4419 68.7525 57.496 68.6656C57.5501 68.5787 57.6235 68.5061 57.7103 68.4538L59.2787 67.528C59.4525 67.4247 59.5899 67.4867 59.5899 67.6602V69.0241C59.5818 69.1287 59.5493 69.2299 59.4952 69.319C59.441 69.4082 59.3668 69.4828 59.2787 69.5366V69.5366Z" stroke="white" stroke-miterlimit="10"/>
<path d="M59.3797 67.5236C59.3999 67.5608 59.3999 68.9206 59.3999 68.9206C59.3899 69.023 59.3566 69.1217 59.3025 69.2085C59.2485 69.2954 59.1752 69.3681 59.0886 69.4207L57.5162 70.3506C57.4798 70.3712 57.4515 70.3506 57.4192 70.3506C57.4434 70.4828 57.5566 70.5366 57.7102 70.4456L59.2786 69.5199C59.3652 69.4673 59.4384 69.3946 59.4925 69.3077C59.5466 69.2209 59.5799 69.1222 59.5898 69.0198V67.6559C59.5898 67.536 59.4969 67.4988 59.3797 67.5236Z" stroke="white" stroke-miterlimit="10"/>
<path d="M54.4803 72.3677L52.912 73.2935C52.7381 73.3968 52.6007 73.3348 52.6007 73.1612V71.7974C52.6106 71.6949 52.644 71.5963 52.698 71.5094C52.7521 71.4225 52.8254 71.3499 52.912 71.2973L54.4803 70.3715C54.6541 70.2682 54.7916 70.3302 54.7916 70.5038V71.8676C54.7816 71.9701 54.7483 72.0687 54.6942 72.1556C54.6402 72.2425 54.5669 72.3151 54.4803 72.3677Z" stroke="white" stroke-miterlimit="10"/>
<path d="M54.5814 70.3549C54.5814 70.3921 54.5814 71.7519 54.5814 71.7519C54.5721 71.8551 54.539 71.9545 54.4849 72.0422C54.4308 72.1298 54.3572 72.2031 54.2701 72.2561L52.7018 73.1819C52.6613 73.2025 52.633 73.1819 52.6007 73.1819C52.629 73.3141 52.7381 73.3679 52.8917 73.2769L54.4642 72.3512C54.5496 72.2976 54.6217 72.2246 54.675 72.1379C54.7283 72.0511 54.7613 71.953 54.7714 71.8511V70.4872C54.7916 70.3673 54.7188 70.3301 54.5814 70.3549Z" stroke="white" stroke-miterlimit="10"/>
<path d="M23.2141 58.5844V57.2206C23.2141 57.047 23.3515 56.985 23.5254 57.0883L25.0937 58.0141C25.1803 58.0667 25.2536 58.1393 25.3076 58.2262C25.3617 58.3131 25.395 58.4117 25.405 58.5142V59.8615C25.405 60.0351 25.2675 60.0971 25.0937 59.9938L23.5254 59.068C23.4408 59.017 23.3688 58.947 23.3149 58.8631C23.2609 58.7793 23.2264 58.684 23.2141 58.5844V58.5844Z" stroke="white" stroke-miterlimit="10"/>
<path d="M23.4242 57.0717C23.4242 57.1089 23.4242 58.4687 23.4242 58.4687C23.4335 58.5719 23.4666 58.6713 23.5207 58.7589C23.5748 58.8466 23.6484 58.9199 23.7354 58.9729L25.3038 59.8987C25.3442 59.8987 25.3725 59.8987 25.4049 59.8987C25.3806 60.0309 25.2674 60.0847 25.1138 59.9937L23.5455 59.0679C23.4589 59.0154 23.3856 58.9427 23.3316 58.8558C23.2775 58.769 23.2442 58.6703 23.2342 58.5679V57.204C23.214 57.0841 23.307 57.0469 23.4242 57.0717Z" stroke="white" stroke-miterlimit="10"/>
<path d="M27.5475 61.1429V59.779C27.5475 59.6054 27.689 59.5476 27.8587 59.6468L29.4311 60.5725C29.5171 60.6265 29.5895 60.7002 29.6428 60.7877C29.6961 60.8752 29.7288 60.9741 29.7384 61.0768V62.4365C29.7384 62.6101 29.6009 62.6721 29.4311 62.5688L27.8587 61.643C27.7724 61.5901 27.6993 61.5174 27.6452 61.4306C27.5912 61.3438 27.5577 61.2453 27.5475 61.1429V61.1429Z" stroke="white" stroke-miterlimit="10"/>
<path d="M27.7616 59.6298C27.7414 59.667 27.7414 61.0309 27.7414 61.0309C27.753 61.1292 27.7858 61.2236 27.8376 61.3072C27.8893 61.3909 27.9586 61.4617 28.0405 61.5145L29.6129 62.4402C29.6534 62.465 29.6776 62.4402 29.714 62.4402C29.6857 62.5725 29.5725 62.6262 29.423 62.5353L27.8506 61.6095C27.7642 61.5567 27.6911 61.4839 27.6371 61.3971C27.583 61.3103 27.5496 61.2118 27.5393 61.1094V59.7456C27.5474 59.6464 27.6363 59.605 27.7616 59.6298Z" stroke="white" stroke-miterlimit="10"/>
<path d="M31.8846 63.7008V62.3411C31.8846 62.1634 32.0221 62.1055 32.1959 62.2047L33.7643 63.1346C33.8515 63.1865 33.9253 63.2589 33.9794 63.3459C34.0336 63.433 34.0665 63.532 34.0755 63.6347V64.9945C34.0755 65.1722 33.9381 65.23 33.7643 65.1309L32.1959 64.2009C32.1087 64.1491 32.0349 64.0767 31.9807 63.9896C31.9266 63.9026 31.8936 63.8036 31.8846 63.7008V63.7008Z" stroke="white" stroke-miterlimit="10"/>
<path d="M32.0827 62.1882C32.0827 62.2254 32.0827 63.5893 32.0827 63.5893C32.0929 63.6916 32.1264 63.7901 32.1804 63.8769C32.2345 63.9638 32.3076 64.0365 32.3939 64.0893L33.9663 65.0151C34.0027 65.0399 34.031 65.0151 34.0634 65.0151C34.0391 65.1515 33.9259 65.2052 33.7723 65.1143L32.204 64.1844C32.1167 64.1326 32.0429 64.0601 31.9888 63.9731C31.9346 63.8861 31.9017 63.787 31.8927 63.6843V62.3411C31.8846 62.2047 31.9776 62.1675 32.0827 62.1882Z" stroke="white" stroke-miterlimit="10"/>
<path d="M36.2179 66.2593V64.8995C36.2179 64.726 36.3594 64.664 36.5291 64.7632L38.1016 65.6931C38.1879 65.7459 38.261 65.8186 38.3151 65.9055C38.3691 65.9923 38.4026 66.0908 38.4128 66.1932V67.557C38.4128 67.7306 38.2713 67.7885 38.1016 67.6893L36.5291 66.7635C36.4427 66.7098 36.3696 66.6363 36.3156 66.5488C36.2616 66.4613 36.2282 66.3622 36.2179 66.2593V66.2593Z" stroke="white" stroke-miterlimit="10"/>
<path d="M36.4321 64.7506C36.4119 64.7878 36.4119 66.1475 36.4119 66.1475C36.4209 66.2502 36.4538 66.3493 36.508 66.4363C36.5622 66.5233 36.6359 66.5958 36.7232 66.6476L38.2915 67.5775C38.332 67.5982 38.3562 67.5775 38.3926 67.5775C38.3643 67.7098 38.2552 67.7635 38.1016 67.6726L36.5291 66.7633C36.4427 66.7096 36.3696 66.6361 36.3156 66.5486C36.2616 66.4611 36.2282 66.362 36.2179 66.2591V64.8994C36.2179 64.763 36.3149 64.7258 36.4321 64.7506Z" stroke="white" stroke-miterlimit="10"/>
<path d="M70.6533 39.5768L69.0809 40.5026C68.9111 40.6059 68.7697 40.5439 68.7697 40.3703V39.0106C68.7799 38.9077 68.8134 38.8086 68.8674 38.7211C68.9214 38.6336 68.9945 38.5601 69.0809 38.5064L70.6533 37.5806C70.8231 37.4814 70.9605 37.5393 70.9605 37.7129V39.0767C70.951 39.1788 70.9183 39.2772 70.865 39.364C70.8116 39.4509 70.7391 39.5237 70.6533 39.5768Z" stroke="white" stroke-miterlimit="10"/>
<path d="M70.7503 37.564C70.7705 37.6012 70.7705 38.9651 70.7705 38.9651C70.7605 39.0675 70.7272 39.1662 70.6731 39.253C70.6191 39.3399 70.5458 39.4126 70.4592 39.4652L68.8908 40.391C68.8504 40.4157 68.8262 40.391 68.7898 40.391C68.8181 40.5232 68.9272 40.5769 69.0808 40.486L70.6532 39.5602C70.7391 39.5072 70.8115 39.4343 70.8649 39.3475C70.9182 39.2606 70.951 39.1622 70.9604 39.0601V37.6963C70.9604 37.5805 70.8877 37.5434 70.7503 37.564Z" stroke="white" stroke-miterlimit="10"/>
<path d="M65.8552 42.408L64.2828 43.3296C64.113 43.4288 63.9716 43.3709 63.9716 43.1932V41.8418C63.9815 41.7393 64.0148 41.6407 64.0689 41.5538C64.123 41.4669 64.1962 41.3943 64.2828 41.3417L65.8552 40.4118C66.025 40.3126 66.1665 40.3704 66.1665 40.5481V41.9079C66.1565 42.0103 66.1232 42.109 66.0691 42.1958C66.0151 42.2827 65.9418 42.3554 65.8552 42.408Z" stroke="white" stroke-miterlimit="10"/>
<path d="M65.9522 40.395C65.9724 40.4322 65.9724 41.796 65.9724 41.796C65.9627 41.8986 65.9295 41.9974 65.8754 42.0843C65.8213 42.1712 65.7479 42.2438 65.6611 42.2961L64.0928 43.2219C64.0523 43.2467 64.0281 43.2219 63.9917 43.2219C64.02 43.3583 64.1291 43.412 64.2827 43.3211L65.8551 42.3912C65.9417 42.3386 66.015 42.2659 66.069 42.1791C66.1231 42.0922 66.1565 41.9936 66.1664 41.8911V40.5479C66.1664 40.4115 66.0694 40.3702 65.9522 40.395Z" stroke="white" stroke-miterlimit="10"/>
<path d="M61.0571 45.2432L59.4847 46.169C59.3149 46.2682 59.1775 46.2103 59.1775 46.0367V44.6729C59.187 44.5708 59.2197 44.4724 59.2731 44.3855C59.3264 44.2987 59.3989 44.2258 59.4847 44.1728L61.0571 43.247C61.2269 43.1437 61.3684 43.2057 61.3684 43.3792V44.7431C61.3575 44.8453 61.3238 44.9436 61.2698 45.0303C61.2158 45.117 61.143 45.1899 61.0571 45.2432V45.2432Z" stroke="white" stroke-miterlimit="10"/>
<path d="M61.1542 43.2304C61.1744 43.2676 61.1744 44.6274 61.1744 44.6274C61.1655 44.7296 61.1331 44.8283 61.0797 44.9152C61.0263 45.0021 60.9534 45.0749 60.8672 45.1274L59.2948 46.0574C59.2544 46.078 59.2301 46.0574 59.1937 46.0574C59.222 46.1896 59.3352 46.2433 59.4848 46.1524L61.0572 45.2266C61.1436 45.1729 61.2167 45.0994 61.2707 45.0119C61.3247 44.9244 61.3582 44.8253 61.3684 44.7224V43.3627C61.3684 43.2428 61.2714 43.2056 61.1542 43.2304Z" stroke="white" stroke-miterlimit="10"/>
<path d="M56.259 48.0743L54.6866 49C54.5168 49.1034 54.3794 49.0414 54.3794 48.8678V47.5039C54.3895 47.402 54.4225 47.3039 54.4758 47.2171C54.5291 47.1304 54.6012 47.0574 54.6866 47.0038L56.259 46.078C56.4288 45.9747 56.5703 46.0367 56.5703 46.2103V47.5742C56.5594 47.6764 56.5257 47.7746 56.4717 47.8613C56.4177 47.9481 56.345 48.0209 56.259 48.0743V48.0743Z" stroke="white" stroke-miterlimit="10"/>
<path d="M56.3599 46.0615C56.3599 46.0987 56.3599 47.4585 56.3599 47.4585C56.3504 47.5611 56.3177 47.6601 56.2644 47.7476C56.2111 47.8351 56.1386 47.9087 56.0527 47.9627L54.4803 48.8885C54.4399 48.8885 54.4156 48.8885 54.3833 48.8885C54.4076 49.0207 54.5207 49.0744 54.6703 48.9835L56.2427 48.0577C56.3287 48.0044 56.4014 47.9316 56.4554 47.8448C56.5094 47.7581 56.5431 47.6598 56.554 47.5577V46.2227C56.5701 46.0739 56.4772 46.0367 56.3599 46.0615Z" stroke="white" stroke-miterlimit="10"/>
<path d="M51.461 50.9054L49.8927 51.8312C49.7189 51.9345 49.5814 51.8725 49.5814 51.6989V50.3557C49.5907 50.2525 49.6238 50.1531 49.6779 50.0654C49.732 49.9778 49.8056 49.9045 49.8927 49.8515L51.461 48.9257C51.6349 48.8224 51.7723 48.8844 51.7723 49.058V50.4218C51.7603 50.5215 51.7259 50.6169 51.6719 50.7008C51.6179 50.7847 51.5458 50.8547 51.461 50.9054V50.9054Z" stroke="white" stroke-miterlimit="10"/>
<path d="M51.5621 48.8927C51.5621 48.9299 51.5621 50.2937 51.5621 50.2937C51.5512 50.3959 51.5175 50.4942 51.4635 50.5809C51.4096 50.6676 51.3368 50.7405 51.2508 50.7938L49.6784 51.7196C49.6421 51.7444 49.6138 51.7196 49.5814 51.7196C49.6057 51.8519 49.7189 51.9056 49.8725 51.8147L51.4408 50.8889C51.5276 50.8365 51.6011 50.7639 51.6551 50.677C51.7092 50.5901 51.7425 50.4913 51.7521 50.3888V49.0249C51.7723 48.9092 51.6793 48.8679 51.5621 48.8927Z" stroke="white" stroke-miterlimit="10"/>
<path d="M46.6628 53.7363L45.0945 54.6662C44.9206 54.7654 44.7832 54.7076 44.7832 54.5299V53.1701C44.7922 53.0674 44.8251 52.9684 44.8793 52.8813C44.9334 52.7943 45.0072 52.7219 45.0945 52.67L46.6628 51.7401C46.8366 51.6409 46.9741 51.6988 46.9741 51.8765V53.2486C46.9632 53.3492 46.9294 53.4457 46.8754 53.5305C46.8213 53.6152 46.7485 53.6857 46.6628 53.7363V53.7363Z" stroke="white" stroke-miterlimit="10"/>
<path d="M46.7639 51.7237C46.7841 51.7609 46.7841 53.1248 46.7841 53.1248C46.7739 53.2271 46.7404 53.3256 46.6864 53.4125C46.6324 53.4993 46.5592 53.572 46.4729 53.6249L44.9005 54.5506C44.8641 54.5754 44.8358 54.5506 44.8035 54.5506C44.8277 54.687 44.9409 54.7366 45.0945 54.6498L46.6629 53.7199C46.7501 53.6681 46.8239 53.5956 46.878 53.5086C46.9322 53.4216 46.9651 53.3226 46.9741 53.2198V51.8601C46.9741 51.7402 46.8811 51.6989 46.7639 51.7237Z" stroke="white" stroke-miterlimit="10"/>
<path d="M30.6638 48.4834V47.1195C30.6638 46.9459 30.8013 46.8839 30.9751 46.9872L32.5434 47.913C32.63 47.9656 32.7033 48.0383 32.7573 48.1251C32.8114 48.212 32.8448 48.3106 32.8547 48.4131V49.777C32.8547 49.9505 32.7173 50.0125 32.5434 49.9092L30.9751 48.9834C30.8885 48.9308 30.8152 48.8582 30.7612 48.7713C30.7071 48.6844 30.6738 48.5858 30.6638 48.4834V48.4834Z" stroke="white" stroke-miterlimit="10"/>
<path d="M30.8699 46.9707C30.8496 47.0079 30.8496 48.3676 30.8496 48.3676C30.8599 48.4705 30.8933 48.5696 30.9473 48.6571C31.0013 48.7446 31.0744 48.8181 31.1609 48.8718L32.7333 49.7976C32.7697 49.7976 32.798 49.7976 32.8303 49.7976C32.8061 49.9299 32.6929 49.9836 32.5393 49.8927L30.9709 48.9669C30.8843 48.9143 30.8111 48.8416 30.757 48.7548C30.7029 48.6679 30.6696 48.5692 30.6597 48.4668V47.1029C30.6637 46.9831 30.7567 46.9459 30.8699 46.9707Z" stroke="white" stroke-miterlimit="10"/>
<path d="M35.0011 51.0416V49.6777C35.0011 49.5041 35.1385 49.4463 35.3083 49.5454L36.8807 50.4712C36.9672 50.525 37.0403 50.5985 37.0943 50.686C37.1483 50.7734 37.1817 50.8725 37.192 50.9754V52.3352C37.192 52.5088 37.0505 52.5708 36.8807 52.4674L35.3164 51.5417C35.2291 51.4895 35.155 51.4171 35.1002 51.3302C35.0454 51.2433 35.0115 51.1444 35.0011 51.0416Z" stroke="white" stroke-miterlimit="10"/>
<path d="M35.2114 49.5289C35.2114 49.5661 35.2114 50.93 35.2114 50.93C35.2213 51.0324 35.2547 51.1311 35.3087 51.2179C35.3628 51.3048 35.4361 51.3774 35.5226 51.43L37.091 52.3558C37.1314 52.3806 37.1557 52.3558 37.1921 52.3558C37.1638 52.4881 37.0546 52.5418 36.901 52.4509L35.3165 51.5416C35.2307 51.4886 35.1582 51.4157 35.1048 51.3289C35.0515 51.242 35.0188 51.1436 35.0093 51.0415V49.6777C35.0012 49.5289 35.0942 49.5041 35.2114 49.5289Z" stroke="white" stroke-miterlimit="10"/>
<path d="M39.3342 53.6V52.2403C39.3342 52.0626 39.4717 52.0047 39.6455 52.1039L41.2179 53.0338C41.3041 53.0864 41.377 53.1591 41.4304 53.246C41.4838 53.333 41.5162 53.4316 41.5251 53.5339V54.9019C41.5251 55.0796 41.3877 55.1375 41.2179 55.0383L39.6455 54.1084C39.5572 54.0558 39.4827 53.982 39.4285 53.8935C39.3743 53.8049 39.3419 53.7042 39.3342 53.6V53.6Z" stroke="white" stroke-miterlimit="10"/>
<path d="M39.5444 52.0875C39.5444 52.1247 39.5444 53.4886 39.5444 53.4886C39.5547 53.591 39.5881 53.6895 39.6422 53.7763C39.6962 53.8631 39.7693 53.9358 39.8557 53.9887L41.4079 54.9021C41.4442 54.9269 41.4725 54.9021 41.5049 54.9021C41.4806 55.0343 41.3674 55.0922 41.2179 55.0013L39.6455 54.0714C39.5583 54.0195 39.4845 53.9471 39.4303 53.86C39.3762 53.773 39.3432 53.674 39.3342 53.5713V52.2115C39.3342 52.1041 39.4272 52.0627 39.5444 52.0875Z" stroke="white" stroke-miterlimit="10"/>
<path d="M23.2141 65.4326V64.0687C23.2141 63.8951 23.3515 63.8331 23.5254 63.9364L25.0937 64.8622C25.1803 64.9148 25.2536 64.9875 25.3076 65.0743C25.3617 65.1612 25.395 65.2598 25.405 65.3623V66.7262C25.405 66.8998 25.2675 66.9618 25.0937 66.8584L23.5254 65.9327C23.4388 65.8801 23.3655 65.8074 23.3115 65.7205C23.2574 65.6337 23.224 65.535 23.2141 65.4326V65.4326Z" stroke="white" stroke-miterlimit="10"/>
<path d="M23.4242 63.9199C23.4242 63.9571 23.4242 65.3209 23.4242 65.3209C23.4341 65.4234 23.4675 65.522 23.5215 65.6089C23.5756 65.6958 23.6489 65.7684 23.7354 65.821L25.3038 66.7468C25.3442 66.7716 25.3725 66.7468 25.4049 66.7468C25.3806 66.8791 25.2674 66.9328 25.1138 66.8419L23.5455 65.9161C23.4589 65.8635 23.3856 65.7908 23.3316 65.704C23.2775 65.6171 23.2442 65.5185 23.2342 65.416V64.0521C23.214 63.9323 23.307 63.8951 23.4242 63.9199Z" stroke="white" stroke-miterlimit="10"/>
<path d="M27.5475 67.9909V66.6311C27.5475 66.4534 27.689 66.3956 27.8587 66.4948L29.4311 67.4205C29.5171 67.4745 29.5895 67.5482 29.6428 67.6357C29.6961 67.7232 29.7288 67.8221 29.7384 67.9248V69.2845C29.7384 69.4622 29.6009 69.5201 29.4311 69.4209L27.8587 68.491C27.7724 68.4381 27.6993 68.3654 27.6452 68.2786C27.5912 68.1918 27.5577 68.0933 27.5475 67.9909V67.9909Z" stroke="white" stroke-miterlimit="10"/>
<path d="M27.7617 66.4741C27.7415 66.5113 27.7415 67.8752 27.7415 67.8752C27.7516 67.9771 27.7846 68.0752 27.8379 68.162C27.8912 68.2487 27.9633 68.3217 28.0487 68.3753L29.6211 69.3011C29.6615 69.3259 29.6858 69.3011 29.7222 69.3011C29.6939 69.4333 29.5807 69.487 29.4311 69.4002L27.8587 68.4703C27.7724 68.4175 27.6993 68.3448 27.6452 68.2579C27.5912 68.1711 27.5577 68.0726 27.5475 67.9702V66.6105C27.5475 66.4948 27.6364 66.4741 27.7617 66.4741Z" stroke="white" stroke-miterlimit="10"/>
<path d="M31.8846 70.5492V69.1895C31.8846 69.0118 32.0221 68.9539 32.1959 69.0531L33.7643 69.983C33.8515 70.0348 33.9253 70.1073 33.9794 70.1943C34.0336 70.2813 34.0665 70.3804 34.0755 70.4831V71.847C34.0755 72.0247 33.9381 72.0826 33.7643 71.9834L32.1959 71.0535C32.1081 71.0012 32.034 70.9281 31.9798 70.8403C31.9256 70.7526 31.893 70.6527 31.8846 70.5492V70.5492Z" stroke="white" stroke-miterlimit="10"/>
<path d="M32.0827 69.0366C32.0827 69.0738 32.0827 70.4377 32.0827 70.4377C32.0929 70.5401 32.1264 70.6386 32.1804 70.7254C32.2345 70.8122 32.3076 70.8849 32.3939 70.9378L33.9663 71.8677C34.0027 71.8677 34.031 71.8677 34.0634 71.8677C34.0391 72.0041 33.9259 72.0578 33.7723 71.9669L32.204 71.037C32.1167 70.9852 32.0429 70.9127 31.9888 70.8257C31.9346 70.7387 31.9017 70.6396 31.8927 70.5369V69.1771C31.8846 69.0532 31.9776 69.016 32.0827 69.0366Z" stroke="white" stroke-miterlimit="10"/>
<path d="M36.2179 73.1118V71.7479C36.2179 71.5743 36.3594 71.5123 36.5291 71.6156L38.1016 72.5414C38.1879 72.5943 38.261 72.667 38.3151 72.7538C38.3691 72.8406 38.4026 72.9391 38.4128 73.0415V74.4054C38.4128 74.579 38.2713 74.641 38.1016 74.5376L36.5291 73.6119C36.4432 73.5585 36.3704 73.4857 36.3164 73.3989C36.2625 73.3122 36.2287 73.214 36.2179 73.1118V73.1118Z" stroke="white" stroke-miterlimit="10"/>
<path d="M36.4321 71.5987C36.4119 71.6359 36.4119 72.9957 36.4119 72.9957C36.4209 73.0984 36.4538 73.1974 36.508 73.2844C36.5622 73.3715 36.6359 73.4439 36.7232 73.4957L38.2915 74.4257C38.332 74.4257 38.3562 74.4257 38.3926 74.4257C38.3643 74.5579 38.2552 74.6116 38.1016 74.5207L36.5291 73.6115C36.4432 73.5581 36.3704 73.4853 36.3164 73.3986C36.2625 73.3118 36.2287 73.2136 36.2179 73.1114V71.7475C36.2179 71.6111 36.3149 71.5739 36.4321 71.5987Z" stroke="white" stroke-miterlimit="10"/>
</g>
<defs>
<filter id="filter0_d_1894_721" x="0.0185547" y="0.418701" width="279.481" height="229.081" filterUnits="userSpaceOnUse" color-interpolation-filters="sRGB">
<feFlood flood-opacity="0" result="BackgroundImageFix"/>
<feColorMatrix in="SourceAlpha" type="matrix" values="0 0 0 0 0 0 0 0 0 0 0 0 0 0 0 0 0 0 127 0" result="hardAlpha"/>
<feOffset dy="4"/>
<feGaussianBlur stdDeviation="2"/>
<feComposite in2="hardAlpha" operator="out"/>
<feColorMatrix type="matrix" values="0 0 0 0 0 0 0 0 0 0 0 0 0 0 0 0 0 0 0.25 0"/>
<feBlend mode="normal" in2="BackgroundImageFix" result="effect1_dropShadow_1894_721"/>
<feBlend mode="normal" in="SourceGraphic" in2="effect1_dropShadow_1894_721" result="shape"/>
</filter>
</defs>
</svg>
