<svg width="272" height="222" viewBox="0 0 272 222" fill="none" xmlns="http://www.w3.org/2000/svg">
<path d="M266.127 206.114C262.36 208.457 258.374 211.04 254.247 213.388C245.758 218.219 236.668 222.067 227.69 220.732C213.348 218.633 192.389 211.966 169.482 198.456C145.634 184.404 18.9918 110.837 12.7223 105.915C9.24606 103.166 4.27821 95.7849 2.09543 88.3787C1.40644 86.1512 1.03745 83.8332 1 81.4973C13.1953 83.6299 266.127 206.114 266.127 206.114Z" stroke="#B99522" stroke-miterlimit="10"/>
<path d="M266.123 206.114C266.123 206.114 13.1953 83.6299 1 81.4973C1.03745 83.8332 1.40644 86.1512 2.09543 88.3787C2.09543 88.3787 130.859 165.173 166.208 186.292C216.659 216.442 245.754 218.219 254.247 213.388C258.374 211.04 262.36 208.457 266.123 206.114Z" stroke="#B99522" stroke-miterlimit="10"/>
<path d="M244.073 177.237C248.217 175.832 252.365 174.432 256.515 173.038C249.348 166.256 238.891 158.436 223.878 149.575L54.8096 49.7605L1.40424 81.4974L170.461 181.3C178.88 186.259 186.718 190.368 194.023 193.777C211.036 189.483 227.459 182.858 244.073 177.237Z" stroke="#B99522" stroke-miterlimit="10"/>
<path d="M54.8135 47.1897L54.8055 49.996L1.79218 81.4973L1.80026 78.691L54.8135 47.1897Z" stroke="#B99522" stroke-miterlimit="10"/>
<path d="M268.75 186.697C263.876 175.171 248.277 161.395 223.68 146.872L54.8137 47.1897V49.996L223.672 149.679C248.273 164.198 263.867 177.977 268.742 189.5C269.808 191.845 270.383 194.391 270.432 196.976V194.17C270.386 191.586 269.814 189.041 268.75 186.697V186.697Z" stroke="#B99522" stroke-miterlimit="10"/>
<path d="M269.91 190.231C270.032 189.938 270.149 189.64 270.274 189.351C270.009 188.42 269.686 187.508 269.308 186.619C264.332 174.865 249.097 161.408 224.08 146.637L54.8136 46.7144L40.7913 55.0464C40.8564 55.1687 40.9053 55.2994 40.9368 55.4349L54.8136 47.1896L223.68 146.872C248.277 161.395 263.875 175.171 268.75 186.697C269.236 187.839 269.624 189.021 269.91 190.231V190.231Z" stroke="#B99522" stroke-miterlimit="10"/>
<path d="M102.823 61.8989L90.5547 70.3591L114.537 84.3078L102.823 61.8989Z" stroke="#B99522" stroke-miterlimit="10"/>
<path d="M49.8054 93.8548L51.394 108.684L102.823 78.3274V62.3535L49.8054 93.8548Z" stroke="#B99522" stroke-miterlimit="10"/>
<path d="M113.045 81.5467L113.429 81.3194L103.203 62.126L102.823 62.3533L113.045 81.5467Z" stroke="#B99522" stroke-miterlimit="10"/>
<path d="M168.436 117.925L168.431 119.19L157.558 112.771L157.562 111.507L168.436 117.925Z" stroke="#B99522" stroke-miterlimit="10"/>
<path d="M169.385 117.343L169.381 118.607L168.431 119.19L168.436 117.925L169.385 117.343Z" stroke="#B99522" stroke-miterlimit="10"/>
<path d="M158.537 110.932L157.562 111.507L168.436 117.925L169.406 117.347L158.537 110.932Z" stroke="#B99522" stroke-miterlimit="10"/>
<path d="M165.222 116.045L162.481 114.867L160.339 113.164V73.3264L165.222 76.2112V116.045Z" stroke="#B99522" stroke-miterlimit="10"/>
<path d="M166.212 115.462L165.222 116.045V76.2114L166.212 75.6287V115.462Z" stroke="#B99522" stroke-miterlimit="10"/>
<path d="M165.222 76.2114L160.339 73.3266L161.325 72.7439L166.212 75.6287L165.222 76.2114Z" stroke="#B99522" stroke-miterlimit="10"/>
<path d="M117.003 148.29L116.995 149.55L106.125 143.136L106.129 141.871L117.003 148.29Z" stroke="#B99522" stroke-miterlimit="10"/>
<path d="M118.009 147.674L118.005 148.935L116.995 149.551L117.003 148.29L118.009 147.674Z" stroke="#B99522" stroke-miterlimit="10"/>
<path d="M107.156 141.26L106.13 141.871L117.003 148.29L118.03 147.678L107.156 141.26Z" stroke="#B99522" stroke-miterlimit="10"/>
<path d="M113.797 146.401L108.914 143.52V104.158L113.797 107.039V146.401Z" stroke="#B99522" stroke-miterlimit="10"/>
<path d="M114.787 145.818L113.797 146.401V107.039L114.787 106.456V145.818Z" stroke="#B99522" stroke-miterlimit="10"/>
<path d="M113.797 107.039L108.914 104.158L109.905 103.572L114.788 106.456L113.797 107.039Z" stroke="#B99522" stroke-miterlimit="10"/>
<path d="M166.216 75.8226L166.212 77.4138L158.027 72.5824L158.031 70.9912L166.216 75.8226Z" stroke="#B99522" stroke-miterlimit="10"/>
<path d="M158.031 70.9912L158.027 72.5824L139.983 83.3033L139.987 81.7121L158.031 70.9912Z" stroke="#B99522" stroke-miterlimit="10"/>
<path d="M133.903 94.9747L133.899 96.5659L125.714 91.7303L125.718 90.1392L133.903 94.9747Z" stroke="#B99522" stroke-miterlimit="10"/>
<path d="M125.718 90.1392L125.714 91.7303L107.56 102.521L107.564 100.926L125.718 90.1392Z" stroke="#B99522" stroke-miterlimit="10"/>
<path d="M115.742 107.357L115.734 108.948L104.864 102.53L104.868 100.938L115.742 107.357Z" stroke="#B99522" stroke-miterlimit="10"/>
<path d="M168.892 75.8225L168.888 77.4137L115.734 108.948L115.742 107.357L168.892 75.8225Z" stroke="#B99522" stroke-miterlimit="10"/>
<path d="M158.024 69.4043L168.893 75.8228L115.738 107.357L104.885 100.939L158.024 69.4043ZM115.75 105.774L133.904 94.9914L125.718 90.16L107.565 100.947L115.75 105.783V105.774ZM148.173 86.556L166.217 75.8352L158.032 71.0038L139.987 81.7246L148.173 86.556Z" stroke="#B99522" stroke-miterlimit="10"/>
<path d="M238.038 204.928C218.575 202.072 195.263 192.88 170.667 178.357L1.80844 78.6911L37.3029 57.613H36.4944L1 78.6911L170.267 178.613C195.292 193.385 218.065 202.357 237.913 205.275C253.633 207.573 262.897 205.304 266.079 203.535L265.792 203.242C262.792 204.969 253.677 207.242 238.038 204.928Z" stroke="#B99522" stroke-miterlimit="10"/>
<path d="M270.614 180.63C270.621 180.583 270.63 180.536 270.642 180.49C270.342 179.006 269.891 177.559 269.296 176.171C266.414 169.368 260.084 161.995 250.427 154.13L200.458 183.635C213.837 189.372 226.372 193.141 237.913 194.827C253.932 197.17 263.285 194.765 266.289 192.984C268.48 191.569 270.034 189.325 270.614 186.743V180.63Z" stroke="#B99522" stroke-miterlimit="10"/>
<path d="M250.973 190.64H248.382C248.091 190.64 248.143 190.401 248.499 190.103C248.831 189.815 249.236 189.629 249.667 189.566H251.24C251.547 189.566 251.264 190.64 250.973 190.64Z" stroke="#B99522" stroke-miterlimit="10"/>
<path d="M263.884 183.023H261.317C261.026 183.023 261.078 182.784 261.434 182.486C261.767 182.199 262.171 182.012 262.602 181.949H264.175C264.458 181.932 264.175 183.023 263.884 183.023Z" stroke="#B99522" stroke-miterlimit="10"/>
<path d="M249.999 154.402C259.651 162.255 265.986 169.641 268.864 176.443C269.686 178.315 270.223 180.304 270.456 182.341V180.957C270.407 178.373 269.831 175.828 268.767 173.484C265.965 166.872 259.599 159.482 250.031 151.654L247.202 156.068L249.999 154.402Z" stroke="#B99522" stroke-miterlimit="10"/>
<path d="M251.685 189.189V190.276C251.69 190.309 251.69 190.343 251.685 190.376C251.589 190.495 251.462 190.584 251.32 190.634C251.177 190.684 251.023 190.692 250.876 190.657C250.771 190.639 250.67 190.604 250.577 190.553C250.524 190.528 250.478 190.488 250.444 190.439C250.409 190.39 250.389 190.332 250.383 190.272V189.185C250.389 189.245 250.409 189.303 250.444 189.352C250.478 189.401 250.524 189.441 250.577 189.466C250.67 189.518 250.771 189.551 250.876 189.566C251.023 189.601 251.176 189.594 251.319 189.545C251.462 189.496 251.588 189.407 251.685 189.289C251.69 189.256 251.69 189.222 251.685 189.189Z" stroke="#B99522" stroke-miterlimit="10"/>
<path d="M251.486 188.908C251.648 189.004 251.725 189.148 251.664 189.289C251.568 189.407 251.441 189.496 251.299 189.545C251.156 189.594 251.002 189.601 250.856 189.566C250.751 189.551 250.65 189.518 250.557 189.466C250.395 189.367 250.322 189.227 250.387 189.082C250.483 188.963 250.61 188.875 250.752 188.826C250.895 188.777 251.049 188.77 251.195 188.805C251.297 188.823 251.395 188.858 251.486 188.908V188.908Z" stroke="#B99522" stroke-miterlimit="10"/>
<path d="M252.02 188.809V189.223C252.021 189.275 252.01 189.328 251.987 189.376C251.842 189.694 251.296 189.884 250.775 189.789C250.615 189.769 250.462 189.717 250.322 189.636C250.241 189.6 250.171 189.543 250.119 189.47C250.066 189.398 250.033 189.312 250.023 189.223V188.809C250.033 188.898 250.066 188.983 250.118 189.055C250.169 189.128 250.238 189.185 250.318 189.223C250.457 189.304 250.611 189.356 250.771 189.376C251.308 189.462 251.854 189.276 251.983 188.962C252.006 188.915 252.019 188.862 252.02 188.809V188.809Z" stroke="#B99522" stroke-miterlimit="10"/>
<path d="M251.725 188.396C251.972 188.541 252.085 188.76 251.988 188.975C251.842 189.293 251.297 189.479 250.775 189.388C250.616 189.368 250.462 189.316 250.323 189.235C250.076 189.091 249.963 188.872 250.06 188.661C250.201 188.343 250.751 188.157 251.273 188.247C251.431 188.269 251.584 188.32 251.725 188.396V188.396Z" stroke="#B99522" stroke-miterlimit="10"/>
<path d="M251.684 188.012V188.731C251.69 188.764 251.69 188.797 251.684 188.83C251.589 188.949 251.462 189.039 251.319 189.089C251.176 189.138 251.023 189.146 250.876 189.111C250.771 189.096 250.669 189.061 250.577 189.008C250.524 188.983 250.478 188.944 250.444 188.895C250.41 188.847 250.389 188.79 250.383 188.731V188.008C250.388 188.067 250.409 188.124 250.443 188.173C250.477 188.222 250.523 188.26 250.577 188.284C250.756 188.383 250.962 188.42 251.163 188.388C251.364 188.357 251.55 188.26 251.692 188.111C251.698 188.078 251.698 188.045 251.692 188.012H251.684Z" stroke="#B99522" stroke-miterlimit="10"/>
<path d="M251.486 187.731C251.648 187.826 251.725 187.97 251.664 188.111C251.522 188.26 251.336 188.357 251.135 188.389C250.933 188.42 250.728 188.383 250.548 188.285C250.387 188.189 250.314 188.049 250.379 187.904C250.472 187.782 250.599 187.691 250.742 187.642C250.886 187.593 251.041 187.588 251.187 187.627C251.292 187.643 251.394 187.678 251.486 187.731V187.731Z" stroke="#B99522" stroke-miterlimit="10"/>
<path d="M252.02 187.789V188.202C252.021 188.253 252.01 188.304 251.987 188.351C251.842 188.669 251.296 188.859 250.775 188.764C250.616 188.741 250.463 188.689 250.322 188.611C250.242 188.574 250.172 188.516 250.12 188.444C250.068 188.372 250.034 188.287 250.023 188.198V187.784C250.033 187.873 250.066 187.958 250.118 188.03C250.169 188.103 250.238 188.16 250.318 188.198C250.459 188.276 250.612 188.327 250.771 188.351C251.308 188.437 251.854 188.247 251.983 187.937C252.007 187.891 252.019 187.84 252.02 187.789Z" stroke="#B99522" stroke-miterlimit="10"/>
<path d="M251.725 187.363C251.972 187.507 252.085 187.722 251.988 187.937C251.842 188.256 251.297 188.446 250.775 188.351C250.617 188.327 250.463 188.276 250.323 188.198C250.076 188.053 249.963 187.834 250.06 187.623C250.201 187.301 250.751 187.115 251.273 187.21C251.432 187.231 251.585 187.283 251.725 187.363V187.363Z" stroke="#B99522" stroke-miterlimit="10"/>
<path d="M264.619 181.552V182.643C264.619 182.677 264.611 182.711 264.595 182.742C264.499 182.861 264.372 182.949 264.229 182.998C264.087 183.047 263.933 183.054 263.787 183.019C263.682 183.005 263.58 182.971 263.487 182.92C263.434 182.894 263.388 182.855 263.354 182.806C263.32 182.756 263.299 182.699 263.293 182.639V181.552C263.299 181.611 263.32 181.668 263.354 181.717C263.389 181.765 263.434 181.804 263.487 181.829C263.58 181.881 263.682 181.917 263.787 181.932C263.934 181.967 264.087 181.959 264.23 181.91C264.373 181.86 264.499 181.77 264.595 181.651C264.611 181.62 264.619 181.586 264.619 181.552V181.552Z" stroke="#B99522" stroke-miterlimit="10"/>
<path d="M264.421 181.275C264.583 181.37 264.66 181.51 264.595 181.651C264.499 181.77 264.373 181.86 264.23 181.91C264.087 181.959 263.934 181.967 263.787 181.932C263.682 181.917 263.58 181.882 263.488 181.829C263.326 181.734 263.253 181.589 263.314 181.449C263.41 181.33 263.536 181.241 263.679 181.192C263.822 181.143 263.976 181.136 264.122 181.172C264.227 181.187 264.329 181.222 264.421 181.275V181.275Z" stroke="#B99522" stroke-miterlimit="10"/>
<path d="M264.955 181.167V181.581C264.956 181.632 264.945 181.683 264.922 181.73C264.777 182.048 264.227 182.238 263.71 182.143C263.551 182.12 263.398 182.068 263.257 181.99C263.176 181.953 263.107 181.896 263.054 181.824C263.002 181.751 262.969 181.666 262.958 181.577V181.163C262.968 181.252 263 181.337 263.052 181.41C263.104 181.482 263.173 181.54 263.253 181.577C263.394 181.655 263.547 181.706 263.706 181.73C264.243 181.816 264.789 181.626 264.918 181.316C264.939 181.269 264.952 181.219 264.955 181.167V181.167Z" stroke="#B99522" stroke-miterlimit="10"/>
<path d="M264.66 180.742C264.907 180.886 265.02 181.101 264.923 181.316C264.777 181.634 264.232 181.825 263.71 181.73C263.552 181.706 263.398 181.655 263.257 181.577C263.011 181.432 262.898 181.213 262.995 181.002C263.136 180.68 263.686 180.494 264.207 180.589C264.366 180.61 264.52 180.662 264.66 180.742V180.742Z" stroke="#B99522" stroke-miterlimit="10"/>
<path d="M264.619 180.374V181.097C264.619 181.132 264.611 181.166 264.595 181.196C264.499 181.315 264.372 181.404 264.229 181.453C264.087 181.502 263.933 181.509 263.787 181.473C263.682 181.459 263.58 181.426 263.487 181.374C263.434 181.349 263.388 181.309 263.354 181.26C263.32 181.211 263.299 181.153 263.293 181.093V180.37C263.299 180.43 263.32 180.487 263.354 180.537C263.388 180.586 263.434 180.625 263.487 180.651C263.581 180.702 263.682 180.737 263.787 180.754C263.934 180.789 264.087 180.781 264.23 180.732C264.373 180.682 264.499 180.593 264.595 180.473C264.611 180.443 264.619 180.409 264.619 180.374V180.374Z" stroke="#B99522" stroke-miterlimit="10"/>
<path d="M264.421 180.097C264.583 180.192 264.66 180.333 264.595 180.473C264.499 180.593 264.373 180.682 264.23 180.732C264.087 180.781 263.934 180.789 263.787 180.754C263.682 180.737 263.581 180.702 263.488 180.651C263.326 180.556 263.253 180.411 263.314 180.271C263.455 180.122 263.641 180.025 263.841 179.994C264.042 179.962 264.247 179.999 264.425 180.097H264.421Z" stroke="#B99522" stroke-miterlimit="10"/>
<path d="M264.955 180.151V180.564C264.956 180.617 264.945 180.669 264.922 180.717C264.777 181.035 264.227 181.225 263.71 181.13C263.551 181.107 263.398 181.055 263.257 180.977C263.176 180.941 263.107 180.884 263.054 180.811C263.002 180.739 262.969 180.654 262.958 180.564V180.151C262.967 180.24 262.998 180.326 263.05 180.399C263.102 180.471 263.172 180.528 263.253 180.564C263.392 180.645 263.546 180.697 263.706 180.717C264.243 180.804 264.789 180.618 264.918 180.304C264.94 180.256 264.952 180.204 264.955 180.151V180.151Z" stroke="#B99522" stroke-miterlimit="10"/>
<path d="M264.66 179.717C264.907 179.862 265.02 180.081 264.923 180.296C264.777 180.614 264.232 180.8 263.71 180.709C263.551 180.689 263.397 180.637 263.257 180.556C263.011 180.411 262.898 180.196 262.995 179.982C263.136 179.663 263.686 179.477 264.207 179.568C264.366 179.59 264.519 179.641 264.66 179.717V179.717Z" stroke="#B99522" stroke-miterlimit="10"/>
<path d="M269.308 173.398C266.43 166.595 260.096 159.222 250.443 151.361L249.999 151.613C259.575 159.466 265.949 166.826 268.754 173.46C272.732 182.788 268.823 188.218 265.888 189.958C262.954 191.698 253.818 194.025 238.042 191.711C226.768 190.058 214.193 186.259 200.854 180.552L200.401 180.82C213.809 186.574 226.364 190.326 237.925 192.041C253.944 194.381 263.297 191.979 266.301 190.194C269.304 188.409 273.33 182.866 269.308 173.398Z" stroke="#B99522" stroke-miterlimit="10"/>
<path d="M49.3931 94.0988L103.203 62.1263L54.8136 33.5593L1 65.5318L49.3931 94.0988Z" stroke="#B99522" stroke-miterlimit="10"/>
<path d="M1.88525 65.5316L54.8096 34.084L102.317 62.126L49.389 93.5736L1.88525 65.5316Z" stroke="#B99522" stroke-miterlimit="10"/>
<path d="M54.8096 37.3118L99.593 63.7462L102.317 62.126L54.8096 34.084L1.88525 65.5316L4.60969 67.1393L54.8096 37.3118Z" stroke="#B99522" stroke-miterlimit="10"/>
<path d="M54.8096 37.3118V34.084L1.88525 65.5316L4.60969 67.1393L54.8096 37.3118Z" stroke="#B99522" stroke-miterlimit="10"/>
<path d="M1 79.063V65.5359L49.3931 94.0987L59.6562 113.317L170.267 178.617C178.081 183.227 185.665 187.269 193.016 190.744L200.421 180.845C213.817 186.594 226.36 190.351 237.913 192.058C253.932 194.397 263.285 191.996 266.289 190.21C268.391 188.971 270.986 185.887 270.998 180.928V194.265C270.998 194.224 270.998 194.19 270.998 194.149V196.955C270.998 201.915 268.391 204.99 266.289 206.242C263.285 208.023 253.932 210.429 237.913 208.085C218.061 205.168 195.296 196.195 170.267 181.42L1 81.4973V79.0672V79.063Z" stroke="#B99522" stroke-miterlimit="10"/>
<path d="M49.8054 93.855L49.3931 94.0988L59.5996 113.272L60.0119 113.024L49.8054 93.855Z" stroke="#B99522" stroke-miterlimit="10"/>
<path d="M222.88 172.687L227.148 175.204H230.6L230.629 167.268L223.126 171.699H220.677L219.003 172.687H222.88Z" stroke="#B99522" stroke-miterlimit="10"/>
<path d="M230.629 175.204L225.058 171.901L225.758 167.235L229.707 169.583L230.629 175.204Z" stroke="#B99522" stroke-miterlimit="10"/>
<path d="M229.707 169.583L225.758 167.235L229.048 165.289L233.001 167.636L229.707 169.583Z" stroke="#B99522" stroke-miterlimit="10"/>
<path d="M233.001 167.636L235.406 172.385L230.629 175.204L229.707 169.583L233.001 167.636Z" stroke="#B99522" stroke-miterlimit="10"/>
<path d="M234.982 130.452C234.949 130.42 234.905 130.401 234.859 130.401C234.813 130.401 234.768 130.42 234.735 130.452L229.481 135.627C229.449 135.66 229.431 135.706 229.431 135.753C229.431 135.8 229.449 135.845 229.481 135.879C229.515 135.911 229.559 135.931 229.606 135.932C229.628 135.933 229.65 135.929 229.671 135.92C229.692 135.912 229.711 135.899 229.727 135.883L234.982 130.708C234.999 130.692 235.012 130.672 235.021 130.65C235.031 130.628 235.035 130.604 235.035 130.58C235.035 130.556 235.031 130.533 235.021 130.511C235.012 130.489 234.999 130.469 234.982 130.452V130.452Z" stroke="#B99522" stroke-miterlimit="10"/>
<path d="M230.038 133.258C229.97 133.391 229.86 133.497 229.726 133.557C229.591 133.618 229.441 133.631 229.299 133.593C229.202 133.58 229.109 133.549 229.024 133.502C228.976 133.479 228.935 133.444 228.904 133.4C228.874 133.355 228.855 133.304 228.85 133.25V166.615C228.855 166.669 228.874 166.721 228.904 166.765C228.935 166.809 228.976 166.845 229.024 166.867C229.108 166.914 229.2 166.945 229.295 166.958C229.426 166.992 229.564 166.987 229.692 166.943C229.82 166.899 229.933 166.818 230.018 166.71C230.055 166.624 230.038 133.258 230.038 133.258Z" stroke="#B99522" stroke-miterlimit="10"/>
<path d="M229.865 133.015C229.782 132.969 229.691 132.938 229.598 132.924C229.466 132.889 229.327 132.893 229.198 132.937C229.069 132.981 228.955 133.063 228.87 133.172C228.814 133.296 228.87 133.424 229.024 133.511C229.109 133.557 229.202 133.588 229.299 133.601C229.429 133.635 229.566 133.629 229.694 133.585C229.822 133.541 229.934 133.461 230.018 133.353C230.075 133.221 230.006 133.093 229.865 133.015Z" stroke="#B99522" stroke-miterlimit="10"/>
<path d="M228.979 135.775L223.898 136.854C223.857 136.863 223.82 136.888 223.795 136.924C223.77 136.959 223.758 137.003 223.763 137.046C223.767 137.09 223.787 137.13 223.819 137.159C223.851 137.189 223.892 137.205 223.935 137.205C223.971 137.205 229.048 136.127 229.048 136.127C229.093 136.117 229.133 136.089 229.159 136.05C229.184 136.01 229.194 135.962 229.186 135.916C229.174 135.871 229.147 135.831 229.109 135.805C229.071 135.779 229.025 135.769 228.979 135.775Z" stroke="#B99522" stroke-miterlimit="10"/>
<path d="M223.332 137.354V137.652L236.344 129.907V129.613L223.332 137.354Z" stroke="#B99522" stroke-miterlimit="10"/>
<path d="M223.332 137.354V137.652L222.047 136.891V136.598L223.332 137.354Z" stroke="#B99522" stroke-miterlimit="10"/>
<path d="M235.059 128.853L222.047 136.598L223.332 137.354L236.344 129.613L235.059 128.853Z" stroke="#B99522" stroke-miterlimit="10"/>
<path d="M229.856 123.786C229.81 123.878 229.734 123.951 229.642 123.993C229.549 124.035 229.445 124.044 229.347 124.017C229.28 124.01 229.216 123.989 229.157 123.955C229.124 123.94 229.096 123.915 229.075 123.885C229.055 123.854 229.042 123.819 229.04 123.781V132.874C229.044 132.911 229.057 132.946 229.078 132.975C229.1 133.005 229.128 133.028 229.161 133.043C229.271 133.103 229.397 133.124 229.52 133.105C229.643 133.085 229.757 133.026 229.844 132.936C229.865 132.878 229.856 123.786 229.856 123.786Z" stroke="#B99522" stroke-miterlimit="10"/>
<path d="M229.735 123.616C229.625 123.556 229.499 123.535 229.376 123.554C229.253 123.573 229.139 123.633 229.052 123.724C229.012 123.806 229.052 123.897 229.157 123.955C229.216 123.989 229.28 124.01 229.347 124.017C229.437 124.041 229.531 124.038 229.619 124.008C229.706 123.978 229.783 123.922 229.84 123.848C229.881 123.761 229.832 123.674 229.735 123.616Z" stroke="#B99522" stroke-miterlimit="10"/>
<path d="M230.265 123.364C230.265 123.527 230.217 123.687 230.129 123.823C230.04 123.959 229.913 124.065 229.766 124.128C229.618 124.19 229.455 124.207 229.299 124.175C229.142 124.143 228.998 124.064 228.885 123.948C228.772 123.833 228.695 123.686 228.663 123.525C228.632 123.365 228.648 123.199 228.709 123.048C228.771 122.897 228.874 122.767 229.007 122.677C229.14 122.586 229.296 122.537 229.456 122.537C229.671 122.537 229.876 122.624 230.028 122.779C230.18 122.934 230.265 123.145 230.265 123.364Z" stroke="#B99522" stroke-miterlimit="10"/>
<path d="M23.3331 78.7199H24.1698L27.7512 80.8319H36.1145L37.505 79.8565H47.4932L40.3547 54.7075L27.2136 49.9587L1 65.5317L23.3331 78.7199Z" stroke="#B99522" stroke-miterlimit="10"/>
<path d="M36.1145 63.9819L17.4679 52.9758V69.8259L36.1145 80.8319V63.9819Z" stroke="#B99522" stroke-miterlimit="10"/>
<path d="M76.5564 56.956L36.1143 80.832V63.982L76.5564 40.106V56.956Z" stroke="#B99522" stroke-miterlimit="10"/>
<path d="M36.1145 63.9819L17.4679 52.9759L57.91 29.0999L76.5566 40.1059L36.1145 63.9819Z" stroke="#B99522" stroke-miterlimit="10"/>
<path d="M47.4932 69.2391L42.7153 66.4163V77.0338L47.4932 79.8566V69.2391Z" stroke="#B99522" stroke-miterlimit="10"/>
<path d="M75.6228 63.2504L47.4932 79.8565V69.239L75.6228 52.6328V63.2504Z" stroke="#B99522" stroke-miterlimit="10"/>
<path d="M47.4932 69.2391L42.7153 66.4162L70.8449 49.8101L75.6228 52.6329L47.4932 69.2391Z" stroke="#B99522" stroke-miterlimit="10"/>
<path d="M58.9487 48.5413C58.9892 48.5413 59.07 48.5413 59.07 48.5702V50.2482C59.07 50.306 58.9285 50.306 58.9285 50.2482V48.5702C58.9324 48.5588 58.9394 48.5487 58.9487 48.5413V48.5413ZM44.6758 56.9684V58.6463C44.6758 58.7042 44.8213 58.7001 44.8213 58.6463V56.9684C44.8213 56.9312 44.7404 56.9146 44.7 56.9394C44.6596 56.9642 44.6758 56.989 44.6758 56.9684ZM47.5053 55.3152V56.9932C47.5053 57.051 47.6468 57.0469 47.6468 56.9932V55.3152C47.6468 55.278 47.5659 55.2615 47.5255 55.2862C47.5095 55.2916 47.4955 55.3017 47.4851 55.3152H47.5053ZM50.3106 53.662V55.3358C50.3106 55.3937 50.4521 55.3937 50.4521 55.3358V53.662C50.4521 53.6248 50.3712 53.6083 50.3308 53.6331C50.3224 53.6347 50.3145 53.6382 50.3076 53.6431C50.3006 53.6481 50.2947 53.6546 50.2904 53.662H50.3106ZM53.1159 52.0088V53.6868C53.1159 53.7405 53.2573 53.7405 53.2573 53.6868V52.0088C53.2573 51.9716 53.1805 51.9592 53.1361 51.9799C53.1198 51.9847 53.1056 51.9949 53.0956 52.0088H53.1159ZM55.9171 50.3556V52.0336C55.9171 52.0915 56.0626 52.0873 56.0626 52.0336V50.3556C56.0626 50.3184 55.9818 50.3019 55.9413 50.3267C55.9235 50.3303 55.9076 50.3407 55.8969 50.3556H55.9171ZM36.0376 62.085V63.7629C36.0376 63.8167 36.1791 63.8167 36.1791 63.7629V62.085C36.1791 62.0478 36.1023 62.0312 36.0619 62.056C36.0214 62.0808 36.0376 62.0891 36.0376 62.085ZM38.8469 60.4318V62.1098C38.8469 62.1676 38.9884 62.1635 38.9884 62.1098V60.4318C38.9884 60.3946 38.9076 60.378 38.8671 60.4028C38.8267 60.4276 38.8469 60.4318 38.8469 60.4276V60.4318ZM41.6482 58.7786V60.4566C41.6482 60.5103 41.7897 60.5103 41.7897 60.4566V58.7786C41.7897 58.7414 41.7088 58.7249 41.6684 58.7497C41.628 58.7745 41.6482 58.7786 41.6482 58.7745V58.7786ZM67.5707 43.4867V45.1647C67.5707 45.2225 67.7122 45.2184 67.7122 45.1647V43.4867C67.7122 43.4495 67.6314 43.433 67.5909 43.4578C67.5505 43.4825 67.5707 43.4743 67.5707 43.4702V43.4867ZM70.376 41.8335V43.5115C70.376 43.5693 70.5175 43.5652 70.5175 43.5115V41.8128C70.5175 41.7756 70.4407 41.7591 70.4003 41.7839C70.3898 41.7912 70.3815 41.8012 70.376 41.8128V41.8335ZM73.2055 40.1803V41.8335C73.2055 41.8914 73.351 41.8914 73.351 41.8335V40.1555C73.351 40.1183 73.2702 40.1059 73.2298 40.1266C73.2197 40.1254 73.2095 40.1281 73.2012 40.1342C73.193 40.1403 73.1873 40.1494 73.1853 40.1597L73.2055 40.1803ZM76.0108 38.5271V40.2051C76.0108 40.2589 76.1523 40.2589 76.1523 40.2051V38.5023C76.1523 38.461 76.0714 38.4486 76.031 38.4734C75.9906 38.4982 75.9906 38.5065 75.9906 38.5023L76.0108 38.5271ZM61.7581 46.9377V48.6157C61.7581 48.6735 61.8995 48.6694 61.8995 48.6157V46.9377C61.8995 46.9005 61.8187 46.884 61.7783 46.9088C61.7378 46.9336 61.7378 46.917 61.7378 46.9129L61.7581 46.9377ZM64.5593 45.2845V46.9625C64.5593 47.0162 64.7048 47.0162 64.7008 46.9625V45.2845C64.7008 45.2473 64.6199 45.2308 64.5795 45.2556C64.5391 45.2804 64.5391 45.2639 64.5391 45.2597L64.5593 45.2845Z" stroke="#B99522" stroke-miterlimit="10"/>
<path d="M40.6659 37.75C40.7063 37.7253 40.7872 37.75 40.7872 37.779V39.457C40.7872 39.5107 40.6457 39.5148 40.6457 39.457V37.779C40.6457 37.779 40.6497 37.7583 40.6659 37.75ZM26.393 46.1937V47.8758C26.393 47.9295 26.5344 47.9295 26.5344 47.8758V46.1978C26.5344 46.1606 26.4576 46.1482 26.4172 46.1689C26.4072 46.1749 26.3989 46.1834 26.393 46.1937V46.1937ZM29.2023 44.5405V46.2226C29.2023 46.2763 29.3478 46.2763 29.3478 46.2226V44.5446C29.3478 44.5074 29.2669 44.4909 29.2265 44.5157C29.2212 44.517 29.2163 44.5196 29.2121 44.5232C29.2079 44.5268 29.2045 44.5313 29.2023 44.5364V44.5405ZM32.0075 42.8873V44.5694C32.0075 44.6231 32.149 44.6231 32.149 44.5694V42.8914C32.149 42.8542 32.0682 42.8377 32.0278 42.8625C31.9873 42.8873 32.0075 42.8832 32.0075 42.879V42.8873ZM34.8128 41.2341V42.9162C34.8128 42.9741 34.9543 42.97 34.9543 42.9162V41.2217C34.9543 41.1845 34.8735 41.168 34.833 41.1928C34.7926 41.2176 34.8128 41.2259 34.8128 41.2217V41.2341ZM37.6141 39.5809V41.2631C37.6141 41.3168 37.7555 41.3168 37.7555 41.2631V39.5685C37.7555 39.5314 37.6787 39.5148 37.6383 39.5396C37.5979 39.5644 37.6141 39.5727 37.6141 39.5685V39.5809ZM17.7548 51.2937V52.9469C17.7548 53.0048 17.8963 53.0048 17.8963 52.9469V51.2689C17.8963 51.2317 17.8154 51.2152 17.775 51.24C17.7676 51.2466 17.762 51.255 17.7584 51.2643C17.7549 51.2737 17.7537 51.2838 17.7548 51.2937V51.2937ZM20.5601 49.6405V51.3185C20.5601 51.3723 20.7056 51.3723 20.7056 51.3185V49.6653C20.7056 49.624 20.6248 49.6116 20.5843 49.6323C20.5761 49.6322 20.5679 49.6336 20.5601 49.6364V49.6405ZM23.3654 47.9874V49.6405C23.3654 49.6984 23.5068 49.6984 23.5068 49.6405V47.9626C23.5068 47.9254 23.426 47.9088 23.3856 47.9336C23.3788 47.9398 23.3734 47.9475 23.3699 47.9561C23.3664 47.9647 23.3649 47.9739 23.3654 47.9832V47.9874ZM49.2879 32.6955V34.3734C49.2879 34.4272 49.4294 34.4272 49.4294 34.3734V32.7203C49.4294 32.6789 49.3485 32.6665 49.3081 32.6872C49.3018 32.6835 49.295 32.6807 49.2879 32.6789V32.6955ZM52.0932 31.0423V32.7203C52.0932 32.774 52.2347 32.774 52.2347 32.7203V31.0216C52.2347 30.9844 52.1538 30.9679 52.1134 30.9927C52.073 31.0175 52.0932 31.0257 52.0932 31.0216V31.0423ZM54.8985 29.3891V31.0671C54.8985 31.1249 55.0399 31.1208 55.0399 31.0671V29.3643C55.0399 29.3271 54.9591 29.3106 54.9187 29.3354C54.8782 29.3602 54.8985 29.3684 54.8985 29.3643V29.3891ZM57.7078 27.7359V29.4139C57.7078 29.4718 57.8492 29.4676 57.8492 29.4139V27.707C57.8492 27.6698 57.7684 27.6533 57.728 27.6781C57.7194 27.6862 57.7125 27.696 57.7078 27.707V27.7359ZM43.4429 36.1217V37.7996C43.4429 37.8534 43.5844 37.8534 43.5844 37.7996V36.1465C43.5844 36.1093 43.5035 36.0927 43.4631 36.1175C43.4227 36.1423 43.4429 36.1258 43.4429 36.1217ZM46.2441 34.4685V36.1465C46.2441 36.2002 46.3856 36.2002 46.3856 36.1465V34.4644C46.3856 34.4272 46.3088 34.4148 46.2684 34.4354C46.2663 34.4466 46.2677 34.4582 46.2724 34.4685H46.2441Z" stroke="#B99522" stroke-miterlimit="10"/>
<path d="M73.9979 37.25V38.928C73.9979 38.9817 73.8565 38.9817 73.8565 38.928V37.2748C73.8565 37.2335 73.9373 37.2211 73.9777 37.2417C73.9848 37.2435 73.9916 37.2463 73.9979 37.25V37.25ZM65.3355 32.1169C65.2951 32.0921 65.2143 32.1169 65.2143 32.1458V33.8238C65.2143 33.8775 65.3557 33.8816 65.3557 33.8238V32.1458C65.351 32.1348 65.3441 32.125 65.3355 32.1169V32.1169ZM62.5302 30.4637C62.4898 30.4389 62.409 30.4637 62.409 30.4926V32.1706C62.409 32.2285 62.5505 32.2285 62.5505 32.1706V30.5174C62.5523 30.5068 62.5514 30.4959 62.5479 30.4857C62.5443 30.4756 62.5382 30.4666 62.5302 30.4596V30.4637ZM59.725 28.8105C59.6845 28.8105 59.6037 28.8105 59.6037 28.8436V30.4968C59.6037 30.5546 59.7452 30.5546 59.7452 30.4968V28.8353C59.7413 28.8227 59.7343 28.8114 59.725 28.8022V28.8105ZM71.1684 35.5596C71.128 35.5348 71.0471 35.5596 71.0471 35.5885V37.2665C71.0471 37.3203 71.1886 37.3244 71.1886 37.2665V35.5885C71.1839 35.5776 71.177 35.5677 71.1684 35.5596V35.5596ZM68.3672 33.9064C68.3267 33.8816 68.2459 33.9064 68.2459 33.9354V35.6133C68.2459 35.6671 68.3874 35.6712 68.3874 35.6133V33.9354C68.3874 33.9354 68.3833 33.9147 68.3672 33.9064Z" stroke="#B99522" stroke-miterlimit="10"/>
<path d="M34.1015 61.0146V62.4777C34.1015 62.5355 33.96 62.5314 33.96 62.4777V61.0146C33.96 60.9774 34.0368 60.9609 34.0813 60.9857C34.1257 61.0105 34.1015 61.0187 34.1015 61.0146ZM25.4391 55.8815C25.3986 55.8567 25.3178 55.8815 25.3178 55.9104V57.3817C25.3178 57.4355 25.4593 57.4396 25.4593 57.3817V55.9187C25.457 55.9042 25.4499 55.891 25.4391 55.8815V55.8815ZM22.6095 54.2283C22.5691 54.2076 22.4883 54.2283 22.4923 54.2614V55.7286C22.4923 55.7823 22.6338 55.7864 22.6338 55.7286V54.2655C22.6365 54.2516 22.6351 54.2372 22.6297 54.2242L22.6095 54.2283ZM19.8042 52.5751C19.7638 52.5503 19.683 52.5751 19.683 52.604V54.0754C19.683 54.1332 19.8245 54.1332 19.8245 54.0754V52.6123C19.8245 52.6123 19.8406 52.5792 19.8245 52.571L19.8042 52.5751ZM31.2719 59.3242C31.2275 59.2994 31.1507 59.3242 31.1507 59.3531V60.8203C31.1507 60.8741 31.2921 60.8782 31.2921 60.8203V59.3573C31.2891 59.3443 31.282 59.3327 31.2719 59.3242V59.3242ZM28.4667 57.671C28.4262 57.6462 28.3454 57.671 28.3454 57.7V59.1672C28.3454 59.2209 28.4909 59.2209 28.4909 59.1672V57.7C28.4914 57.6901 28.4901 57.6803 28.4869 57.671H28.4667Z" stroke="#B99522" stroke-miterlimit="10"/>
<path d="M36.0903 62.3619C36.0216 62.3412 17.573 51.4509 17.573 51.4509C17.5518 51.4394 17.5342 51.4221 17.522 51.401C17.5099 51.3798 17.5038 51.3556 17.5043 51.3311C17.5042 51.3071 17.5101 51.2835 17.5214 51.2625C17.5327 51.2416 17.5491 51.2239 17.569 51.2112L57.6149 27.4633C57.6351 27.4509 57.6581 27.4443 57.6816 27.4443C57.7051 27.4443 57.7282 27.4509 57.7483 27.4633L76.1847 38.3701C76.205 38.3816 76.2221 38.3984 76.2341 38.4187C76.2462 38.4389 76.2528 38.4621 76.2534 38.4858C76.2531 38.5102 76.2466 38.5341 76.2346 38.5551C76.2225 38.5761 76.2053 38.5935 76.1847 38.6057L36.1671 62.3412C36.1448 62.3574 36.1175 62.3647 36.0903 62.3619V62.3619ZM17.9004 51.3311L36.0903 62.0767L75.8613 38.4734L57.6715 27.7278L17.9004 51.3311Z" stroke="#B99522" stroke-miterlimit="10"/>
<path d="M38.6085 50.4919L25.8676 42.97V51.4797L38.6085 58.9975V50.4919Z" stroke="#B99522" stroke-miterlimit="10"/>
<path d="M68.4803 41.3662L38.6085 58.9974V50.4918L68.4803 32.8606V41.3662Z" stroke="#B99522" stroke-miterlimit="10"/>
<path d="M38.6085 50.492L25.8676 42.97L55.7393 25.3389L68.4803 32.8608L38.6085 50.492Z" stroke="#B99522" stroke-miterlimit="10"/>
<path d="M24.6751 43.8421C24.5197 43.7712 24.3856 43.6591 24.2868 43.5174C24.188 43.3757 24.1281 43.2095 24.1133 43.0361V43.5156C24.1246 43.6925 24.1829 43.863 24.2819 44.0087C24.3809 44.1543 24.5168 44.2696 24.6751 44.3421L37.2302 51.7525V51.2772L24.6751 43.8421Z" stroke="#B99522" stroke-miterlimit="10"/>
<path d="M69.6121 33.6585L39.9505 51.2483C39.5295 51.4662 39.0643 51.5798 38.5924 51.5798C38.1205 51.5798 37.6552 51.4662 37.2342 51.2483V51.7236C37.6556 51.9425 38.1217 52.0566 38.5944 52.0566C39.0671 52.0566 39.5331 51.9425 39.9546 51.7236L69.6162 34.1338C69.7687 34.0626 69.9 33.9512 69.9966 33.811C70.0932 33.6709 70.1516 33.507 70.1659 33.3361V32.8608C70.1509 33.032 70.0917 33.196 69.9944 33.3362C69.8971 33.4763 69.7652 33.5875 69.6121 33.6585V33.6585Z" stroke="#B99522" stroke-miterlimit="10"/>
<path d="M69.604 32.0549C70.3478 32.4971 70.3518 33.2162 69.604 33.6585L39.9505 51.2483C39.5295 51.4662 39.0642 51.5797 38.5924 51.5797C38.1205 51.5797 37.6552 51.4662 37.2342 51.2483L24.6751 43.842C23.9273 43.3998 23.9233 42.6807 24.6751 42.2302L54.3569 24.6404C54.777 24.4245 55.2408 24.312 55.711 24.312C56.1813 24.312 56.645 24.4245 57.0651 24.6404L69.604 32.0549Z" stroke="#B99522" stroke-miterlimit="10"/>
<path d="M53.7707 32.522L52.6469 31.8525L51.1109 25.8267L52.2387 26.4962L53.7707 32.522Z" stroke="#B99522" stroke-miterlimit="10"/>
<path d="M47.5417 29.2694L46.4139 28.5999V27.9097L47.5377 28.5792L47.5417 29.2694Z" stroke="#B99522" stroke-miterlimit="10"/>
<path d="M47.5376 28.5793L46.4139 27.9097L52.5701 24.2769L53.6939 24.9464L47.5376 28.5793Z" stroke="#B99522" stroke-miterlimit="10"/>
<path d="M53.694 24.9463L55.3836 31.5714L53.7708 32.522L52.2388 26.4961L47.5418 29.2694L47.5377 28.5791L53.694 24.9463Z" stroke="#B99522" stroke-miterlimit="10"/>
<path d="M47.1739 21.4415L46.5271 21.0571L46.5231 19.3171L47.1698 19.7015L47.1739 21.4415Z" stroke="#B99522" stroke-miterlimit="10"/>
<path d="M47.1698 19.7016L53.9364 15.7051L47.1738 21.4416L47.1698 19.7016Z" stroke="#B99522" stroke-miterlimit="10"/>
<path d="M48.7261 42.7592L40.7226 38.0145L41.4785 20.5198L45.7672 23.0657L48.7261 42.7592Z" stroke="#B99522" stroke-miterlimit="10"/>
<path d="M49.3366 20.9578L53.9083 39.7007L48.7262 42.7591L45.7673 23.0656L49.3366 20.9578Z" stroke="#B99522" stroke-miterlimit="10"/>
<path d="M43.6411 23.5288L36.8745 25.7771L43.6371 21.7888L43.6411 23.5288Z" stroke="#B99522" stroke-miterlimit="10"/>
<path d="M47.1336 22.0076L47.1295 23.7475L53.8921 26L47.1336 22.0076Z" stroke="#B99522" stroke-miterlimit="10"/>
<path d="M54.8056 15.0398V15.358L48.52 19.0901L48.524 18.7718L54.8056 15.0398Z" stroke="#B99522" stroke-miterlimit="10"/>
<path d="M40.7792 20.3959C40.7069 20.3636 40.6443 20.3121 40.5981 20.2467C40.5518 20.1812 40.5237 20.1043 40.5165 20.0239V20.3422C40.5241 20.4224 40.5524 20.4992 40.5986 20.5645C40.6448 20.6299 40.7071 20.6815 40.7792 20.7141L41.8989 21.3754V21.0572L40.7792 20.3959Z" stroke="#B99522" stroke-miterlimit="10"/>
<path d="M50.1975 20.4953L46.2079 22.8676C46.0149 22.9675 45.8017 23.0195 45.5854 23.0195C45.3691 23.0195 45.1559 22.9675 44.9629 22.8676L43.2894 21.8798V22.198L44.9589 23.1858C45.152 23.2877 45.3661 23.3408 45.5834 23.3408C45.8007 23.3408 46.0148 23.2877 46.2079 23.1858L50.1975 20.8135C50.268 20.7814 50.329 20.7309 50.3744 20.667C50.4198 20.6032 50.448 20.5283 50.4562 20.4498V20.1274C50.4491 20.2068 50.4214 20.2827 50.3759 20.3474C50.3304 20.4121 50.2688 20.4631 50.1975 20.4953V20.4953Z" stroke="#B99522" stroke-miterlimit="10"/>
<path d="M37.0078 25.6118V25.93L35.6132 25.1075V24.7893L37.0078 25.6118Z" stroke="#B99522" stroke-miterlimit="10"/>
<path d="M54.8055 15.0354L48.5239 18.7551L50.1933 19.7718C50.541 19.9784 50.545 20.3049 50.1933 20.5116L46.2037 22.8839C46.0107 22.9838 45.7975 23.0358 45.5812 23.0358C45.3649 23.0358 45.1517 22.9838 44.9587 22.8839L43.2852 21.8961L37.0037 25.6158L35.6091 24.7892L41.8907 21.0695L40.775 20.4083C40.4234 20.2016 40.4234 19.8751 40.775 19.6685L44.7647 17.292C44.9571 17.1902 45.1705 17.1371 45.3872 17.1371C45.6038 17.1371 45.8173 17.1902 46.0097 17.292L47.1294 17.9533L53.4109 14.2336L54.8055 15.0354Z" stroke="#B99522" stroke-miterlimit="10"/>
<path d="M43.2894 21.8799V22.1981L37.0078 25.9302V25.6119L43.2894 21.8799Z" stroke="#B99522" stroke-miterlimit="10"/>
<path d="M53.7626 25.8347V26.1529L55.1572 25.3304V25.0122L53.7626 25.8347Z" stroke="#B99522" stroke-miterlimit="10"/>
<path d="M48.8716 21.2761L47.4771 22.0986L53.7626 25.8348L55.1572 25.0123L48.8716 21.2761Z" stroke="#B99522" stroke-miterlimit="10"/>
<path d="M47.4771 22.0984L47.4812 22.4208L53.7627 26.1528V25.8346L47.4771 22.0984Z" stroke="#B99522" stroke-miterlimit="10"/>
<path d="M40.8479 18.7553C40.8075 18.7305 40.7226 18.7553 40.7226 18.7842V20.0861C40.7226 20.144 40.8722 20.144 40.8722 20.0861V18.7842C40.8722 18.7842 40.8681 18.7636 40.8479 18.7553Z" stroke="#B99522" stroke-miterlimit="10"/>
<path d="M43.1803 20.1313C43.1358 20.1065 43.0509 20.1313 43.0549 20.1602V21.4621C43.0549 21.5199 43.2005 21.5199 43.2005 21.4621V20.1602C43.2005 20.1602 43.1964 20.1395 43.1803 20.1313Z" stroke="#B99522" stroke-miterlimit="10"/>
<path d="M45.5125 21.5075C45.4681 21.4827 45.3832 21.5075 45.3832 21.5364V22.8383C45.3832 22.8962 45.5327 22.8962 45.5327 22.8383V21.5364C45.5327 21.5364 45.5287 21.5158 45.5125 21.5075Z" stroke="#B99522" stroke-miterlimit="10"/>
<path d="M45.5692 15.9654C45.5288 15.9406 45.4439 15.9654 45.4439 15.9985V17.2921C45.4439 17.3499 45.5935 17.3541 45.5935 17.2921V15.9985C45.5888 15.9852 45.5804 15.9737 45.5692 15.9654V15.9654Z" stroke="#B99522" stroke-miterlimit="10"/>
<path d="M47.8893 17.3416C47.8489 17.3168 47.764 17.3416 47.764 17.3747V18.6724C47.764 18.7303 47.9136 18.7344 47.9136 18.6724V17.3747C47.9089 17.3614 47.9005 17.3499 47.8893 17.3416V17.3416Z" stroke="#B99522" stroke-miterlimit="10"/>
<path d="M50.2338 18.7178C50.1893 18.693 50.1085 18.7178 50.1085 18.7509V20.0486C50.1085 20.1065 50.254 20.1106 50.254 20.0486V18.7509C50.2501 18.7383 50.2431 18.7269 50.2338 18.7178V18.7178Z" stroke="#B99522" stroke-miterlimit="10"/>
<path d="M47.7802 20.3628C47.8207 20.3339 47.9055 20.3628 47.9055 20.3917V21.5572C47.9055 21.6151 47.756 21.6151 47.756 21.5572V20.3917C47.756 20.3917 47.76 20.3711 47.7802 20.3628Z" stroke="#B99522" stroke-miterlimit="10"/>
<path d="M42.9983 17.2919C43.0428 17.2671 43.1277 17.2919 43.1236 17.3208V18.6227C43.1236 18.6806 42.9781 18.6806 42.9781 18.6227V17.3415C42.9765 17.3321 42.9775 17.3225 42.9811 17.3137C42.9847 17.3049 42.9907 17.2973 42.9983 17.2919Z" stroke="#B99522" stroke-miterlimit="10"/>
<path d="M45.5854 21.6607C45.3774 21.6638 45.1718 21.6141 44.9872 21.516L40.7995 19.0363C40.735 19.0072 40.679 18.9614 40.6372 18.9034C40.5954 18.8454 40.5691 18.7772 40.561 18.7056C40.5697 18.6348 40.5963 18.5674 40.6381 18.5102C40.6799 18.453 40.7355 18.4078 40.7995 18.3791L44.7851 16.0109C44.9741 15.9173 45.1814 15.8687 45.3914 15.8687C45.6014 15.8687 45.8087 15.9173 45.9977 16.0109L50.1814 18.4907C50.2512 18.5105 50.3126 18.5532 50.3565 18.6122C50.4003 18.6711 50.424 18.7432 50.424 18.8172C50.424 18.8913 50.4003 18.9633 50.3565 19.0222C50.3126 19.0812 50.2512 19.1239 50.1814 19.1437L46.1917 21.516C46.0047 21.6155 45.7962 21.6652 45.5854 21.6607ZM40.8439 18.7263C40.8439 18.7263 40.8803 18.7552 40.9409 18.7965L45.1246 21.2763C45.2691 21.3418 45.4254 21.3756 45.5834 21.3756C45.7414 21.3756 45.8977 21.3418 46.0422 21.2763L50.0318 18.904C50.0708 18.8839 50.1042 18.854 50.1288 18.8172C50.1288 18.8172 50.1005 18.7883 50.0278 18.7469L45.8441 16.2672C45.7003 16.2018 45.5447 16.168 45.3873 16.168C45.23 16.168 45.0744 16.2018 44.9306 16.2672L40.9409 18.6395C40.8722 18.6808 40.848 18.7139 40.8439 18.7263V18.7263Z" stroke="#B99522" stroke-miterlimit="10"/>
<path d="M44.4051 4.09558L43.7906 3.73188L48.423 1L49.0334 1.3637L44.4051 4.09558Z" stroke="#B99522" stroke-miterlimit="10"/>
<path d="M44.4051 4.87263L43.7947 4.50893L43.7906 3.73193L44.4051 4.09563V4.87263Z" stroke="#B99522" stroke-miterlimit="10"/>
<path d="M44.4051 4.0954L49.0334 1.36353V1.70243L44.4051 4.8724V4.0954Z" stroke="#B99522" stroke-miterlimit="10"/>
<path d="M43.1318 3.26058L44.4617 2.47119L45.6662 19.1724L44.3404 19.9618L43.1318 3.26058Z" stroke="#B99522" stroke-miterlimit="10"/>
<path d="M42.3636 2.80601L43.6895 2.02075L44.4615 2.47124L43.1317 3.26064L42.3636 2.80601Z" stroke="#B99522" stroke-miterlimit="10"/>
<path d="M43.1317 3.26053L44.3403 19.9618L42.3677 18.8004L42.3636 2.80591L43.1317 3.26053Z" stroke="#B99522" stroke-miterlimit="10"/>
<path d="M38.4224 7.96408L37.8121 7.60038V7.26147L38.4224 7.62517V7.96408Z" stroke="#B99522" stroke-miterlimit="10"/>
<path d="M38.4224 7.62512L37.8121 7.26142L42.4404 4.52954L43.0507 4.89324L38.4224 7.62512Z" stroke="#B99522" stroke-miterlimit="10"/>
<path d="M38.4226 7.96409V7.62519L43.0509 4.89331L43.055 5.6703L38.4226 7.96409Z" stroke="#B99522" stroke-miterlimit="10"/>
<path d="M47.6388 14.2668V20.925C47.6343 20.9796 47.6154 21.0319 47.5841 21.0763C47.5527 21.1207 47.5102 21.1556 47.4609 21.1771C47.3274 21.2485 47.179 21.2857 47.0284 21.2857C46.8778 21.2857 46.7294 21.2485 46.5959 21.1771C46.5461 21.1547 46.503 21.1192 46.4711 21.0742C46.4391 21.0291 46.4194 20.9762 46.414 20.9209V14.2668C46.4194 14.3222 46.4391 14.3751 46.4711 14.4201C46.503 14.4651 46.5461 14.5007 46.5959 14.5231C46.73 14.5925 46.8781 14.6286 47.0284 14.6286C47.1787 14.6286 47.3268 14.5925 47.4609 14.5231C47.5102 14.5005 47.5527 14.4648 47.584 14.4197C47.6152 14.3747 47.6342 14.3219 47.6388 14.2668Z" stroke="#B99522" stroke-miterlimit="10"/>
<path d="M47.4568 14.0105C47.5082 14.0297 47.5526 14.0646 47.584 14.1104C47.6153 14.1563 47.6321 14.2108 47.6321 14.2668C47.6321 14.3227 47.6153 14.3773 47.584 14.4231C47.5526 14.469 47.5082 14.5038 47.4568 14.523C47.3227 14.5924 47.1746 14.6285 47.0243 14.6285C46.874 14.6285 46.7259 14.5924 46.5918 14.523C46.5385 14.5059 46.4919 14.4718 46.4588 14.4257C46.4258 14.3796 46.408 14.3239 46.408 14.2668C46.408 14.2096 46.4258 14.154 46.4588 14.1079C46.4919 14.0618 46.5385 14.0277 46.5918 14.0105C46.7259 13.9412 46.874 13.905 47.0243 13.905C47.1746 13.905 47.3227 13.9412 47.4568 14.0105V14.0105Z" stroke="#B99522" stroke-miterlimit="10"/>
<path d="M51.6244 13.0972V13.4526C51.2484 13.5807 50.8685 13.7212 50.4926 13.8659V13.5105C50.8685 13.3493 51.2484 13.2088 51.6284 13.0972H51.6244Z" stroke="#B99522" stroke-miterlimit="10"/>
<path d="M50.4885 13.5269V13.8823L47.756 14.4072V14.0517L50.4885 13.5269Z" stroke="#B99522" stroke-miterlimit="10"/>
<path d="M46.4544 14.5147V14.8702C46.3907 14.8405 46.3356 14.7945 46.2945 14.7365C46.2534 14.6785 46.2277 14.6107 46.22 14.5395V14.1841C46.2277 14.2552 46.2534 14.3231 46.2945 14.3811C46.3356 14.439 46.3907 14.4851 46.4544 14.5147Z" stroke="#B99522" stroke-miterlimit="10"/>
<path d="M46.4875 14.5271V14.8851C46.4608 14.7636 46.4497 14.6391 46.4545 14.5146L46.4875 14.5271Z" stroke="#B99522" stroke-miterlimit="10"/>
<path d="M47.7884 14.1924V14.5478C47.7832 14.6165 47.7603 14.6826 47.722 14.7392C47.6836 14.7959 47.6312 14.8411 47.5701 14.8702C47.329 14.9937 47.0545 15.0315 46.79 14.9776V14.6263C47.055 14.6774 47.329 14.6382 47.5701 14.5148C47.6315 14.486 47.6841 14.4409 47.7225 14.3842C47.7609 14.3274 47.7837 14.2612 47.7884 14.1924V14.1924Z" stroke="#B99522" stroke-miterlimit="10"/>
<path d="M46.7899 14.6262V14.9775L45.9127 16.6018V16.2463L46.7899 14.6262Z" stroke="#B99522" stroke-miterlimit="10"/>
<path d="M45.9128 16.2463V16.6018C45.6501 16.8291 45.4075 17.0523 45.1933 17.2754V16.92C45.4075 16.6968 45.6501 16.4737 45.9169 16.2463H45.9128Z" stroke="#B99522" stroke-miterlimit="10"/>
<path d="M46.7899 14.6264L45.9128 16.2465C45.646 16.4738 45.4034 16.697 45.1892 16.9201L46.4868 14.5272C46.1432 14.3329 46.1432 14.0395 46.4504 13.8535C46.6232 13.7638 46.8143 13.7171 47.0082 13.7171C47.202 13.7171 47.3931 13.7638 47.566 13.8535C47.566 13.8742 51.6082 13.0972 51.6082 13.0972C51.2282 13.2253 50.8483 13.3658 50.4723 13.5105L47.7398 14.0353C47.7589 14.078 47.7691 14.1242 47.77 14.1711C47.7709 14.218 47.7623 14.2646 47.7449 14.308C47.7275 14.3513 47.7015 14.3906 47.6687 14.4233C47.6358 14.4561 47.5968 14.4816 47.5539 14.4982C47.3193 14.6237 47.0514 14.6686 46.7899 14.6264V14.6264Z" stroke="#B99522" stroke-miterlimit="10"/>
<path d="M47.6388 11.4602V14.1549C47.6342 14.2099 47.6152 14.2627 47.584 14.3078C47.5527 14.3528 47.5102 14.3885 47.4609 14.4111C47.3268 14.4805 47.1787 14.5166 47.0284 14.5166C46.8781 14.5166 46.73 14.4805 46.5959 14.4111C46.5458 14.388 46.5026 14.3518 46.4706 14.306C46.4387 14.2603 46.4191 14.2067 46.414 14.1508V11.4602C46.4194 11.5156 46.4391 11.5685 46.4711 11.6135C46.503 11.6585 46.5461 11.694 46.5959 11.7164C46.73 11.7858 46.8781 11.822 47.0284 11.822C47.1787 11.822 47.3268 11.7858 47.4609 11.7164C47.5102 11.6938 47.5527 11.6581 47.584 11.6131C47.6152 11.568 47.6342 11.5152 47.6388 11.4602V11.4602Z" stroke="#B99522" stroke-miterlimit="10"/>
<path d="M47.4568 11.2039C47.5082 11.2231 47.5526 11.2579 47.584 11.3038C47.6153 11.3496 47.6321 11.4042 47.6321 11.4601C47.6321 11.5161 47.6153 11.5707 47.584 11.6165C47.5526 11.6623 47.5082 11.6972 47.4568 11.7164C47.3227 11.7858 47.1746 11.8219 47.0243 11.8219C46.874 11.8219 46.7259 11.7858 46.5918 11.7164C46.5385 11.6992 46.4919 11.6651 46.4588 11.619C46.4258 11.573 46.408 11.5173 46.408 11.4601C46.408 11.403 46.4258 11.3473 46.4588 11.3012C46.4919 11.2552 46.5385 11.2211 46.5918 11.2039C46.7259 11.1345 46.874 11.0984 47.0243 11.0984C47.1746 11.0984 47.3227 11.1345 47.4568 11.2039V11.2039Z" stroke="#B99522" stroke-miterlimit="10"/>
<path d="M51.6244 9.94775V10.3032C51.2484 10.4313 50.8685 10.5718 50.4926 10.7165V10.361C50.8685 10.1999 51.2484 10.0593 51.6284 9.94775H51.6244Z" stroke="#B99522" stroke-miterlimit="10"/>
<path d="M50.4885 10.3774V10.7329L47.756 11.2578V10.9023L50.4885 10.3774Z" stroke="#B99522" stroke-miterlimit="10"/>
<path d="M46.4544 11.3653V11.7207C46.3907 11.6911 46.3356 11.6451 46.2945 11.5871C46.2534 11.5291 46.2277 11.4613 46.22 11.3901V11.0347C46.2277 11.1058 46.2534 11.1737 46.2945 11.2317C46.3356 11.2896 46.3907 11.3357 46.4544 11.3653V11.3653Z" stroke="#B99522" stroke-miterlimit="10"/>
<path d="M46.4875 11.378V11.7359C46.4608 11.6144 46.4497 11.4899 46.4545 11.3655L46.4875 11.378Z" stroke="#B99522" stroke-miterlimit="10"/>
<path d="M47.7884 11.0427V11.3982C47.7832 11.4669 47.7603 11.5329 47.722 11.5896C47.6836 11.6462 47.6312 11.6914 47.5701 11.7205C47.329 11.8441 47.0545 11.8819 46.79 11.828V11.4767C47.0549 11.5293 47.3295 11.49 47.5701 11.3651C47.632 11.3371 47.6851 11.2922 47.7236 11.2353C47.7621 11.1784 47.7845 11.1118 47.7884 11.0427V11.0427Z" stroke="#B99522" stroke-miterlimit="10"/>
<path d="M46.7899 11.4771V11.8284L45.9127 13.4526V13.0972L46.7899 11.4771Z" stroke="#B99522" stroke-miterlimit="10"/>
<path d="M45.9128 13.0972V13.4526C45.6501 13.6799 45.4075 13.9031 45.1933 14.1263V13.7708C45.4075 13.5477 45.6501 13.3245 45.9169 13.0972H45.9128Z" stroke="#B99522" stroke-miterlimit="10"/>
<path d="M46.7899 11.4769L45.9128 13.0971C45.646 13.3244 45.4034 13.5476 45.1892 13.7707L46.4868 11.3778C46.1432 11.1835 46.1432 10.8901 46.4504 10.7041C46.6232 10.6144 46.8143 10.5677 47.0082 10.5677C47.202 10.5677 47.3931 10.6144 47.566 10.7041C47.566 10.7247 51.6082 9.94775 51.6082 9.94775C51.2282 10.0759 50.8483 10.2164 50.4723 10.361L47.7398 10.8859C47.7589 10.9286 47.7691 10.9748 47.77 11.0217C47.7709 11.0686 47.7623 11.1152 47.7449 11.1585C47.7275 11.2019 47.7015 11.2412 47.6687 11.2739C47.6358 11.3067 47.5968 11.3321 47.5539 11.3488C47.3198 11.4757 47.0514 11.5207 46.7899 11.4769V11.4769Z" stroke="#B99522" stroke-miterlimit="10"/>
<path d="M44.2513 15.0311C44.7526 13.9276 46.1633 12.6299 48.1278 11.4644C49.982 10.337 52.0171 9.5548 54.1385 9.15405V12.8737C52.0158 13.2721 49.9793 14.053 48.1238 15.1799C46.1593 16.3454 44.7485 17.6597 44.2513 18.7466V15.0311Z" stroke="#B99522" stroke-miterlimit="10"/>
<path d="M44.2553 15.0313L44.2472 18.7592L43.9481 18.7137L43.9602 14.9817L44.2553 15.0313Z" stroke="#B99522" stroke-miterlimit="10"/>
<path d="M54.0619 8.98047L54.1427 9.15405C52.0213 9.5548 49.9862 10.337 48.132 11.4644C46.1675 12.6299 44.7568 13.9441 44.2555 15.0311L43.9604 14.9856C44.4657 13.8491 45.9088 12.5059 47.9097 11.3321C49.8071 10.18 51.8906 9.3836 54.0619 8.98047V8.98047Z" stroke="#B99522" stroke-miterlimit="10"/>
<path d="M45.5854 21.6606C45.3774 21.6637 45.1718 21.614 44.9872 21.5159L40.7995 19.0361C40.735 19.0071 40.679 18.9613 40.6372 18.9033C40.5954 18.8453 40.5691 18.7771 40.561 18.7055C40.5697 18.6347 40.5963 18.5673 40.6381 18.5101C40.6799 18.4529 40.7355 18.4077 40.7995 18.379C40.8319 18.3634 40.8689 18.361 40.903 18.3722C40.9372 18.3834 40.9658 18.4075 40.9833 18.4395C41.0007 18.4715 41.0057 18.5091 40.997 18.5446C40.9884 18.5802 40.9669 18.6111 40.9369 18.6311C40.8986 18.6507 40.8664 18.6807 40.8439 18.7179C40.8439 18.7179 40.8722 18.7427 40.9409 18.7882L45.1246 21.2679C45.2691 21.3334 45.4254 21.3673 45.5834 21.3673C45.7414 21.3673 45.8977 21.3334 46.0422 21.2679L50.0318 18.8956C50.0708 18.8755 50.1042 18.8457 50.1288 18.8088C50.1288 18.8088 50.1005 18.7799 50.0278 18.7386C49.9956 18.7188 49.9725 18.6868 49.9634 18.6496C49.9543 18.6125 49.96 18.5731 49.9793 18.5402C49.9884 18.5235 50.0008 18.5089 50.0157 18.4973C50.0306 18.4856 50.0476 18.4772 50.0658 18.4726C50.084 18.4679 50.1029 18.4671 50.1214 18.4702C50.1399 18.4733 50.1575 18.4803 50.1733 18.4906C50.2431 18.5104 50.3046 18.5531 50.3484 18.6121C50.3922 18.671 50.4159 18.743 50.4159 18.8171C50.4159 18.8912 50.3922 18.9632 50.3484 19.0221C50.3046 19.0811 50.2431 19.1238 50.1733 19.1436L46.1837 21.5159C45.999 21.614 45.7935 21.6637 45.5854 21.6606V21.6606Z" stroke="#B99522" stroke-miterlimit="10"/>
<path d="M35.686 43.1975L34.5623 42.5279L36.2074 33.9355L37.3312 34.6051L35.686 43.1975Z" stroke="#B99522" stroke-miterlimit="10"/>
<path d="M37.3311 34.6049L36.2074 33.9354L42.3637 30.3025L43.4874 30.9679L37.3311 34.6049Z" stroke="#B99522" stroke-miterlimit="10"/>
<path d="M35.6858 43.1974L37.331 34.605L43.4872 30.968V31.6582L38.774 34.4438L37.2784 42.2592L35.6858 43.1974Z" stroke="#B99522" stroke-miterlimit="10"/>
<path d="M47.0808 44.2801C46.6795 44.4846 46.2363 44.5886 45.7879 44.5836C45.3396 44.5785 44.8988 44.4646 44.5019 44.2512C44.358 44.1831 44.2343 44.0773 44.1434 43.9444C44.0525 43.8115 43.9977 43.6564 43.9845 43.4949V44.681C43.9977 44.8426 44.0525 44.9977 44.1434 45.1306C44.2343 45.2634 44.358 45.3693 44.5019 45.4374C44.8991 45.6501 45.34 45.7633 45.7884 45.7676C46.2368 45.772 46.6798 45.6673 47.0808 45.4622C47.2317 45.3966 47.3625 45.2905 47.4592 45.1552C47.556 45.0199 47.6152 44.8603 47.6306 44.6934V43.5073C47.6146 43.6745 47.5553 43.8344 47.4586 43.9702C47.362 44.1061 47.2315 44.2131 47.0808 44.2801V44.2801Z" stroke="#B99522" stroke-miterlimit="10"/>
<path d="M47.1294 42.7511C46.7323 42.5383 46.2913 42.4251 45.8429 42.4208C45.3945 42.4165 44.9516 42.5212 44.5505 42.7263C43.827 43.1396 43.8108 43.8215 44.5141 44.2513C44.911 44.4647 45.3518 44.5787 45.8002 44.5837C46.2486 44.5887 46.6917 44.4847 47.0931 44.2803C47.8126 43.8628 47.8287 43.1809 47.1294 42.7511Z" stroke="#B99522" stroke-miterlimit="10"/>
<path d="M46.7859 41.2009C46.5131 41.0308 46.2016 40.9365 45.8823 40.9273C45.5629 40.918 45.2467 40.9942 44.9649 41.1483C44.6832 41.3023 44.4457 41.5289 44.2759 41.8056C44.1061 42.0823 44.0099 42.3996 43.9968 42.726V43.2178C44.0106 43.3786 44.0658 43.5329 44.1566 43.6649C44.2475 43.797 44.3708 43.9022 44.5142 43.97C44.911 44.1834 45.3518 44.2973 45.8002 44.3023C46.2486 44.3074 46.6917 44.2034 47.0931 43.9989C47.2443 43.9326 47.3752 43.8258 47.4719 43.6898C47.5687 43.5538 47.6277 43.3936 47.6428 43.2261V42.7384C47.6418 42.4283 47.5623 42.1238 47.4122 41.8544C47.262 41.585 47.0463 41.3599 46.7859 41.2009V41.2009Z" stroke="#B99522" stroke-miterlimit="10"/>
<path d="M45.9307 41.3964C45.8985 41.4129 45.863 41.4215 45.8269 41.4215C45.7909 41.4215 45.7553 41.4129 45.7231 41.3964C45.6661 41.3589 45.6661 41.3048 45.7231 41.2715C45.7558 41.254 45.7921 41.2449 45.829 41.2449C45.8658 41.2449 45.9021 41.254 45.9348 41.2715C45.9877 41.309 45.9877 41.3631 45.9307 41.3964Z" stroke="#B99522" stroke-miterlimit="10"/>
<path d="M58.7589 37.3905C58.3578 37.5956 57.9149 37.7003 57.4665 37.696C57.0181 37.6917 56.5771 37.5785 56.1799 37.3657C56.036 37.2976 55.9123 37.1918 55.8215 37.0589C55.7306 36.926 55.6757 36.7709 55.6625 36.6094V37.7955C55.6772 37.9561 55.7327 38.11 55.8234 38.242C55.9142 38.3739 56.0371 38.4793 56.1799 38.5477C56.5768 38.7611 57.0176 38.8751 57.466 38.8801C57.9144 38.8851 58.3575 38.7811 58.7589 38.5767C58.9106 38.5106 59.0421 38.404 59.1395 38.268C59.237 38.132 59.2968 37.9716 59.3126 37.8038V36.6176C59.2959 36.7852 59.2358 36.9452 59.1385 37.081C59.0411 37.2169 58.9101 37.3237 58.7589 37.3905V37.3905Z" stroke="#B99522" stroke-miterlimit="10"/>
<path d="M58.8033 35.8655C58.4065 35.6521 57.9657 35.5382 57.5173 35.5331C57.0689 35.5281 56.6258 35.6321 56.2244 35.8366C55.5009 36.2499 55.4847 36.9359 56.188 37.3658C56.5852 37.5785 57.0262 37.6917 57.4746 37.696C57.923 37.7004 58.3659 37.5956 58.767 37.3905C59.4824 36.9773 59.4986 36.3036 58.8033 35.8655Z" stroke="#B99522" stroke-miterlimit="10"/>
<path d="M58.4557 34.3115C58.1824 34.1426 57.8708 34.0493 57.5515 34.0409C57.2323 34.0325 56.9164 34.1092 56.6349 34.2635C56.3535 34.4178 56.1162 34.6444 55.9464 34.921C55.7766 35.1975 55.6802 35.5145 55.6666 35.8407V36.3284C55.6806 36.4897 55.7357 36.6445 55.8265 36.7772C55.9173 36.9099 56.0406 37.016 56.184 37.0848C56.5812 37.2975 57.0221 37.4107 57.4705 37.415C57.9189 37.4194 58.3618 37.3146 58.7629 37.1095C58.9143 37.0442 59.0456 36.9383 59.1431 36.803C59.2406 36.6677 59.3005 36.508 59.3167 36.3408V35.849C59.3144 35.5387 59.234 35.2342 59.0832 34.9649C58.9324 34.6956 58.7163 34.4706 58.4557 34.3115V34.3115Z" stroke="#B99522" stroke-miterlimit="10"/>
<path d="M57.5925 34.511C57.5605 34.5285 57.5249 34.5377 57.4887 34.5377C57.4524 34.5377 57.4168 34.5285 57.3848 34.511C57.3279 34.4777 57.3279 34.4236 57.3848 34.3903C57.4171 34.3738 57.4526 34.3652 57.4887 34.3652C57.5247 34.3652 57.5602 34.3738 57.5925 34.3903C57.6576 34.4236 57.6535 34.4777 57.5925 34.511Z" stroke="#B99522" stroke-miterlimit="10"/>
<path d="M74.3576 46.082L72.7892 47.012C72.6154 47.1111 72.478 47.0533 72.478 46.8756V45.5158C72.4869 45.4131 72.5199 45.3141 72.574 45.227C72.6282 45.14 72.702 45.0676 72.7892 45.0157L74.3576 44.0858C74.5314 43.9866 74.6688 44.0445 74.6688 44.2222V45.582C74.6599 45.6847 74.6269 45.7837 74.5727 45.8707C74.5186 45.9578 74.4448 46.0302 74.3576 46.082V46.082Z" stroke="#B99522" stroke-miterlimit="10"/>
<path d="M74.4587 44.0692C74.479 44.1063 74.479 45.4702 74.479 45.4702C74.4681 45.5724 74.4344 45.6707 74.3804 45.7574C74.3264 45.8441 74.2537 45.917 74.1677 45.9703L72.5953 46.8961C72.5589 46.9209 72.5306 46.8961 72.4983 46.8961C72.5225 47.0325 72.6357 47.0862 72.7893 46.9953L74.3577 46.0654C74.4449 46.0135 74.5187 45.9411 74.5729 45.8541C74.627 45.767 74.66 45.668 74.6689 45.5653V44.2055C74.6689 44.0857 74.5679 44.0444 74.4587 44.0692Z" stroke="#B99522" stroke-miterlimit="10"/>
<path d="M69.5636 48.9173L67.9912 49.8431C67.8174 49.9423 67.6799 49.8844 67.6799 49.7108V48.347C67.6896 48.2444 67.7228 48.1456 67.7769 48.0587C67.831 47.9718 67.9044 47.8992 67.9912 47.8469L69.5636 46.917C69.7334 46.8178 69.8708 46.8798 69.8708 47.0534V48.4131C69.8613 48.5157 69.8286 48.6147 69.7753 48.7022C69.722 48.7897 69.6495 48.8633 69.5636 48.9173V48.9173Z" stroke="#B99522" stroke-miterlimit="10"/>
<path d="M69.6606 46.9006C69.6606 46.9419 69.6606 48.3017 69.6606 48.3017C69.6516 48.4044 69.6187 48.5034 69.5645 48.5905C69.5104 48.6775 69.4366 48.7499 69.3494 48.8018L67.781 49.7317C67.7406 49.7523 67.7123 49.7317 67.6799 49.7317C67.7042 49.8639 67.8174 49.9177 67.971 49.8267L69.5434 48.901C69.6293 48.847 69.7018 48.7733 69.7551 48.6858C69.8084 48.5983 69.8411 48.4994 69.8506 48.3967V47.0494C69.8708 46.9171 69.7778 46.8799 69.6606 46.9006Z" stroke="#B99522" stroke-miterlimit="10"/>
<path d="M64.7654 51.7483L63.193 52.6741C63.0233 52.7775 62.8818 52.7155 62.8818 52.5419V51.1821C62.8926 51.0799 62.9264 50.9817 62.9803 50.895C63.0343 50.8082 63.1071 50.7354 63.193 50.682L64.7654 49.7563C64.9352 49.6529 65.0726 49.7149 65.0726 49.8885V51.2524C65.0619 51.3536 65.0287 51.4509 64.9754 51.5369C64.9222 51.6229 64.8503 51.6952 64.7654 51.7483V51.7483Z" stroke="#B99522" stroke-miterlimit="10"/>
<path d="M64.8667 49.7356C64.8667 49.7727 64.8667 51.1325 64.8667 51.1325C64.8577 51.2352 64.8247 51.3343 64.7706 51.4213C64.7164 51.5083 64.6426 51.5808 64.5554 51.6326L62.987 52.5625C62.9466 52.5625 62.9224 52.5625 62.886 52.5625C62.9143 52.6947 63.0234 52.7485 63.177 52.6575L64.7494 51.7318C64.8348 51.6782 64.907 51.6052 64.9603 51.5185C65.0136 51.4317 65.0465 51.3336 65.0566 51.2317V49.8678C65.0728 49.748 64.9798 49.7108 64.8667 49.7356Z" stroke="#B99522" stroke-miterlimit="10"/>
<path d="M59.9675 54.5796L58.3991 55.5054C58.2294 55.6087 58.0879 55.5467 58.0879 55.3732V54.0093C58.0987 53.9071 58.1325 53.8088 58.1864 53.7221C58.2404 53.6354 58.3132 53.5625 58.3991 53.5092L59.9716 52.5834C60.1413 52.4801 60.2828 52.5421 60.2828 52.7157V54.0754C60.2727 54.1789 60.2389 54.2785 60.1841 54.3661C60.1294 54.4537 60.0551 54.5269 59.9675 54.5796Z" stroke="#B99522" stroke-miterlimit="10"/>
<path d="M60.0644 52.567C60.0644 52.6042 60.0644 53.9681 60.0644 53.9681C60.0545 54.0705 60.0211 54.1691 59.9671 54.256C59.913 54.3429 59.8397 54.4155 59.7532 54.4681L58.1848 55.3939C58.1444 55.4187 58.1201 55.3939 58.0837 55.3939C58.112 55.5262 58.2212 55.5799 58.3748 55.489L59.9472 54.5632C60.0335 54.5103 60.1067 54.4376 60.1607 54.3508C60.2147 54.264 60.2482 54.1655 60.2584 54.0631V52.6992C60.2786 52.5835 60.1816 52.5422 60.0644 52.567Z" stroke="#B99522" stroke-miterlimit="10"/>
<path d="M55.1653 57.4107L53.5929 58.3406C53.4232 58.4398 53.2817 58.3819 53.2817 58.2042V56.8444C53.2916 56.742 53.325 56.6433 53.379 56.5565C53.4331 56.4696 53.5064 56.3969 53.5929 56.3444L55.1653 55.4144C55.3351 55.3152 55.4766 55.3731 55.4766 55.5508V56.9106C55.4667 57.013 55.4333 57.1117 55.3792 57.1985C55.3252 57.2854 55.2519 57.3581 55.1653 57.4107V57.4107Z" stroke="#B99522" stroke-miterlimit="10"/>
<path d="M55.2663 55.3979C55.2865 55.4351 55.2865 56.7989 55.2865 56.7989C55.2764 56.9008 55.2434 56.999 55.1901 57.0857C55.1369 57.1725 55.0647 57.2455 54.9793 57.299L53.4069 58.2083C53.3665 58.2331 53.3422 58.2083 53.3058 58.2083C53.3341 58.3405 53.4433 58.3943 53.5969 58.3075L55.1693 57.3776C55.2559 57.325 55.3291 57.2523 55.3832 57.1654C55.4373 57.0786 55.4706 56.9799 55.4805 56.8775V55.5177C55.4805 55.4144 55.3835 55.3731 55.2663 55.3979Z" stroke="#B99522" stroke-miterlimit="10"/>
<path d="M50.3713 60.2456L48.7989 61.1714C48.6291 61.2706 48.4917 61.2127 48.4917 61.035V59.6753C48.5012 59.5732 48.5339 59.4748 48.5873 59.3879C48.6406 59.3011 48.7131 59.2282 48.7989 59.1752L50.3713 58.2452C50.5411 58.1461 50.6826 58.2039 50.6826 58.3816V59.7414C50.6723 59.8443 50.6389 59.9434 50.5849 60.0309C50.5309 60.1184 50.4578 60.1918 50.3713 60.2456V60.2456Z" stroke="#B99522" stroke-miterlimit="10"/>
<path d="M50.4722 58.2288C50.4722 58.2701 50.4722 59.6299 50.4722 59.6299C50.4627 59.7319 50.43 59.8303 50.3767 59.9172C50.3233 60.004 50.2508 60.0769 50.165 60.1299L48.5926 61.0599C48.5522 61.0599 48.5279 61.0599 48.4956 61.0599C48.5199 61.1921 48.633 61.2458 48.7826 61.1549L50.355 60.2291C50.4415 60.1754 50.5146 60.1019 50.5686 60.0144C50.6226 59.9269 50.656 59.8278 50.6663 59.7249V58.3652C50.6824 58.2453 50.5895 58.2081 50.4722 58.2288Z" stroke="#B99522" stroke-miterlimit="10"/>
<path d="M45.5732 63.0767L44.0008 63.9942C43.831 64.0975 43.6936 64.0355 43.6936 63.8619V62.4981C43.7037 62.3961 43.7367 62.298 43.79 62.2113C43.8433 62.1245 43.9154 62.0515 44.0008 61.998L45.5732 61.0722C45.747 60.9689 45.8845 61.0309 45.8845 61.2044V62.5683C45.8758 62.6722 45.843 62.7725 45.7889 62.8609C45.7348 62.9493 45.6608 63.0233 45.5732 63.0767V63.0767Z" stroke="#B99522" stroke-miterlimit="10"/>
<path d="M45.6743 61.0642C45.6743 61.1014 45.6743 62.4611 45.6743 62.4611C45.6643 62.5636 45.631 62.6622 45.5769 62.7491C45.5229 62.8359 45.4496 62.9086 45.363 62.9612L43.7906 63.8911C43.7542 63.9118 43.7259 63.8911 43.6936 63.8911C43.7179 64.0234 43.831 64.0771 43.9806 63.9862L45.553 63.0604C45.6396 63.0078 45.7129 62.9351 45.7669 62.8483C45.821 62.7614 45.8543 62.6628 45.8643 62.5603V61.1964C45.8683 61.0766 45.7915 61.0394 45.6743 61.0642Z" stroke="#B99522" stroke-miterlimit="10"/>
<path d="M40.7751 65.9078L39.2068 66.8335C39.0329 66.9369 38.8955 66.8749 38.8955 66.7013V65.3374C38.9054 65.2349 38.9388 65.1363 38.9929 65.0494C39.0469 64.9626 39.1202 64.8899 39.2068 64.8373L40.7751 63.9115C40.9489 63.8082 41.0864 63.8702 41.0864 64.0438V65.4077C41.0764 65.5101 41.0431 65.6088 40.989 65.6956C40.935 65.7825 40.8617 65.8552 40.7751 65.9078V65.9078Z" stroke="#B99522" stroke-miterlimit="10"/>
<path d="M40.8762 63.8951C40.8762 63.9323 40.8762 65.2962 40.8762 65.2962C40.8653 65.3984 40.8316 65.4966 40.7776 65.5834C40.7236 65.6701 40.6509 65.7429 40.5649 65.7963L38.9965 66.722C38.9602 66.7468 38.9319 66.722 38.8995 66.722C38.9238 66.8543 39.037 66.908 39.1906 66.8171L40.7589 65.8913C40.8455 65.8387 40.9188 65.7661 40.9728 65.6792C41.0269 65.5923 41.0603 65.4937 41.0702 65.3912V64.0274C41.0864 63.9116 40.9934 63.8703 40.8762 63.8951Z" stroke="#B99522" stroke-miterlimit="10"/>
<path d="M74.4709 58.2083L72.8985 59.1341C72.7287 59.2374 72.5872 59.1754 72.5872 59.0018V57.6379C72.5975 57.5356 72.6309 57.4371 72.685 57.3502C72.739 57.2634 72.8121 57.1907 72.8985 57.1379L74.4709 56.2121C74.6406 56.1088 74.7821 56.1707 74.7821 56.3443V57.7082C74.7713 57.8104 74.7375 57.9087 74.6836 57.9954C74.6296 58.0821 74.5568 58.155 74.4709 58.2083V58.2083Z" stroke="#B99522" stroke-miterlimit="10"/>
<path d="M74.5678 56.1957C74.588 56.2329 74.588 57.5926 74.588 57.5926C74.5791 57.6949 74.5466 57.7935 74.4932 57.8805C74.4398 57.9674 74.367 58.0401 74.2808 58.0927L72.7084 59.035C72.6679 59.0557 72.6437 59.035 72.6073 59.035C72.6356 59.1673 72.7447 59.221 72.8983 59.1301L74.4707 58.2043C74.5567 58.151 74.6295 58.0781 74.6834 57.9914C74.7374 57.9047 74.7711 57.8064 74.782 57.7042V56.3403C74.782 56.2081 74.685 56.1709 74.5678 56.1957Z" stroke="#B99522" stroke-miterlimit="10"/>
<path d="M69.6726 61.0393L68.1002 61.9651C67.9305 62.0684 67.793 62.0065 67.793 61.8329V60.469C67.8031 60.3671 67.8361 60.2689 67.8894 60.1822C67.9427 60.0955 68.0148 60.0225 68.1002 59.9689L69.6726 59.0431C69.8424 58.9398 69.9839 59.0018 69.9839 59.1754V60.5393C69.973 60.6415 69.9393 60.7397 69.8853 60.8264C69.8314 60.9132 69.7586 60.986 69.6726 61.0393Z" stroke="#B99522" stroke-miterlimit="10"/>
<path d="M69.7698 59.0346C69.79 59.0718 69.79 60.4316 69.79 60.4316C69.7805 60.5342 69.7478 60.6332 69.6945 60.7207C69.6412 60.8082 69.5687 60.8818 69.4828 60.9358L67.9104 61.8616C67.8699 61.8864 67.8457 61.8616 67.8134 61.8616C67.8376 61.9938 67.9508 62.0476 68.1004 61.9566L69.6728 61.0308C69.7587 60.9775 69.8315 60.9047 69.8855 60.8179C69.9394 60.7312 69.9732 60.6329 69.984 60.5308V59.1669C69.984 59.0346 69.887 59.0016 69.7698 59.0346Z" stroke="#B99522" stroke-miterlimit="10"/>
<path d="M64.8665 63.8702L63.3022 64.8208C63.1324 64.92 62.995 64.8621 62.995 64.6844V63.3247C63.0045 63.222 63.0372 63.1231 63.0905 63.0356C63.1438 62.9481 63.2163 62.8744 63.3022 62.8204L64.8746 61.8947C65.0484 61.7955 65.1859 61.8533 65.1859 62.0311V63.3908C65.1724 63.4905 65.1365 63.5856 65.0811 63.6687C65.0257 63.7519 64.9523 63.8209 64.8665 63.8702V63.8702Z" stroke="#B99522" stroke-miterlimit="10"/>
<path d="M64.9757 61.8579C64.9757 61.8951 64.9757 63.2589 64.9757 63.2589C64.9648 63.3611 64.9311 63.4594 64.8771 63.5461C64.8231 63.6328 64.7504 63.7057 64.6644 63.759L63.092 64.6848C63.0556 64.7096 63.0273 64.6848 62.995 64.6848C63.0192 64.8171 63.1324 64.8708 63.282 64.784L64.8665 63.8706C64.9533 63.8183 65.0268 63.7457 65.0808 63.6588C65.1349 63.5718 65.1682 63.4731 65.1778 63.3705V62.0108C65.1859 61.8744 65.0929 61.8331 64.9757 61.8579Z" stroke="#B99522" stroke-miterlimit="10"/>
<path d="M60.0764 66.7014L58.508 67.6313C58.3342 67.7305 58.1968 67.6727 58.1968 67.495V66.1352C58.2058 66.0325 58.2387 65.9334 58.2929 65.8464C58.347 65.7594 58.4208 65.6869 58.508 65.6351L60.0764 64.7052C60.2502 64.606 60.3876 64.6639 60.3876 64.8416V66.2013C60.3787 66.3041 60.3457 66.4031 60.2916 66.4901C60.2374 66.5771 60.1636 66.6496 60.0764 66.7014V66.7014Z" stroke="#B99522" stroke-miterlimit="10"/>
<path d="M60.1774 64.6888C60.1774 64.7259 60.1774 66.0898 60.1774 66.0898C60.1672 66.1922 60.1337 66.2907 60.0797 66.3775C60.0257 66.4643 59.9526 66.5371 59.8662 66.5899L58.2938 67.5157C58.2574 67.5405 58.2291 67.5157 58.1968 67.5157C58.221 67.6521 58.3342 67.7058 58.4878 67.6149L60.0562 66.685C60.1434 66.6331 60.2172 66.5607 60.2713 66.4737C60.3255 66.3866 60.3585 66.2876 60.3674 66.1849V64.8251C60.3876 64.7053 60.2947 64.6681 60.1774 64.6888Z" stroke="#B99522" stroke-miterlimit="10"/>
<path d="M55.2785 69.5366L53.7102 70.4624C53.5364 70.5657 53.3989 70.5037 53.3989 70.3301V68.9539C53.4085 68.8513 53.4418 68.7525 53.4959 68.6656C53.5499 68.5787 53.6234 68.5061 53.7102 68.4538L55.2785 67.528C55.4524 67.4247 55.5898 67.4867 55.5898 67.6602V69.0241C55.5817 69.1287 55.5492 69.2299 55.4951 69.319C55.4409 69.4082 55.3667 69.4828 55.2785 69.5366V69.5366Z" stroke="#B99522" stroke-miterlimit="10"/>
<path d="M55.3796 67.5236C55.3998 67.5608 55.3998 68.9206 55.3998 68.9206C55.3899 69.023 55.3565 69.1217 55.3025 69.2085C55.2484 69.2954 55.1751 69.3681 55.0886 69.4207L53.5161 70.3506C53.4798 70.3712 53.4515 70.3506 53.4191 70.3506C53.4434 70.4828 53.5566 70.5366 53.7102 70.4456L55.2785 69.5199C55.3651 69.4673 55.4384 69.3946 55.4924 69.3077C55.5465 69.2209 55.5799 69.1222 55.5898 69.0198V67.6559C55.5898 67.536 55.4968 67.4988 55.3796 67.5236Z" stroke="#B99522" stroke-miterlimit="10"/>
<path d="M50.4803 72.3677L48.912 73.2935C48.7381 73.3968 48.6007 73.3348 48.6007 73.1612V71.7974C48.6106 71.6949 48.644 71.5963 48.698 71.5094C48.7521 71.4225 48.8254 71.3499 48.912 71.2973L50.4803 70.3715C50.6541 70.2682 50.7916 70.3302 50.7916 70.5038V71.8676C50.7816 71.9701 50.7483 72.0687 50.6942 72.1556C50.6402 72.2425 50.5669 72.3151 50.4803 72.3677Z" stroke="#B99522" stroke-miterlimit="10"/>
<path d="M50.5814 70.3549C50.5814 70.3921 50.5814 71.7519 50.5814 71.7519C50.5721 71.8551 50.539 71.9545 50.4849 72.0422C50.4308 72.1298 50.3572 72.2031 50.2701 72.2561L48.7018 73.1819C48.6613 73.2025 48.633 73.1819 48.6007 73.1819C48.629 73.3141 48.7381 73.3679 48.8917 73.2769L50.4642 72.3512C50.5496 72.2976 50.6217 72.2246 50.675 72.1379C50.7283 72.0511 50.7613 71.953 50.7714 71.8511V70.4872C50.7916 70.3673 50.7188 70.3301 50.5814 70.3549Z" stroke="#B99522" stroke-miterlimit="10"/>
<path d="M19.2141 58.5844V57.2206C19.2141 57.047 19.3515 56.985 19.5253 57.0883L21.0937 58.0141C21.1802 58.0667 21.2535 58.1393 21.3076 58.2262C21.3616 58.3131 21.395 58.4117 21.4049 58.5142V59.8615C21.4049 60.0351 21.2675 60.0971 21.0937 59.9938L19.5253 59.068C19.4408 59.017 19.3687 58.947 19.3148 58.8631C19.2608 58.7793 19.2264 58.684 19.2141 58.5844V58.5844Z" stroke="#B99522" stroke-miterlimit="10"/>
<path d="M19.4243 57.0717C19.4243 57.1089 19.4243 58.4687 19.4243 58.4687C19.4336 58.5719 19.4667 58.6713 19.5208 58.7589C19.5749 58.8466 19.6485 58.9199 19.7356 58.9729L21.3039 59.8987C21.3444 59.8987 21.3727 59.8987 21.405 59.8987C21.3807 60.0309 21.2676 60.0847 21.114 59.9937L19.5456 59.0679C19.459 59.0154 19.3857 58.9427 19.3317 58.8558C19.2776 58.769 19.2443 58.6703 19.2343 58.5679V57.204C19.2141 57.0841 19.3071 57.0469 19.4243 57.0717Z" stroke="#B99522" stroke-miterlimit="10"/>
<path d="M23.5474 61.1429V59.779C23.5474 59.6054 23.6888 59.5476 23.8586 59.6468L25.431 60.5725C25.5169 60.6265 25.5894 60.7002 25.6427 60.7877C25.696 60.8752 25.7287 60.9741 25.7382 61.0768V62.4365C25.7382 62.6101 25.6008 62.6721 25.431 62.5688L23.8586 61.643C23.7723 61.5901 23.6991 61.5174 23.6451 61.4306C23.5911 61.3438 23.5576 61.2453 23.5474 61.1429V61.1429Z" stroke="#B99522" stroke-miterlimit="10"/>
<path d="M23.7616 59.6298C23.7414 59.667 23.7414 61.0309 23.7414 61.0309C23.7529 61.1292 23.7857 61.2236 23.8375 61.3072C23.8892 61.3909 23.9586 61.4617 24.0405 61.5145L25.6129 62.4402C25.6533 62.465 25.6776 62.4402 25.7139 62.4402C25.6856 62.5725 25.5725 62.6262 25.4229 62.5353L23.8505 61.6095C23.7641 61.5567 23.691 61.4839 23.637 61.3971C23.583 61.3103 23.5495 61.2118 23.5392 61.1094V59.7456C23.5473 59.6464 23.6363 59.605 23.7616 59.6298Z" stroke="#B99522" stroke-miterlimit="10"/>
<path d="M27.8846 63.7008V62.3411C27.8846 62.1634 28.0221 62.1055 28.1959 62.2047L29.7643 63.1346C29.8515 63.1865 29.9253 63.2589 29.9794 63.3459C30.0336 63.433 30.0665 63.532 30.0755 63.6347V64.9945C30.0755 65.1722 29.9381 65.23 29.7643 65.1309L28.1959 64.2009C28.1087 64.1491 28.0349 64.0767 27.9807 63.9896C27.9266 63.9026 27.8936 63.8036 27.8846 63.7008V63.7008Z" stroke="#B99522" stroke-miterlimit="10"/>
<path d="M28.0827 62.1882C28.0827 62.2254 28.0827 63.5893 28.0827 63.5893C28.0929 63.6916 28.1264 63.7901 28.1804 63.8769C28.2345 63.9638 28.3076 64.0365 28.3939 64.0893L29.9663 65.0151C30.0027 65.0399 30.031 65.0151 30.0634 65.0151C30.0391 65.1515 29.9259 65.2052 29.7723 65.1143L28.204 64.1844C28.1167 64.1326 28.0429 64.0601 27.9888 63.9731C27.9346 63.8861 27.9017 63.787 27.8927 63.6843V62.3411C27.8846 62.2047 27.9776 62.1675 28.0827 62.1882Z" stroke="#B99522" stroke-miterlimit="10"/>
<path d="M32.2178 66.2593V64.8995C32.2178 64.726 32.3593 64.664 32.5291 64.7632L34.1015 65.6931C34.1879 65.7459 34.261 65.8186 34.315 65.9055C34.369 65.9923 34.4025 66.0908 34.4127 66.1932V67.557C34.4127 67.7306 34.2713 67.7885 34.1015 67.6893L32.5291 66.7635C32.4426 66.7098 32.3695 66.6363 32.3155 66.5488C32.2615 66.4613 32.2281 66.3622 32.2178 66.2593V66.2593Z" stroke="#B99522" stroke-miterlimit="10"/>
<path d="M32.4321 64.7506C32.4119 64.7878 32.4119 66.1475 32.4119 66.1475C32.4208 66.2502 32.4538 66.3493 32.5079 66.4363C32.5621 66.5233 32.6359 66.5958 32.7231 66.6476L34.2915 67.5775C34.3319 67.5982 34.3562 67.5775 34.3925 67.5775C34.3642 67.7098 34.2551 67.7635 34.1015 67.6726L32.5291 66.7633C32.4426 66.7096 32.3695 66.6361 32.3155 66.5486C32.2615 66.4611 32.2281 66.362 32.2178 66.2591V64.8994C32.2178 64.763 32.3148 64.7258 32.4321 64.7506Z" stroke="#B99522" stroke-miterlimit="10"/>
<path d="M66.6533 39.5768L65.0809 40.5026C64.9111 40.6059 64.7697 40.5439 64.7697 40.3703V39.0106C64.7799 38.9077 64.8134 38.8086 64.8674 38.7211C64.9214 38.6336 64.9945 38.5601 65.0809 38.5064L66.6533 37.5806C66.8231 37.4814 66.9605 37.5393 66.9605 37.7129V39.0767C66.951 39.1788 66.9183 39.2772 66.865 39.364C66.8116 39.4509 66.7391 39.5237 66.6533 39.5768Z" stroke="#B99522" stroke-miterlimit="10"/>
<path d="M66.7503 37.564C66.7705 37.6012 66.7705 38.9651 66.7705 38.9651C66.7605 39.0675 66.7272 39.1662 66.6731 39.253C66.6191 39.3399 66.5458 39.4126 66.4592 39.4652L64.8908 40.391C64.8504 40.4157 64.8262 40.391 64.7898 40.391C64.8181 40.5232 64.9272 40.5769 65.0808 40.486L66.6532 39.5602C66.7391 39.5072 66.8115 39.4343 66.8649 39.3475C66.9182 39.2606 66.951 39.1622 66.9604 39.0601V37.6963C66.9604 37.5805 66.8877 37.5434 66.7503 37.564Z" stroke="#B99522" stroke-miterlimit="10"/>
<path d="M61.8552 42.408L60.2827 43.3296C60.113 43.4288 59.9715 43.3709 59.9715 43.1932V41.8418C59.9814 41.7393 60.0148 41.6407 60.0688 41.5538C60.1229 41.4669 60.1962 41.3943 60.2827 41.3417L61.8552 40.4118C62.0249 40.3126 62.1664 40.3704 62.1664 40.5481V41.9079C62.1565 42.0103 62.1231 42.109 62.0691 42.1958C62.015 42.2827 61.9417 42.3554 61.8552 42.408Z" stroke="#B99522" stroke-miterlimit="10"/>
<path d="M61.9522 40.395C61.9724 40.4322 61.9724 41.796 61.9724 41.796C61.9628 41.8986 61.9296 41.9974 61.8755 42.0843C61.8214 42.1712 61.748 42.2438 61.6612 42.2961L60.0928 43.2219C60.0524 43.2467 60.0281 43.2219 59.9918 43.2219C60.0201 43.3583 60.1292 43.412 60.2828 43.3211L61.8552 42.3912C61.9418 42.3386 62.015 42.2659 62.0691 42.1791C62.1232 42.0922 62.1565 41.9936 62.1665 41.8911V40.5479C62.1665 40.4115 62.0694 40.3702 61.9522 40.395Z" stroke="#B99522" stroke-miterlimit="10"/>
<path d="M57.057 45.2432L55.4846 46.169C55.3149 46.2682 55.1774 46.2103 55.1774 46.0367V44.6729C55.1869 44.5708 55.2197 44.4724 55.273 44.3855C55.3263 44.2987 55.3988 44.2258 55.4846 44.1728L57.057 43.247C57.2268 43.1437 57.3683 43.2057 57.3683 43.3792V44.7431C57.3574 44.8453 57.3237 44.9436 57.2697 45.0303C57.2158 45.117 57.143 45.1899 57.057 45.2432V45.2432Z" stroke="#B99522" stroke-miterlimit="10"/>
<path d="M57.1541 43.2304C57.1743 43.2676 57.1743 44.6274 57.1743 44.6274C57.1655 44.7296 57.133 44.8283 57.0796 44.9152C57.0262 45.0021 56.9534 45.0749 56.8671 45.1274L55.2947 46.0574C55.2543 46.078 55.23 46.0574 55.1937 46.0574C55.222 46.1896 55.3351 46.2433 55.4847 46.1524L57.0571 45.2266C57.1436 45.1729 57.2167 45.0994 57.2707 45.0119C57.3247 44.9244 57.3581 44.8253 57.3684 44.7224V43.3627C57.3684 43.2428 57.2713 43.2056 57.1541 43.2304Z" stroke="#B99522" stroke-miterlimit="10"/>
<path d="M52.259 48.0743L50.6866 49C50.5168 49.1034 50.3794 49.0414 50.3794 48.8678V47.5039C50.3895 47.402 50.4225 47.3039 50.4758 47.2171C50.5291 47.1304 50.6012 47.0574 50.6866 47.0038L52.259 46.078C52.4288 45.9747 52.5703 46.0367 52.5703 46.2103V47.5742C52.5594 47.6764 52.5257 47.7746 52.4717 47.8613C52.4177 47.9481 52.345 48.0209 52.259 48.0743V48.0743Z" stroke="#B99522" stroke-miterlimit="10"/>
<path d="M52.3599 46.0615C52.3599 46.0987 52.3599 47.4585 52.3599 47.4585C52.3504 47.5611 52.3177 47.6601 52.2644 47.7476C52.2111 47.8351 52.1386 47.9087 52.0527 47.9627L50.4803 48.8885C50.4399 48.8885 50.4156 48.8885 50.3833 48.8885C50.4076 49.0207 50.5207 49.0744 50.6703 48.9835L52.2427 48.0577C52.3287 48.0044 52.4014 47.9316 52.4554 47.8448C52.5094 47.7581 52.5431 47.6598 52.554 47.5577V46.2227C52.5701 46.0739 52.4772 46.0367 52.3599 46.0615Z" stroke="#B99522" stroke-miterlimit="10"/>
<path d="M47.461 50.9054L45.8926 51.8312C45.7188 51.9345 45.5814 51.8725 45.5814 51.6989V50.3557C45.5907 50.2525 45.6237 50.1531 45.6778 50.0654C45.7319 49.9778 45.8055 49.9045 45.8926 49.8515L47.461 48.9257C47.6348 48.8224 47.7722 48.8844 47.7722 49.058V50.4218C47.7602 50.5215 47.7259 50.6169 47.6719 50.7008C47.6179 50.7847 47.5457 50.8547 47.461 50.9054V50.9054Z" stroke="#B99522" stroke-miterlimit="10"/>
<path d="M47.562 48.8927C47.562 48.9299 47.562 50.2937 47.562 50.2937C47.5512 50.3959 47.5175 50.4942 47.4635 50.5809C47.4095 50.6676 47.3367 50.7405 47.2508 50.7938L45.6784 51.7196C45.642 51.7444 45.6137 51.7196 45.5814 51.7196C45.6056 51.8519 45.7188 51.9056 45.8724 51.8147L47.4408 50.8889C47.5275 50.8365 47.601 50.7639 47.6551 50.677C47.7092 50.5901 47.7424 50.4913 47.752 50.3888V49.0249C47.7722 48.9092 47.6793 48.8679 47.562 48.8927Z" stroke="#B99522" stroke-miterlimit="10"/>
<path d="M42.6628 53.7363L41.0945 54.6662C40.9206 54.7654 40.7832 54.7076 40.7832 54.5299V53.1701C40.7922 53.0674 40.8251 52.9684 40.8793 52.8813C40.9334 52.7943 41.0072 52.7219 41.0945 52.67L42.6628 51.7401C42.8366 51.6409 42.9741 51.6988 42.9741 51.8765V53.2486C42.9632 53.3492 42.9294 53.4457 42.8754 53.5305C42.8213 53.6152 42.7485 53.6857 42.6628 53.7363V53.7363Z" stroke="#B99522" stroke-miterlimit="10"/>
<path d="M42.7639 51.7237C42.7841 51.7609 42.7841 53.1248 42.7841 53.1248C42.7739 53.2271 42.7404 53.3256 42.6864 53.4125C42.6324 53.4993 42.5592 53.572 42.4729 53.6249L40.9005 54.5506C40.8641 54.5754 40.8358 54.5506 40.8035 54.5506C40.8277 54.687 40.9409 54.7366 41.0945 54.6498L42.6629 53.7199C42.7501 53.6681 42.8239 53.5956 42.878 53.5086C42.9322 53.4216 42.9651 53.3226 42.9741 53.2198V51.8601C42.9741 51.7402 42.8811 51.6989 42.7639 51.7237Z" stroke="#B99522" stroke-miterlimit="10"/>
<path d="M26.6639 48.4834V47.1195C26.6639 46.9459 26.8013 46.8839 26.9751 46.9872L28.5435 47.913C28.6301 47.9656 28.7033 48.0383 28.7574 48.1251C28.8115 48.212 28.8448 48.3106 28.8547 48.4131V49.777C28.8547 49.9505 28.7173 50.0125 28.5435 49.9092L26.9751 48.9834C26.8886 48.9308 26.8153 48.8582 26.7612 48.7713C26.7072 48.6844 26.6738 48.5858 26.6639 48.4834V48.4834Z" stroke="#B99522" stroke-miterlimit="10"/>
<path d="M26.8699 46.9707C26.8497 47.0079 26.8497 48.3676 26.8497 48.3676C26.86 48.4705 26.8934 48.5696 26.9474 48.6571C27.0014 48.7446 27.0745 48.8181 27.161 48.8718L28.7334 49.7976C28.7697 49.7976 28.798 49.7976 28.8304 49.7976C28.8061 49.9299 28.6929 49.9836 28.5393 49.8927L26.971 48.9669C26.8844 48.9143 26.8111 48.8416 26.7571 48.7548C26.703 48.6679 26.6697 48.5692 26.6597 48.4668V47.1029C26.6638 46.9831 26.7567 46.9459 26.8699 46.9707Z" stroke="#B99522" stroke-miterlimit="10"/>
<path d="M31.0012 51.0416V49.6777C31.0012 49.5041 31.1386 49.4463 31.3084 49.5454L32.8808 50.4712C32.9672 50.525 33.0403 50.5985 33.0943 50.686C33.1483 50.7734 33.1818 50.8725 33.192 50.9754V52.3352C33.192 52.5088 33.0505 52.5708 32.8808 52.4674L31.3164 51.5417C31.2291 51.4895 31.1551 51.4171 31.1003 51.3302C31.0455 51.2433 31.0115 51.1444 31.0012 51.0416Z" stroke="#B99522" stroke-miterlimit="10"/>
<path d="M31.2113 49.5289C31.2113 49.5661 31.2113 50.93 31.2113 50.93C31.2213 51.0324 31.2546 51.1311 31.3087 51.2179C31.3627 51.3048 31.436 51.3774 31.5226 51.43L33.0909 52.3558C33.1314 52.3806 33.1556 52.3558 33.192 52.3558C33.1637 52.4881 33.0546 52.5418 32.901 52.4509L31.3164 51.5416C31.2306 51.4886 31.1581 51.4157 31.1048 51.3289C31.0514 51.242 31.0187 51.1436 31.0092 51.0415V49.6777C31.0011 49.5289 31.0941 49.5041 31.2113 49.5289Z" stroke="#B99522" stroke-miterlimit="10"/>
<path d="M35.3344 53.6V52.2403C35.3344 52.0626 35.4718 52.0047 35.6456 52.1039L37.218 53.0338C37.3043 53.0864 37.3771 53.1591 37.4305 53.246C37.4839 53.333 37.5164 53.4316 37.5252 53.5339V54.9019C37.5252 55.0796 37.3878 55.1375 37.218 55.0383L35.6456 54.1084C35.5573 54.0558 35.4829 53.982 35.4286 53.8935C35.3744 53.8049 35.3421 53.7042 35.3344 53.6V53.6Z" stroke="#B99522" stroke-miterlimit="10"/>
<path d="M35.5445 52.0875C35.5445 52.1247 35.5445 53.4886 35.5445 53.4886C35.5548 53.591 35.5883 53.6895 35.6423 53.7763C35.6963 53.8631 35.7694 53.9358 35.8558 53.9887L37.408 54.9021C37.4444 54.9269 37.4727 54.9021 37.505 54.9021C37.4807 55.0343 37.3676 55.0922 37.218 55.0013L35.6456 54.0714C35.5584 54.0195 35.4846 53.9471 35.4304 53.86C35.3763 53.773 35.3433 53.674 35.3344 53.5713V52.2115C35.3344 52.1041 35.4273 52.0627 35.5445 52.0875Z" stroke="#B99522" stroke-miterlimit="10"/>
<path d="M19.2141 65.4326V64.0687C19.2141 63.8951 19.3515 63.8331 19.5253 63.9364L21.0937 64.8622C21.1802 64.9148 21.2535 64.9875 21.3076 65.0743C21.3616 65.1612 21.395 65.2598 21.4049 65.3623V66.7262C21.4049 66.8998 21.2675 66.9618 21.0937 66.8584L19.5253 65.9327C19.4387 65.8801 19.3655 65.8074 19.3114 65.7205C19.2573 65.6337 19.224 65.535 19.2141 65.4326V65.4326Z" stroke="#B99522" stroke-miterlimit="10"/>
<path d="M19.4243 63.9199C19.4243 63.9571 19.4243 65.3209 19.4243 65.3209C19.4343 65.4234 19.4676 65.522 19.5217 65.6089C19.5757 65.6958 19.649 65.7684 19.7356 65.821L21.3039 66.7468C21.3444 66.7716 21.3727 66.7468 21.405 66.7468C21.3807 66.8791 21.2676 66.9328 21.114 66.8419L19.5456 65.9161C19.459 65.8635 19.3857 65.7908 19.3317 65.704C19.2776 65.6171 19.2443 65.5185 19.2343 65.416V64.0521C19.2141 63.9323 19.3071 63.8951 19.4243 63.9199Z" stroke="#B99522" stroke-miterlimit="10"/>
<path d="M23.5474 67.9909V66.6311C23.5474 66.4534 23.6888 66.3956 23.8586 66.4948L25.431 67.4205C25.5169 67.4745 25.5894 67.5482 25.6427 67.6357C25.696 67.7232 25.7287 67.8221 25.7382 67.9248V69.2845C25.7382 69.4622 25.6008 69.5201 25.431 69.4209L23.8586 68.491C23.7723 68.4381 23.6991 68.3654 23.6451 68.2786C23.5911 68.1918 23.5576 68.0933 23.5474 67.9909V67.9909Z" stroke="#B99522" stroke-miterlimit="10"/>
<path d="M23.7616 66.4741C23.7414 66.5113 23.7414 67.8752 23.7414 67.8752C23.7515 67.9771 23.7845 68.0752 23.8378 68.162C23.891 68.2487 23.9632 68.3217 24.0486 68.3753L25.621 69.3011C25.6614 69.3259 25.6857 69.3011 25.7221 69.3011C25.6938 69.4333 25.5806 69.487 25.431 69.4002L23.8586 68.4703C23.7723 68.4175 23.6991 68.3448 23.6451 68.2579C23.5911 68.1711 23.5576 68.0726 23.5474 67.9702V66.6105C23.5474 66.4948 23.6363 66.4741 23.7616 66.4741Z" stroke="#B99522" stroke-miterlimit="10"/>
<path d="M27.8846 70.5492V69.1895C27.8846 69.0118 28.0221 68.9539 28.1959 69.0531L29.7643 69.983C29.8515 70.0348 29.9253 70.1073 29.9794 70.1943C30.0336 70.2813 30.0665 70.3804 30.0755 70.4831V71.847C30.0755 72.0247 29.9381 72.0826 29.7643 71.9834L28.1959 71.0535C28.1081 71.0012 28.034 70.9281 27.9798 70.8403C27.9256 70.7526 27.893 70.6527 27.8846 70.5492V70.5492Z" stroke="#B99522" stroke-miterlimit="10"/>
<path d="M28.0827 69.0366C28.0827 69.0738 28.0827 70.4377 28.0827 70.4377C28.0929 70.5401 28.1264 70.6386 28.1804 70.7254C28.2345 70.8122 28.3076 70.8849 28.3939 70.9378L29.9663 71.8677C30.0027 71.8677 30.031 71.8677 30.0634 71.8677C30.0391 72.0041 29.9259 72.0578 29.7723 71.9669L28.204 71.037C28.1167 70.9852 28.0429 70.9127 27.9888 70.8257C27.9346 70.7387 27.9017 70.6396 27.8927 70.5369V69.1771C27.8846 69.0532 27.9776 69.016 28.0827 69.0366Z" stroke="#B99522" stroke-miterlimit="10"/>
<path d="M32.2178 73.1118V71.7479C32.2178 71.5743 32.3593 71.5123 32.5291 71.6156L34.1015 72.5414C34.1879 72.5943 34.261 72.667 34.315 72.7538C34.369 72.8406 34.4025 72.9391 34.4127 73.0415V74.4054C34.4127 74.579 34.2713 74.641 34.1015 74.5376L32.5291 73.6119C32.4431 73.5585 32.3704 73.4857 32.3164 73.3989C32.2624 73.3122 32.2287 73.214 32.2178 73.1118V73.1118Z" stroke="#B99522" stroke-miterlimit="10"/>
<path d="M32.4321 71.5987C32.4119 71.6359 32.4119 72.9957 32.4119 72.9957C32.4208 73.0984 32.4538 73.1974 32.5079 73.2844C32.5621 73.3715 32.6359 73.4439 32.7231 73.4957L34.2915 74.4257C34.3319 74.4257 34.3562 74.4257 34.3925 74.4257C34.3642 74.5579 34.2551 74.6116 34.1015 74.5207L32.5291 73.6115C32.4431 73.5581 32.3704 73.4853 32.3164 73.3986C32.2624 73.3118 32.2287 73.2136 32.2178 73.1114V71.7475C32.2178 71.6111 32.3148 71.5739 32.4321 71.5987Z" stroke="#B99522" stroke-miterlimit="10"/>
</svg>
