<svg width="37" height="37" viewBox="0 0 37 37" fill="none" xmlns="http://www.w3.org/2000/svg">
<path fill-rule="evenodd" clip-rule="evenodd" d="M37 18.5C37 28.7166 28.7166 37 18.5 37C8.28337 37 0 28.7166 0 18.5C0 8.28337 8.28337 0 18.5 0C28.7166 0 37 8.28337 37 18.5Z" fill="#2B2B2B"/>
<path fill-rule="evenodd" clip-rule="evenodd" d="M19.1634 13.6576C17.3642 14.4053 13.7675 15.9547 8.37478 18.3042C7.49911 18.6526 7.03969 18.9933 6.99807 19.3263C6.92715 19.8906 7.63324 20.1126 8.59215 20.4132C8.72319 20.4548 8.85886 20.4965 8.99761 20.5427C9.94265 20.8495 11.213 21.2087 11.8728 21.2226C12.4725 21.2349 13.1416 20.9883 13.8801 20.4826C18.9182 17.0801 21.519 15.3612 21.6824 15.3242C21.7981 15.298 21.9584 15.264 22.0663 15.3612C22.1742 15.4568 22.1634 15.6387 22.1527 15.688C22.0817 15.9855 19.316 18.5586 17.8822 19.8906C17.4352 20.3053 17.1191 20.5998 17.0544 20.6676C16.9094 20.8171 16.7614 20.9605 16.6196 21.0977C15.7409 21.9426 15.0841 22.5777 16.6566 23.6137C17.412 24.1117 18.0164 24.5233 18.6192 24.9334C19.2774 25.382 19.9342 25.8291 20.7852 26.3872C21.001 26.529 21.2076 26.6755 21.4096 26.8188C22.1758 27.3661 22.8649 27.8564 23.7159 27.7793C24.2092 27.733 24.7211 27.269 24.9801 25.883C25.5921 22.6055 26.7977 15.5076 27.0767 12.5815C27.0937 12.3386 27.0834 12.0945 27.0459 11.8539C27.0235 11.6595 26.9288 11.4807 26.7807 11.3528C26.5603 11.1725 26.218 11.1339 26.0639 11.137C25.3686 11.1493 24.3017 11.5209 19.1634 13.6576Z" fill="white"/>
</svg>
