<svg width="270" height="220" viewBox="0 0 270 220" fill="none" xmlns="http://www.w3.org/2000/svg">
<path d="M24.5596 59.9009L7.41176 69.8032L11.1632 73.2102L12.2144 87.187L29.3622 77.2897V62.6753L24.5596 59.9009Z" stroke="#B99522" stroke-miterlimit="10"/>
<path d="M12.2144 87.1869L7.41177 84.4175V69.8031L12.2144 72.5726V87.1869Z" stroke="#B99522" stroke-miterlimit="10"/>
<path d="M15.7864 78.1962L38.4294 94.5341L44.6419 95.1965L56.2797 103.799L76.8153 115.748L82.9431 116.177L87.9998 104.586L63.2993 75.2973L25.6407 72.4979L15.7864 78.1962Z" stroke="#B99522" stroke-miterlimit="10"/>
<path d="M78.4245 119.085C78.4245 123.633 75.2311 125.476 71.2903 123.205C67.3496 120.933 64.1711 115.4 64.1711 110.847C64.1711 106.294 67.3646 104.456 71.3053 106.732C75.246 109.009 78.4245 114.538 78.4245 119.085Z" stroke="#B99522" stroke-miterlimit="10"/>
<path d="M66.1988 106.259L66.9411 105.831C68.2314 105.059 70.0349 105.154 72.0277 106.304C75.9684 108.581 79.1618 114.11 79.1618 118.657C79.1618 120.904 78.3846 122.493 77.1192 123.25L76.3819 123.673C77.6423 122.921 78.4245 121.332 78.4245 119.086C78.4245 114.538 75.2311 109.004 71.2904 106.733C69.2976 105.582 67.4941 105.482 66.1988 106.259Z" stroke="#B99522" stroke-miterlimit="10"/>
<path d="M76.2275 118.677C76.2275 122.298 73.6867 123.768 70.548 121.955C67.4094 120.142 64.8636 115.738 64.8636 112.117C64.8636 108.496 67.4094 107.026 70.548 108.84C73.6867 110.653 76.2275 115.056 76.2275 118.677Z" stroke="#B99522" stroke-miterlimit="10"/>
<path d="M66.4927 108.461L67.0806 108.122C68.1119 107.505 69.5716 107.579 71.1359 108.496C74.2745 110.309 76.8153 114.712 76.8153 118.338C76.8153 120.127 76.1976 121.392 75.1912 121.995L74.5984 122.333C75.5948 121.731 76.2275 120.465 76.2275 118.677C76.2275 115.056 73.6867 110.648 70.548 108.84C68.9588 107.923 67.524 107.843 66.4927 108.461Z" stroke="#B99522" stroke-miterlimit="10"/>
<path d="M74.9521 119.25L73.9856 116.655C73.9208 116.471 73.8461 116.291 73.7714 116.112C73.3913 115.268 72.8876 114.486 72.2768 113.791C71.7858 113.223 71.2073 112.737 70.563 112.351L68.2613 111.021C67.2002 110.409 66.2038 110.319 65.4764 110.742L63.8971 111.659C64.6245 111.236 65.6209 111.325 66.682 111.938L68.9837 113.268C69.6288 113.652 70.2075 114.138 70.6975 114.707C71.3094 115.403 71.8133 116.188 72.1921 117.033C72.2718 117.208 72.3415 117.387 72.4113 117.571L73.3728 120.186C73.5621 120.685 73.4774 121.073 73.2383 121.213L74.8126 120.291C75.0517 120.142 75.1314 119.743 74.9521 119.25Z" stroke="#B99522" stroke-miterlimit="10"/>
<path d="M73.3728 120.167L72.4113 117.551C71.7836 115.778 70.5828 114.263 68.9987 113.248L66.697 111.918C65.2672 111.091 63.952 111.221 63.2595 112.272L62.293 113.766C61.994 114.214 62.3777 115.195 63.0054 115.559L72.6405 121.138C73.2732 121.487 73.6717 120.963 73.3728 120.167Z" stroke="#B99522" stroke-miterlimit="10"/>
<path d="M56.5736 106.474C56.5736 111.021 53.3802 112.864 49.4395 110.588C45.4988 108.312 42.3053 102.783 42.3053 98.235C42.3053 93.6874 45.4988 91.8444 49.4395 94.1157C53.3802 96.3871 56.5736 101.921 56.5736 106.474Z" stroke="#B99522" stroke-miterlimit="10"/>
<path d="M44.3479 93.6475L45.0903 93.2192C46.3806 92.4421 48.1841 92.5417 50.1768 93.7173C54.1176 95.9886 57.311 101.523 57.311 106.07C57.311 108.317 56.5338 109.906 55.2684 110.663L54.5311 111.086C55.7915 110.329 56.5737 108.745 56.5737 106.499C56.5737 101.946 53.3802 96.417 49.4395 94.1407C47.4467 92.9651 45.6433 92.8705 44.3479 93.6475Z" stroke="#B99522" stroke-miterlimit="10"/>
<path d="M54.3766 106.065C54.3766 109.686 51.8308 111.156 48.6972 109.343C45.5635 107.53 43.0128 103.126 43.0128 99.5052C43.0128 95.884 45.5586 94.4146 48.6972 96.2227C51.8358 98.0308 54.3766 102.439 54.3766 106.065Z" stroke="#B99522" stroke-miterlimit="10"/>
<path d="M44.6419 95.8491L45.2298 95.5104C46.261 94.8927 47.6958 94.9674 49.2851 95.8839C52.4237 97.697 54.9645 102.1 54.9645 105.721C54.9645 107.515 54.3467 108.775 53.3404 109.378L52.7475 109.716C53.7439 109.119 54.3766 107.853 54.3766 106.065C54.3766 102.439 51.8308 98.0357 48.6972 96.2226C47.1079 95.3061 45.6731 95.2364 44.6419 95.8491Z" stroke="#B99522" stroke-miterlimit="10"/>
<path d="M53.1013 106.633L52.1348 104.023C52.07 103.839 51.9953 103.659 51.9205 103.48C51.5405 102.636 51.0367 101.854 50.4259 101.159C49.9392 100.592 49.3658 100.106 48.7271 99.7193L46.4254 98.3943C45.3643 97.7816 44.3679 97.692 43.6405 98.1154L42.0612 99.0319C42.7886 98.6085 43.785 98.6981 44.8462 99.3108L47.1478 100.636C47.7932 101.022 48.372 101.51 48.8616 102.08C49.4724 102.775 49.9761 103.558 50.3562 104.401C50.4359 104.581 50.5057 104.76 50.5704 104.944L51.5369 107.554C51.7262 108.053 51.6415 108.441 51.4024 108.581L52.9767 107.664C53.2109 107.52 53.2906 107.131 53.1013 106.633Z" stroke="#B99522" stroke-miterlimit="10"/>
<path d="M51.522 107.549L50.5555 104.939C49.93 103.164 48.731 101.648 47.1478 100.631L44.8461 99.3058C43.4163 98.4789 42.0961 98.6084 41.4086 99.6545L40.4421 101.149C40.1432 101.602 40.5268 102.578 41.1545 102.942L50.8046 108.516C51.4223 108.874 51.8209 108.351 51.522 107.549Z" stroke="#B99522" stroke-miterlimit="10"/>
<path d="M34.5833 93.7768C34.5833 98.3245 31.3899 100.172 27.4492 97.8961C23.5085 95.6198 20.33 90.0908 20.33 85.5431C20.33 80.9955 23.5234 79.1525 27.4641 81.4238C31.4049 83.6952 34.5833 89.2291 34.5833 93.7768Z" stroke="#B99522" stroke-miterlimit="10"/>
<path d="M22.3576 80.9507L23.0999 80.5273C24.3903 79.7503 26.1937 79.8449 28.1865 80.9955C32.1272 83.2719 35.3207 88.8008 35.3207 93.3535C35.3207 95.6 34.5435 97.1839 33.278 97.941L32.5407 98.3694C33.8012 97.6123 34.5833 96.0233 34.5833 93.7769C34.5833 89.2292 31.3899 83.7002 27.4492 81.4239C25.4564 80.2932 23.6529 80.1786 22.3576 80.9507Z" stroke="#B99522" stroke-miterlimit="10"/>
<path d="M32.3863 93.3684C32.3863 96.9897 29.8455 98.4591 26.7069 96.6509C23.5683 94.8428 21.0225 90.4346 21.0225 86.8084C21.0225 83.1822 23.5683 81.7178 26.7069 83.5309C29.8455 85.344 32.3863 89.7572 32.3863 93.3684Z" stroke="#B99522" stroke-miterlimit="10"/>
<path d="M22.6516 83.1523L23.2394 82.8136C24.2707 82.1959 25.7304 82.2756 27.2948 83.1922C30.4334 85.0003 32.9742 89.4085 32.9742 93.0297C32.9742 94.8179 32.3564 96.0831 31.3501 96.6858L30.7622 97.0245C31.7586 96.4218 32.3863 95.1566 32.3863 93.3684C32.3863 89.7472 29.8455 85.339 26.7069 83.5309C25.1176 82.6144 23.6828 82.5347 22.6516 83.1523Z" stroke="#B99522" stroke-miterlimit="10"/>
<path d="M31.1109 93.9413L30.1444 91.3262C30.0797 91.1469 30.0049 90.9626 29.9302 90.7883C29.5526 89.9433 29.0486 89.1606 28.4356 88.4671C27.946 87.8964 27.3672 87.4086 26.7218 87.0226L24.4202 85.6927C23.359 85.08 22.3626 84.9953 21.6353 85.4187L20.056 86.3352C20.7833 85.9118 21.7797 86.0015 22.8409 86.6092L25.1426 87.9391C25.789 88.3236 26.368 88.8116 26.8563 89.3836C27.4693 90.0771 27.9733 90.8598 28.3509 91.7048C28.4306 91.8841 28.5004 92.0634 28.5701 92.2427L29.5366 94.8578C29.721 95.3559 29.6363 95.7444 29.3971 95.8839L30.9714 94.9674C31.2106 94.8279 31.2903 94.4394 31.1109 93.9413Z" stroke="#B99522" stroke-miterlimit="10"/>
<path d="M29.5366 94.8578L28.5701 92.2478C27.9424 90.474 26.7417 88.9598 25.1575 87.9442L22.8558 86.6142C21.426 85.7923 20.1108 85.9169 19.4183 86.9679L18.4568 88.4622C18.1529 88.9155 18.5365 89.8917 19.1642 90.2554L28.7993 95.8242C29.432 96.1828 29.8306 95.6548 29.5366 94.8578Z" stroke="#B99522" stroke-miterlimit="10"/>
<path d="M14.7157 77.6781L17.6102 75.9995L43.2872 90.8181L40.3927 92.5017L14.7157 77.6781Z" stroke="#B99522" stroke-miterlimit="10"/>
<path d="M40.3973 90.3547L43.2918 88.6712L46.0916 87.7546L43.1971 89.4333L40.3973 90.3547Z" stroke="#B99522" stroke-miterlimit="10"/>
<path d="M43.1971 89.4333L46.0916 87.7546L52.6429 91.5353L49.7484 93.2188L43.1971 89.4333Z" stroke="#B99522" stroke-miterlimit="10"/>
<path d="M52.5333 97.3581L55.4278 95.6746L55.4228 97.8214L52.5283 99.505L52.5333 97.3581Z" stroke="#B99522" stroke-miterlimit="10"/>
<path d="M49.7484 93.219L52.6429 91.5354L55.4278 95.6746L52.5333 97.3582L49.7484 93.219Z" stroke="#B99522" stroke-miterlimit="10"/>
<path d="M78.2003 114.324L81.0948 112.645L81.0849 118.697L78.1903 120.38L78.2003 114.324Z" stroke="#B99522" stroke-miterlimit="10"/>
<path d="M52.5283 99.505L55.4228 97.8214L81.0948 112.645L78.2003 114.324L52.5283 99.505Z" stroke="#B99522" stroke-miterlimit="10"/>
<path d="M49.7484 93.2437L52.5333 97.383V99.5298L78.2053 114.348V120.405L74.414 118.219L72.6404 115.584C72.1652 114.836 71.5264 114.206 70.7722 113.741L66.2884 111.156C66.0217 110.972 65.7175 110.85 65.3979 110.798C65.0783 110.747 64.7511 110.767 64.4401 110.857L62.6765 111.425L52.2842 105.422L50.5455 102.832C50.0721 102.085 49.435 101.454 48.6822 100.989L44.1985 98.4041C43.9326 98.2207 43.6293 98.0987 43.3105 98.047C42.9917 97.9954 42.6653 98.0152 42.3551 98.1052L40.5866 98.6731L30.1892 92.6709L28.4555 90.0808C27.9803 89.333 27.3415 88.7028 26.5873 88.2378L22.1035 85.6476C21.8377 85.4642 21.5344 85.3423 21.2155 85.2906C20.8967 85.2389 20.5704 85.2588 20.2602 85.3488L18.4866 85.9216L14.7003 83.7299V77.678L40.3773 92.5016V90.3547L43.1772 89.4332L49.7484 93.2437Z" stroke="#B99522" stroke-miterlimit="10"/>
<path d="M60.6339 98.7976L54.7702 95.4105V99.2609L60.6339 102.648V98.7976Z" stroke="#B99522" stroke-miterlimit="10"/>
<path d="M70.5879 96.9L60.6339 102.648V98.7978L70.5879 93.0497V96.9Z" stroke="#B99522" stroke-miterlimit="10"/>
<path d="M60.6339 98.7978L54.7702 95.4107L64.7291 89.6626L70.5879 93.0497L60.6339 98.7978Z" stroke="#B99522" stroke-miterlimit="10"/>
<path d="M38.9824 86.3004L33.1236 82.9133V86.7637L38.9824 90.1508V86.3004Z" stroke="#B99522" stroke-miterlimit="10"/>
<path d="M48.9363 84.4027L38.9824 90.1508V86.3005L48.9363 80.5524V84.4027Z" stroke="#B99522" stroke-miterlimit="10"/>
<path d="M38.9824 86.3004L33.1236 82.9133L43.0776 77.1652L48.9363 80.5523L38.9824 86.3004Z" stroke="#B99522" stroke-miterlimit="10"/>
<path d="M67.5987 113.387C66.682 112.859 65.9397 113.288 65.9397 114.349C65.9703 114.925 66.1365 115.486 66.4248 115.987C66.713 116.487 67.1152 116.912 67.5987 117.228C68.5204 117.761 69.2627 117.327 69.2627 116.266C69.2311 115.69 69.064 115.128 68.7749 114.628C68.4858 114.128 68.0828 113.703 67.5987 113.387V113.387Z" stroke="#B99522" stroke-miterlimit="10"/>
<path d="M45.982 100.91C45.0653 100.382 44.323 100.81 44.323 101.871C44.3536 102.448 44.5198 103.009 44.8081 103.509C45.0963 104.009 45.4985 104.435 45.982 104.75C46.9037 105.278 47.646 104.85 47.646 103.789C47.6148 103.212 47.4479 102.65 47.1587 102.15C46.8696 101.65 46.4664 101.225 45.982 100.91Z" stroke="#B99522" stroke-miterlimit="10"/>
<path d="M23.917 88.1733C23.0003 87.6454 22.253 88.0737 22.253 89.1347C22.2857 89.7113 22.4534 90.2721 22.7424 90.7722C23.0314 91.2722 23.4337 91.6975 23.917 92.0137C24.8337 92.5417 25.5809 92.1134 25.5809 91.0524C25.5494 90.4755 25.3823 89.9142 25.0931 89.414C24.804 88.9138 24.4011 88.4887 23.917 88.1733V88.1733Z" stroke="#B99522" stroke-miterlimit="10"/>
<path d="M97.6399 102.085L80.492 111.988L142.727 151.582L146.712 164.827L163.86 154.929V140.315L97.6399 102.085Z" stroke="#B99522" stroke-miterlimit="10"/>
<path d="M146.712 164.826L80.492 126.602V111.988L146.712 150.212V164.826Z" stroke="#B99522" stroke-miterlimit="10"/>
<path d="M148.889 155.029L173.052 172.248L179.264 172.911L190.907 181.513L211.443 193.458L217.565 193.891L222.627 182.3L197.922 153.012L160.268 150.212L148.889 155.029Z" stroke="#B99522" stroke-miterlimit="10"/>
<path d="M213.047 196.795C213.047 201.348 209.853 203.191 205.918 200.914C201.982 198.638 198.783 193.109 198.783 188.561C198.783 184.014 201.977 182.171 205.918 184.442C209.858 186.713 213.047 192.247 213.047 196.795Z" stroke="#B99522" stroke-miterlimit="10"/>
<path d="M200.826 183.969L201.563 183.545C202.859 182.768 204.662 182.868 206.655 184.019C210.596 186.29 213.789 191.824 213.789 196.372C213.789 198.618 213.007 200.202 211.746 200.959L211.004 201.387C212.27 200.63 213.047 199.041 213.047 196.795C213.047 192.247 209.853 186.718 205.918 184.442C203.92 183.291 202.121 183.197 200.826 183.969Z" stroke="#B99522" stroke-miterlimit="10"/>
<path d="M210.855 196.386C210.855 200.013 208.309 201.477 205.17 199.669C202.032 197.861 199.491 193.453 199.491 189.826C199.491 186.2 202.032 184.736 205.17 186.549C208.309 188.362 210.855 192.765 210.855 196.386Z" stroke="#B99522" stroke-miterlimit="10"/>
<path d="M201.115 186.17L201.708 185.832C202.739 185.214 204.174 185.294 205.758 186.21C208.897 188.018 211.443 192.427 211.443 196.048C211.443 197.836 210.82 199.101 209.813 199.704L209.226 200.043C210.222 199.44 210.855 198.18 210.855 196.386C210.855 192.765 208.309 188.362 205.17 186.549C203.586 185.632 202.171 185.558 201.115 186.17Z" stroke="#B99522" stroke-miterlimit="10"/>
<path d="M209.579 196.959L208.613 194.359C208.548 194.18 208.473 194.001 208.394 193.821C208.02 192.974 207.515 192.191 206.899 191.5C206.411 190.928 205.832 190.44 205.185 190.056L202.884 188.726C201.827 188.118 200.826 188.028 200.099 188.452L198.539 189.378C199.267 188.955 200.263 189.044 201.324 189.652L203.626 190.982C204.271 191.368 204.85 191.856 205.34 192.427C205.952 193.12 206.456 193.903 206.834 194.748C206.914 194.927 206.989 195.106 207.053 195.286L208.02 197.901C208.204 198.399 208.12 198.787 207.88 198.927L209.46 198.01C209.679 197.846 209.764 197.457 209.579 196.959Z" stroke="#B99522" stroke-miterlimit="10"/>
<path d="M208 197.876L207.034 195.261C206.41 193.486 205.21 191.972 203.626 190.957L201.324 189.627C199.894 188.805 198.574 188.93 197.887 189.981L196.92 191.475C196.621 191.928 197.005 192.905 197.633 193.268L207.283 198.842C207.895 199.201 208.299 198.673 208 197.876Z" stroke="#B99522" stroke-miterlimit="10"/>
<path d="M189.111 188.797C191.897 187.189 191.897 181.974 189.111 177.15C186.325 172.326 181.808 169.718 179.023 171.326C176.237 172.934 176.238 178.148 179.023 182.973C181.809 187.797 186.326 190.405 189.111 188.797Z" stroke="#B99522" stroke-miterlimit="10"/>
<path d="M178.975 171.357L179.713 170.933C181.008 170.156 182.811 170.251 184.804 171.402C188.745 173.678 191.938 179.207 191.938 183.755C191.938 186.006 191.156 187.59 189.896 188.347L189.153 188.775C190.419 188.018 191.196 186.429 191.196 184.183C191.196 179.635 188.002 174.106 184.067 171.83C182.069 170.679 180.251 170.585 178.975 171.357Z" stroke="#B99522" stroke-miterlimit="10"/>
<path d="M189.004 183.774C189.004 187.396 186.458 188.865 183.319 187.052C180.181 185.239 177.64 180.836 177.64 177.214C177.64 173.593 180.181 172.124 183.319 173.937C186.458 175.75 189.004 180.153 189.004 183.774Z" stroke="#B99522" stroke-miterlimit="10"/>
<path d="M179.254 173.558L179.847 173.22C180.878 172.602 182.313 172.682 183.897 173.598C187.036 175.406 189.582 179.815 189.582 183.436C189.582 185.224 188.959 186.489 187.953 187.092L187.365 187.431C188.361 186.828 188.994 185.563 188.994 183.774C188.994 180.153 186.448 175.745 183.309 173.937C181.745 173.02 180.295 172.941 179.254 173.558Z" stroke="#B99522" stroke-miterlimit="10"/>
<path d="M187.724 184.347L186.757 181.732C186.692 181.548 186.618 181.369 186.538 181.194C186.161 180.347 185.657 179.563 185.043 178.868C184.553 178.299 183.974 177.813 183.329 177.429L181.028 176.099C179.972 175.486 178.97 175.401 178.243 175.82L176.669 176.736C177.396 176.318 178.392 176.403 179.453 177.015L181.755 178.345C182.4 178.732 182.978 179.22 183.469 179.79C184.084 180.482 184.588 181.265 184.964 182.111C185.043 182.285 185.118 182.469 185.183 182.649L186.149 185.264C186.334 185.762 186.249 186.15 186.01 186.29L187.589 185.373C187.828 185.234 187.913 184.84 187.724 184.347Z" stroke="#B99522" stroke-miterlimit="10"/>
<path d="M186.149 185.264L185.183 182.649C184.559 180.874 183.359 179.36 181.775 178.345L179.473 177.015C178.044 176.188 176.723 176.318 176.031 177.369L175.069 178.863C174.765 179.311 175.149 180.293 175.782 180.656L185.432 186.225C186.045 186.584 186.448 186.061 186.149 185.264Z" stroke="#B99522" stroke-miterlimit="10"/>
<path d="M167.123 176.107C169.908 174.499 169.908 169.284 167.122 164.46C164.336 159.636 159.82 157.028 157.034 158.636C154.249 160.244 154.249 165.459 157.035 170.283C159.821 175.107 164.337 177.715 167.123 176.107Z" stroke="#B99522" stroke-miterlimit="10"/>
<path d="M156.985 158.665L157.722 158.237C159.017 157.465 160.821 157.559 162.814 158.71C166.754 160.986 169.948 166.515 169.948 171.063C169.948 173.309 169.166 174.898 167.905 175.655L167.163 176.079C168.428 175.322 169.211 173.738 169.211 171.491C169.211 166.944 166.012 161.41 162.076 159.138C160.079 157.998 158.28 157.888 156.985 158.665Z" stroke="#B99522" stroke-miterlimit="10"/>
<path d="M167.014 171.083C167.014 174.704 164.468 176.173 161.329 174.36C158.191 172.547 155.65 168.144 155.65 164.523C155.65 160.901 158.191 159.432 161.329 161.24C164.468 163.048 167.014 167.461 167.014 171.083Z" stroke="#B99522" stroke-miterlimit="10"/>
<path d="M157.279 160.867L157.867 160.528C158.898 159.91 160.333 159.985 161.917 160.901C165.056 162.714 167.601 167.118 167.601 170.739C167.601 172.532 166.979 173.792 165.972 174.395L165.384 174.739C166.381 174.136 167.014 172.871 167.014 171.083C167.014 167.456 164.468 163.053 161.329 161.24C159.745 160.324 158.33 160.249 157.279 160.867Z" stroke="#B99522" stroke-miterlimit="10"/>
<path d="M165.738 171.651L164.772 169.041C164.707 168.856 164.632 168.677 164.552 168.498C164.176 167.652 163.672 166.869 163.058 166.176C162.568 165.606 161.989 165.118 161.344 164.732L159.042 163.407C157.986 162.794 156.985 162.705 156.262 163.128L154.683 164.045C155.411 163.621 156.407 163.711 157.468 164.324L159.77 165.653C160.415 166.037 160.994 166.524 161.484 167.093C162.094 167.788 162.598 168.57 162.978 169.414C163.053 169.593 163.128 169.773 163.192 169.957L164.159 172.572C164.343 173.07 164.258 173.459 164.019 173.593L165.599 172.677C165.838 172.537 165.922 172.149 165.738 171.651Z" stroke="#B99522" stroke-miterlimit="10"/>
<path d="M164.159 172.572L163.192 169.952C162.57 168.177 161.37 166.662 159.785 165.649L157.483 164.319C156.053 163.492 154.733 163.621 154.046 164.667L153.079 166.162C152.78 166.61 153.164 167.586 153.791 167.95L163.441 173.524C164.054 173.892 164.458 173.369 164.159 172.572Z" stroke="#B99522" stroke-miterlimit="10"/>
<path d="M149.343 155.393L152.237 153.709L177.914 168.533L175.02 170.211L149.343 155.393Z" stroke="#B99522" stroke-miterlimit="10"/>
<path d="M175.024 168.064L177.919 166.386L180.714 165.464L177.819 167.148L175.024 168.064Z" stroke="#B99522" stroke-miterlimit="10"/>
<path d="M177.819 167.148L180.714 165.464L187.27 169.25L184.376 170.928L177.819 167.148Z" stroke="#B99522" stroke-miterlimit="10"/>
<path d="M187.156 175.068L190.05 173.389L190.045 175.536L187.151 177.214L187.156 175.068Z" stroke="#B99522" stroke-miterlimit="10"/>
<path d="M184.376 170.928L187.27 169.25L190.05 173.389L187.156 175.068L184.376 170.928Z" stroke="#B99522" stroke-miterlimit="10"/>
<path d="M212.828 192.038L215.722 190.354L215.707 196.411L212.813 198.09L212.828 192.038Z" stroke="#B99522" stroke-miterlimit="10"/>
<path d="M187.151 177.215L190.045 175.536L215.722 190.355L212.828 192.038L187.151 177.215Z" stroke="#B99522" stroke-miterlimit="10"/>
<path d="M184.376 170.948L187.156 175.088V177.234L212.833 192.058V198.11L209.046 195.923L207.283 193.318C206.808 192.57 206.171 191.939 205.419 191.47L200.936 188.885C200.67 188.702 200.366 188.58 200.048 188.528C199.729 188.476 199.403 188.496 199.092 188.586L197.319 189.154L186.926 183.177L185.193 180.582C184.716 179.835 184.078 179.205 183.324 178.739L178.841 176.153C178.575 175.97 178.272 175.848 177.953 175.796C177.634 175.745 177.308 175.765 176.997 175.855L175.224 176.422L164.831 170.445L163.093 167.85C162.619 167.103 161.982 166.472 161.229 166.007L156.746 163.422C156.479 163.238 156.175 163.116 155.855 163.065C155.536 163.013 155.208 163.033 154.897 163.123L153.129 163.691L149.338 161.504V155.452L175.015 170.271V168.124L177.809 167.208L184.376 170.948Z" stroke="#B99522" stroke-miterlimit="10"/>
<path d="M195.256 176.507L189.397 173.125V176.976L195.256 180.358V176.507Z" stroke="#B99522" stroke-miterlimit="10"/>
<path d="M205.215 174.61L195.256 180.358V176.507L205.215 170.759V174.61Z" stroke="#B99522" stroke-miterlimit="10"/>
<path d="M195.256 176.507L189.397 173.125L199.351 167.377L205.215 170.759L195.256 176.507Z" stroke="#B99522" stroke-miterlimit="10"/>
<path d="M173.605 164.01L167.746 160.628V164.478L173.605 167.86V164.01Z" stroke="#B99522" stroke-miterlimit="10"/>
<path d="M183.564 162.112L173.605 167.86V164.01L183.564 158.262V162.112Z" stroke="#B99522" stroke-miterlimit="10"/>
<path d="M173.605 164.01L167.746 160.628L177.7 154.879L183.564 158.262L173.605 164.01Z" stroke="#B99522" stroke-miterlimit="10"/>
<path d="M202.226 191.102C201.309 190.569 200.562 191.002 200.562 192.063C200.595 192.639 200.762 193.2 201.051 193.7C201.34 194.2 201.743 194.626 202.226 194.942C203.143 195.47 203.89 195.042 203.89 193.981C203.858 193.404 203.691 192.842 203.402 192.342C203.113 191.842 202.71 191.417 202.226 191.102V191.102Z" stroke="#B99522" stroke-miterlimit="10"/>
<path d="M180.609 178.624C179.693 178.091 178.945 178.525 178.945 179.58C178.977 180.158 179.145 180.72 179.434 181.221C179.723 181.722 180.125 182.148 180.609 182.465C181.526 182.993 182.273 182.564 182.273 181.503C182.242 180.926 182.075 180.365 181.785 179.865C181.496 179.365 181.093 178.94 180.609 178.624V178.624Z" stroke="#B99522" stroke-miterlimit="10"/>
<path d="M158.544 165.882C157.623 165.354 156.88 165.783 156.88 166.844C156.911 167.421 157.077 167.983 157.366 168.483C157.656 168.983 158.059 169.408 158.544 169.723C159.461 170.256 160.203 169.822 160.203 168.761C160.171 168.185 160.005 167.625 159.717 167.124C159.428 166.624 159.027 166.199 158.544 165.882V165.882Z" stroke="#B99522" stroke-miterlimit="10"/>
<path d="M226.314 210.921L214.84 204.296V184.068L226.314 190.688V210.921Z" stroke="#B99522" stroke-miterlimit="10"/>
<path d="M259.728 191.63L226.314 210.916V190.688L259.728 171.401C263.858 181.408 266.179 190.026 259.728 191.63Z" stroke="#B99522" stroke-miterlimit="10"/>
<path d="M226.314 190.688L214.84 184.068L236.596 171.506L248.254 164.777L259.728 171.402L226.314 190.688Z" stroke="#B99522" stroke-miterlimit="10"/>
<path d="M227.544 202.045L238.769 205.806L265.058 190.325L264.331 181.06L262.303 187.949L239.073 201.328L227.544 202.045Z" stroke="#B99522" stroke-miterlimit="10"/>
<path d="M268.292 205.308L262.986 188.257L239.072 202.06L244.378 219.115L268.292 205.308Z" stroke="#B99522" stroke-miterlimit="10"/>
<path d="M264.331 181.06L262.986 188.257L268.292 205.308L268.984 191.679L264.331 181.06Z" stroke="#B99522" stroke-miterlimit="10"/>
<path d="M239.073 202.06L227.544 202.045V215.603L244.378 219.115L239.073 202.06Z" stroke="#B99522" stroke-miterlimit="10"/>
<path d="M225.198 189.667V196.053L225.93 196.476C234.898 201.647 264.291 185.822 264.291 177.932V172.094L225.198 189.667Z" stroke="#B99522" stroke-miterlimit="10"/>
<path d="M1.00499 60.3939V62.3863L225.93 192.227C234.898 197.398 264.291 181.578 264.291 173.683V171.69L1.00499 60.3939Z" stroke="#B99522" stroke-miterlimit="10"/>
<path d="M262.542 168.981C267.564 171.875 261.227 178.509 252.29 183.789C243.083 189.224 231.116 193.253 225.945 190.265L1 60.394L37.6024 39.1299L262.542 168.981Z" stroke="#B99522" stroke-miterlimit="10"/>
<path d="M93.3853 74.341L66.4279 89.9018V47.1345L93.3853 31.5737V74.341Z" stroke="#B99522" stroke-miterlimit="10"/>
<path d="M66.4279 53.9535V47.1344L19.0297 19.7736V62.5408L111.948 116.167L111.963 80.4078L90.7448 64.6179L66.4279 53.9535Z" stroke="#B99522" stroke-miterlimit="10"/>
<path d="M21.959 28.8938V47.7172L31.2554 53.0817V34.2634L21.959 28.8938ZM30.9266 52.5239L22.3227 47.5677V29.4517L30.9166 34.4327L30.9266 52.5239Z" stroke="#B99522" stroke-miterlimit="10"/>
<path d="M33.7812 35.7278V54.5512L43.0776 59.9157V41.0973L33.7812 35.7278ZM42.7488 59.3728L34.1549 54.3918V36.2857L42.7438 41.2667L42.7488 59.3728Z" stroke="#B99522" stroke-miterlimit="10"/>
<path d="M45.6383 42.5669V61.3654L54.9346 66.7299V47.9165L45.6383 42.5669ZM54.5809 66.192L45.992 61.2358V43.1198L54.5809 48.1008V66.192Z" stroke="#B99522" stroke-miterlimit="10"/>
<path d="M45.7479 1L28.6199 7.48532L79.8643 37.2271L96.9922 30.7418L45.7479 1Z" stroke="#B99522" stroke-miterlimit="10"/>
<path d="M62.7712 54.7406L11.5268 24.9988L11.5169 20.7599L62.7612 50.5017L62.7712 54.7406Z" stroke="#B99522" stroke-miterlimit="10"/>
<path d="M28.6199 7.48535L11.5169 20.7598L62.7612 50.5017L79.8643 37.2272L28.6199 7.48535Z" stroke="#B99522" stroke-miterlimit="10"/>
<path d="M96.9922 30.7418L79.8643 37.2271L62.7613 50.5016L62.7712 54.7405L97.0022 34.9807L96.9922 30.7418Z" stroke="#B99522" stroke-miterlimit="10"/>
<path d="M92.5683 36.7788C90.9192 35.8224 84.5971 38.5221 79.9141 41.2169C74.7578 44.2055 66.4031 50.6809 66.413 53.9385L111.973 80.4077L138.133 63.253L92.5683 36.7788Z" stroke="#B99522" stroke-miterlimit="10"/>
<path d="M111.833 73.3447L176.265 110.538L176.25 153.295L111.819 116.102L111.833 73.3447Z" stroke="#B99522" stroke-miterlimit="10"/>
<path d="M200.552 91.0574L195.605 90.6788L239.401 116.052L244.348 116.431L200.552 91.0574Z" stroke="#B99522" stroke-miterlimit="10"/>
<path d="M239.401 116.052L138.796 57.7839L111.833 73.3447L212.588 131.533L239.401 116.052Z" stroke="#B99522" stroke-miterlimit="10"/>
<path d="M168.792 106.16L163.865 112.232L207.661 137.605L212.588 131.533L168.792 106.16Z" stroke="#B99522" stroke-miterlimit="10"/>
<path d="M239.401 116.052L212.588 131.528L207.651 137.605V179.68L244.343 158.496V116.431L239.401 116.052ZM242.829 123.947C242.665 124.56 242.057 124.744 241.299 124.306L237.1 121.885L241.225 119.504C242.112 119.006 242.829 119.3 242.829 120.187V123.947Z" stroke="#B99522" stroke-miterlimit="10"/>
<path d="M248.872 136.345L243.168 146.113L242.625 157.788L243.163 170.784L248.872 161.016V136.345Z" stroke="#B99522" stroke-miterlimit="10"/>
<path d="M243.168 146.113L230.025 153.729V178.395L243.163 170.784L243.168 146.113Z" stroke="#B99522" stroke-miterlimit="10"/>
<path d="M230.025 153.729L212.17 157.629V182.3L230.025 178.395V153.729Z" stroke="#B99522" stroke-miterlimit="10"/>
<path d="M108.361 103.206C108.264 103.208 108.169 103.182 108.087 103.131L12.0649 47.6922V64.3538C12.0519 64.4908 11.9882 64.6179 11.8865 64.7105C11.7847 64.803 11.652 64.8543 11.5144 64.8543C11.3768 64.8543 11.2442 64.803 11.1424 64.7105C11.0406 64.6179 10.977 64.4908 10.9639 64.3538V46.7409C10.9597 46.6407 10.9829 46.5413 11.0313 46.4535C11.0796 46.3657 11.151 46.2928 11.2379 46.2428C11.3226 46.1961 11.4177 46.1716 11.5144 46.1716C11.6111 46.1716 11.7062 46.1961 11.7909 46.2428L108.635 102.17C108.739 102.231 108.82 102.324 108.866 102.435C108.911 102.546 108.919 102.669 108.888 102.785C108.857 102.901 108.788 103.004 108.693 103.077C108.598 103.151 108.481 103.191 108.361 103.191V103.206Z" stroke="#B99522" stroke-miterlimit="10"/>
<path d="M27.4741 74.1217C27.3283 74.1217 27.1884 74.0642 27.0848 73.9616C26.9812 73.859 26.9224 73.7196 26.9211 73.5738V55.9509C26.9138 55.8742 26.9226 55.7969 26.9469 55.7238C26.9713 55.6507 27.0106 55.5835 27.0624 55.5265C27.1143 55.4695 27.1774 55.424 27.2479 55.3928C27.3183 55.3617 27.3945 55.3456 27.4716 55.3456C27.5486 55.3456 27.6248 55.3617 27.6953 55.3928C27.7657 55.424 27.8289 55.4695 27.8807 55.5265C27.9326 55.5835 27.9719 55.6507 27.9962 55.7238C28.0206 55.7969 28.0294 55.8742 28.0221 55.9509V73.5738C28.0221 73.6458 28.0079 73.717 27.9804 73.7835C27.9528 73.85 27.9125 73.9104 27.8616 73.9613C27.8107 74.0121 27.7503 74.0525 27.6838 74.08C27.6173 74.1076 27.546 74.1217 27.4741 74.1217Z" stroke="#B99522" stroke-miterlimit="10"/>
<path d="M43.4263 83.3367C43.2805 83.3353 43.1411 83.2765 43.0385 83.173C42.9358 83.0694 42.8783 82.9295 42.8783 82.7838V65.1608C42.8783 65.0155 42.936 64.8761 43.0388 64.7734C43.1415 64.6706 43.2809 64.6129 43.4263 64.6129C43.5716 64.6129 43.711 64.6706 43.8138 64.7734C43.9166 64.8761 43.9743 65.0155 43.9743 65.1608V82.7838C43.9743 82.9295 43.9167 83.0694 43.8141 83.173C43.7115 83.2765 43.5721 83.3353 43.4263 83.3367V83.3367Z" stroke="#B99522" stroke-miterlimit="10"/>
<path d="M59.3835 92.5416C59.2377 92.5416 59.0978 92.484 58.9942 92.3814C58.8906 92.2788 58.8318 92.1394 58.8305 91.9937V74.3707C58.8435 74.2338 58.9072 74.1066 59.009 74.0141C59.1108 73.9215 59.2434 73.8702 59.381 73.8702C59.5186 73.8702 59.6512 73.9215 59.753 74.0141C59.8548 74.1066 59.9185 74.2338 59.9315 74.3707V91.9937C59.9315 92.139 59.8738 92.2783 59.771 92.3811C59.6682 92.4838 59.5288 92.5416 59.3835 92.5416V92.5416Z" stroke="#B99522" stroke-miterlimit="10"/>
<path d="M75.3357 101.752C75.1903 101.752 75.051 101.694 74.9482 101.591C74.8454 101.488 74.7877 101.349 74.7877 101.204V83.5807C74.8007 83.4437 74.8644 83.3166 74.9662 83.224C75.0679 83.1315 75.2006 83.0802 75.3382 83.0802C75.4758 83.0802 75.6084 83.1315 75.7102 83.224C75.812 83.3166 75.8756 83.4437 75.8887 83.5807V101.214C75.8848 101.358 75.8248 101.494 75.7215 101.595C75.6182 101.695 75.4798 101.752 75.3357 101.752V101.752Z" stroke="#B99522" stroke-miterlimit="10"/>
<path d="M91.2929 110.962C91.1475 110.962 91.0081 110.904 90.9054 110.801C90.8026 110.698 90.7449 110.559 90.7449 110.414V92.7857C90.7449 92.7138 90.759 92.6425 90.7866 92.576C90.8141 92.5096 90.8545 92.4492 90.9054 92.3983C90.9563 92.3474 91.0167 92.307 91.0832 92.2795C91.1496 92.252 91.2209 92.2378 91.2929 92.2378C91.3648 92.2378 91.4361 92.252 91.5026 92.2795C91.5691 92.307 91.6295 92.3474 91.6804 92.3983C91.7313 92.4492 91.7716 92.5096 91.7992 92.576C91.8267 92.6425 91.8409 92.7138 91.8409 92.7857V110.414C91.8409 110.559 91.7831 110.698 91.6804 110.801C91.5776 110.904 91.4382 110.962 91.2929 110.962V110.962Z" stroke="#B99522" stroke-miterlimit="10"/>
<path d="M105.955 110.792C105.895 110.792 105.837 110.777 105.785 110.747L11.3625 56.2348C11.3248 56.2135 11.2917 56.1851 11.2651 56.151C11.2385 56.117 11.2188 56.0781 11.2072 56.0364C11.1957 55.9948 11.1924 55.9513 11.1977 55.9084C11.203 55.8655 11.2166 55.8241 11.2379 55.7865C11.2591 55.7481 11.2878 55.7144 11.3224 55.6874C11.3569 55.6604 11.3966 55.6408 11.439 55.6296C11.4814 55.6184 11.5256 55.616 11.569 55.6224C11.6123 55.6288 11.6539 55.644 11.6913 55.6669L106.119 110.179C106.181 110.216 106.23 110.272 106.257 110.338C106.285 110.405 106.29 110.479 106.271 110.549C106.252 110.618 106.211 110.68 106.154 110.724C106.097 110.768 106.027 110.792 105.955 110.792V110.792Z" stroke="#B99522" stroke-miterlimit="10"/>
<path d="M167.168 156.284L104.719 120.236L104.734 90.7783L167.183 126.826L167.168 156.284Z" stroke="#B99522" stroke-miterlimit="10"/>
<path d="M163.86 154.396L163.865 124.908L163.407 124.644L163.392 154.102L163.86 154.396Z" stroke="#B99522" stroke-miterlimit="10"/>
<path d="M174.202 152.224L167.168 156.284L167.183 126.826L174.217 122.762L174.202 152.224Z" stroke="#B99522" stroke-miterlimit="10"/>
<path d="M167.183 126.826L104.734 90.7784L111.769 86.7139L174.217 122.762L167.183 126.826Z" stroke="#B99522" stroke-miterlimit="10"/>
<path d="M168.966 116.764C168.868 116.764 168.771 116.737 168.687 116.685L108.306 81.8174L96.3844 86.1559V95.3957C96.3844 95.6996 95.2884 95.6996 95.2884 95.3957V85.7723C95.2929 85.6633 95.3293 85.5581 95.3931 85.4695C95.4568 85.381 95.5451 85.3131 95.6471 85.2742L108.172 80.7215C108.247 80.6935 108.328 80.6825 108.408 80.6894C108.488 80.6963 108.566 80.7209 108.635 80.7614L169.24 115.738C169.343 115.8 169.423 115.894 169.468 116.005C169.512 116.116 169.52 116.239 169.489 116.354C169.458 116.47 169.39 116.573 169.296 116.646C169.202 116.72 169.086 116.762 168.966 116.764V116.764Z" stroke="#B99522" stroke-miterlimit="10"/>
<path d="M108.72 92.0435C108.574 92.0435 108.435 91.9857 108.332 91.883C108.229 91.7802 108.172 91.6409 108.172 91.4955V81.5982C108.172 81.4529 108.229 81.3135 108.332 81.2108C108.435 81.108 108.574 81.0503 108.72 81.0503C108.865 81.0503 109.004 81.108 109.107 81.2108C109.21 81.3135 109.268 81.4529 109.268 81.5982V91.4955C109.268 91.6409 109.21 91.7802 109.107 91.883C109.004 91.9857 108.865 92.0435 108.72 92.0435Z" stroke="#B99522" stroke-miterlimit="10"/>
<path d="M124.677 101.253C124.531 101.253 124.391 101.196 124.288 101.093C124.184 100.991 124.125 100.851 124.124 100.706V90.8082C124.137 90.6713 124.201 90.5441 124.302 90.4516C124.404 90.359 124.537 90.3077 124.674 90.3077C124.812 90.3077 124.945 90.359 125.047 90.4516C125.148 90.5441 125.212 90.6713 125.225 90.8082V100.716C125.222 100.859 125.163 100.996 125.061 101.097C124.958 101.197 124.821 101.253 124.677 101.253V101.253Z" stroke="#B99522" stroke-miterlimit="10"/>
<path d="M140.629 110.468C140.483 110.467 140.344 110.408 140.241 110.305C140.139 110.201 140.081 110.061 140.081 109.916V100.018C140.081 99.8729 140.139 99.7336 140.242 99.6308C140.344 99.5281 140.484 99.4703 140.629 99.4703C140.774 99.4703 140.914 99.5281 141.017 99.6308C141.119 99.7336 141.177 99.8729 141.177 100.018V109.916C141.177 110.061 141.12 110.201 141.017 110.305C140.914 110.408 140.775 110.467 140.629 110.468V110.468Z" stroke="#B99522" stroke-miterlimit="10"/>
<path d="M156.586 119.673C156.514 119.673 156.443 119.659 156.377 119.632C156.31 119.604 156.25 119.564 156.199 119.513C156.148 119.462 156.108 119.402 156.08 119.335C156.052 119.269 156.038 119.197 156.038 119.126V109.228C156.038 109.083 156.096 108.944 156.199 108.841C156.302 108.738 156.441 108.68 156.586 108.68C156.732 108.68 156.871 108.738 156.974 108.841C157.077 108.944 157.134 109.083 157.134 109.228V119.145C157.129 119.287 157.069 119.422 156.967 119.52C156.865 119.619 156.728 119.674 156.586 119.673V119.673Z" stroke="#B99522" stroke-miterlimit="10"/>
<path d="M212.17 182.3V157.629L207.666 148.763L207.661 137.605L163.865 112.232L163.86 154.396L212.17 182.3Z" stroke="#B99522" stroke-miterlimit="10"/>
<path d="M244.309 127.389L228.242 136.703L207.606 148.668L212.17 157.629L230.025 153.729L243.168 146.113L248.872 136.345L244.309 127.389Z" stroke="#B99522" stroke-miterlimit="10"/>
<path d="M190.095 136.041V130.497C190.095 129.611 190.817 129.307 191.704 129.82L204.159 136.998C204.606 137.266 204.983 137.635 205.262 138.075C205.541 138.515 205.712 139.014 205.763 139.533V145.077C205.763 145.963 205.046 146.267 204.159 145.754L191.709 138.572C191.26 138.306 190.88 137.939 190.6 137.499C190.319 137.059 190.146 136.56 190.095 136.041V136.041ZM184.42 134.373L186.742 135.707C187.629 136.206 188.346 135.917 188.346 135.03V129.486C188.296 128.968 188.125 128.469 187.846 128.03C187.567 127.59 187.189 127.222 186.742 126.956L184.42 125.621C183.539 125.123 182.816 125.412 182.816 126.298V131.842C182.869 132.36 183.041 132.858 183.319 133.297C183.598 133.736 183.975 134.104 184.42 134.373V134.373ZM177.182 130.193L179.498 131.528C180.385 132.026 181.107 131.738 181.107 130.851V125.307C181.056 124.789 180.884 124.29 180.605 123.85C180.325 123.41 179.946 123.043 179.498 122.777L177.182 121.437C176.295 120.939 175.577 121.228 175.577 122.114V127.658C175.628 128.177 175.8 128.676 176.079 129.116C176.357 129.556 176.735 129.925 177.182 130.193V130.193Z" stroke="#B99522" stroke-miterlimit="10"/>
<path d="M223.359 138.572L210.905 145.754C210.018 146.252 209.3 145.963 209.3 145.077V139.533C209.351 139.014 209.523 138.515 209.801 138.075C210.08 137.635 210.458 137.266 210.905 136.998L223.359 129.82C224.246 129.322 224.964 129.611 224.964 130.497V136.041C224.914 136.559 224.742 137.058 224.463 137.498C224.185 137.937 223.807 138.305 223.359 138.572V138.572ZM242.829 125.73V120.187C242.829 119.3 242.112 118.996 241.225 119.504L228.77 126.687C228.323 126.954 227.944 127.321 227.665 127.761C227.385 128.2 227.212 128.699 227.161 129.217V134.766C227.161 135.653 227.883 135.957 228.77 135.443L241.225 128.261C241.671 127.994 242.049 127.626 242.328 127.186C242.606 126.747 242.778 126.248 242.829 125.73Z" stroke="#B99522" stroke-miterlimit="10"/>
<path d="M218.437 185.941L217.775 186.325V187.097L213.679 184.736V183.197L213.181 182.898L212.519 183.281L212.449 207.614L212.947 207.913L213.61 207.529V206.872L217.705 209.238V210.662L218.203 210.961L218.866 210.577L218.935 186.24L218.437 185.941ZM217.715 207.987L213.63 205.626V201.641L217.725 204.007L217.715 207.987ZM217.715 202.777L213.63 200.411V196.426L217.725 198.792L217.715 202.777ZM217.715 197.542L213.63 195.181V191.196L217.725 193.562L217.715 197.542ZM217.715 192.332L213.62 189.966V185.981L217.715 188.347V192.332Z" stroke="#B99522" stroke-miterlimit="10"/>
<path d="M7.75053 64.3241L7.08794 64.7076V65.4797L2.98779 63.1186V61.5795L2.4896 61.2806L1.82699 61.6642L1.75725 85.9966L2.28035 86.2954L2.93797 85.9119V85.2743L7.03313 87.6403V89.0599L7.53133 89.3638L8.19393 88.9752L8.26367 64.6428L7.75053 64.3241ZM7.02814 86.3702L2.92801 84.0091V80.0243L7.02317 82.3853L7.02814 86.3702ZM7.02814 81.16L2.94295 78.799V74.8141L7.03812 77.1801L7.02814 81.16ZM7.02814 75.9249L2.92801 73.5639V69.5791L7.02317 71.9401L7.02814 75.9249ZM7.02814 70.7147L2.97284 68.3388V64.3539L7.06801 66.7199L7.02814 70.7147Z" stroke="#B99522" stroke-miterlimit="10"/>
<path d="M240.891 197.836L238.156 196.262V192.043L240.891 193.622V197.836Z" stroke="#B99522" stroke-miterlimit="10"/>
<path d="M245.434 195.211L240.891 197.836V193.622L245.434 190.997V195.211Z" stroke="#B99522" stroke-miterlimit="10"/>
<path d="M240.886 193.622L238.156 192.043C241.613 190.952 243.77 190.051 243.77 190.051L245.434 191.012L240.886 193.622Z" stroke="#B99522" stroke-miterlimit="10"/>
<path d="M259.852 186.888L258.253 185.966V181.752L259.852 182.674V186.888Z" stroke="#B99522" stroke-miterlimit="10"/>
<path d="M264.007 184.492L259.852 186.888V182.674L264.007 180.278V184.492Z" stroke="#B99522" stroke-miterlimit="10"/>
<path d="M259.852 182.674L258.253 181.752C259.394 180.842 260.484 179.87 261.516 178.838L264.007 180.278L259.852 182.674Z" stroke="#B99522" stroke-miterlimit="10"/>
<path d="M261.875 182.27C262.518 181.902 263.036 182.201 263.036 182.943C263.011 183.342 262.894 183.731 262.692 184.077C262.491 184.423 262.211 184.717 261.875 184.935C261.232 185.304 260.714 185.005 260.714 184.263C260.738 183.863 260.856 183.474 261.057 183.128C261.259 182.782 261.539 182.488 261.875 182.27Z" stroke="#B99522" stroke-miterlimit="10"/>
<path d="M241.992 195.091C241.992 195.829 242.515 196.132 243.153 195.759C243.489 195.541 243.77 195.247 243.972 194.901C244.175 194.555 244.293 194.166 244.318 193.766C244.318 193.024 243.795 192.725 243.153 193.094C242.818 193.314 242.539 193.609 242.337 193.956C242.136 194.303 242.018 194.691 241.992 195.091Z" stroke="#B99522" stroke-miterlimit="10"/>
<path d="M239.416 188.008C239.271 188.008 239.132 187.951 239.029 187.848C238.926 187.745 238.868 187.606 238.868 187.46V173.752C238.871 172.34 239.244 170.952 239.95 169.729C240.657 168.505 241.671 167.488 242.894 166.779L254.9 159.85C255.336 159.597 255.83 159.464 256.334 159.464C256.838 159.463 257.333 159.597 257.769 159.85C258.204 160.103 258.565 160.466 258.815 160.904C259.064 161.341 259.194 161.837 259.19 162.341V176.377C259.177 176.514 259.113 176.642 259.011 176.734C258.909 176.827 258.777 176.878 258.639 176.878C258.501 176.878 258.369 176.827 258.267 176.734C258.165 176.642 258.102 176.514 258.089 176.377V162.326C258.088 162.017 258.007 161.713 257.853 161.446C257.698 161.178 257.476 160.956 257.209 160.801C256.942 160.646 256.638 160.564 256.329 160.563C256.02 160.563 255.716 160.643 255.448 160.797L243.447 167.725C242.388 168.336 241.509 169.215 240.897 170.273C240.285 171.33 239.961 172.53 239.959 173.752V187.46C239.958 187.604 239.901 187.742 239.799 187.845C239.698 187.947 239.56 188.006 239.416 188.008V188.008Z" stroke="#B99522" stroke-miterlimit="10"/>
<path d="M239.416 178.803C239.303 178.795 239.195 178.752 239.108 178.681C239.02 178.609 238.957 178.511 238.927 178.402C238.897 178.293 238.901 178.177 238.94 178.07C238.979 177.964 239.049 177.872 239.142 177.807L258.123 166.849C258.185 166.811 258.254 166.787 258.326 166.776C258.398 166.766 258.471 166.771 258.541 166.79C258.611 166.809 258.676 166.842 258.733 166.888C258.79 166.933 258.837 166.989 258.871 167.053C258.907 167.115 258.931 167.184 258.941 167.255C258.951 167.326 258.946 167.399 258.927 167.468C258.909 167.538 258.877 167.603 258.833 167.66C258.789 167.717 258.734 167.765 258.671 167.8L239.69 178.759C239.604 178.797 239.51 178.813 239.416 178.803Z" stroke="#B99522" stroke-miterlimit="10"/>
<path d="M125.08 69.1854L116.312 74.2462L115.66 73.8726L124.453 68.8069L125.08 69.1854ZM126.022 69.7283L117.254 74.814L117.906 75.1925L126.675 70.1268L126.022 69.7283ZM127.616 70.6449L118.848 75.7106L119.496 76.0842L128.269 71.0234L127.616 70.6449ZM129.205 71.5663L120.437 76.6271L121.09 77.0056L129.858 71.9399L129.205 71.5663ZM130.8 72.4829L122.031 77.5486L122.684 77.9222L131.452 72.8614L130.8 72.4829ZM132.394 73.4044L123.621 78.4651L124.273 78.8437L133.047 73.7779L132.394 73.4044ZM140.3 60.3988L131.532 65.4596L130.879 65.086L139.648 60.0253L140.3 60.3988ZM141.242 60.9418L132.474 66.0025L133.121 66.3811L141.89 61.3203L141.242 60.9418ZM142.831 61.8633L134.063 66.924L134.716 67.2976L143.484 62.2369L142.831 61.8633ZM144.425 62.7798L135.657 67.8405L136.31 68.2191L145.078 63.1583L144.425 62.7798ZM146.02 63.7013L137.246 68.762L137.899 69.1406L146.672 64.0749L146.02 63.7013ZM147.609 64.6178L138.841 69.6835L139.493 70.0571L148.261 64.9963L147.609 64.6178Z" stroke="#B99522" stroke-miterlimit="10"/>
<path d="M140.3 77.967L131.532 83.0327L130.879 82.6542L139.648 77.5934L140.3 77.967ZM141.242 78.51L132.474 83.5757L133.121 83.9493L141.89 78.8885L141.242 78.51ZM142.831 79.4315L134.063 84.4922L134.716 84.8708L143.484 79.7951L142.831 79.4315ZM144.425 80.348L135.657 85.4137L136.31 85.7873L145.078 80.7265L144.425 80.348ZM146.02 81.2695L137.246 86.3302L137.899 86.7088L146.672 81.643L146.02 81.2695ZM147.609 82.186L138.841 87.2666L139.493 87.6402L148.261 82.5795L147.609 82.186ZM155.52 69.1854L146.752 74.2462L146.099 73.8676L154.867 68.8069L155.52 69.1854ZM156.457 69.7284L147.689 74.814L148.341 75.1926L157.109 70.1269L156.457 69.7284ZM158.051 70.6449L149.283 75.7106L149.935 76.0842L158.704 71.0234L158.051 70.6449ZM159.645 71.5664L150.857 76.6271L151.51 77.0057L160.323 71.94L159.645 71.5664ZM161.234 72.4829L152.466 77.5486L153.119 77.9222L161.887 72.8615L161.234 72.4829ZM162.829 73.4044L154.06 78.4651L154.713 78.8437L163.481 73.778L162.829 73.4044Z" stroke="#B99522" stroke-miterlimit="10"/>
<path d="M163.735 141.461L163.516 141.839L193.727 159.283V171.581L194.165 171.845V159.029L163.735 141.461Z" stroke="#B99522" stroke-miterlimit="10"/>
<path d="M235.919 159.816C235.919 161.758 237.284 162.55 238.968 161.574C239.857 160.998 240.598 160.219 241.129 159.303C241.661 158.386 241.968 157.357 242.027 156.299C242.027 154.351 240.662 153.564 238.978 154.536C238.089 155.114 237.348 155.893 236.817 156.81C236.286 157.727 235.978 158.757 235.919 159.816Z" stroke="#B99522" stroke-miterlimit="10"/>
<path d="M236.791 159.313C236.791 160.697 237.787 161.26 238.968 160.568C239.601 160.155 240.128 159.599 240.506 158.945C240.884 158.291 241.103 157.557 241.145 156.802C241.145 155.413 240.149 154.855 238.968 155.547C238.335 155.96 237.808 156.516 237.429 157.17C237.051 157.824 236.832 158.558 236.791 159.313V159.313Z" stroke="#B99522" stroke-miterlimit="10"/>
<path d="M241.145 154.337L239.107 153.161C238.554 152.827 237.782 152.867 236.93 153.36C236.043 153.939 235.304 154.718 234.774 155.636C234.245 156.553 233.939 157.582 233.881 158.64C233.881 159.602 234.215 160.279 234.753 160.603L236.791 161.778C236.253 161.454 235.919 160.782 235.919 159.816C235.977 158.758 236.283 157.729 236.813 156.812C237.342 155.894 238.081 155.115 238.968 154.536C239.82 154.048 240.592 154.013 241.145 154.337Z" stroke="#B99522" stroke-miterlimit="10"/>
</svg>
