<svg width="252" height="220" viewBox="0 0 252 220" fill="none" xmlns="http://www.w3.org/2000/svg">
<path d="M98.7015 157.535V157.993L102.878 160.397L107.085 157.974V157.516L98.7015 157.535Z" stroke="white" stroke-miterlimit="10"/>
<path d="M102.878 159.939L98.7015 157.535L102.909 155.112L107.085 157.516L102.878 159.939Z" stroke="white" stroke-miterlimit="10"/>
<path d="M102.942 155.589C103.945 155.589 104.758 155.122 104.758 154.545C104.758 153.968 103.945 153.501 102.942 153.501C101.94 153.501 101.127 153.968 101.127 154.545C101.127 155.122 101.94 155.589 102.942 155.589Z" stroke="white" stroke-miterlimit="10"/>
<path d="M101.127 154.534V157.411C101.139 157.573 101.195 157.728 101.288 157.86C101.382 157.992 101.51 158.097 101.658 158.162C102.056 158.362 102.496 158.467 102.942 158.467C103.388 158.467 103.828 158.362 104.227 158.162C104.371 158.098 104.496 157.996 104.59 157.869C104.683 157.741 104.741 157.591 104.758 157.434V154.549C104.741 154.707 104.684 154.857 104.59 154.986C104.497 155.115 104.372 155.216 104.227 155.281C103.828 155.482 103.388 155.586 102.942 155.586C102.496 155.586 102.056 155.482 101.658 155.281C101.511 155.215 101.384 155.111 101.29 154.98C101.197 154.849 101.14 154.694 101.127 154.534V154.534Z" stroke="white" stroke-miterlimit="10"/>
<path d="M104.182 143.138C104.298 142.89 104.208 142.616 103.869 142.424C103.588 142.28 103.276 142.205 102.959 142.205C102.643 142.205 102.331 142.28 102.05 142.424C101.947 142.47 101.858 142.542 101.792 142.633C101.726 142.724 101.685 142.831 101.673 142.943V154.354C101.682 154.468 101.721 154.577 101.787 154.671C101.854 154.764 101.945 154.838 102.05 154.883C102.332 155.026 102.643 155.1 102.959 155.1C103.275 155.1 103.587 155.026 103.869 154.883C103.972 154.838 104.061 154.767 104.127 154.676C104.193 154.586 104.234 154.48 104.246 154.369V142.954C104.239 143.019 104.217 143.082 104.182 143.138V143.138Z" stroke="white" stroke-miterlimit="10"/>
<path d="M107.861 154.042L96.8898 147.724V139.119L107.861 145.437V154.042Z" stroke="white" stroke-miterlimit="10"/>
<path d="M141.544 134.645L107.861 154.042V145.437L141.544 126.04V134.645Z" stroke="white" stroke-miterlimit="10"/>
<path d="M107.861 145.437L96.8898 139.119L130.573 119.722L141.544 126.04L107.861 145.437Z" stroke="white" stroke-miterlimit="10"/>
<path d="M99.1797 146.342L82.7394 136.873V128.268L99.1797 137.733V146.342Z" stroke="white" stroke-miterlimit="10"/>
<path d="M153.19 132.035L151.966 132.786C150.553 133.601 149.68 135.314 149.665 137.744V141.294L150.919 140.542L150.874 136.97C150.907 134.563 151.785 132.854 153.19 132.035Z" stroke="white" stroke-miterlimit="10"/>
<path d="M168.598 147.187C168.552 144.788 168.008 142.425 167.001 140.246C166.665 139.499 166.288 138.772 165.871 138.067C165.13 136.772 164.26 135.554 163.276 134.431C162.064 133.024 160.631 131.822 159.032 130.874C156.331 129.319 153.879 129.173 152.12 130.191L150.9 130.942C152.655 129.92 155.111 130.07 157.807 131.625C159.408 132.573 160.843 133.775 162.056 135.182C163.04 136.305 163.909 137.523 164.651 138.818C165.06 139.524 165.431 140.251 165.762 140.997C166.771 143.175 167.315 145.539 167.359 147.938V151.488L168.579 150.736L168.598 147.187Z" stroke="white" stroke-miterlimit="10"/>
<path d="M157.823 131.641C160.421 133.143 162.855 135.69 164.666 138.834C166.433 141.883 167.386 145.11 167.374 147.953V151.503L165.868 150.628V147.086C165.868 144.701 165.065 141.996 163.608 139.438C162.075 136.809 160.026 134.649 157.826 133.383C153.367 130.814 149.71 132.775 149.68 137.759V141.309L148.173 140.441V136.892C148.196 130.942 152.538 128.594 157.823 131.641Z" stroke="white" stroke-miterlimit="10"/>
<path d="M147.405 129.898L110.083 151.529L113.176 153.306C116.362 153.068 119.523 154.028 122.034 155.999C123.451 157.138 124.565 158.607 125.277 160.277L173.446 188.008L210.767 166.381L147.405 129.898Z" stroke="white" stroke-miterlimit="10"/>
<path d="M125.277 160.277L162.229 181.544L199.671 159.984L147.416 129.898L110.095 151.529L113.187 153.306C116.374 153.068 119.534 154.028 122.046 155.999C123.458 157.139 124.568 158.608 125.277 160.277Z" stroke="white" stroke-miterlimit="10"/>
<path d="M143.555 135.325L202.375 169.19L203.392 168.604L143.555 134.153L117.338 149.373L118.351 149.959L143.555 135.325Z" stroke="white" stroke-miterlimit="10"/>
<path d="M112.23 162.846L110.083 161.61V151.525L114.799 154.237C113.221 155.022 112.223 156.866 112.215 159.526L112.23 162.846Z" stroke="white" stroke-miterlimit="10"/>
<path d="M125.823 160.585C127.401 163.188 128.4 166.163 128.392 168.848V172.169L173.992 198.424L175.035 188.925L125.823 160.585Z" stroke="white" stroke-miterlimit="10"/>
<path d="M124.641 155.713C123.384 154.644 122.022 153.702 120.577 152.904C119.641 152.405 118.601 152.133 117.54 152.113C116.48 152.092 115.429 152.322 114.475 152.784L114.279 152.877C113.215 153.38 112.304 154.155 111.639 155.124C110.974 156.093 110.579 157.22 110.494 158.391C110.494 158.654 110.494 158.808 110.494 158.808L110.987 163.612L124.641 155.713Z" stroke="white" stroke-miterlimit="10"/>
<path d="M121.225 154.256C119.974 153.914 118.848 153.993 117.963 154.508L114.019 156.784L124.147 174.156L128.079 171.876C128.557 171.576 128.958 171.169 129.251 170.689C129.138 164.101 125.944 157.678 121.225 154.256Z" stroke="white" stroke-miterlimit="10"/>
<path d="M119.119 157.283C115.172 155.011 111.963 156.833 111.963 161.351C111.963 165.87 115.138 171.384 119.085 173.656C123.032 175.929 126.241 174.107 126.241 169.581C126.241 165.055 123.059 159.556 119.119 157.283Z" stroke="white" stroke-miterlimit="10"/>
<path d="M119.111 159.593C116.279 157.963 113.974 159.274 113.967 162.516C113.959 165.757 116.245 169.712 119.078 171.346C121.91 172.98 124.215 171.665 124.222 168.42C124.23 165.175 121.929 161.227 119.111 159.593Z" stroke="white" stroke-miterlimit="10"/>
<path d="M119.206 159.781C116.52 158.166 114.287 159.361 114.219 162.452C114.151 165.543 116.275 169.359 118.961 170.974C121.646 172.589 123.884 171.395 123.951 168.304C124.019 165.213 121.895 161.4 119.206 159.781Z" stroke="white" stroke-miterlimit="10"/>
<path d="M123.714 168.995C122.987 169.697 121.831 169.746 120.528 168.961C118.388 167.676 116.701 164.642 116.761 162.2C116.791 160.754 117.42 159.83 118.37 159.571C118.565 159.518 118.283 159.477 118.283 159.477L117.153 159.443C115.62 159.394 114.543 160.57 114.498 162.636C114.434 165.543 116.434 169.138 118.965 170.659C120.806 171.767 122.422 171.47 123.191 170.107L123.62 169.355C123.62 169.355 123.861 168.852 123.714 168.995Z" stroke="white" stroke-miterlimit="10"/>
<path d="M119.206 159.781C116.52 158.166 114.287 159.361 114.219 162.452C114.151 165.543 116.275 169.359 118.961 170.974C121.646 172.589 123.884 171.395 123.951 168.304C124.019 165.213 121.895 161.4 119.206 159.781ZM118.968 170.648C116.437 169.126 114.449 165.532 114.501 162.625C114.554 159.717 116.671 158.587 119.202 160.108C121.733 161.629 123.722 165.224 123.669 168.135C123.616 171.046 121.499 172.169 118.968 170.648Z" stroke="white" stroke-miterlimit="10"/>
<path d="M119.202 160.108C118.874 159.91 118.525 159.749 118.163 159.627C117.326 159.95 116.78 160.84 116.75 162.185C116.697 164.641 118.385 167.676 120.517 168.946C121.722 169.671 122.81 169.697 123.53 169.119C123.601 168.79 123.641 168.456 123.646 168.12C123.733 165.224 121.733 161.629 119.202 160.108Z" stroke="white" stroke-miterlimit="10"/>
<path d="M122.155 164.018C121.834 163.316 121.321 162.718 120.675 162.294C120.567 162.227 120.454 162.171 120.336 162.125C119.428 161.749 118.72 162.26 118.697 163.349V163.624L120.377 166.61L120.611 166.749C121.661 167.361 122.531 166.884 122.558 165.671C122.552 165.096 122.414 164.531 122.155 164.018Z" stroke="white" stroke-miterlimit="10"/>
<path d="M120.422 162.696C119.484 162.132 118.709 162.549 118.686 163.624C118.708 164.213 118.868 164.789 119.155 165.306C119.441 165.822 119.846 166.263 120.336 166.595C121.273 167.158 122.053 166.741 122.076 165.663C122.053 165.074 121.892 164.498 121.604 163.983C121.317 163.467 120.912 163.026 120.422 162.696V162.696Z" stroke="white" stroke-miterlimit="10"/>
<path d="M129.891 169.472C129.846 167.073 129.302 164.709 128.294 162.531C127.961 161.786 127.591 161.059 127.183 160.352C126.44 159.058 125.571 157.84 124.588 156.716C123.373 155.31 121.938 154.109 120.339 153.159C117.643 151.604 115.187 151.458 113.428 152.476L112.208 153.227C113.967 152.209 116.419 152.355 119.119 153.91C120.718 154.859 122.151 156.061 123.364 157.467C124.348 158.59 125.217 159.808 125.959 161.103C126.369 161.808 126.74 162.536 127.07 163.282C128.078 165.461 128.623 167.824 128.671 170.223V173.773L129.895 173.021L129.891 169.472Z" stroke="white" stroke-miterlimit="10"/>
<path d="M119.119 153.925C121.718 155.428 124.151 157.974 125.959 161.118C127.725 164.168 128.678 167.395 128.671 170.238V173.788L127.164 172.912V169.37C127.164 166.985 126.366 164.285 124.904 161.723C123.375 159.094 121.322 156.934 119.123 155.668C114.663 153.099 111.006 155.06 110.976 160.044V163.594L109.469 162.726V159.176C109.5 153.231 113.831 150.883 119.119 153.925Z" stroke="white" stroke-miterlimit="10"/>
<path d="M124.588 156.78C125.578 157.903 126.454 159.121 127.202 160.416C127.477 160.897 127.703 161.381 127.955 161.866L132.347 159.334C132.106 158.835 131.872 158.335 131.593 157.832C130.85 156.538 129.981 155.32 128.998 154.196C127.771 152.79 126.322 151.592 124.708 150.65C122.012 149.095 119.556 148.949 117.801 149.967L113.432 152.528C115.191 151.51 117.643 151.661 120.339 153.212C121.94 154.163 123.375 155.369 124.588 156.78V156.78Z" stroke="white" stroke-miterlimit="10"/>
<path d="M157.71 137.718C158.694 138.841 159.563 140.059 160.305 141.354C160.583 141.831 160.806 142.315 161.058 142.8L165.604 140.171C163.873 136.657 161.241 133.663 157.973 131.494C155.393 129.751 152.663 129.886 150.904 130.904L146.535 133.481C148.294 132.463 150.746 132.61 153.446 134.165C155.05 135.112 156.49 136.312 157.71 137.718V137.718Z" stroke="white" stroke-miterlimit="10"/>
<path d="M161.024 142.8L145.91 134.097C145.91 134.097 147.947 130.983 153.902 133.898C159.857 136.813 161.024 142.8 161.024 142.8Z" stroke="white" stroke-miterlimit="10"/>
<path d="M133.763 169.245L132.712 168.645C132.579 168.565 132.466 168.456 132.382 168.326C132.299 168.196 132.247 168.048 132.23 167.894C132.23 167.628 132.445 167.538 132.712 167.692L133.763 168.292C133.896 168.371 134.009 168.48 134.093 168.611C134.176 168.741 134.228 168.889 134.245 169.042C134.245 169.309 134.03 169.399 133.763 169.245Z" stroke="white" stroke-miterlimit="10"/>
<path d="M1.69776 99.7512L1.02734 99.3644V90.8381L7.59971 87.8407L1.69776 99.7512Z" stroke="white" stroke-miterlimit="10"/>
<path d="M35.8215 80.1032L1.69788 99.7513V91.225L35.8215 71.5807V80.1032Z" stroke="white" stroke-miterlimit="10"/>
<path d="M1.69776 91.2251L1.02734 90.8382L35.1509 71.1938L35.8214 71.5807L1.69776 91.2251Z" stroke="white" stroke-miterlimit="10"/>
<path d="M21.6747 96.9156C20.5222 96.1644 19.2341 95.6798 18.0891 94.9211C17.9914 94.8576 17.908 94.7744 17.8443 94.677C16.6622 94.5797 15.4752 94.7934 14.4018 95.2967L14.2022 95.3944C13.1415 95.8982 12.234 96.6737 11.5722 97.6418C10.9105 98.6099 10.5183 99.7358 10.4358 100.905C10.417 101.171 10.4358 101.325 10.4358 101.325L10.933 106.126L23.5655 98.8425C22.9779 98.1476 22.4694 97.4264 21.6747 96.9156Z" stroke="white" stroke-miterlimit="10"/>
<path d="M21.1474 96.7878C19.8969 96.4498 18.7708 96.5287 17.8857 97.0395L13.9536 99.3194L24.0814 116.688L28.0135 114.408C28.4907 114.108 28.8917 113.701 29.1849 113.221C29.0606 106.636 25.8855 100.21 21.1474 96.7878Z" stroke="white" stroke-miterlimit="10"/>
<path d="M19.0421 99.8152C15.0949 97.5427 11.8859 99.3682 11.8859 103.883C11.8859 108.398 15.0648 113.916 19.012 116.192C22.9591 118.468 26.1681 116.639 26.1681 112.116C26.1681 107.594 22.9893 102.088 19.0421 99.8152Z" stroke="white" stroke-miterlimit="10"/>
<path d="M19.0345 102.129C16.2021 100.495 13.9009 101.806 13.8896 105.047C13.8783 108.289 16.1682 112.248 19.0043 113.878C21.8404 115.508 24.1379 114.201 24.1492 110.952C24.1605 107.703 21.8706 103.759 19.0345 102.129Z" stroke="white" stroke-miterlimit="10"/>
<path d="M19.1325 102.317C16.4433 100.702 14.2098 101.896 14.142 104.984C14.0742 108.071 16.1985 111.891 18.8877 113.506C21.5769 115.121 23.8066 113.927 23.8744 110.836C23.9422 107.744 21.8179 103.932 19.1325 102.317Z" stroke="white" stroke-miterlimit="10"/>
<path d="M23.6258 111.527C22.8989 112.229 21.7426 112.278 20.4356 111.493C18.3001 110.208 16.609 107.173 16.6692 104.732C16.7031 103.286 17.3321 102.362 18.2775 102.103C18.4771 102.05 18.1909 102.013 18.1909 102.013L17.0609 101.975C15.5318 101.93 14.4546 103.102 14.4245 105.168C14.3604 108.079 16.3604 111.669 18.8914 113.191C20.7332 114.299 22.349 114.006 23.1136 112.642L23.5467 111.891C23.5467 111.891 23.784 111.388 23.6258 111.527Z" stroke="white" stroke-miterlimit="10"/>
<path d="M19.1325 102.317C16.4433 100.702 14.2098 101.896 14.142 104.984C14.0742 108.071 16.1985 111.891 18.8877 113.506C21.5769 115.121 23.8066 113.927 23.8744 110.836C23.9422 107.744 21.8179 103.932 19.1325 102.317ZM18.8952 113.179C16.3642 111.658 14.3755 108.067 14.4283 105.156C14.481 102.245 16.5939 101.119 19.125 102.644C21.656 104.168 23.6446 107.756 23.5919 110.667C23.5392 113.577 21.4262 114.701 18.8952 113.179Z" stroke="white" stroke-miterlimit="10"/>
<path d="M19.1249 102.644C18.7986 102.445 18.4512 102.282 18.0891 102.159C17.253 102.486 16.7069 103.372 16.6767 104.717C16.624 107.173 18.3151 110.208 20.4431 111.478C21.6484 112.203 22.7369 112.229 23.4563 111.651C23.5281 111.322 23.5672 110.988 23.573 110.652C23.6559 107.756 21.6559 104.165 19.1249 102.644Z" stroke="white" stroke-miterlimit="10"/>
<path d="M22.0779 106.55C21.7612 105.85 21.2535 105.252 20.6127 104.826C20.5036 104.762 20.3904 104.706 20.2738 104.657C19.3661 104.281 18.658 104.792 18.6354 105.885V106.159L20.3152 109.145L20.5525 109.281C21.6033 109.893 22.4696 109.416 22.4959 108.203C22.4854 107.627 22.3424 107.062 22.0779 106.55V106.55Z" stroke="white" stroke-miterlimit="10"/>
<path d="M20.3528 105.228C19.4187 104.664 18.6391 105.081 18.6165 106.159C18.6391 106.749 18.8006 107.324 19.0879 107.84C19.3751 108.355 19.7801 108.796 20.2699 109.127C21.204 109.69 21.9836 109.273 22.0062 108.195C21.9854 107.605 21.8246 107.029 21.5372 106.513C21.2498 105.997 20.8439 105.557 20.3528 105.228V105.228Z" stroke="white" stroke-miterlimit="10"/>
<path d="M40.5255 107.767C39.373 107.016 38.0811 106.531 36.9362 105.772C36.8393 105.708 36.7561 105.625 36.6913 105.528C35.5088 105.431 34.3215 105.646 33.2489 106.152L33.0492 106.246C31.989 106.751 31.0819 107.527 30.4203 108.496C29.7587 109.464 29.3663 110.591 29.2828 111.76C29.2828 112.022 29.2828 112.176 29.2828 112.176L29.7762 116.98L42.3861 109.709C41.825 108.999 41.3278 108.278 40.5255 107.767Z" stroke="white" stroke-miterlimit="10"/>
<path d="M39.9983 107.639C38.7478 107.301 37.6217 107.38 36.7366 107.891L32.8044 110.171L42.9323 127.539L46.8644 125.263C47.3417 124.961 47.7426 124.554 48.0358 124.072C47.9115 117.488 44.7176 111.065 39.9983 107.639Z" stroke="white" stroke-miterlimit="10"/>
<path d="M37.8929 110.667C33.9457 108.394 30.7367 110.22 30.7367 114.738C30.7367 119.257 33.9118 124.771 37.859 127.043C41.8061 129.316 45.0151 127.49 45.0151 122.968C45.0151 118.445 41.84 112.943 37.8929 110.667Z" stroke="white" stroke-miterlimit="10"/>
<path d="M37.8853 112.98C35.053 111.35 32.748 112.657 32.7404 115.899C32.7329 119.14 35.0003 123.099 37.8514 124.729C40.7026 126.36 42.9888 125.052 42.9963 121.807C43.0039 118.562 40.7177 114.61 37.8853 112.98Z" stroke="white" stroke-miterlimit="10"/>
<path d="M37.9795 113.168C35.2941 111.553 33.0606 112.747 32.9928 115.839C32.925 118.93 35.0492 122.742 37.7347 124.357C40.4201 125.973 42.6574 124.778 42.7252 121.691C42.793 118.603 40.6687 114.783 37.9795 113.168Z" stroke="white" stroke-miterlimit="10"/>
<path d="M42.4879 122.378C41.761 123.084 40.6047 123.129 39.3015 122.348C37.1622 121.063 35.4749 118.028 35.5351 115.587C35.5653 114.141 36.1943 113.217 37.1434 112.958C37.3393 112.901 37.0568 112.864 37.0568 112.864L35.9269 112.83C34.3939 112.781 33.3167 113.957 33.2904 116.019C33.2263 118.93 35.2263 122.524 37.7573 124.046C39.5991 125.15 41.2149 124.857 41.9832 123.493L42.4126 122.742C42.4126 122.742 42.6348 122.239 42.4879 122.378Z" stroke="white" stroke-miterlimit="10"/>
<path d="M37.9795 113.168C35.2941 111.553 33.0606 112.747 32.9928 115.839C32.925 118.93 35.0492 122.742 37.7347 124.357C40.4201 125.973 42.6574 124.778 42.7252 121.691C42.793 118.603 40.6687 114.783 37.9795 113.168ZM37.7422 124.034C35.2112 122.513 33.2225 118.919 33.2753 116.008C33.328 113.097 35.4447 111.962 37.9757 113.495C40.5068 115.027 42.4954 118.611 42.4427 121.518C42.39 124.425 40.2732 125.556 37.7422 124.034Z" stroke="white" stroke-miterlimit="10"/>
<path d="M37.9757 113.495C37.649 113.298 37.3017 113.136 36.94 113.014C36.1038 113.337 35.5577 114.227 35.5276 115.568C35.4748 118.028 37.1622 121.063 39.294 122.329C40.4955 123.05 41.5877 123.08 42.3071 122.502C42.3791 122.172 42.4183 121.836 42.4239 121.499C42.5067 118.611 40.5068 115.016 37.9757 113.495Z" stroke="white" stroke-miterlimit="10"/>
<path d="M40.9286 117.401C40.6063 116.7 40.0935 116.103 39.4484 115.677C39.3393 115.613 39.2261 115.557 39.1095 115.508C38.2018 115.151 37.4937 115.643 37.4711 116.736V117.011L39.1547 119.997L39.3882 120.136C40.439 120.744 41.309 120.267 41.3354 119.058C41.3289 118.482 41.1898 117.915 40.9286 117.401V117.401Z" stroke="white" stroke-miterlimit="10"/>
<path d="M39.2036 116.094C38.2658 115.531 37.4899 115.948 37.4636 117.026C37.4856 117.616 37.6469 118.192 37.9341 118.708C38.2214 119.225 38.6267 119.666 39.117 119.997C40.0548 120.556 40.8345 120.143 40.8571 119.065C40.835 118.475 40.6738 117.899 40.3865 117.383C40.0992 116.866 39.694 116.425 39.2036 116.094V116.094Z" stroke="white" stroke-miterlimit="10"/>
<path d="M59.3727 118.618C58.2202 117.867 56.932 117.386 55.7871 116.627C55.6911 116.562 55.6081 116.479 55.5422 116.383C54.3601 116.286 53.1731 116.5 52.0998 117.003L51.9001 117.101C50.8395 117.604 49.9319 118.38 49.2702 119.348C48.6084 120.316 48.2163 121.442 48.1337 122.611C48.1337 122.874 48.1337 123.028 48.1337 123.028L48.6309 127.832L61.2634 120.549C60.6758 119.85 60.1598 119.133 59.3727 118.618Z" stroke="white" stroke-miterlimit="10"/>
<path d="M58.8455 118.494C57.5988 118.152 56.4689 118.231 55.5838 118.746L51.6554 121.022L61.7795 138.394L65.7116 136.114C66.1888 135.814 66.5897 135.408 66.883 134.927C66.7587 128.339 63.5497 121.916 58.8455 118.494Z" stroke="white" stroke-miterlimit="10"/>
<path d="M56.74 121.522C52.7928 119.249 49.5838 121.071 49.5838 125.589C49.5838 130.108 52.7476 135.626 56.6948 137.879C60.642 140.133 63.8509 138.33 63.8509 133.804C63.8509 129.278 60.6909 123.794 56.74 121.522Z" stroke="white" stroke-miterlimit="10"/>
<path d="M56.7361 123.832C53.9 122.201 51.5987 123.512 51.5874 126.754C51.5761 129.995 53.8699 133.951 56.7022 135.584C59.5345 137.218 61.8358 135.904 61.8471 132.658C61.8584 129.413 59.5684 125.484 56.7361 123.832Z" stroke="white" stroke-miterlimit="10"/>
<path d="M56.8304 124.023C54.1412 122.404 51.9077 123.603 51.8399 126.69C51.7721 129.778 53.8963 133.597 56.5856 135.213C59.2748 136.828 61.5082 135.633 61.576 132.542C61.6438 129.451 59.5196 125.638 56.8304 124.023Z" stroke="white" stroke-miterlimit="10"/>
<path d="M61.3388 133.233C60.6119 133.936 59.4556 133.984 58.1486 133.199C56.0131 131.915 54.322 128.88 54.3822 126.438C54.4124 124.992 55.0414 124.068 55.9867 123.809C56.1863 123.757 55.9001 123.715 55.9001 123.715L54.7702 123.681C53.241 123.636 52.1638 124.808 52.1337 126.874C52.0697 129.781 54.0696 133.376 56.6006 134.897C58.4424 136.024 60.0582 135.708 60.8266 134.345L61.2559 133.594C61.2559 133.594 61.4819 133.09 61.3388 133.233Z" stroke="white" stroke-miterlimit="10"/>
<path d="M56.8304 124.023C54.1412 122.404 51.9077 123.603 51.8399 126.69C51.7721 129.778 53.8963 133.597 56.5856 135.213C59.2748 136.828 61.5082 135.633 61.576 132.542C61.6438 129.451 59.5196 125.638 56.8304 124.023ZM56.5931 134.875C54.0621 133.372 52.0734 129.759 52.1261 126.852C52.1789 123.944 54.2918 122.814 56.8228 124.335C59.3539 125.856 61.3425 129.451 61.2898 132.362C61.2371 135.273 59.1241 136.407 56.5931 134.875Z" stroke="white" stroke-miterlimit="10"/>
<path d="M56.8228 124.357C56.4974 124.16 56.1513 123.999 55.7909 123.877C54.9509 124.2 54.4048 125.09 54.3785 126.435C54.322 128.891 56.0131 131.926 58.1449 133.196C59.3501 133.92 60.4386 133.947 61.158 133.368C61.2285 133.04 61.2663 132.705 61.271 132.369C61.3538 129.462 59.3539 125.86 56.8228 124.357Z" stroke="white" stroke-miterlimit="10"/>
<path d="M59.7832 128.256C59.4635 127.553 58.9502 126.956 58.303 126.532C58.1964 126.464 58.0828 126.407 57.9641 126.363C57.0564 125.988 56.3483 126.498 56.3257 127.592V127.862L58.0093 130.848L58.2428 130.987C59.2936 131.599 60.1599 131.122 60.1862 129.909C60.1826 129.334 60.0446 128.769 59.7832 128.256V128.256Z" stroke="white" stroke-miterlimit="10"/>
<path d="M58.0544 126.934C57.1166 126.371 56.3369 126.788 56.3143 127.862C56.3364 128.452 56.4976 129.028 56.7849 129.545C57.0722 130.061 57.4774 130.502 57.9678 130.833C58.9056 131.396 59.6815 130.98 59.7041 129.902C59.6819 129.313 59.5209 128.737 59.2344 128.222C58.9478 127.706 58.5436 127.265 58.0544 126.934V126.934Z" stroke="white" stroke-miterlimit="10"/>
<path d="M71.7943 131.246C71.7492 128.847 71.2055 126.483 70.1974 124.305C69.8585 123.56 69.4814 122.833 69.0674 122.126C68.3258 120.831 67.4565 119.613 66.4724 118.49C65.1692 117.014 26.4544 94.3387 24.9554 93.4748C24.88 93.4335 24.8198 93.4072 24.7444 93.3696C24.6691 93.3321 24.6013 93.272 24.526 93.2269C21.8255 91.6719 19.3736 91.5254 17.6146 92.5433L12.1119 95.7735C15.4527 95.6533 26.2962 101.573 33.5804 105.509C36.8421 107.275 37.5088 108.003 40.1641 109.69L57.2522 119.76C59.4629 121.062 61.3656 122.825 62.8302 124.928C64.2947 127.031 65.2866 129.424 65.7379 131.945C65.9677 133.241 65.6852 135.494 65.8321 136.85L66.2954 138.026L71.7981 134.796L71.7943 131.246Z" stroke="white" stroke-miterlimit="10"/>
<path d="M66.3028 138.026V134.476C66.3028 131.633 65.3612 128.407 63.5947 125.357C61.7831 122.213 59.35 119.659 56.7512 118.164L19.042 96.4573C13.769 93.4149 9.41508 95.7624 9.38495 101.716V105.269L10.8915 106.137V102.583C10.9179 97.6029 14.5788 95.6422 19.0382 98.2076C21.2378 99.4735 23.2867 101.622 24.8159 104.266C26.2886 106.824 27.0757 109.525 27.0757 111.91V115.452L28.232 116.12L29.7386 116.988V113.439C29.7687 108.454 33.4259 106.494 37.8853 109.059C40.0849 110.329 42.1376 112.473 43.6667 115.118C45.1394 117.675 45.9454 120.376 45.9266 122.765V126.307L47.4331 127.182L48.563 127.839V124.29C48.5894 119.306 52.2504 117.345 56.7098 119.914C58.9093 121.18 60.9583 123.328 62.4912 125.969C63.9601 128.531 64.751 131.227 64.751 133.616V137.158L66.3028 138.026Z" stroke="white" stroke-miterlimit="10"/>
<path d="M82.8863 139.833L81.6359 139.111V134.059L82.8863 134.781V139.833Z" stroke="white" stroke-miterlimit="10"/>
<path d="M83.3533 139.562L82.8862 139.833V134.781L83.3533 134.51V139.562Z" stroke="white" stroke-miterlimit="10"/>
<path d="M82.8863 134.78L81.6359 134.059L82.1029 133.789L83.3533 134.51L82.8863 134.78Z" stroke="white" stroke-miterlimit="10"/>
<path d="M100.811 150.154L99.5602 149.433V144.381L100.811 145.102V150.154Z" stroke="white" stroke-miterlimit="10"/>
<path d="M101.281 149.884L100.811 150.154V145.102L101.281 144.832V149.884Z" stroke="white" stroke-miterlimit="10"/>
<path d="M100.811 145.102L99.5602 144.381L100.031 144.111L101.281 144.831L100.811 145.102Z" stroke="white" stroke-miterlimit="10"/>
<path d="M77.5191 134.92L76.8563 135.299L104.52 153.208L105.18 152.829V150.845L77.5191 134.92Z" stroke="white" stroke-miterlimit="10"/>
<path d="M104.52 153.208L76.8563 137.282V135.299L104.52 151.229V153.208Z" stroke="white" stroke-miterlimit="10"/>
<path d="M77.5191 130.116L76.8563 130.495L104.52 148.404L105.18 148.025V146.041L77.5191 130.116Z" stroke="white" stroke-miterlimit="10"/>
<path d="M104.52 148.404L76.8563 132.478V130.495L104.52 146.424V148.404Z" stroke="white" stroke-miterlimit="10"/>
<path d="M160.542 178.708L1.07269 86.8905V82.8414L160.542 174.659V178.708Z" stroke="white" stroke-miterlimit="10"/>
<path d="M202.59 154.5L160.542 178.708V174.659L202.59 150.447V154.5Z" stroke="white" stroke-miterlimit="10"/>
<path d="M160.583 177.146L1.02734 85.2792V25.2081L200.21 94.26L160.583 177.146Z" stroke="white" stroke-miterlimit="10"/>
<path d="M202.628 152.938L160.583 177.146V117.074L202.628 92.8665V152.938Z" stroke="white" stroke-miterlimit="10"/>
<path d="M160.583 117.074L1.02734 25.208L43.0717 1L202.628 92.8664L160.583 117.074Z" stroke="white" stroke-miterlimit="10"/>
<path d="M168.907 115.414L162.602 119.043V118.318L168.907 114.689V115.414Z" stroke="white" stroke-miterlimit="10"/>
<path d="M168.907 116.8L162.602 120.429V121.157L168.907 117.525V116.8Z" stroke="white" stroke-miterlimit="10"/>
<path d="M200.778 97.0618L194.477 100.69V99.9653L200.778 96.3369V97.0618Z" stroke="white" stroke-miterlimit="10"/>
<path d="M200.778 98.448L194.477 102.076V102.805L200.778 99.1729V98.448Z" stroke="white" stroke-miterlimit="10"/>
<path d="M249.949 147.213C249.835 147.16 249.709 147.138 249.583 147.148C249.458 147.158 249.337 147.2 249.233 147.27L248.231 147.848C247.933 148.042 247.685 148.304 247.508 148.612C247.33 148.921 247.228 149.266 247.211 149.621L247.192 156.87C247.179 156.997 247.2 157.125 247.253 157.241C247.306 157.357 247.389 157.457 247.493 157.531L248.02 157.835L250.487 147.506L249.949 147.213Z" stroke="white" stroke-miterlimit="10"/>
<path d="M249.749 147.589C250.314 147.266 250.774 147.529 250.777 148.182L250.759 155.432C250.741 155.786 250.639 156.132 250.461 156.44C250.284 156.748 250.036 157.01 249.738 157.204L248.736 157.787C248.171 158.11 247.712 157.847 247.708 157.193V149.944C247.726 149.589 247.828 149.244 248.005 148.935C248.182 148.627 248.43 148.365 248.729 148.171L249.749 147.589Z" stroke="white" stroke-miterlimit="10"/>
<path d="M244.789 152.599C244.73 152.6 244.671 152.585 244.62 152.555C244.569 152.525 244.527 152.482 244.499 152.43C244.476 152.393 244.461 152.351 244.455 152.307C244.449 152.264 244.451 152.22 244.462 152.177C244.473 152.135 244.492 152.095 244.518 152.059C244.545 152.024 244.578 151.995 244.616 151.972L247.101 150.492C247.139 150.47 247.182 150.455 247.225 150.449C247.269 150.443 247.314 150.445 247.357 150.456C247.399 150.467 247.44 150.486 247.475 150.513C247.51 150.539 247.54 150.573 247.563 150.611C247.585 150.649 247.6 150.691 247.606 150.734C247.612 150.778 247.61 150.822 247.599 150.865C247.588 150.908 247.569 150.948 247.542 150.983C247.515 151.019 247.482 151.048 247.444 151.071L244.958 152.551C244.908 152.583 244.849 152.6 244.789 152.599Z" stroke="white" stroke-miterlimit="10"/>
<path d="M188.711 193.958C188.236 193.661 185.272 191.558 184.835 191.817C184.661 191.92 184.454 191.955 184.255 191.915C183.022 192.464 181.82 193.081 180.654 193.763C179.778 195.155 179.303 196.761 179.283 198.405L179.777 203.209L191.633 196.369C190.771 195.44 189.788 194.629 188.711 193.958V193.958Z" stroke="white" stroke-miterlimit="10"/>
<path d="M197.675 201.496C196.974 199.917 196.04 198.452 194.903 197.15C194.009 196.11 192.95 195.222 191.769 194.521C189.777 193.372 187.973 193.267 186.669 194.022L182.726 196.305L192.895 213.722L196.839 211.435C198.127 210.684 198.922 209.106 198.929 206.852C198.885 205 198.458 203.176 197.675 201.496V201.496Z" stroke="white" stroke-miterlimit="10"/>
<path d="M187.841 196.805C183.882 194.525 180.662 196.354 180.651 200.884C180.639 205.414 183.833 210.943 187.807 213.223C191.78 215.503 194.986 213.673 194.997 209.136C195.008 204.599 191.788 199.104 187.841 196.805Z" stroke="white" stroke-miterlimit="10"/>
<path d="M187.841 199.122C185.001 197.489 182.692 198.799 182.681 202.052C182.67 205.305 184.967 209.268 187.807 210.905C190.647 212.543 192.956 211.228 192.967 207.972C192.978 204.715 190.662 200.76 187.841 199.122Z" stroke="white" stroke-miterlimit="10"/>
<path d="M187.818 199.772C185.347 198.27 183.268 199.333 183.174 202.191C183.08 205.05 185.005 208.603 187.472 210.124C189.939 211.645 192.021 210.567 192.119 207.709C192.217 204.85 190.289 201.297 187.818 199.772Z" stroke="white" stroke-miterlimit="10"/>
<path d="M190.88 203.956C190.221 202.469 189.155 201.197 187.803 200.287C187.574 200.142 187.334 200.016 187.084 199.911C185.201 199.16 183.694 200.163 183.619 202.458C183.619 202.54 183.619 203.055 183.619 203.055C183.69 200.94 185.02 200.027 186.707 200.715C186.929 200.804 187.142 200.914 187.344 201.042C188.548 201.849 189.497 202.981 190.082 204.306C190.553 205.269 190.795 206.329 190.79 207.401C190.715 209.692 189.046 210.56 187.069 209.339L187.506 209.606C189.732 210.977 191.603 210.004 191.69 207.427C191.689 206.224 191.412 205.036 190.88 203.956V203.956Z" stroke="white" stroke-miterlimit="10"/>
<path d="M191.649 203.66C190.879 201.925 189.635 200.443 188.059 199.382C187.794 199.215 187.514 199.071 187.223 198.953C185.008 198.052 183.268 199.25 183.178 201.924C183.178 202.018 183.178 202.3 183.178 202.3C183.265 199.671 184.926 198.525 187.031 199.382C187.306 199.496 187.572 199.631 187.826 199.787C189.32 200.794 190.5 202.2 191.231 203.844C191.817 205.048 192.119 206.37 192.116 207.709C192.018 210.567 189.939 211.649 187.468 210.124L187.694 210.263C190.289 211.863 192.473 210.725 192.59 207.72C192.591 206.313 192.269 204.924 191.649 203.66V203.66Z" stroke="white" stroke-miterlimit="10"/>
<path d="M246.973 168.104L209.652 189.732V218.635C209.656 218.67 209.65 218.705 209.636 218.737C209.621 218.769 209.598 218.796 209.569 218.815L246.89 197.188C246.919 197.167 246.942 197.139 246.957 197.107C246.972 197.075 246.977 197.039 246.973 197.004V168.104Z" stroke="white" stroke-miterlimit="10"/>
<path d="M233.524 162.67C230.484 163.71 227.58 166.768 227.045 169.491C226.511 172.214 228.552 173.577 231.588 172.541C234.623 171.504 237.527 168.443 238.062 165.72C238.597 162.996 236.559 161.61 233.524 162.67ZM233.46 163.53C233.635 163.476 233.814 163.43 233.994 163.395L232.612 167.639L229.188 166.719C230.278 165.267 231.76 164.155 233.46 163.511V163.53ZM237.365 166.159C236.906 168.499 234.409 171.132 231.795 172.026C229.181 172.92 227.433 171.741 227.889 169.397C228.063 168.641 228.376 167.924 228.812 167.282L233.034 168.409L234.71 163.263C236.597 163.075 237.746 164.198 237.365 166.137V166.159Z" stroke="white" stroke-miterlimit="10"/>
<path d="M244.254 163.158C230.341 167.8 215.174 177.623 206.481 185.991L207.769 188.44L214.85 193.229L247.858 172.571C247.994 170.576 248.936 166.899 247.629 165.265L244.254 163.158Z" stroke="white" stroke-miterlimit="10"/>
<path d="M240.97 164.356C239.93 168.454 231.595 172.586 224.657 172.435C224.657 172.435 227.817 169.055 231.599 166.997C237.395 163.83 240.97 164.356 240.97 164.356Z" stroke="white" stroke-miterlimit="10"/>
<path d="M245.561 147.352L243.508 147.953L246.062 163.826L247.791 164.822L245.561 147.352Z" stroke="white" stroke-miterlimit="10"/>
<path d="M245.32 147.439L209.588 168.139C209.238 168.341 208.84 168.448 208.436 168.448C208.031 168.448 207.633 168.341 207.283 168.139L188.217 157.163C188.043 157.059 187.844 157.002 187.641 156.998C187.519 157.002 187.398 157.032 187.288 157.085C187.177 157.138 187.079 157.213 186.999 157.306C186.919 157.399 186.859 157.507 186.823 157.624C186.787 157.741 186.776 157.864 186.79 157.986L186.764 169.431C186.779 169.807 186.884 170.174 187.072 170.501C187.259 170.828 187.523 171.105 187.841 171.309L198.519 177.457L199.954 179.936C199.984 179.99 200.028 180.034 200.082 180.064L209.761 185.638C210.193 185.889 210.684 186.021 211.183 186.021C211.683 186.021 212.173 185.889 212.605 185.638L248.054 165.1L245.32 147.439Z" stroke="white" stroke-miterlimit="10"/>
<path d="M231.218 174.832L248.054 165.077L245.32 147.439L231.218 155.608V174.832Z" stroke="white" stroke-miterlimit="10"/>
<path d="M245.76 146.65L244.721 147.826L247.421 165.34L248.096 165.017L248.506 164.409L245.76 146.65Z" stroke="white" stroke-miterlimit="10"/>
<path d="M208.808 167.218L204.97 165.757L207.844 184.609C208.733 187.013 210.857 188.463 211.769 186.277L208.808 167.218Z" stroke="white" stroke-miterlimit="10"/>
<path d="M191.799 156.885L189.942 156.543L189.924 174.573C190.368 175.771 191.084 176.485 191.807 176.669L191.799 156.885Z" stroke="white" stroke-miterlimit="10"/>
<path d="M209.321 119.809L171.999 141.436L205.697 160.84L243.019 139.209L209.321 119.809Z" stroke="white" stroke-miterlimit="10"/>
<path d="M248.51 186.464L247.945 186.138C248.166 185.958 248.357 185.745 248.51 185.507V164.439C248.51 164.409 247.455 165.017 247.455 165.017L212.428 185.3C212.05 185.519 211.62 185.635 211.183 185.635C210.746 185.635 210.316 185.519 209.938 185.3L200.27 179.745L198.763 177.183L188.003 170.989C187.74 170.818 187.522 170.588 187.366 170.317C187.209 170.046 187.119 169.743 187.103 169.43L187.125 157.986C187.125 157.419 187.532 157.186 188.025 157.471L207.091 168.446C207.494 168.681 207.953 168.805 208.421 168.805C208.888 168.805 209.347 168.681 209.75 168.446L245.486 147.75L245.862 147.401V145.827C245.866 145.199 245.72 144.578 245.437 144.017L242.996 139.213L205.675 160.844L171.977 141.44L171.871 179.621L172.478 179.966L171.868 180.319L171.822 197.173L179.468 201.575V198.255C179.468 193.135 184.639 191.944 189.106 194.499C193.573 197.053 197.189 203.31 197.174 208.43V211.75L209.057 218.594C209.648 218.935 210.318 219.115 211 219.115C211.683 219.115 212.353 218.935 212.944 218.594L247.561 198.54C247.843 198.375 248.077 198.14 248.24 197.857C248.403 197.575 248.49 197.255 248.491 196.929V186.464H248.51Z" stroke="white" stroke-miterlimit="10"/>
<path d="M245.885 145.824V147.397L245.508 147.747L209.773 168.443C209.18 168.786 208.476 168.886 207.81 168.721L205.705 160.833L243.026 139.202L245.467 144.013C245.748 144.575 245.891 145.196 245.885 145.824Z" stroke="white" stroke-miterlimit="10"/>
<path d="M248.51 186.464L247.945 186.138C248.166 185.959 248.356 185.745 248.51 185.507V164.439C248.51 164.409 247.455 165.017 247.455 165.017L212.428 185.3C212.103 185.486 211.741 185.596 211.367 185.621C210.994 185.645 210.62 185.585 210.273 185.443V219.018C211.193 219.21 212.152 219.057 212.966 218.59L247.583 198.536C247.865 198.372 248.099 198.136 248.263 197.854C248.426 197.571 248.512 197.251 248.514 196.925V186.464H248.51Z" stroke="white" stroke-miterlimit="10"/>
<path d="M248.51 186.464L247.945 186.138C247.846 186.225 247.738 186.303 247.625 186.371L211.844 206.973C211.702 207.058 211.539 207.102 211.373 207.1C211.163 207.101 210.959 207.031 210.793 206.901L198.387 195.663C196.814 194.231 195.092 192.972 193.249 191.907L172.489 179.951L171.89 180.297L192.907 192.399C194.754 193.463 196.482 194.722 198.059 196.155L210.439 207.367C210.682 207.555 210.976 207.666 211.282 207.687C211.589 207.707 211.894 207.637 212.16 207.484L247.941 186.874C248.144 186.757 248.334 186.619 248.51 186.464V186.464Z" stroke="white" stroke-miterlimit="10"/>
<path d="M221.309 209.181C221.186 209.182 221.064 209.158 220.951 209.109C220.838 209.06 220.736 208.987 220.653 208.897C220.57 208.806 220.507 208.699 220.468 208.582C220.429 208.465 220.416 208.342 220.428 208.22V205.842C220.461 205.441 220.59 205.054 220.804 204.712C221.017 204.37 221.309 204.084 221.656 203.878L238.936 193.928C239.149 193.8 239.391 193.729 239.64 193.721C239.763 193.72 239.884 193.745 239.997 193.794C240.11 193.842 240.211 193.914 240.293 194.005C240.376 194.095 240.439 194.202 240.478 194.318C240.516 194.434 240.53 194.557 240.518 194.679V197.06C240.484 197.461 240.355 197.848 240.141 198.189C239.928 198.53 239.636 198.815 239.29 199.021L222.01 208.971C221.799 209.101 221.557 209.174 221.309 209.181Z" stroke="white" stroke-miterlimit="10"/>
<path d="M239.113 194.221L221.833 204.17C221.54 204.345 221.292 204.586 221.109 204.874C220.927 205.162 220.815 205.488 220.782 205.827V208.205C220.782 208.787 221.253 208.986 221.833 208.648L239.113 198.728C239.406 198.553 239.654 198.312 239.837 198.025C240.02 197.737 240.133 197.411 240.167 197.071V194.69C240.167 194.097 239.697 193.901 239.113 194.221Z" stroke="white" stroke-miterlimit="10"/>
<path d="M217.836 201.613C217.689 201.614 217.544 201.584 217.409 201.526C217.274 201.467 217.154 201.38 217.055 201.272C216.956 201.163 216.881 201.035 216.835 200.896C216.79 200.756 216.774 200.609 216.789 200.463V192.053C216.833 191.546 216.998 191.056 217.269 190.624C217.54 190.193 217.91 189.831 218.349 189.571L241.064 176.492C241.326 176.331 241.626 176.242 241.934 176.233C242.081 176.232 242.226 176.262 242.36 176.321C242.494 176.38 242.615 176.466 242.713 176.575C242.812 176.683 242.886 176.811 242.931 176.95C242.977 177.089 242.993 177.237 242.977 177.382V185.792C242.934 186.3 242.77 186.79 242.499 187.221C242.228 187.653 241.857 188.014 241.418 188.275L218.703 201.357C218.442 201.518 218.143 201.607 217.836 201.616V201.613Z" stroke="white" stroke-miterlimit="10"/>
<path d="M241.241 176.8L218.526 189.879C218.141 190.108 217.815 190.424 217.575 190.802C217.335 191.18 217.187 191.608 217.143 192.053V200.463C217.143 201.215 217.761 201.489 218.526 201.049L241.241 187.971C241.626 187.74 241.952 187.423 242.193 187.045C242.434 186.667 242.582 186.238 242.627 185.792V177.382C242.627 176.62 242.005 176.357 241.241 176.8Z" stroke="white" stroke-miterlimit="10"/>
<path d="M247.531 189.402L241.742 192.737C241.552 192.851 241.392 193.007 241.273 193.194C241.155 193.38 241.082 193.592 241.06 193.811V195.791C241.06 196.166 241.365 196.298 241.742 196.08L247.531 192.745V189.402V189.402Z" stroke="white" stroke-miterlimit="10"/>
<path d="M247.531 189.402L246.676 189.898V192.253L247.531 192.745V191.873V189.402Z" stroke="white" stroke-miterlimit="10"/>
<path d="M244.233 192.958C243.973 192.958 243.882 192.677 244.033 192.327C244.093 192.166 244.194 192.023 244.326 191.913C244.458 191.802 244.617 191.728 244.786 191.696C245.05 191.696 245.14 191.978 244.99 192.327C244.929 192.489 244.828 192.632 244.695 192.743C244.562 192.853 244.403 192.928 244.233 192.958ZM243.479 193.202C243.63 192.853 243.54 192.571 243.28 192.571C243.11 192.603 242.952 192.677 242.82 192.788C242.688 192.899 242.587 193.041 242.526 193.202C242.376 193.548 242.466 193.83 242.726 193.83C242.895 193.799 243.053 193.725 243.185 193.615C243.317 193.505 243.419 193.363 243.479 193.202ZM246.312 190.825C246.143 190.856 245.984 190.93 245.852 191.04C245.72 191.15 245.619 191.292 245.558 191.452C245.408 191.801 245.498 192.083 245.758 192.083C245.927 192.051 246.086 191.977 246.218 191.866C246.35 191.756 246.451 191.613 246.511 191.452C246.647 191.107 246.556 190.825 246.293 190.825H246.312ZM241.762 193.454C241.608 193.468 241.463 193.534 241.351 193.642V194.679C241.488 194.625 241.612 194.544 241.717 194.442C241.822 194.339 241.905 194.216 241.961 194.081C242.093 193.728 242.003 193.447 241.743 193.447L241.762 193.454Z" stroke="white" stroke-miterlimit="10"/>
<path d="M219.207 205.711L213.29 209.117V212.46L219.207 209.054C219.397 208.94 219.557 208.783 219.676 208.597C219.794 208.41 219.867 208.199 219.889 207.979V206C219.889 205.62 219.584 205.489 219.207 205.711Z" stroke="white" stroke-miterlimit="10"/>
<path d="M219.207 205.711L218.895 205.891V208.663L219.362 208.933C219.511 208.819 219.634 208.675 219.725 208.511C219.816 208.347 219.871 208.166 219.889 207.979V206C219.889 205.62 219.584 205.489 219.207 205.711Z" stroke="white" stroke-miterlimit="10"/>
<path d="M216.322 209.106C216.059 209.106 215.972 208.824 216.123 208.475C216.183 208.315 216.285 208.173 216.417 208.063C216.549 207.953 216.707 207.879 216.876 207.848C217.14 207.848 217.226 208.129 217.076 208.475C217.015 208.636 216.914 208.779 216.782 208.889C216.65 209 216.492 209.075 216.322 209.106V209.106ZM215.569 209.35C215.72 209.001 215.633 208.719 215.369 208.719C215.2 208.75 215.041 208.825 214.909 208.936C214.777 209.046 214.676 209.189 214.616 209.35C214.465 209.696 214.556 209.981 214.816 209.981C214.982 209.946 215.136 209.87 215.264 209.76C215.393 209.649 215.491 209.509 215.55 209.35H215.569ZM218.386 206.991C218.217 207.023 218.058 207.097 217.926 207.208C217.794 207.318 217.693 207.461 217.633 207.622C217.482 207.968 217.569 208.25 217.833 208.25C218.002 208.219 218.16 208.145 218.292 208.035C218.424 207.925 218.525 207.783 218.586 207.622C218.725 207.254 218.65 206.991 218.386 206.991ZM213.833 209.621C213.679 209.636 213.534 209.702 213.422 209.808V210.845C213.559 210.793 213.683 210.713 213.788 210.611C213.893 210.509 213.976 210.387 214.032 210.252C214.183 209.876 214.096 209.594 213.829 209.594L213.833 209.621Z" stroke="white" stroke-miterlimit="10"/>
<path d="M219.207 205.711L213.29 209.117V212.46L219.207 209.054C219.397 208.94 219.557 208.783 219.676 208.597C219.794 208.41 219.867 208.199 219.889 207.979V206C219.889 205.62 219.584 205.489 219.207 205.711Z" stroke="white" stroke-miterlimit="10"/>
<path d="M246.86 196.425L241.504 199.513C241.245 199.659 241.037 199.573 241.037 199.314V198.581C241.049 198.428 241.098 198.28 241.179 198.149C241.26 198.018 241.372 197.909 241.504 197.83L246.86 194.747C247.12 194.6 247.327 194.686 247.327 194.942V195.693C247.313 195.843 247.263 195.988 247.182 196.115C247.101 196.242 246.99 196.349 246.86 196.425V196.425Z" stroke="white" stroke-miterlimit="10"/>
<path d="M248.514 191.824V188.481C248.293 188.885 247.951 189.208 247.535 189.405C247.486 189.428 247.486 192.786 247.486 192.786C247.926 192.588 248.288 192.25 248.514 191.824V191.824Z" stroke="white" stroke-miterlimit="10"/>
<path d="M198.692 209.083C198.645 206.686 198.102 204.324 197.095 202.146C196.758 201.4 196.38 200.673 195.965 199.967C195.222 198.672 194.351 197.454 193.366 196.332C192.154 194.923 190.721 193.72 189.121 192.771C186.421 191.22 183.969 191.069 182.21 192.087L180.99 192.838C183.065 192.508 185.152 192.602 187.852 194.157C189.359 195.021 190.312 196.009 191.619 197.485C192.571 198.57 193.814 199.671 194.579 201C194.907 201.65 195.194 202.32 195.438 203.006C196.488 205.38 197.178 207.513 197.17 209.673L197.468 213.384L198.688 212.633L198.692 209.083Z" stroke="white" stroke-miterlimit="10"/>
<path d="M187.916 193.537C190.515 195.04 192.948 197.586 194.76 200.73C196.526 203.784 197.479 207.006 197.471 209.85V213.399L195.965 212.524V208.982C195.965 206.597 195.166 203.896 193.705 201.338C192.172 198.709 190.123 196.546 187.924 195.28C183.464 192.715 179.807 194.675 179.777 199.656V203.209L178.27 202.341V198.788C178.289 192.842 182.632 190.495 187.916 193.537Z" stroke="white" stroke-miterlimit="10"/>
<path d="M184.199 167.969L175.536 162.989C175.3 162.848 175.101 162.654 174.954 162.422C174.807 162.191 174.716 161.928 174.689 161.655V151.364C174.69 151.276 174.709 151.189 174.745 151.108C174.683 151.104 174.621 151.114 174.563 151.137C174.505 151.16 174.453 151.196 174.411 151.242C174.368 151.288 174.337 151.342 174.318 151.402C174.3 151.461 174.295 151.524 174.304 151.585V161.877C174.332 162.15 174.422 162.412 174.57 162.644C174.717 162.875 174.916 163.069 175.152 163.21L183.815 168.191C184.191 168.401 184.489 168.341 184.606 168.086C184.462 168.082 184.322 168.042 184.199 167.969Z" stroke="white" stroke-miterlimit="10"/>
<path d="M183.815 156.205L175.152 151.225C175.031 151.149 174.892 151.106 174.749 151.101C174.713 151.184 174.693 151.273 174.689 151.364C174.756 151.454 183.404 156.434 183.404 156.434C183.64 156.575 183.839 156.769 183.986 157.001C184.133 157.232 184.224 157.495 184.251 157.768V167.988C184.35 168.036 184.455 168.067 184.564 168.078C184.615 168.005 184.645 167.919 184.651 167.83V157.539C184.625 157.267 184.536 157.005 184.391 156.773C184.246 156.542 184.048 156.347 183.815 156.205V156.205Z" stroke="white" stroke-miterlimit="10"/>
<path d="M184.199 183.061L175.536 178.085C175.3 177.943 175.1 177.749 174.953 177.516C174.806 177.284 174.715 177.021 174.689 176.747V166.456C174.69 166.369 174.709 166.283 174.745 166.204C174.683 166.2 174.621 166.21 174.564 166.233C174.506 166.256 174.454 166.291 174.412 166.336C174.37 166.382 174.338 166.436 174.32 166.495C174.301 166.554 174.296 166.616 174.304 166.677V176.969C174.331 177.242 174.422 177.506 174.569 177.738C174.716 177.97 174.916 178.165 175.152 178.306L183.815 183.283C184.191 183.493 184.489 183.437 184.605 183.178C184.462 183.176 184.321 183.136 184.199 183.061V183.061Z" stroke="white" stroke-miterlimit="10"/>
<path d="M183.815 171.309L175.152 166.332C175.031 166.256 174.892 166.213 174.749 166.208C174.713 166.29 174.693 166.378 174.689 166.467C174.756 166.561 183.404 171.538 183.404 171.538C183.64 171.679 183.84 171.874 183.987 172.106C184.134 172.338 184.225 172.602 184.251 172.875V183.091C184.349 183.141 184.455 183.172 184.564 183.182C184.615 183.11 184.645 183.025 184.651 182.937V172.646C184.626 172.373 184.537 172.111 184.392 171.878C184.247 171.646 184.049 171.451 183.815 171.309V171.309Z" stroke="white" stroke-miterlimit="10"/>
<path d="M191.012 159.18V190.63L190.745 190.476V159.026L191.012 159.18Z" stroke="white" stroke-miterlimit="10"/>
<path d="M206.775 168.259L206.484 168.09L209.064 185.296V205.339L209.332 205.579L209.328 185.277L206.775 168.259Z" stroke="white" stroke-miterlimit="10"/>
<path d="M229.983 187.512C229.599 187.741 229.275 188.056 229.035 188.432C228.796 188.809 228.648 189.236 228.605 189.68C228.605 190.431 229.222 190.701 229.983 190.262C230.368 190.033 230.694 189.718 230.934 189.341C231.174 188.964 231.322 188.535 231.366 188.091C231.366 187.332 230.748 187.084 229.983 187.512Z" stroke="white" stroke-miterlimit="10"/>
<path d="M229.983 189.984C229.377 190.333 228.883 190.127 228.883 189.522C228.918 189.168 229.036 188.826 229.227 188.526C229.418 188.225 229.677 187.973 229.983 187.79C230.593 187.441 231.087 187.648 231.087 188.252C231.053 188.607 230.936 188.949 230.744 189.251C230.552 189.552 230.291 189.803 229.983 189.984Z" stroke="white" stroke-miterlimit="10"/>
<path d="M172.489 198.736L163.988 193.841V183.756L172.489 188.65V198.736Z" stroke="white" stroke-miterlimit="10"/>
<path d="M173.528 198.138L172.489 198.736V188.65L173.528 188.053V198.138Z" stroke="white" stroke-miterlimit="10"/>
<path d="M171.883 187.118V183.749L167.943 181.48L163.988 183.756L172.489 188.651L173.513 188.061L171.883 187.118Z" stroke="white" stroke-miterlimit="10"/>
<path d="M171.174 196.948L166.873 194.469C166.735 194.388 166.617 194.276 166.53 194.141C166.443 194.007 166.389 193.854 166.372 193.695V192.545C166.372 192.271 166.595 192.17 166.866 192.335L171.167 194.814C171.304 194.896 171.42 195.009 171.505 195.143C171.591 195.277 171.644 195.43 171.66 195.588V196.741C171.668 197.011 171.446 197.105 171.174 196.948Z" stroke="white" stroke-miterlimit="10"/>
<path d="M202.906 209.06L201.856 208.459C201.722 208.38 201.61 208.271 201.526 208.14C201.442 208.01 201.39 207.862 201.374 207.709C201.374 207.442 201.588 207.333 201.856 207.506L202.906 208.118C203.04 208.196 203.154 208.305 203.237 208.436C203.321 208.566 203.373 208.714 203.389 208.868C203.396 209.123 203.181 209.213 202.906 209.06Z" stroke="white" stroke-miterlimit="10"/>
<path d="M211.37 152.152C211.362 152.088 211.337 152.028 211.299 151.976C211.261 151.924 211.21 151.882 211.151 151.856L189.491 139.382C189.322 139.298 189.136 139.255 188.948 139.255C188.76 139.255 188.574 139.298 188.406 139.382C188.33 139.424 188.268 139.488 188.229 139.566C188.231 139.497 188.253 139.429 188.292 139.372C188.33 139.314 188.384 139.268 188.447 139.239C188.615 139.154 188.8 139.11 188.988 139.11C189.176 139.11 189.361 139.154 189.528 139.239L211.193 151.69C211.396 151.811 211.452 151.98 211.37 152.152Z" stroke="white" stroke-miterlimit="10"/>
<path d="M206.695 154.278L185.039 141.804C184.87 141.721 184.684 141.678 184.496 141.678C184.308 141.678 184.122 141.721 183.954 141.804C183.891 141.833 183.837 141.879 183.798 141.937C183.76 141.995 183.738 142.062 183.735 142.131C183.777 142.055 183.84 141.993 183.916 141.951C184.084 141.866 184.269 141.821 184.457 141.821C184.644 141.821 184.83 141.866 184.997 141.951L206.673 154.406C206.732 154.433 206.783 154.474 206.821 154.526C206.859 154.578 206.883 154.639 206.891 154.703C206.959 154.568 206.906 154.406 206.695 154.278Z" stroke="white" stroke-miterlimit="10"/>
<path d="M215.682 149.106L194.021 136.632C193.853 136.547 193.668 136.503 193.479 136.503C193.291 136.503 193.105 136.547 192.937 136.632C192.874 136.661 192.82 136.707 192.781 136.765C192.743 136.823 192.721 136.89 192.718 136.959C192.761 136.884 192.824 136.822 192.899 136.779C193.067 136.694 193.253 136.649 193.441 136.649C193.63 136.649 193.816 136.694 193.984 136.779L215.641 149.249C215.7 149.275 215.752 149.316 215.791 149.368C215.83 149.42 215.855 149.481 215.863 149.546C215.942 149.396 215.889 149.223 215.682 149.106Z" stroke="white" stroke-miterlimit="10"/>
<path d="M210.869 126.431C211.037 126.347 211.223 126.304 211.411 126.304C211.599 126.304 211.785 126.347 211.953 126.431L233.61 138.905C233.67 138.931 233.721 138.972 233.76 139.024C233.799 139.076 233.824 139.137 233.832 139.201C233.911 139.047 233.859 138.878 233.651 138.758L211.991 126.288C211.823 126.203 211.637 126.159 211.449 126.159C211.26 126.159 211.074 126.203 210.906 126.288C210.843 126.317 210.789 126.363 210.751 126.421C210.712 126.478 210.69 126.546 210.688 126.615C210.729 126.538 210.792 126.474 210.869 126.431V126.431Z" stroke="white" stroke-miterlimit="10"/>
<path d="M229.158 141.346L207.498 128.865C207.33 128.781 207.145 128.738 206.957 128.738C206.77 128.738 206.585 128.781 206.417 128.865C206.353 128.893 206.298 128.939 206.259 128.997C206.22 129.054 206.197 129.122 206.194 129.192C206.237 129.116 206.3 129.054 206.375 129.011C206.543 128.926 206.729 128.882 206.918 128.882C207.106 128.882 207.292 128.926 207.46 129.011L229.121 141.481C229.179 141.508 229.23 141.549 229.269 141.601C229.307 141.653 229.331 141.714 229.339 141.778C229.418 141.635 229.365 141.466 229.158 141.346Z" stroke="white" stroke-miterlimit="10"/>
<path d="M220.172 146.518L198.515 134.048C198.347 133.963 198.161 133.919 197.972 133.919C197.784 133.919 197.598 133.963 197.43 134.048C197.367 134.077 197.313 134.123 197.275 134.181C197.236 134.239 197.214 134.306 197.212 134.375C197.252 134.297 197.315 134.233 197.392 134.191C197.56 134.106 197.745 134.061 197.933 134.061C198.121 134.061 198.306 134.106 198.473 134.191L220.134 146.661C220.193 146.688 220.245 146.73 220.283 146.783C220.321 146.835 220.345 146.897 220.352 146.962C220.435 146.808 220.383 146.639 220.172 146.518Z" stroke="white" stroke-miterlimit="10"/>
<path d="M224.665 143.931L203.004 131.46C202.837 131.375 202.652 131.331 202.464 131.331C202.276 131.331 202.091 131.375 201.923 131.46C201.86 131.489 201.806 131.535 201.768 131.593C201.729 131.651 201.708 131.718 201.705 131.787C201.745 131.71 201.808 131.646 201.886 131.607C202.053 131.522 202.238 131.477 202.426 131.477C202.614 131.477 202.799 131.522 202.967 131.607L224.627 144.077C224.686 144.104 224.737 144.145 224.775 144.197C224.814 144.249 224.838 144.31 224.846 144.374C224.929 144.224 224.872 144.051 224.665 143.931Z" stroke="white" stroke-miterlimit="10"/>
<path d="M204.194 175.97C204.136 175.969 204.079 175.954 204.028 175.925C203.977 175.896 203.935 175.854 203.904 175.805C203.859 175.727 203.846 175.635 203.869 175.549C203.892 175.462 203.948 175.388 204.025 175.343L206.511 173.866C206.548 173.843 206.59 173.827 206.634 173.82C206.678 173.814 206.723 173.816 206.766 173.827C206.808 173.837 206.849 173.857 206.884 173.884C206.919 173.911 206.949 173.944 206.97 173.983C206.993 174.021 207.008 174.063 207.014 174.106C207.021 174.15 207.018 174.195 207.007 174.237C206.996 174.28 206.976 174.32 206.949 174.355C206.922 174.39 206.888 174.419 206.85 174.441L204.368 175.921C204.316 175.954 204.256 175.971 204.194 175.97Z" stroke="white" stroke-miterlimit="10"/>
<path d="M205.057 173.063C204.942 173.008 204.813 172.986 204.686 172.998C204.559 173.01 204.437 173.055 204.334 173.13L203.328 173.709C203.03 173.903 202.782 174.165 202.605 174.473C202.427 174.781 202.326 175.127 202.308 175.482V182.731C202.293 182.858 202.314 182.986 202.367 183.103C202.42 183.219 202.504 183.319 202.609 183.392L203.132 183.696L205.599 173.367L205.057 173.063Z" stroke="white" stroke-miterlimit="10"/>
<path d="M204.857 173.435C205.422 173.112 205.886 173.374 205.886 174.028V181.277C205.868 181.632 205.766 181.978 205.588 182.286C205.411 182.594 205.163 182.856 204.865 183.05L203.859 183.629C203.298 183.952 202.835 183.689 202.831 183.035V175.786C202.849 175.431 202.951 175.086 203.128 174.777C203.306 174.469 203.554 174.207 203.852 174.013L204.857 173.435Z" stroke="white" stroke-miterlimit="10"/>
<path d="M193.31 177.897L195.795 179.332C196.044 179.471 196.244 179.388 196.244 179.144V178.84C196.23 178.696 196.182 178.557 196.104 178.435C196.026 178.313 195.92 178.211 195.795 178.137L193.31 176.706C193.065 176.563 192.865 176.65 192.865 176.894V177.198C192.879 177.341 192.927 177.479 193.004 177.6C193.081 177.722 193.186 177.823 193.31 177.897V177.897Z" stroke="white" stroke-miterlimit="10"/>
</svg>
