<svg width="36" height="36" viewBox="0 0 36 36" fill="none" xmlns="http://www.w3.org/2000/svg">
<path d="M17.9997 0.719971C8.45613 0.719971 0.719727 8.45637 0.719727 18C0.719727 27.5436 8.45613 35.28 17.9997 35.28C27.5433 35.28 35.2797 27.5436 35.2797 18C35.2797 8.45637 27.5433 0.719971 17.9997 0.719971ZM24.6453 20.2158C24.6453 20.2158 26.1735 21.7242 26.5497 22.4244C26.5605 22.4388 26.5659 22.4532 26.5695 22.4604C26.7225 22.7178 26.7585 22.9176 26.6829 23.067C26.5569 23.3154 26.1249 23.4378 25.9773 23.4486H23.2773C23.0901 23.4486 22.6977 23.4 22.2225 23.0724C21.8571 22.8168 21.4971 22.3974 21.1461 21.9888C20.6223 21.3804 20.1687 20.8548 19.7115 20.8548C19.6535 20.8547 19.5957 20.8638 19.5405 20.8818C19.1949 20.9934 18.7521 21.4866 18.7521 22.8006C18.7521 23.211 18.4281 23.4468 18.1995 23.4468H16.9629C16.5417 23.4468 14.3475 23.2992 12.4035 21.249C10.0239 18.738 7.88193 13.7016 7.86393 13.6548C7.72893 13.329 8.00793 13.1544 8.31213 13.1544H11.0391C11.4027 13.1544 11.5215 13.3758 11.6043 13.572C11.7015 13.8006 12.0579 14.7096 12.6429 15.732C13.5915 17.3988 14.1729 18.0756 14.6391 18.0756C14.7265 18.0745 14.8124 18.0523 14.8893 18.0108C15.4977 17.6724 15.3843 15.5034 15.3573 15.0534C15.3573 14.9688 15.3555 14.0832 15.0441 13.6584C14.8209 13.3506 14.4411 13.2336 14.2107 13.1904C14.304 13.0617 14.4268 12.9574 14.5689 12.8862C14.9865 12.6774 15.7389 12.6468 16.4859 12.6468H16.9017C17.7117 12.6576 17.9205 12.7098 18.2139 12.7836C18.8079 12.9258 18.8205 13.3092 18.7683 14.6214C18.7521 14.994 18.7359 15.4152 18.7359 15.912C18.7359 16.02 18.7305 16.1352 18.7305 16.2576C18.7125 16.9254 18.6909 17.6832 19.1625 17.9946C19.224 18.0331 19.2951 18.0537 19.3677 18.054C19.5315 18.054 20.0247 18.054 21.3603 15.7626C21.7722 15.025 22.1302 14.2586 22.4313 13.4694C22.4583 13.4226 22.5375 13.2786 22.6311 13.2228C22.7002 13.1876 22.7768 13.1696 22.8543 13.1706H26.0601C26.4093 13.1706 26.6487 13.2228 26.6937 13.3578C26.7729 13.572 26.6793 14.2254 25.2159 16.2072L24.5625 17.0694C23.2359 18.8082 23.2359 18.8964 24.6453 20.2158Z" fill="#2B2B2B"/>
</svg>
