<svg width="109" height="54" viewBox="0 0 109 54" fill="none" xmlns="http://www.w3.org/2000/svg">
<path fill-rule="evenodd" clip-rule="evenodd" d="M8.55317 7.93616H19.7241L27.617 0.0432129L35.51 7.93616H46.6809V19.1017L54.5738 27L46.6809 34.893V46.0639H35.51L27.617 53.9568L19.7187 46.0639H8.55317V34.8984L0.660217 27L8.55317 19.1071V7.93616ZM27.8758 29.0218C27.4607 28.8816 27.5631 29.1242 27.5146 28.3101C27.3582 25.8409 27.3421 23.3285 27.396 20.8646C27.396 20.0505 27.6979 13.3814 27.892 12.6105V29.0218H27.8758ZM30.62 18.913C31.1371 20.6333 31.4501 22.4085 31.5527 24.2019C31.596 25.2161 31.5689 26.2321 31.4718 27.2426C31.3933 28.1515 31.2437 29.0528 31.0244 29.9383C30.9191 29.945 30.8137 29.9265 30.717 29.8844V29.604C31.2584 26.4894 31.3039 23.3088 30.8518 20.1799C30.8087 19.8888 30.6362 19.1017 30.647 18.8968L30.62 18.913ZM29.2614 29.4153C29.2347 28.9395 29.2347 28.4625 29.2614 27.9866C29.3369 25.6144 29.3153 23.2368 29.3099 20.8646C29.3099 19.9966 29.1967 18.9022 29.2614 18.0827C29.6334 19.8241 29.725 24.7464 29.6927 26.6657C29.6927 27.5607 29.6927 28.6336 29.5687 29.5178L29.2614 29.4153ZM31.86 29.9545H31.5042C31.9256 27.9018 32.0832 25.8038 31.9732 23.7113C31.8981 22.7129 31.7576 21.7206 31.5527 20.7406L30.8518 18.0504L31.391 19.2958C31.5635 19.7432 31.7091 20.1692 31.8546 20.6274C32.7496 23.4902 32.852 27.2049 31.86 29.9437V29.9545ZM29.5309 16.5839C29.8511 17.5461 30.0945 18.5323 30.2588 19.533C30.4601 20.62 30.5952 21.7183 30.6631 22.8217C30.7904 25.1212 30.6529 27.4276 30.2534 29.6957C30.0755 29.658 30.0485 29.6957 30.0431 29.5178L30.1078 28.2562C30.1833 26.4501 30.1995 24.8866 30.1348 23.0589C30.097 21.9429 30.0216 20.8377 29.9191 19.7379C29.8706 19.1987 29.8113 18.6596 29.7466 18.1528C29.6819 17.646 29.5525 17.0152 29.5309 16.5354V16.5839ZM27.0779 28.7846L26.8137 28.7145C26.6401 26.2547 26.5933 23.7875 26.6735 21.3229C26.7059 20.3255 27.0024 14.8533 27.2612 14.2764C27.2612 14.918 27.0887 16.9721 27.0455 17.8077C26.9215 20.3579 26.8838 22.6168 26.9215 25.1777C26.9215 26.3908 27.0401 27.5877 27.0779 28.7846ZM25.9133 28.4611C25.6437 24.6213 25.772 20.7639 26.2961 16.9505C26.3554 16.5138 26.8784 13.5863 26.8353 13.5162C26.8063 14.1144 26.7415 14.7103 26.6412 15.3008C26.287 18.4399 26.1321 21.5984 26.1775 24.7572C26.1775 26.0457 26.2961 27.3019 26.3285 28.5797L25.8918 28.4611H25.9133ZM20.1877 21.738C20.1035 18.7265 20.9343 15.7601 22.5707 13.2305C22.4359 13.5917 22.2526 13.9637 22.1017 14.3465C21.6546 15.5412 21.3154 16.7736 21.0881 18.0288C20.4573 21.393 20.5813 23.6843 20.6945 26.9138L20.4142 26.8437C20.3295 26.1801 20.2809 25.5123 20.2686 24.8435C20.1985 23.6789 20.1877 22.8972 20.1877 21.7596V21.738ZM25.1801 28.24C25.1424 26.7628 25.0184 25.3449 25.0615 23.8407C25.1046 22.3365 25.1639 20.9994 25.3041 19.5707C25.4911 17.6195 25.8099 15.6832 26.2584 13.775L26.7328 12.0066C26.7005 12.4757 26.4633 13.3383 26.3608 13.8721C25.7231 17.2085 25.3839 20.595 25.3473 23.9916C25.3473 24.9998 25.3473 26.2183 25.412 27.2264C25.412 27.5499 25.4766 27.992 25.4605 28.3047L25.1801 28.2346V28.24ZM24.7219 28.0783C24.4739 28.0352 24.4092 28.0783 24.393 27.8087L24.3175 26.1212C24.245 23.8461 24.3351 21.5688 24.5871 19.3065C24.8483 16.8216 25.3909 14.3745 26.2045 12.012C26.2045 11.9312 26.253 11.8503 26.28 11.7802C26.2929 11.7446 26.3091 11.7103 26.3285 11.6778C26.3716 11.6077 26.3285 11.64 26.377 11.6185C26.0535 12.8315 25.73 14.0176 25.482 15.2954C25.234 16.5731 25.0238 17.9425 24.889 19.2904C24.6649 21.4716 24.5802 23.665 24.6356 25.857C24.6356 26.6064 24.7165 27.3451 24.7326 28.0783H24.7219ZM23.6813 27.7656C23.5974 27.0301 23.5596 26.29 23.5681 25.5497C23.4415 21.9928 23.8043 18.4354 24.6464 14.9773C24.8297 14.3088 25.5683 11.8934 25.8756 11.5484C25.4522 12.7217 25.1046 13.9211 24.8351 15.139C24.5437 16.4329 24.3205 17.7412 24.1665 19.0585C23.8285 21.986 23.7545 24.938 23.9455 27.8788L23.6813 27.7656ZM21.1851 27.0593C21.0478 25.5034 21.0118 23.9402 21.0773 22.3796C21.1262 19.5897 21.6533 16.8289 22.6354 14.2171C23.0739 13.1141 23.6616 12.0765 24.3822 11.1332C24.2748 11.3496 24.156 11.5602 24.0264 11.764C22.9525 13.7943 22.2341 15.9934 21.9022 18.266C21.8105 18.8429 21.7243 19.382 21.6703 19.9481C21.425 22.3505 21.3943 24.7701 21.5787 27.1779L21.1851 27.0701V27.0593ZM22.037 27.275C21.7865 24.1896 21.9078 21.0852 22.3982 18.0288C22.7038 16.0901 23.2961 14.2077 24.1558 12.4433C24.2959 12.1684 24.4469 11.9042 24.5925 11.6616L25.0507 10.9338C24.9371 11.2063 24.8056 11.4711 24.6572 11.7263C24.2529 12.5664 23.9106 13.4349 23.6328 14.3249C23.2275 15.6002 22.9229 16.9053 22.7217 18.2283C22.4948 19.7049 22.3562 21.1938 22.3065 22.6869C22.2688 23.4741 22.2688 24.272 22.3065 25.0645C22.3443 25.857 22.3874 26.6226 22.3928 27.4098L22.037 27.275ZM22.7271 23.5603C22.736 21.1868 22.998 18.821 23.5088 16.503C23.7269 15.4752 24.0188 14.4644 24.3822 13.4785C24.7116 12.5614 25.1363 11.6814 25.6492 10.8529C25.5036 11.2896 25.2394 11.7694 25.0669 12.2169C24.5018 13.6874 24.0741 15.2071 23.7892 16.7564C23.3371 19.1036 23.106 21.4881 23.0991 23.8784C23.0991 25.2532 23.153 26.2668 23.2177 27.6524C23.0799 27.6341 22.9455 27.5959 22.8187 27.5391C22.7702 26.0943 22.7271 24.9998 22.7271 23.5819V23.5603ZM18.5434 26.5148V26.8976L30.6847 29.8952C30.2426 29.9383 18.9208 27.3289 18.5757 27.372L18.538 28.0405C18.7644 28.1592 25.7085 29.1997 26.9701 29.4046C27.4607 29.4854 29.5148 29.7496 29.7897 29.8682C29.3854 29.8682 22.1286 28.9355 21.3846 28.8385C20.4896 28.7252 19.4275 28.5419 18.5434 28.4934V29.1296C19.902 29.2752 21.3307 29.356 22.7001 29.4531C24.0695 29.5501 25.5252 29.7173 26.8892 29.782L18.5164 29.5501L18.5595 30.154H32.2051C32.408 29.5495 32.5684 28.9316 32.6849 28.3047L32.8844 27.0593C33.4828 22.2071 31.6444 18.2444 29.4393 14.298C29.2344 13.9314 28.8193 13.0202 28.4473 12.9178C28.5713 14.2225 28.6845 15.5164 28.7546 16.8373C28.8247 18.1582 28.8462 19.533 28.8894 20.924C28.9702 23.7113 28.8085 26.4932 28.8085 29.2752L28.3395 29.1566V7.32694C27.9396 7.48073 27.5596 7.68163 27.2073 7.92538C26.3146 8.47021 25.5018 9.13608 24.7919 9.90401L24.3714 10.3569C23.1504 11.5195 22.1334 12.8791 21.363 14.3788C19.4114 18.3307 19.6486 21.9267 19.9343 26.6873C19.5893 26.628 18.7806 26.3099 18.5434 26.3261V26.5148ZM35.0894 26.4177L35.5154 27.7386H36.9009L35.7795 28.5527L36.2055 29.8682L35.0894 29.0541L33.968 29.8682L34.3993 28.5527L33.2779 27.7386H34.6635L35.0894 26.4177ZM35.2296 21.3337L35.6609 22.6492H37.0465L35.9197 23.4633L36.351 24.7788L35.2296 23.9647L34.1136 24.7788L34.5449 23.4633L33.4181 22.6492H34.8091L35.2296 21.3337ZM34.6258 17.0907L35.0517 18.4116H36.4373L35.3159 19.2257L35.7041 20.5304L34.6258 19.7217L33.4828 20.5304L33.9141 19.2095L32.7927 18.4062H34.1783L34.6258 17.0907ZM33.1 12.8531L33.5206 14.174H34.9115L33.7632 14.9827L34.1945 16.2982L33.0785 15.4841L31.9571 16.2982L32.3884 14.9827L31.2616 14.1686H32.6472L33.0785 12.8477L33.1 12.8531ZM30.717 9.17618L31.143 10.4971H32.5285L31.391 11.3058L31.8223 12.6266L30.7009 11.8072L29.5795 12.6266L30.0108 11.3058L28.8894 10.4971H30.275L30.7009 9.17618H30.717ZM33.871 38.7154V41.8263H32.6148V38.7154H33.871ZM31.5904 38.7154V41.2009H32.3075V41.8263H30.3127V38.7154H31.5904ZM27.8542 38.7154H29.9137V39.3354H29.0727V39.9393H29.8383V40.5269H29.0727V41.2116H29.9784V41.8263H27.8219V38.7154H27.8542ZM27.5739 38.7154V39.3354H26.8245V41.8263H25.5899V39.3354H24.8566V38.7154H27.5739ZM24.6248 40.5377C24.6299 40.7593 24.6191 40.9809 24.5925 41.2009C24.5651 41.34 24.4909 41.4656 24.3822 41.5567C24.2427 41.6741 24.0788 41.7588 23.9024 41.8047C23.674 41.8666 23.438 41.8956 23.2015 41.8909C22.9707 41.8943 22.7405 41.8671 22.5168 41.8101C22.3367 41.7682 22.1688 41.6851 22.0262 41.5675C21.9171 41.4758 21.8413 41.3508 21.8105 41.2116C21.7784 40.9885 21.7658 40.763 21.7728 40.5377V39.9986C21.7658 39.7769 21.7785 39.555 21.8105 39.3354C21.8376 39.1974 21.9097 39.0723 22.0154 38.9796C22.1549 38.8622 22.3188 38.7775 22.4952 38.7316C22.7259 38.6724 22.9633 38.6434 23.2015 38.6453C23.4309 38.6413 23.6597 38.6704 23.8808 38.7316C24.0617 38.7711 24.2302 38.8544 24.3714 38.9742C24.4815 39.065 24.5575 39.1905 24.5871 39.3301C24.6192 39.5514 24.6319 39.7751 24.6248 39.9986V40.5377ZM23.3848 39.5134C23.3914 39.4205 23.3805 39.3272 23.3525 39.2384C23.3352 39.217 23.3128 39.2003 23.2874 39.1899C23.2619 39.1795 23.2342 39.1758 23.2069 39.1791C23.1806 39.1772 23.1542 39.1805 23.1292 39.1888C23.1043 39.1971 23.0812 39.2103 23.0613 39.2276C23.0171 39.3159 23.0002 39.4154 23.0128 39.5134V40.969C23.0047 41.0815 23.0156 41.1945 23.0451 41.3033C23.0451 41.3464 23.1152 41.3626 23.1961 41.3626C23.277 41.3626 23.3309 41.3626 23.3525 41.2925C23.3818 41.18 23.3927 41.0635 23.3848 40.9475V39.5134ZM39.7368 32.1326V33.3618L38.4267 37.0441H39.7368V38.268H36.502V37.3784L37.8606 33.3618H36.6368V32.1326H39.7368ZM36.502 32.1326L35.1649 36.0467V38.268H33.5475V36.0467L32.3021 32.1326H33.9195C34.1729 33.3349 34.3185 34.1436 34.3562 34.5533C34.4533 33.901 34.6204 33.0923 34.8468 32.1326H36.502ZM27.9782 32.1326H29.2991C29.8799 32.1134 30.4612 32.1495 31.0351 32.2404C31.2925 32.2885 31.5303 32.4103 31.7198 32.5909C31.8689 32.7379 31.972 32.9253 32.0164 33.13C32.0639 33.518 32.0819 33.9091 32.0703 34.2999V36.4565C32.0836 36.8178 32.0565 37.1794 31.9894 37.5347C31.9362 37.7079 31.8307 37.8605 31.6875 37.9714C31.5264 38.0832 31.3421 38.157 31.1484 38.1871C30.8366 38.2383 30.5207 38.2599 30.2049 38.2518H27.9513V32.1326H27.9782ZM29.752 33.1785V37.2436C30 37.2436 30.1563 37.1951 30.2157 37.1034C30.2933 36.8598 30.3226 36.6034 30.3019 36.3486V33.9441C30.31 33.7637 30.2991 33.583 30.2696 33.4049C30.2632 33.368 30.2481 33.3331 30.2256 33.3031C30.2031 33.2731 30.1738 33.2489 30.1402 33.2324C30.0167 33.1843 29.8842 33.1641 29.752 33.1731V33.1785ZM26.474 32.1326V37.0441H27.5523V38.268H24.6787V32.1326H26.474ZM24.4038 32.1326L23.1098 36.0467V38.268H21.4924V36.0467L20.2955 32.2728L19.0555 36.0467V38.268H17.3734V36.0467L16.1226 32.1326H17.74C17.988 33.3349 18.1336 34.1436 18.1714 34.5533C18.2738 33.901 18.4355 33.0923 18.662 32.1326H21.8105C22.0639 33.3349 22.2041 34.1436 22.2418 34.5533C22.3443 33.901 22.506 33.0923 22.7324 32.1326H24.4038ZM19.6917 30.9141L18.3061 31.9385H17.4273L18.166 30.9141H19.6917ZM27.617 2.26984L34.863 9.51044H45.1066V19.754L52.3472 27L45.1066 34.246V44.4896H34.863L27.617 51.7302L20.371 44.4896H10.1274V34.246L2.88685 27L10.1274 19.754V9.51044H20.371L27.617 2.26984Z" fill="#414141"/>
<path d="M60.7954 25.2153V29.9705H58.8114V25.2369L55.4364 16.5514H57.5929L59.1187 20.6974L59.8196 22.7299L60.5043 20.638L62.1217 16.5514H64.2028L60.7954 25.2153ZM60.7954 15.1227H58.8545L60.6337 12.8152H63.2485L60.7954 15.1227Z" fill="#414141"/>
<path d="M69.7397 25.2154V29.9706H67.7557V25.237L64.3807 16.5515H66.5373L68.0522 20.6975L68.7531 22.73L69.4486 20.6382L71.066 16.5515H73.1471L69.7397 25.2154Z" fill="#414141"/>
<path d="M74.8076 29.9706V16.5515H76.797V27.8033H81.1802V29.9598L74.8076 29.9706Z" fill="#414141"/>
<path d="M90.6959 23.0912C90.706 24.0447 90.6065 24.9962 90.3994 25.927C90.2303 26.6983 89.9156 27.4303 89.4721 28.0836C89.0599 28.6757 88.5031 29.1527 87.8547 29.4691C87.1165 29.8144 86.3079 29.9824 85.4932 29.9598H82.8569V16.5514H85.9299C86.6442 16.5365 87.354 16.6668 88.0164 16.9342C88.6102 17.1883 89.1243 17.5981 89.5044 18.1203C89.9364 18.7307 90.2408 19.4221 90.3994 20.1529C90.6129 21.1173 90.7124 22.1035 90.6959 23.0912ZM88.5987 23.2529C88.605 22.6052 88.5599 21.958 88.4639 21.3174C88.3962 20.8135 88.243 20.3249 88.011 19.8725C87.8127 19.4981 87.514 19.1863 87.1484 18.9722C86.7351 18.7552 86.2725 18.6493 85.8059 18.6649H84.8085V27.8571H85.6712C86.0957 27.8727 86.5171 27.7787 86.8948 27.5842C87.2726 27.3897 87.5938 27.1012 87.8277 26.7465C88.3525 26.0061 88.6148 24.8416 88.6148 23.2529H88.5987Z" fill="#414141"/>
<path d="M96.5779 25.2154V29.9706H94.5885V25.237L91.235 16.5515H93.3916L94.9173 20.6975L95.6182 22.73L96.3191 20.6382L97.9365 16.5515H100.018L96.5779 25.2154Z" fill="#414141"/>
<path d="M100.907 29.9706V28.0782L105.657 18.859H101.058V16.5515H108.137V18.6056L103.355 27.6793H108.207V29.9706H100.907Z" fill="#414141"/>
<path d="M75.0179 35.3401C75.0211 35.7291 74.974 36.1169 74.8777 36.4939C74.7987 36.8151 74.6636 37.1199 74.4787 37.3942C74.3141 37.6351 74.0941 37.8329 73.8372 37.9711C73.572 38.1124 73.2749 38.183 72.9745 38.176C72.6917 38.1832 72.411 38.1242 72.1551 38.0034C71.9054 37.8801 71.6919 37.6944 71.5351 37.4643C71.3537 37.2038 71.2237 36.911 71.1523 36.6017C71.0558 36.2066 71.0105 35.8007 71.0175 35.394C71.0115 35.0031 71.0586 34.6131 71.1577 34.2349C71.2351 33.9155 71.3723 33.6137 71.562 33.3453C71.7268 33.106 71.9469 32.9099 72.2036 32.7738C72.4658 32.6349 72.7588 32.5645 73.0554 32.5689C73.3422 32.5634 73.6264 32.6243 73.8857 32.7469C74.132 32.8729 74.3432 33.0582 74.5003 33.286C74.6817 33.5465 74.8116 33.8393 74.8831 34.1486C74.9771 34.5387 75.0224 34.9389 75.0179 35.3401ZM73.9827 35.3725C74.0088 34.9417 73.9253 34.5114 73.7401 34.1217C73.6728 33.9908 73.5696 33.8818 73.4426 33.8073C73.3157 33.7329 73.1702 33.696 73.0231 33.7011C72.8648 33.6952 72.709 33.7427 72.581 33.8359C72.4519 33.9294 72.3481 34.0535 72.2791 34.1971C72.1939 34.3668 72.1357 34.5487 72.1065 34.7363C72.0685 34.9516 72.0504 35.17 72.0526 35.3886C72.026 35.8246 72.1153 36.2599 72.3114 36.6502C72.3803 36.7786 72.4831 36.8857 72.6085 36.9598C72.734 37.0339 72.8774 37.0723 73.0231 37.0707C73.177 37.075 73.3282 37.0297 73.4544 36.9413C73.5819 36.8499 73.684 36.7274 73.7509 36.5855C73.8355 36.4156 73.8937 36.2338 73.9234 36.0464C73.9633 35.824 73.9832 35.5984 73.9827 35.3725Z" fill="#414141"/>
<path d="M79.2878 38.0036C79.1108 38.0575 78.9308 38.1007 78.7486 38.133C78.5703 38.161 78.39 38.1754 78.2095 38.1762C77.9695 38.1833 77.7302 38.1467 77.5032 38.0683C77.3157 37.9974 77.1489 37.8806 77.018 37.7287C76.8786 37.5616 76.7807 37.3639 76.7323 37.1518C76.6674 36.8799 76.6366 36.601 76.6406 36.3215V33.7067H75.53V32.7093H76.6784V31.3399L77.6973 30.9949V32.7093H79.3147V33.7067H77.6973V36.2245C77.6803 36.4656 77.7367 36.7062 77.8591 36.9146C77.9222 36.9957 78.0046 37.0599 78.0987 37.1013C78.1928 37.1427 78.2957 37.1601 78.3982 37.1518C78.5597 37.1531 78.7208 37.135 78.878 37.0979C79.0205 37.0669 79.1609 37.0273 79.2986 36.9793L79.2878 38.0036Z" fill="#414141"/>
<path d="M84.0699 34.9737C84.0699 35.0599 84.0699 35.1732 84.0699 35.3133C84.0699 35.4535 84.0699 35.5883 84.0699 35.7069H81.3742C81.3726 35.9184 81.4017 36.1291 81.4605 36.3323C81.5075 36.4964 81.5883 36.6488 81.6977 36.7798C81.7947 36.901 81.9208 36.9956 82.0643 37.0547C82.2135 37.1214 82.3754 37.1546 82.5388 37.1518C82.7556 37.1493 82.972 37.1295 83.1857 37.0925C83.4281 37.0458 83.6661 36.9791 83.8974 36.893V37.9174C83.7896 37.9551 83.6763 37.9874 83.5523 38.0198L83.1695 38.1061C83.0402 38.1061 82.9054 38.1492 82.776 38.16H82.3878C82.0962 38.1671 81.8068 38.1082 81.5414 37.9874C81.2858 37.8664 81.0665 37.6805 80.9052 37.4483C80.7032 37.2147 80.5493 36.9436 80.4523 36.6504C80.354 36.272 80.3069 35.8822 80.3121 35.4912C80.309 35.0916 80.3561 34.6931 80.4523 34.3051C80.5303 33.9803 80.6614 33.6706 80.8405 33.3886C80.9961 33.147 81.2067 32.9456 81.4551 32.801C81.6991 32.66 81.9766 32.5874 82.2584 32.5907C82.5296 32.585 82.7981 32.6461 83.0402 32.7686C83.2533 32.8912 83.4372 33.0586 83.5793 33.2592C83.7378 33.4886 83.8546 33.7441 83.9243 34.014C84.0137 34.3264 84.0626 34.6489 84.0699 34.9737ZM83.0563 34.785C83.0626 34.6033 83.0426 34.4218 82.997 34.2458C82.9619 34.1083 82.9016 33.9786 82.8191 33.8631C82.7522 33.768 82.6634 33.6903 82.5603 33.6366C82.4606 33.5844 82.3493 33.5584 82.2368 33.5611C82.1157 33.5605 81.9963 33.5897 81.8891 33.6461C81.782 33.7025 81.6903 33.7844 81.6222 33.8846C81.4467 34.1571 81.348 34.4719 81.3365 34.7958L83.0563 34.785Z" fill="#414141"/>
<path d="M86.3828 31.6202H85.2129V30.6174H87.4018V37.0547H88.5933V38.0575H85.0673V37.0547H86.3828V31.6202Z" fill="#414141"/>
<path d="M90.9709 33.7067H89.8063V32.7093H91.9898V37.0548H93.1867V38.0576H89.6608V37.0548H90.9709V33.7067ZM92.0491 31.2429C92.0501 31.3543 92.0337 31.4653 92.0006 31.5717C91.9722 31.6673 91.9266 31.7569 91.8658 31.8359C91.8097 31.9079 91.7401 31.9683 91.661 32.0138C91.579 32.0612 91.486 32.0861 91.3914 32.0861C91.2968 32.0861 91.2038 32.0612 91.1218 32.0138C91.0416 31.9698 90.9718 31.9092 90.917 31.8359C90.8545 31.7571 90.807 31.6676 90.7768 31.5717C90.7121 31.3591 90.7121 31.132 90.7768 30.9194C90.807 30.8219 90.8545 30.7306 90.917 30.6498C90.9717 30.5751 91.0415 30.5126 91.1218 30.4665C91.2038 30.4192 91.2968 30.3943 91.3914 30.3943C91.486 30.3943 91.579 30.4192 91.661 30.4665C91.7403 30.5141 91.8098 30.5763 91.8658 30.6498C91.9266 30.7308 91.9723 30.8222 92.0006 30.9194C92.0405 31.023 92.0641 31.1321 92.0707 31.2429H92.0491Z" fill="#414141"/>
</svg>
