<svg width="1427" height="713" viewBox="0 0 1427 713" fill="none" xmlns="http://www.w3.org/2000/svg">
<g opacity="0.5">
<g opacity="0.5">
<path d="M50.5457 103.588L69.3149 99.979L74.5959 82.6295L97.1398 63.2674L112.896 64.5339M112.896 64.5339L112.394 91.0787M112.896 64.5339L72.9164 80.2006L112.394 91.0787M112.896 64.5339L145.396 70.346L137.933 104.056L112.394 91.0787M112.394 91.0787L144.496 67.8997L183.471 66.1995L191.852 98.3482L143.786 127.79L163.992 147.968M163.992 147.968L143.509 165.508L170.676 176.785L172.269 177.445L161.395 194.708L164.096 216.429L139.215 225.156L119.06 214.33L134.107 195.176L163.906 194.794L186.952 186.796L208.613 172.535L190.571 135.841L163.992 147.968ZM163.992 147.968L193.289 99.5106L191.263 133.429L212.162 111.985L225.771 139.779L225.044 101.87L242.844 76.5919L259.674 80.2006L281.958 60.318L288.901 88.459L301.247 77.147L321.47 78.3789L334.82 71.3003L285.438 60.318L258.271 115.385L266.634 144.949L284.001 117.103L296.225 139.31L302.996 158.048L331.721 161.83L352.516 139.779L368.168 147.968L373.744 124.234L401.326 115.576L369.744 171.511L312.986 194.326L285.906 172.535L237.199 168.857L254.67 196.755L224.473 188.739L227.538 214.902H254.67M254.67 214.902L288.434 209.004L261.63 253.158L254.67 214.902ZM254.67 214.902L212.283 246.461L198.812 220.801L211.469 173.836L172.269 176.213L229.373 139.31L253.267 114.032L238.273 167L201.86 220.801L165.949 255.813L128.514 250.4L154.798 278.419L170.693 294.693M170.693 294.693L190.571 272.329L168.65 258.727L170.693 294.693ZM170.693 294.693L155.924 306.161L192.718 318.219L217.062 315.981L230.031 311.071L232.628 310.082L247.346 341.728L239.173 345.614L215.573 333.07L215.469 320.179" stroke="#B99522" stroke-linecap="round" stroke-linejoin="round"/>
<path d="M413.291 147.968L401.326 115.576L375.873 123.297L413.412 153.329L372.965 168.267" stroke="#B99522" stroke-linecap="round" stroke-linejoin="round"/>
<path d="M426.935 19.9109L464.785 19.963L481.806 25.6189L499.934 41.1641L520.677 48.1907L504.99 73.2608L484.109 86.7067L499.934 41.1641L533.127 18.627L548.416 15.4694L578.128 24.8208L558.631 52.5627L520.677 48.1907L548.295 20.3793L558.631 52.5627" stroke="#B99522" stroke-linecap="round" stroke-linejoin="round"/>
<path d="M189.982 134.47L225.65 137.836L238.273 168.857L209.219 172.066L224.473 188.739L186.952 186.796L163.906 215.961L198.812 221.773L225.65 214.902L211.47 246.461L167.698 254.095" stroke="#B99522" stroke-linecap="round" stroke-linejoin="round"/>
<path d="M119.06 214.33L128.514 250.4L139.907 224.965L165.88 255.847L154.902 277.014L291.187 299.707C291.187 299.707 237.511 357.533 238.359 351.599C239.208 345.666 203.176 256.715 203.176 256.715L183.731 328.039L180.995 298.545L243.796 300.279L245.77 229.025C245.77 229.025 289.317 325.471 290.183 326.894C291.048 328.316 268.781 342.508 268.781 342.508L281.681 376.097" stroke="#B99522" stroke-linecap="round" stroke-linejoin="round"/>
<path d="M331.721 161.83L281.716 173.368L286.997 207.581L312.986 196.755L253.267 194.708L287.101 210.964L261.873 252.239L211.47 246.461L190.571 272.329L163.906 215.961L134.107 196.755L143.509 165.508V127.322L136.929 104.75L191.835 97.6542L143.786 69.2009L185.272 65.731L220.542 68.6804" stroke="#B99522" stroke-linecap="round" stroke-linejoin="round"/>
<path d="M192.718 97.8625L225.65 99.9791L256.869 113.304L259.674 81.3284" stroke="#B99522" stroke-miterlimit="1"/>
<path d="M277.785 385.24L274.097 411.906L277.681 451.81L302.909 455.072L302.545 486.319L328.414 467.651L312.519 436.612L327.79 409.512L290.581 372.384L305.368 362.651L345.607 362.911L361.052 376.93L328.414 380.729L343.374 434.634L368.515 431.737L392.184 397.211L425.792 428.024L390.609 436.612L366.056 464.823L328.414 467.651L325.574 515.396L364.983 511.371L395.474 467.651L426.381 473.046L445.081 459.097L397.482 464.58L402.331 493.397L443.869 511.233L405.551 523.03L414.261 552.316L390.47 570.655L372.999 549.124L346.577 570.186L322.388 549.558L331.201 596.159L368.93 615.226L338.283 617.741L357.78 661.757L369.865 613.127L348.118 573.084L390.989 571.835L404.807 523.863L365.19 510.764L325.574 548.17V518.138L364.169 467.651L344.153 437.081L359.199 376.461L392.184 397.211L390.609 434.634L451.349 458.82L462.153 490.257L446.241 508.04L416.182 551.171L375.371 546.591L373.467 615.226L338.283 617.082L331.201 597.98L345.815 571.748L321.453 549.228L373.467 546.591L364.983 511.371L302.909 490.257L275.69 451.134L312.519 436.612L278.738 383.818L289.906 368.966L327.6 380.296L370.489 434.634L394.418 465.048L366.177 468.119L405.551 523.03L426.381 474.816L463.902 490.257" stroke="#B99522" stroke-miterlimit="1"/>
<path d="M261.873 252.239L291.187 299.672M291.187 299.672L290.581 372.384L246.307 341.728L305.905 360.743L291.187 299.672Z" stroke="#B99522" stroke-miterlimit="1"/>
<path d="M1181.24 574.905L1178.31 531.896L1220.11 544.943L1235.74 503.738L1269.75 486.995L1279.93 508.127L1307.2 520.775L1317.95 483.387L1329.88 521.833L1322.73 552.073L1321.82 585.506L1293.7 593.868L1275.15 578.15L1259.6 546.955L1227.73 576.797L1180.86 575.53L1220.09 546.487L1279.93 508.127L1322.73 552.073L1259.47 546.487L1279.93 508.127L1293.82 594.493L1322.73 552.073L1275.15 578.15L1261.34 575.53L1220.85 545.411" stroke="#B99522" stroke-linecap="round" stroke-linejoin="round"/>
<path d="M1179.28 532.312L1236.7 504.206L1278.13 509.29" stroke="#B99522" stroke-linecap="round" stroke-linejoin="round"/>
<path d="M1344.38 452.817L1313.66 438.972L1297.51 425.942H1216.84L1180.18 412.201L1197.05 397.298L1182.55 395.164L1180.18 412.201" stroke="#B99522" stroke-linecap="round" stroke-linejoin="round"/>
<path d="M1143.13 344.243L1121.22 380.764L1126.25 410.97L1133.45 425.179L1181.79 412.809" stroke="#B99522" stroke-linecap="round" stroke-linejoin="round"/>
<path d="M1169.06 263.412L1153.78 294.762L1130.82 314.177L1143.13 344.243" stroke="#B99522" stroke-linecap="round" stroke-linejoin="round"/>
<path d="M1155.87 234.455L1092.64 251.076L1113.83 293.947L1135.94 261.364L1170.97 264.869L1195.04 258.484L1213.44 223.404L1203.11 212.925L1199.95 197.223L1166.78 208.015L1155.33 172.101L1213.32 154.405L1162.61 131.069L1155.23 92.5708L1190.76 99.4933" stroke="#B99522" stroke-linecap="round" stroke-linejoin="round"/>
<path d="M1256.44 111.759L1283.86 86.5158L1266.56 69.9991L1242.55 76.6613L1212.04 66.8935" stroke="#B99522" stroke-linecap="round" stroke-linejoin="round"/>
<path d="M1146.05 342.925L1122.64 334.076L1113.83 293.947L1071.25 279.616L1042.2 286.608L1021.37 299.551L1010.13 323.302L1016.11 339.871L1016.38 340.635L1009.53 359.962L997.337 337.182L1017.56 340.635" stroke="#B99522" stroke-linecap="round" stroke-linejoin="round"/>
<path d="M989.043 317.577L983.294 296.411L1010.24 254.963L977.234 264.869L944.336 266.986L958.638 235.895L993.181 211.623L1044.99 250.035L1042.2 286.608L1010.24 251.545L1026.36 302.622L982.654 296.723" stroke="#B99522" stroke-linecap="round" stroke-linejoin="round"/>
<path d="M1182.55 395.164L1133.45 425.161" stroke="#B99522" stroke-linecap="round" stroke-linejoin="round"/>
<path d="M1197.05 397.298L1297.3 425.161" stroke="#B99522" stroke-linecap="round" stroke-linejoin="round"/>
<path d="M1211.92 69.999L1191.35 101.141L1162.61 131.069L1256.54 113.026L1280.12 128.987L1283.86 88.9794L1241.09 77.1297L1256.54 113.026L1211.33 157.024L1240.97 162.524L1200.58 193.181L1157.17 171.806L1143.13 204.996L1155.87 233.484L1166.78 264.019L1112.24 291.344L1043.19 246.982L1072.55 217.036L1037.06 206.418L1075.62 186.154L1102.14 169.95L1118.19 199.08L1094.84 251.076L1143.59 204.094L1111.34 125.518L1061.12 127.86L1026.46 167.538L1074.3 186.467L1061.16 129.56L1028.16 94.8089L1046.22 70.4675L1074.3 67.3619L1108.69 81.7794L1141.81 64.7942L1156.63 92.9525L1112.15 125.153L1102.14 169.95L1072.78 217.002L1094.33 250.764L1071.25 279.616" stroke="#B99522" stroke-linecap="round" stroke-linejoin="round"/>
<path d="M1036.26 202.897L992.073 208.743L1009.53 253.54L958.638 235.895L976.403 264.019L981.944 296.411L946.414 266.274L922.433 225.711L943.973 212.317L958.638 178.069L944.336 167.434L921.1 169.395L945.029 127.617L991.952 167.434L1007.54 137.61L973.183 103.588L1027.6 96.3877L1026.36 169.967L989.164 209.663L961.097 175.016L993.839 167.434L971.642 107.179L967.209 72.1504L991.952 51.782L962.309 48.1906L919.87 63.892L896.201 103.57L855.148 88.9794L866.974 64.3604L847.754 43.2634L817.938 82.2651L838.924 75.5509L849.434 131.208L852.169 162.68L797.714 165.057L801.108 123.297L852.291 131.208L897.084 101.697" stroke="#B99522" stroke-linecap="round" stroke-linejoin="round"/>
<path d="M779.395 268.374L831.669 275.244L859.13 272.624L882.99 305.588L858.593 328.785L817.817 319.937L783.741 299.082L778.841 268.478" stroke="#B99522" stroke-linecap="round" stroke-linejoin="round"/>
<path d="M927.437 123.297L897.084 101.697L916.996 172.344L889.656 205.725L853.78 164.311L829.574 206.419L855.148 240.805L911.594 253.176L922.433 225.711L891.872 208.483L835.01 206.419H796.606" stroke="#B99522" stroke-linecap="round" stroke-linejoin="round"/>
<path d="M744.125 251.77L703.089 254.962L727.728 283.103L696.821 317.889L660.996 292.524L667.212 249.654L624.999 246.201L588.586 272.069L621.848 290.824L639.561 271.306L629.449 328.212L577.695 300.175L575.098 314.94L582.595 336.714L599.061 364.108L635.665 367.058L670.104 352.103L629.449 328.212L660.996 292.524L670.104 352.103L714.343 352.415L748.021 326.391L727.728 283.103L779.395 268.374L858.593 328.785L863.701 371.76L842.265 399.293L809.731 392.475L794.528 370.979L822.855 354.323L841.936 399.38L826.561 422.785L797.714 443.032L756.99 444.142L782.841 397.905L752.488 403.804L742.445 380.122L773.543 350.715L817.817 319.937L822.855 354.323L809.731 392.822L782.927 397.61" stroke="#B99522" stroke-linecap="round" stroke-linejoin="round"/>
<path d="M739.086 23.5717L727.451 30.3206L726.498 71.1094L707.504 92.5534L683.644 96.4744L707.054 126.767L714.984 159.002L687.869 174.027L679.264 148.02L646.244 169.117L640.426 198.577L619.233 201.925L646.244 169.117L687.869 174.027L707.054 126.767L753.596 124.72L764.695 152.93L760.487 183.344L730.429 185.46L754.341 122.811L773.473 73.2781L726.498 71.1094L751.085 124.286L802.614 123.297L773.473 73.2781L818.959 82.2652L802.614 123.297L766.461 152.34L797.714 165.057L849.434 131.208L921.099 169.395L852.169 162.68L796.087 205.725L831.166 274.724L855.459 241.274L859.13 273.665L911.594 253.176L880.946 305.432L944.336 266.986L911.594 253.176L889.656 205.725L856.1 240.805" stroke="#B99522" stroke-linecap="round" stroke-linejoin="round"/>
<path d="M919.87 169.967L944.908 209.75L958.638 235.895L922.433 225.711L918.45 168.701L927.437 123.297L943.972 127.86L973.183 103.588L922.242 64.3604L865.779 63.892L837.781 75.5509L856.308 88.0079L919.991 62.0529L964.802 71.2309L1029.46 95.0344L991.952 51.782L1035.34 55.3907L1044.17 67.3619L1057.28 55.3907L1075.62 65.5576L1061.06 127.86L1006.05 137.61L1029.46 95.0344L1108.69 80.4608L1109.99 125.518L1141.81 64.7942H1164.16L1190.76 99.4933L1211.33 155.012L1242.95 75.0651L1211.83 67.2925L1166.07 64.3604L1155.23 92.5708" stroke="#B99522" stroke-linecap="round" stroke-linejoin="round"/>
<path d="M1114.02 127.617L1161.62 132.648L1157.17 170.574L1102.14 169.95L1062.87 130.74L1107.49 82.2131L1155.87 95.9366" stroke="#B99522" stroke-linecap="round" stroke-linejoin="round"/>
<path d="M667.213 249.654L701.669 253.54L696.7 316.623L712.508 351.183L691.436 390.723L706.552 416.053M706.552 416.053L742.446 380.122L794.528 370.979L773.543 350.715M706.552 416.053L757.717 443.517L803.324 477.869M706.552 416.053L710.846 443.032M773.543 350.715L747.9 328.403L783.741 299.082L773.543 350.715ZM773.543 350.715L781.248 397.073L797.714 443.032M797.714 443.032L831.305 463.868L829.903 494.178L803.324 477.869M797.714 443.032L803.324 477.869M797.714 443.032L755.432 486.076M803.324 477.869L792.676 516.663M755.432 486.076L727.728 458.958M755.432 486.076L749.268 515.813M755.432 486.076L792.676 516.663M755.432 486.076L710.846 498.342M727.728 458.958L757.717 444.142L752.488 403.804L710.846 443.032M727.728 458.958L710.846 443.032M727.728 458.958L710.846 498.342M710.846 443.032L708.214 482.155L710.846 498.342M710.846 498.342L749.268 515.813M749.268 515.813L726.256 528.044L728.905 586.807L749.06 562.726L782.876 553.6L792.676 516.663M749.268 515.813L792.676 516.663" stroke="#B99522" stroke-linecap="round" stroke-linejoin="round"/>
<path d="M1195.04 258.485L1181.24 239.365L1155.16 233.484L1203.11 212.925L1167.28 209.75L1141.93 204.736L1117.85 199.843L1071.27 217.835L1074.3 186.467" stroke="#B99522" stroke-linecap="round" stroke-linejoin="round"/>
<path d="M1135.94 260.375L1092.72 251.076L1045.14 245.143L1036.33 204.735L1026.55 169.967L994.082 167.434L991.588 209.663L945.254 209.75L890.072 205.724" stroke="#B99522" stroke-linecap="round" stroke-linejoin="round"/>
<path d="M587.616 271.306L577.695 299.082L621.848 290.824L629.449 326.529L582.595 336.714" stroke="#B99522" stroke-linecap="round" stroke-linejoin="round"/>
<path d="M242.844 76.1234L220.542 68.6804L191.834 97.6542L212.162 111.985" stroke="#B99522" stroke-linecap="round" stroke-linejoin="round"/>
<path fill-rule="evenodd" clip-rule="evenodd" d="M1246.83 234.455L1270.7 222.328L1269.77 195.523L1246.83 234.455Z" stroke="#B99522" stroke-linecap="round" stroke-linejoin="round"/>
</g>
</g>
</svg>
