<svg width="459" height="265" viewBox="0 0 459 265" fill="none" xmlns="http://www.w3.org/2000/svg">
<path d="M0.119995 126H56.04V106.68H23.76V90.12H52.32V70.2H23.76V55.56H56.04V36H0.119995V126Z" fill="#B99522"/>
<path d="M83.6906 36H73.0106V126H96.7706V79.92L120.411 101.28L143.931 79.8V126H167.691V36H157.011L120.411 69.36L83.6906 36Z" fill="#B99522"/>
<path d="M209.502 55.92H224.142C231.342 55.92 237.102 61.68 237.102 68.88C237.102 76.08 231.342 81.72 224.142 81.72H209.502V55.92ZM185.862 126H209.502V102.12H224.262C242.142 102.12 256.902 87.24 256.902 69.12C256.902 50.88 242.022 36 223.782 36H185.862V126Z" fill="#B99522"/>
<path d="M269.531 126H293.171V36H269.531V126Z" fill="#B99522"/>
<path d="M390.693 126L371.613 93.36C378.093 87.36 382.293 78.72 382.293 69.12C382.293 50.88 367.413 36 349.173 36H311.253V126H334.893V102.12H349.533L363.453 126H390.693ZM334.893 55.92H349.533C356.733 55.92 362.493 61.68 362.493 68.88C362.493 76.08 356.733 81.72 349.533 81.72H334.893V55.92Z" fill="#B99522"/>
<path d="M402.307 126H458.228V106.68H425.948V90.12H454.508V70.2H425.948V55.56H458.228V36H402.307V126Z" fill="#B99522"/>
<path d="M81.82 195H108.1V188.1H89.2V153H81.82V195Z" fill="#CCCCCC"/>
<path d="M109.813 174C109.813 187.08 119.173 195.66 131.653 195.66C144.133 195.66 153.553 186.6 153.553 174C153.553 160.92 144.133 152.34 131.653 152.34C118.753 152.34 109.813 161.82 109.813 174ZM117.613 174C117.613 165.3 123.613 159.24 131.653 159.24C139.573 159.24 145.753 165.3 145.753 174C145.753 182.28 140.473 188.76 131.653 188.76C123.793 188.76 117.613 182.4 117.613 174Z" fill="#CCCCCC"/>
<path d="M179.553 179.28H189.693V185.88C188.133 187.38 184.233 188.76 180.993 188.76C172.473 188.76 166.773 182.94 166.773 174C166.773 164.64 172.713 159.24 180.813 159.24C184.473 159.24 188.193 160.5 190.293 162.48L193.413 156.6C189.993 153.9 185.913 152.34 179.913 152.34C167.073 152.34 158.973 161.94 158.973 174C158.973 187.08 167.133 195.66 180.873 195.66C186.093 195.66 192.873 193.5 196.593 189.78V172.38H179.553V179.28Z" fill="#CCCCCC"/>
<path d="M206.587 195H213.967V153H206.587V195Z" fill="#CCCCCC"/>
<path d="M243.348 183.84C243.348 187.02 240.708 188.76 237.228 188.76C233.988 188.76 230.028 187.2 227.568 184.02L223.368 189.06C225.408 193.32 231.708 195.66 237.108 195.66C244.968 195.66 251.148 190.86 251.148 183.78C251.148 169.8 232.128 172.56 232.128 163.86C232.128 161.1 234.348 159.24 238.008 159.24C241.368 159.24 243.408 160.38 245.448 162.36L249.408 156.84C246.888 154.08 242.568 152.34 237.408 152.34C229.248 152.34 224.328 157.62 224.328 163.92C224.328 177.6 243.348 175.56 243.348 183.84Z" fill="#CCCCCC"/>
<path d="M254.432 159.9H268.052V195H275.432V159.9H289.052V153H254.432V159.9Z" fill="#CCCCCC"/>
<path d="M296.353 195H303.733V153H296.353V195Z" fill="#CCCCCC"/>
<path d="M345.414 185.4C342.534 187.62 338.994 188.76 335.454 188.76C326.874 188.76 320.934 182.76 320.934 174C320.934 164.88 326.814 159.24 334.614 159.24C338.814 159.24 341.574 160.38 344.094 162.06L347.394 156.6C344.634 154.08 340.074 152.34 334.614 152.34C320.754 152.34 313.134 161.94 313.134 174C313.134 187.08 321.954 195.66 334.794 195.66C340.254 195.66 345.594 193.74 348.234 190.92L345.414 185.4Z" fill="#CCCCCC"/>
<path d="M372.43 183.84C372.43 187.02 369.79 188.76 366.31 188.76C363.07 188.76 359.11 187.2 356.65 184.02L352.45 189.06C354.49 193.32 360.79 195.66 366.19 195.66C374.05 195.66 380.23 190.86 380.23 183.78C380.23 169.8 361.21 172.56 361.21 163.86C361.21 161.1 363.43 159.24 367.09 159.24C370.45 159.24 372.49 160.38 374.53 162.36L378.49 156.84C375.97 154.08 371.65 152.34 366.49 152.34C358.33 152.34 353.41 157.62 353.41 163.92C353.41 177.6 372.43 175.56 372.43 183.84Z" fill="#CCCCCC"/>
<path d="M102.92 257.83C104.15 258.61 106.43 259.33 108.65 259.33C113.39 259.33 116.36 256.48 116.36 252.04C116.36 248.05 113.96 245.17 109.94 245.17C108.5 245.17 107.21 245.68 106.37 246.34V238H102.92V257.83ZM109.13 248.41C111.08 248.41 112.67 249.7 112.67 252.28C112.67 254.71 110.99 256.12 108.83 256.12C107.87 256.12 107.12 255.91 106.37 255.43V249.7C106.94 249.04 107.93 248.41 109.13 248.41Z" fill="#CCCCCC"/>
<path d="M129.946 255.22C129.166 255.85 127.786 256.45 126.136 256.45C124.006 256.45 122.386 255.34 122.086 253.3H131.836C131.986 252.79 132.046 252.28 132.046 251.44C132.046 247.66 129.136 245.17 125.656 245.17C121.216 245.17 118.516 248.32 118.516 252.25C118.516 256.51 121.426 259.33 125.776 259.33C127.666 259.33 129.586 258.79 130.936 257.65L129.946 255.22ZM125.506 248.05C127.486 248.05 128.626 249.34 128.596 250.99H121.966C122.326 249.22 123.436 248.05 125.506 248.05Z" fill="#CCCCCC"/>
<path d="M141.664 255.19C141.664 256.03 140.884 256.45 139.894 256.45C138.544 256.45 136.504 255.64 135.694 254.77L134.014 257.02C134.644 257.98 137.164 259.33 139.654 259.33C142.954 259.33 145.114 257.68 145.114 255.01C145.114 250.24 137.824 251.47 137.824 249.22C137.824 248.62 138.454 248.05 139.504 248.05C140.944 248.05 142.354 248.71 143.164 249.34L144.454 246.88C143.614 246.1 141.934 245.17 139.324 245.17C136.534 245.17 134.374 246.64 134.374 249.28C134.374 254.2 141.664 253 141.664 255.19Z" fill="#CCCCCC"/>
<path d="M147.854 253.87C147.854 257.32 148.994 259.3 152.054 259.3C153.794 259.3 155.234 258.64 156.044 257.98L154.994 255.31C154.514 255.67 153.854 256.09 152.924 256.09C151.784 256.09 151.304 255.13 151.304 253.66V248.74H155.654V245.5H151.304V241.75H147.854V253.87Z" fill="#CCCCCC"/>
<path d="M166.372 248.98C167.362 248.53 168.352 248.05 169.912 248.05C171.922 248.05 172.522 249.28 172.432 251.53C171.772 251.05 170.572 250.66 169.372 250.66C166.642 250.66 164.452 252.07 164.452 255.04C164.452 257.65 166.222 259.18 168.682 259.18C170.512 259.18 171.952 258.46 172.672 257.44V259H175.672V250.78C175.672 247.21 174.262 245.17 170.272 245.17C168.502 245.17 166.672 245.77 165.502 246.46L166.372 248.98ZM169.822 256.27C168.742 256.27 167.902 255.7 167.902 254.68C167.902 253.54 168.922 253 170.062 253C171.052 253 171.832 253.21 172.432 253.66V255.04C172.012 255.64 171.262 256.27 169.822 256.27Z" fill="#CCCCCC"/>
<path d="M178.909 253.87C178.909 257.32 180.049 259.3 183.109 259.3C184.849 259.3 186.289 258.64 187.099 257.98L186.049 255.31C185.569 255.67 184.909 256.09 183.979 256.09C182.839 256.09 182.359 255.13 182.359 253.66V248.74H186.709V245.5H182.359V241.75H178.909V253.87Z" fill="#CCCCCC"/>
<path d="M209.397 245.5H205.467L203.037 252.85C202.797 253.54 202.677 254.2 202.557 254.83C202.347 254.17 202.167 253.54 201.897 252.88L198.747 245.5H194.607L200.847 259L200.547 259.72C199.977 261.13 199.347 261.82 198.477 261.82C197.937 261.82 197.427 261.55 197.067 261.34L195.957 263.95C196.737 264.52 197.637 265 198.867 265C200.847 265 202.107 263.83 204.087 259L209.397 245.5Z" fill="#CCCCCC"/>
<path d="M210.098 252.25C210.098 256.3 212.978 259.33 217.448 259.33C221.918 259.33 224.798 256.3 224.798 252.25C224.798 248.2 221.918 245.17 217.448 245.17C212.978 245.17 210.098 248.2 210.098 252.25ZM213.788 252.25C213.788 249.91 215.408 248.41 217.448 248.41C219.548 248.41 221.138 249.97 221.138 252.25C221.138 254.59 219.578 256.12 217.448 256.12C215.348 256.12 213.788 254.5 213.788 252.25Z" fill="#CCCCCC"/>
<path d="M239.993 245.5H236.543V254.47C235.763 255.49 234.653 256.12 233.513 256.12C231.623 256.12 230.933 254.83 230.933 253.03V245.5H227.483V253.75C227.483 257.62 229.583 259.33 232.223 259.33C234.323 259.33 235.733 258.34 236.543 257.35V259H239.993V245.5Z" fill="#CCCCCC"/>
<path d="M243.838 259H247.288V249.94C247.678 249.16 248.308 248.5 249.508 248.5C250.228 248.5 250.588 248.62 251.248 249.01L252.478 245.77C252.028 245.44 251.488 245.26 250.378 245.26C248.758 245.26 247.918 245.95 247.288 246.82V245.5H243.838V259Z" fill="#CCCCCC"/>
<path d="M267.641 255.19C267.641 256.03 266.861 256.45 265.871 256.45C264.521 256.45 262.481 255.64 261.671 254.77L259.991 257.02C260.621 257.98 263.141 259.33 265.631 259.33C268.931 259.33 271.091 257.68 271.091 255.01C271.091 250.24 263.801 251.47 263.801 249.22C263.801 248.62 264.431 248.05 265.481 248.05C266.921 248.05 268.331 248.71 269.141 249.34L270.431 246.88C269.591 246.1 267.911 245.17 265.301 245.17C262.511 245.17 260.351 246.64 260.351 249.28C260.351 254.2 267.641 253 267.641 255.19Z" fill="#CCCCCC"/>
<path d="M284.721 255.22C283.941 255.85 282.561 256.45 280.911 256.45C278.781 256.45 277.161 255.34 276.861 253.3H286.611C286.761 252.79 286.821 252.28 286.821 251.44C286.821 247.66 283.911 245.17 280.431 245.17C275.991 245.17 273.291 248.32 273.291 252.25C273.291 256.51 276.201 259.33 280.551 259.33C282.441 259.33 284.361 258.79 285.711 257.65L284.721 255.22ZM280.281 248.05C282.261 248.05 283.401 249.34 283.371 250.99H276.741C277.101 249.22 278.211 248.05 280.281 248.05Z" fill="#CCCCCC"/>
<path d="M289.6 259H293.05V249.94C293.44 249.16 294.07 248.5 295.27 248.5C295.99 248.5 296.35 248.62 297.01 249.01L298.24 245.77C297.79 245.44 297.25 245.26 296.14 245.26C294.52 245.26 293.68 245.95 293.05 246.82V245.5H289.6V259Z" fill="#CCCCCC"/>
<path d="M312.775 245.5H309.145L306.805 251.23C306.445 252.1 306.055 253.33 305.815 254.35C305.575 253.3 305.155 252.1 304.795 251.29L302.305 245.5H298.195L304.405 259.06H306.955L312.775 245.5Z" fill="#CCCCCC"/>
<path d="M315.158 259H318.609V245.5H315.158V259ZM314.799 240.64C314.799 242.02 315.788 242.8 316.958 242.8C317.949 242.8 318.939 242.02 318.939 240.64C318.939 239.41 317.949 238.63 316.958 238.63C315.788 238.63 314.799 239.41 314.799 240.64Z" fill="#CCCCCC"/>
<path d="M333.199 254.47C332.329 255.43 331.189 256.12 329.719 256.12C327.679 256.12 325.819 254.65 325.819 252.25C325.819 249.88 327.649 248.41 329.569 248.41C330.799 248.41 331.909 248.74 332.929 249.73L334.549 247C333.289 245.74 331.339 245.17 329.119 245.17C325.009 245.17 322.129 248.32 322.129 252.25C322.129 256.51 325.069 259.33 329.449 259.33C331.639 259.33 333.679 258.52 334.819 256.99L333.199 254.47Z" fill="#CCCCCC"/>
<path d="M347.446 255.22C346.666 255.85 345.286 256.45 343.636 256.45C341.506 256.45 339.886 255.34 339.586 253.3H349.336C349.486 252.79 349.546 252.28 349.546 251.44C349.546 247.66 346.636 245.17 343.156 245.17C338.716 245.17 336.016 248.32 336.016 252.25C336.016 256.51 338.926 259.33 343.276 259.33C345.166 259.33 347.086 258.79 348.436 257.65L347.446 255.22ZM343.006 248.05C344.986 248.05 346.126 249.34 346.096 250.99H339.466C339.826 249.22 340.936 248.05 343.006 248.05Z" fill="#CCCCCC"/>
<g clip-path="url(#clip0_221_70)">
<path d="M295.985 6.60314V6.59274C295.991 6.57055 295.995 6.54794 295.996 6.52515C295.996 6.50101 295.991 6.47708 295.983 6.45409V6.43849C295.982 6.43216 295.982 6.42576 295.983 6.41943C295.974 6.40298 295.963 6.38732 295.951 6.37263L292.42 2.16813C292.408 2.15407 292.395 2.14075 292.381 2.12827C292.362 2.1145 292.342 2.10286 292.32 2.0936L287.233 0.0225464C287.197 0.00729443 287.158 -0.00040129 287.118 1.61156e-05L276.311 1.61156e-05C276.27 0.000195212 276.23 0.0084695 276.192 0.0242795L271.357 2.09014C271.357 2.09014 271.357 2.09014 271.347 2.09014C271.33 2.09893 271.313 2.10939 271.298 2.12133H271.287C271.271 2.13493 271.257 2.14941 271.243 2.16466L268.051 6.37437C268.041 6.38614 268.033 6.39894 268.026 6.41249C268.022 6.42088 268.019 6.42958 268.017 6.43849C268.017 6.43849 268.017 6.44716 268.017 6.45236C268.009 6.4748 268.006 6.49818 268.006 6.52168V6.53381C268.008 6.55486 268.011 6.57572 268.017 6.5962C268.017 6.5962 268.017 6.5962 268.017 6.6066C268.025 6.62907 268.037 6.65015 268.053 6.66899L281.771 23.8943L281.789 23.9116C281.8 23.9223 281.812 23.9322 281.825 23.9411L281.848 23.955L281.893 23.974H281.916C281.939 23.981 281.963 23.9845 281.988 23.9844C282.013 23.9845 282.039 23.981 282.063 23.974H282.086L282.131 23.955L282.154 23.9411L282.19 23.9134L282.209 23.8943L295.924 6.67593C295.95 6.65555 295.97 6.63081 295.985 6.60314Z" fill="#B99522"/>
<path d="M271.529 2.65338L275.932 4.53726L274.691 9.01907L268.663 6.41768L271.529 2.65338Z" fill="#B99522"/>
<path d="M292.062 2.64648L295.233 6.42638L289.277 9.03297L287.434 4.53037L292.062 2.64648Z" fill="#B99522"/>
<path d="M286.876 4.65167L288.711 9.12828H275.246L276.483 4.65167H286.876Z" fill="#B99522"/>
<path d="M288.678 9.64819L281.957 23.1127L275.32 9.64819H288.678Z" fill="#B99522"/>
<path d="M274.666 9.58409L280.571 21.5616L269.122 7.19067L274.666 9.58409Z" fill="#B99522"/>
<path d="M289.336 9.58407L294.782 7.20105L283.38 21.5113L289.336 9.58407Z" fill="#B99522"/>
<path d="M276.327 0.519958L287.014 0.519958L291.451 2.32585L287.014 4.13174H276.327L272.103 2.32585L276.327 0.519958Z" fill="#B99522"/>
</g>
<defs>
<clipPath id="clip0_221_70">
<rect width="28" height="24" fill="white" transform="translate(268)"/>
</clipPath>
</defs>
</svg>
