<svg width="164" height="70" viewBox="0 0 164 70" fill="none" xmlns="http://www.w3.org/2000/svg">
<path d="M0 44.8592H19.909V37.9808H8.41646V32.085H18.5846V24.993H8.41646V19.7808H19.909V12.8169H0V44.8592Z" fill="#B99522"/>
<path d="M29.7533 12.8169H25.951V44.8592H34.4101V28.4536L42.8266 36.0583L51.2003 28.4108V44.8592H59.6595V12.8169H55.8572L42.8266 24.6939L29.7533 12.8169Z" fill="#B99522"/>
<path d="M74.5455 19.9089H79.7577C82.3211 19.9089 84.3718 21.9596 84.3718 24.523C84.3718 27.0864 82.3211 29.0944 79.7577 29.0944H74.5455V19.9089ZM66.1291 44.8592H74.5455V36.3573H79.8005C86.1662 36.3573 91.4212 31.0597 91.4212 24.6085C91.4212 18.1146 86.1235 12.8169 79.6296 12.8169H66.1291V44.8592Z" fill="#B99522"/>
<path d="M95.9174 44.8592H104.334V12.8169H95.9174V44.8592Z" fill="#B99522"/>
<path d="M139.054 44.8592L132.261 33.2386C134.568 31.1024 136.063 28.0263 136.063 24.6085C136.063 18.1146 130.766 12.8169 124.272 12.8169H110.771V44.8592H119.188V36.3573H124.4L129.356 44.8592H139.054ZM119.188 19.9089H124.4C126.963 19.9089 129.014 21.9596 129.014 24.523C129.014 27.0864 126.963 29.0944 124.4 29.0944H119.188V19.9089Z" fill="#B99522"/>
<path d="M143.189 44.8592H163.098V37.9808H151.606V32.085H161.774V24.993H151.606V19.7808H163.098V12.8169H143.189V44.8592Z" fill="#B99522"/>
<path d="M29.0874 69.4251H38.4438V66.9686H31.7149V54.472H29.0874V69.4251Z" fill="#CCCCCC"/>
<path d="M39.0537 61.9486C39.0537 66.6054 42.3861 69.6601 46.8294 69.6601C51.2726 69.6601 54.6263 66.4345 54.6263 61.9486C54.6263 57.2918 51.2726 54.2371 46.8294 54.2371C42.2366 54.2371 39.0537 57.6122 39.0537 61.9486ZM41.8307 61.9486C41.8307 58.8512 43.9669 56.6936 46.8294 56.6936C49.6491 56.6936 51.8493 58.8512 51.8493 61.9486C51.8493 64.8965 49.9695 67.2035 46.8294 67.2035C44.031 67.2035 41.8307 64.9392 41.8307 61.9486Z" fill="#CCCCCC"/>
<path d="M63.8831 63.8284H67.4932V66.1782C66.9378 66.7122 65.5493 67.2035 64.3957 67.2035C61.3624 67.2035 59.333 65.1315 59.333 61.9486C59.333 58.6162 61.4478 56.6936 64.3316 56.6936C65.6347 56.6936 66.9591 57.1422 67.7068 57.8472L68.8176 55.7537C67.6 54.7925 66.1474 54.2371 64.0112 54.2371C59.4398 54.2371 56.556 57.6549 56.556 61.9486C56.556 66.6054 59.4612 69.6601 64.353 69.6601C66.2115 69.6601 68.6253 68.8911 69.9497 67.5667V61.3718H63.8831V63.8284Z" fill="#CCCCCC"/>
<path d="M73.5078 69.4251H76.1352V54.472H73.5078V69.4251Z" fill="#CCCCCC"/>
<path d="M86.5956 65.4519C86.5956 66.584 85.6557 67.2035 84.4167 67.2035C83.2632 67.2035 81.8533 66.6481 80.9775 65.516L79.4822 67.3103C80.2085 68.827 82.4514 69.6601 84.374 69.6601C87.1723 69.6601 89.3726 67.9512 89.3726 65.4305C89.3726 60.4533 82.601 61.4359 82.601 58.3385C82.601 57.3558 83.3913 56.6936 84.6944 56.6936C85.8906 56.6936 86.6169 57.0995 87.3432 57.8044L88.7531 55.8392C87.8559 54.8565 86.3179 54.2371 84.4808 54.2371C81.5756 54.2371 79.824 56.1169 79.824 58.3598C79.824 63.2303 86.5956 62.504 86.5956 65.4519Z" fill="#CCCCCC"/>
<path d="M90.5418 56.9286H95.3909V69.4251H98.0183V56.9286H102.867V54.472H90.5418V56.9286Z" fill="#CCCCCC"/>
<path d="M105.467 69.4251H108.094V54.472H105.467V69.4251Z" fill="#CCCCCC"/>
<path d="M122.934 66.0073C121.908 66.7977 120.648 67.2035 119.388 67.2035C116.333 67.2035 114.218 65.0674 114.218 61.9486C114.218 58.7016 116.312 56.6936 119.089 56.6936C120.584 56.6936 121.566 57.0995 122.464 57.6976L123.639 55.7537C122.656 54.8565 121.032 54.2371 119.089 54.2371C114.154 54.2371 111.441 57.6549 111.441 61.9486C111.441 66.6054 114.581 69.6601 119.153 69.6601C121.097 69.6601 122.998 68.9765 123.938 67.9725L122.934 66.0073Z" fill="#CCCCCC"/>
<path d="M132.552 65.4519C132.552 66.584 131.612 67.2035 130.373 67.2035C129.22 67.2035 127.81 66.6481 126.934 65.516L125.439 67.3103C126.165 68.827 128.408 69.6601 130.331 69.6601C133.129 69.6601 135.329 67.9512 135.329 65.4305C135.329 60.4533 128.558 61.4359 128.558 58.3385C128.558 57.3558 129.348 56.6936 130.651 56.6936C131.847 56.6936 132.574 57.0995 133.3 57.8044L134.71 55.8392C133.812 54.8565 132.274 54.2371 130.437 54.2371C127.532 54.2371 125.781 56.1169 125.781 58.3598C125.781 63.2303 132.552 62.504 132.552 65.4519Z" fill="#CCCCCC"/>
<g clip-path="url(#clip0_27_1278)">
<path d="M105.336 2.35089V2.34719C105.338 2.33929 105.339 2.33124 105.34 2.32312C105.339 2.31453 105.338 2.30601 105.335 2.29782V2.29227C105.335 2.29002 105.335 2.28774 105.335 2.28548C105.332 2.27963 105.328 2.27405 105.323 2.26882L104.067 0.77191C104.062 0.766904 104.057 0.762163 104.052 0.757718C104.046 0.752816 104.039 0.748672 104.031 0.745378L102.22 0.00802712C102.207 0.00259701 102.193 -0.00014287 102.179 5.73757e-06L98.3313 5.73757e-06C98.3167 6.95005e-05 98.3022 0.00301536 98.289 0.00864415L96.5673 0.744143C96.5673 0.744143 96.5673 0.744143 96.564 0.744143C96.5577 0.747274 96.5519 0.750996 96.5465 0.75525H96.5424C96.5369 0.760092 96.5318 0.765244 96.527 0.770676L95.3904 2.26944C95.3869 2.27363 95.384 2.27819 95.3817 2.28302C95.3802 2.286 95.3791 2.2891 95.3783 2.29227C95.3783 2.29227 95.3783 2.29536 95.3783 2.29721C95.3756 2.3052 95.3742 2.31352 95.3743 2.32189V2.32621C95.375 2.3337 95.3763 2.34113 95.3783 2.34842C95.3783 2.34842 95.3783 2.34842 95.3783 2.35212C95.3812 2.36012 95.3855 2.36763 95.3911 2.37434L100.275 8.50699L100.282 8.51316C100.286 8.51698 100.29 8.52049 100.294 8.52365L100.302 8.52859L100.319 8.53538H100.327C100.335 8.53785 100.344 8.5391 100.352 8.53908C100.361 8.5391 100.37 8.53785 100.379 8.53538H100.387L100.403 8.52859L100.411 8.52365L100.424 8.51378L100.431 8.50699L105.314 2.3768C105.323 2.36955 105.33 2.36074 105.336 2.35089Z" fill="#B99522"/>
<path d="M96.6284 0.944702L98.196 1.61541L97.7542 3.21105L95.6082 2.28489L96.6284 0.944702Z" fill="#B99522"/>
<path d="M103.939 0.942261L105.068 2.288L102.947 3.21601L102.291 1.61297L103.939 0.942261Z" fill="#B99522"/>
<path d="M102.093 1.65613L102.746 3.24992H97.9519L98.3924 1.65613L102.093 1.65613Z" fill="#B99522"/>
<path d="M102.734 3.43506L100.341 8.22876L97.9783 3.43506H102.734Z" fill="#B99522"/>
<path d="M97.7456 3.41218L99.8479 7.67647L95.7717 2.56006L97.7456 3.41218Z" fill="#B99522"/>
<path d="M102.968 3.41214L104.907 2.56372L100.848 7.65853L102.968 3.41214Z" fill="#B99522"/>
<path d="M98.3368 0.185059L102.142 0.185059L103.722 0.828003L102.142 1.47095L98.3368 1.47095L96.833 0.828003L98.3368 0.185059Z" fill="#B99522"/>
</g>
<defs>
<clipPath id="clip0_27_1278">
<rect width="9.96873" height="8.54463" fill="white" transform="translate(95.3723)"/>
</clipPath>
</defs>
</svg>
